<?xml version="1.0" encoding="UTF-8"?>
<svg width="36px" height="21px" viewBox="0 0 36 21" version="1.1" xmlns="http://www.w3.org/2000/svg" xmlns:xlink="http://www.w3.org/1999/xlink">
    <!-- Generator: Sketch 61.2 (89653) - https://sketch.com -->
    <title>icon_bank</title>
    <desc>Created with Sketch.</desc>
    <g id="Page-1" stroke="none" stroke-width="1" fill="none" fill-rule="evenodd">
        <g id="icon_bank" transform="translate(2.000000, 1.000000)" fill="#FFFFFF" fill-rule="nonzero">
            <path d="M27,-1 L5,-1 C2.790861,-1 1,0.790861001 1,3 L1,16 C1,18.209139 2.790861,20 5,20 L27,20 C29.209139,20 31,18.209139 31,16 L31,3 C31,0.790861001 29.209139,-1 27,-1 Z M5,1 L27,1 C28.1045695,1 29,1.8954305 29,3 L29,16 C29,17.1045695 28.1045695,18 27,18 L5,18 C3.8954305,18 3,17.1045695 3,16 L3,3 C3,1.8954305 3.8954305,1 5,1 Z" id="Rectangle"></path>
            <path d="M33.243369,16 L-1.24336904,16 L-0.772134177,17.3332461 C-0.211745237,18.9187323 1.29127444,20 3,20 L29,20 C30.7087255,20 32.2117453,18.9187322 32.7721342,17.3332461 L33.243369,16 Z" id="Rectangle"></path>
            <path d="M27,-1 L5,-1 C2.790861,-1 1,0.790861001 1,3 L1,16 C1,18.209139 2.790861,20 5,20 L27,20 C29.209139,20 31,18.209139 31,16 L31,3 C31,0.790861001 29.209139,-1 27,-1 Z M5,1 L27,1 C28.1045695,1 29,1.8954305 29,3 L29,16 C29,17.1045695 28.1045695,18 27,18 L5,18 C3.8954305,18 3,17.1045695 3,16 L3,3 C3,1.8954305 3.8954305,1 5,1 Z" id="Rectangle"></path>
        </g>
    </g>
</svg>