<?xml version="1.0" encoding="UTF-8"?>
<svg width="20px" height="32px" viewBox="0 0 20 32" version="1.1" xmlns="http://www.w3.org/2000/svg" xmlns:xlink="http://www.w3.org/1999/xlink">
    <!-- Generator: Sketch 61.2 (89653) - https://sketch.com -->
    <title>icon_mobile</title>
    <desc>Created with Sketch.</desc>
    <g id="Page-1" stroke="none" stroke-width="1" fill="none" fill-rule="evenodd">
        <g id="icon_mobile" transform="translate(1.000000, 1.000000)" fill="#FFFFFF" fill-rule="nonzero">
            <path d="M15,-1 L3,-1 C0.790861001,-1 -1,0.790861001 -1,3 L-1,27 C-1,29.209139 0.790861001,31 3,31 L15,31 C17.209139,31 19,29.209139 19,27 L19,3 C19,0.790861001 17.209139,-1 15,-1 Z M3,1 L15,1 C16.1045695,1 17,1.8954305 17,3 L17,27 C17,28.1045695 16.1045695,29 15,29 L3,29 C1.8954305,29 1,28.1045695 1,27 L1,3 C1,1.8954305 1.8954305,1 3,1 Z" id="Rectangle"></path>
            <path d="M10,25 L8,25 C7.44771525,25 7,25.4477153 7,26 C7,26.5522847 7.44771525,27 8,27 L10,27 C10.5522847,27 11,26.5522847 11,26 C11,25.4477153 10.5522847,25 10,25 Z" id="Rectangle"></path>
        </g>
    </g>
</svg>