<?xml version="1.0" encoding="UTF-8"?>
<svg width="30px" height="21px" viewBox="0 0 30 21" version="1.1" xmlns="http://www.w3.org/2000/svg" xmlns:xlink="http://www.w3.org/1999/xlink">
    <!-- Generator: Sketch 61.2 (89653) - https://sketch.com -->
    <title>icon_credit</title>
    <desc>Created with Sketch.</desc>
    <g id="Page-1" stroke="none" stroke-width="1" fill="none" fill-rule="evenodd">
        <g id="icon_credit" transform="translate(1.000000, 1.000000)" fill="#FFFFFF" fill-rule="nonzero">
            <path d="M25,-1 L3,-1 C0.790861001,-1 -1,0.790861001 -1,3 L-1,16 C-1,18.209139 0.790861001,20 3,20 L25,20 C27.209139,20 29,18.209139 29,16 L29,3 C29,0.790861001 27.209139,-1 25,-1 Z M3,1 L25,1 C26.1045695,1 27,1.8954305 27,3 L27,16 C27,17.1045695 26.1045695,18 25,18 L3,18 C1.8954305,18 1,17.1045695 1,16 L1,3 C1,1.8954305 1.8954305,1 3,1 Z" id="Rectangle"></path>
            <path d="M28.5385544,0.400299277 L27.8707296,-0.65846563 L16.1213203,11.0918831 C14.9497442,12.2634592 13.0502492,12.2634526 11.8786514,11.0918548 L0.129270329,-0.65846563 L-0.538554457,0.400299335 C-0.839114498,0.876805222 -1,1.42956278 -1,2 L-1,17 C-1,18.6568542 0.34314575,20 2,20 L26,20 C27.6568542,20 29,18.6568542 29,17 L29,2 C29,1.42956275 28.8391145,0.876805165 28.5385544,0.400299277 Z M17.5355339,12.5060967 L27,3.039 L27,17 C27,17.5522848 26.5522848,18 26,18 L2,18 L1.88337887,17.9932723 C1.38604019,17.9355072 1,17.5128358 1,17 L1,3.039 L10.4644096,12.5060401 C12.417082,14.4587126 15.582907,14.4587235 17.5355339,12.5060967 Z" id="Combined-Shape"></path>
        </g>
    </g>
</svg>