<?xml version="1.0" encoding="utf-8"?>
<!-- Generator: Adobe Illustrator 27.1.1, SVG Export Plug-In . SVG Version: 6.00 Build 0)  -->
<svg version="1.1" id="Layer_1" xmlns="http://www.w3.org/2000/svg" xmlns:xlink="http://www.w3.org/1999/xlink" x="0px" y="0px"
	 viewBox="17 0 83 40" style="enable-background:new 0 0 100 40;" xml:space="preserve">
<style type="text/css">
	.st0{fill:#FFFFFF;filter:url(#Adobe_OpacityMaskFilter);}
	.st1{mask:url(#mask0_426_3244_00000134928193092356375920000013657003778921568182_);}
	.st2{fill-rule:evenodd;clip-rule:evenodd;fill:#484848;}
	.st3{fill:#FFFFFF;filter:url(#Adobe_OpacityMaskFilter_00000147178525057836395360000008915311569280484784_);}
	.st4{mask:url(#mask1_426_3244_00000001639790962042996590000005656027936119018135_);}
	.st5{fill-rule:evenodd;clip-rule:evenodd;fill:#FF6A10;}
	.st6{fill-rule:evenodd;clip-rule:evenodd;fill:#FFFFFF;}
	.st7{fill:#484848;}
</style>
<defs>
	<filter id="Adobe_OpacityMaskFilter" filterUnits="userSpaceOnUse" x="53.1" y="25.9" width="9.8" height="6.9">
		<feColorMatrix  type="matrix" values="1 0 0 0 0  0 1 0 0 0  0 0 1 0 0  0 0 0 1 0"/>
	</filter>
</defs>
<mask maskUnits="userSpaceOnUse" x="53.1" y="25.9" width="9.8" height="6.9" id="mask0_426_3244_00000134928193092356375920000013657003778921568182_">
	<path class="st0" d="M53.1,25.9h9.8v6.9h-9.8V25.9z"/>
</mask>
<g class="st1">
	<path class="st2" d="M57.7,30.3v-1.9c0-1.3-0.6-2.5-2.3-2.5c-1.7,0-2.3,1.2-2.3,2.5v1.9c0,1.2,0.6,2.5,2.3,2.5
		C57.1,32.7,57.7,31.5,57.7,30.3z M57.1,30.3c0,1-0.4,1.9-1.7,1.9c-1.3,0-1.7-0.9-1.7-1.9v-1.9c0-1.1,0.4-1.9,1.7-1.9
		c1.3,0,1.7,0.9,1.7,1.9V30.3z M62.9,28.2v-0.5c0-0.9-0.6-1.8-2.2-1.8h-1.8c-0.1,0-0.2,0-0.2,0.1c-0.1,0.1-0.1,0.1-0.1,0.2v6.2
		c0,0.2,0.1,0.3,0.3,0.3c0,0,0.1,0,0.1,0c0,0,0.1,0,0.1-0.1c0,0,0.1-0.1,0.1-0.1c0,0,0-0.1,0-0.1v-2.5h1.6
		C62.2,29.9,62.9,29.2,62.9,28.2z M62.3,28.2c0,0.6-0.5,1.2-1.5,1.2h-1.6v-2.8h1.5c1.2,0,1.6,0.7,1.6,1.2L62.3,28.2L62.3,28.2z"/>
</g>
<defs>
	
		<filter id="Adobe_OpacityMaskFilter_00000032640400138550962470000017329560998771722113_" filterUnits="userSpaceOnUse" x="37" y="22.7" width="12.9" height="13.3">
		<feColorMatrix  type="matrix" values="1 0 0 0 0  0 1 0 0 0  0 0 1 0 0  0 0 0 1 0"/>
	</filter>
</defs>
<mask maskUnits="userSpaceOnUse" x="37" y="22.7" width="12.9" height="13.3" id="mask1_426_3244_00000001639790962042996590000005656027936119018135_">
	<path style="fill:#FFFFFF;filter:url(#Adobe_OpacityMaskFilter_00000032640400138550962470000017329560998771722113_);" d="
		M37,22.7h12.9V36H37V22.7z"/>
</mask>
<g class="st4">
	<path class="st5" d="M43.4,22.7c-3.6,0-6.4,3-6.4,6.6s2.9,6.6,6.4,6.6c3.6,0,6.4-3,6.4-6.6S47,22.7,43.4,22.7"/>
</g>
<path class="st6" d="M48.4,29.4c0-0.4-0.1-0.8-0.2-1.1c-0.1-0.3-0.4-0.7-0.6-0.9c-0.3-0.3-0.6-0.5-0.9-0.6c-0.3-0.1-0.7-0.2-1.1-0.2
	c-0.6,0-1.1,0.2-1.5,0.5v-2.7h-1.3V27c-0.5-0.3-1-0.5-1.5-0.5c-0.4,0-0.7,0.1-1.1,0.2c-0.3,0.1-0.7,0.4-0.9,0.6
	c-0.3,0.3-0.5,0.6-0.6,0.9c-0.1,0.3-0.2,0.7-0.2,1.1c0,0.4,0.1,0.8,0.2,1.1s0.3,0.7,0.6,0.9c0.3,0.3,0.6,0.5,0.9,0.6
	c0.3,0.1,0.7,0.2,1.1,0.2c0.6,0,1.1-0.2,1.5-0.5v2.7H44v-2.7c0.4,0.3,1,0.5,1.5,0.5c0.4,0,0.7-0.1,1.1-0.2c0.3-0.1,0.7-0.4,0.9-0.6
	c0.3-0.3,0.5-0.6,0.6-0.9S48.4,29.7,48.4,29.4z M42.8,29.4c0,0.9-0.7,1.6-1.5,1.6c-0.2,0-0.4,0-0.6-0.1c-0.2-0.1-0.4-0.2-0.5-0.3
	c-0.1-0.1-0.3-0.3-0.3-0.5c-0.1-0.2-0.1-0.4-0.1-0.6c0-0.9,0.7-1.6,1.5-1.6C42.1,27.8,42.8,28.5,42.8,29.4z M47.1,29.4
	c0,0.9-0.7,1.6-1.5,1.6c-0.2,0-0.4,0-0.6-0.1c-0.2-0.1-0.4-0.2-0.5-0.3c-0.1-0.1-0.3-0.3-0.3-0.5c-0.1-0.2-0.1-0.4-0.1-0.6
	c0-0.9,0.7-1.6,1.5-1.6C46.4,27.8,47.1,28.5,47.1,29.4z"/>
<path class="st7" d="M26,13.3c0,2.4-1.1,4.9-4.4,4.9c-3.3,0-4.4-2.4-4.4-4.9V9.6c0-2.4,1.1-4.9,4.4-4.9c3.3,0,4.4,2.4,4.4,4.9V13.3z
	 M24.8,13.3V9.6c0-2.1-0.8-3.8-3.2-3.8c-2.4,0-3.2,1.7-3.2,3.8v3.7c0,2.1,0.8,3.8,3.2,3.8C24,17.1,24.8,15.4,24.8,13.3z M36.5,9.3
	c0,2-1.5,3.4-4,3.4h-3.1v4.9c0,0.3-0.3,0.6-0.6,0.6c-0.3,0-0.6-0.3-0.6-0.6V5.5c0-0.3,0.3-0.6,0.6-0.6h3.5c3.1,0,4.2,1.8,4.2,3.5
	V9.3z M35.3,9.2V8.4c0-1.1-0.7-2.4-3-2.4h-2.8v5.5h3C34.4,11.5,35.3,10.5,35.3,9.2z M50.5,17.4c0,0.3-0.3,0.6-0.6,0.6h-6.5
	c-0.3,0-0.6-0.3-0.6-0.6V5.3c0-0.3,0.3-0.6,0.6-0.6c0.3,0,0.6,0.3,0.6,0.6v11.5h5.9C50.2,16.8,50.5,17.1,50.5,17.4z M58.2,17.6
	c0,0.3-0.3,0.5-0.6,0.5c-0.3,0-0.5-0.1-0.8-0.3c-0.2-0.2-0.3-0.4-0.4-0.7c-0.6,0.8-1.7,1-2.5,1c-2.3,0-3.1-1.2-3.1-2.6v-0.1
	c0-1.4,0.9-2.5,3.2-2.5h2.3v-0.5c0-1.6-0.4-2.4-2.1-2.4c-0.6,0-1.1,0.1-1.4,0.2c-0.4,0.2-0.6,0.3-0.8,0.3c-0.3,0-0.5-0.2-0.5-0.5
	c0-0.3,0.3-0.5,0.8-0.7c0.6-0.2,1.3-0.3,2-0.3c2.5,0,3.2,1.3,3.2,3.5V16c0,0.8,0.1,1,0.5,1.2C58.1,17.2,58.2,17.4,58.2,17.6z
	 M56.2,15v-1.2H54c-1.7,0-2.1,0.8-2.1,1.6v0.1c0,0.8,0.4,1.6,2.1,1.6C55.4,17.1,56.2,16.4,56.2,15z M65.2,15.4
	c0,1.7-1.3,2.7-3.3,2.7c-1.1,0-1.8-0.1-2.5-0.4c-0.3-0.1-0.4-0.4-0.3-0.7c0.1-0.3,0.4-0.4,0.7-0.3c0.6,0.2,1.2,0.3,2.2,0.3
	c1.5,0,2.1-0.7,2.1-1.6c0-1.2-1.3-1.3-2.6-1.6c-1.2-0.3-2.4-0.7-2.4-2.4c0-1.6,1.2-2.6,3-2.6c0.9,0,1.6,0.1,2.2,0.4
	c0.3,0.1,0.4,0.4,0.3,0.7c-0.1,0.2-0.4,0.4-0.7,0.3c-0.6-0.2-1.1-0.3-1.8-0.3c-1.2,0-1.9,0.6-1.9,1.5c0,1.1,1.1,1.3,2.3,1.5
	C63.8,13.2,65.2,13.6,65.2,15.4z M73.1,17.3c0.2,0.4-0.1,0.8-0.5,0.8c-0.2,0-0.4-0.1-0.5-0.3c-0.8-1.5-1.8-3.1-2.8-4.4l-1.4,1.4v2.8
	c0,0.3-0.3,0.6-0.6,0.6c-0.3,0-0.6-0.3-0.6-0.6v-12C66.7,5.2,67,5,67.3,5c0.3,0,0.6,0.3,0.6,0.6v7.8L72,9.1c0.2-0.2,0.5-0.2,0.8,0
	c0.2,0.2,0.2,0.5,0,0.7l-2.7,2.7C71.2,14,72.2,15.7,73.1,17.3z M81.7,17.6c0,0.3-0.3,0.5-0.6,0.5c-0.2,0-0.6-0.1-0.9-0.4
	c-0.2-0.2-0.4-0.5-0.4-0.7c-0.6,0.7-1.5,1.1-2.8,1.1c-2.3,0-2.9-1.4-2.9-3.2V9.5c0-0.3,0.3-0.6,0.6-0.6c0.3,0,0.6,0.2,0.6,0.6v5.3
	c0,1.4,0.4,2.2,1.9,2.2c1.3,0,2.1-0.6,2.5-1.4v-6c0-0.3,0.3-0.6,0.6-0.6c0.3,0,0.6,0.3,0.6,0.6V16c0,0.8,0.2,1,0.6,1.2
	C81.6,17.2,81.7,17.4,81.7,17.6z"/>
</svg>
