<?xml version="1.0" encoding="UTF-8"?>
<svg width="30px" height="20px" viewBox="0 0 30 20" version="1.1" xmlns="http://www.w3.org/2000/svg" xmlns:xlink="http://www.w3.org/1999/xlink">
    <!-- Generator: Sketch 61.2 (89653) - https://sketch.com -->
    <title>icon_creditcard</title>
    <desc>Created with Sketch.</desc>
    <g id="Page-1" stroke="none" stroke-width="1" fill="none" fill-rule="evenodd">
        <g id="icon_creditcard" transform="translate(1.000000, 1.000000)" fill="#FFFFFF" fill-rule="nonzero">
            <path d="M25,-1 L3,-1 C0.790861001,-1 -1,0.790861001 -1,3 L-1,15 C-1,17.209139 0.790861001,19 3,19 L25,19 C27.209139,19 29,17.209139 29,15 L29,3 C29,0.790861001 27.209139,-1 25,-1 Z M3,1 L25,1 C26.1045695,1 27,1.8954305 27,3 L27,15 C27,16.1045695 26.1045695,17 25,17 L3,17 C1.8954305,17 1,16.1045695 1,15 L1,3 C1,1.8954305 1.8954305,1 3,1 Z" id="Rectangle"></path>
            <polygon id="Line" points="29 3 29 7 0 7 0 3"></polygon>
        </g>
    </g>
</svg>