<svg width="16" height="16" viewBox="0 0 16 16" fill="none" xmlns="http://www.w3.org/2000/svg">
<g clip-path="url(#clip0_10_4615)">
<path d="M8 0C5.87827 0 3.84344 0.842855 2.34315 2.34315C0.842855 3.84344 0 5.87827 0 8C0 10.1217 0.842855 12.1566 2.34315 13.6569C3.84344 15.1571 5.87827 16 8 16C10.1217 16 12.1566 15.1571 13.6569 13.6569C15.1571 12.1566 16 10.1217 16 8C16 5.87827 15.1571 3.84344 13.6569 2.34315C12.1566 0.842855 10.1217 0 8 0Z" fill="#FF6A10"/>
<path d="M8.80001 14.24H7.20001V10.944C6.65601 11.296 5.98401 11.52 5.28001 11.52C3.32801 11.52 1.76001 9.95201 1.76001 8.00001C1.76001 6.04801 3.32801 4.48001 5.28001 4.48001C5.98401 4.48001 6.65601 4.70401 7.20001 5.05601V1.76001H8.80001V5.05601C9.34401 4.70401 10.016 4.48001 10.72 4.48001C12.672 4.48001 14.24 6.04801 14.24 8.00001C14.24 9.95201 12.672 11.52 10.72 11.52C10.016 11.52 9.34401 11.296 8.80001 10.944V14.24ZM10.72 6.08001C9.66401 6.08001 8.80001 6.94401 8.80001 8.00001C8.80001 9.05601 9.66401 9.92001 10.72 9.92001C11.776 9.92001 12.64 9.05601 12.64 8.00001C12.64 6.94401 11.776 6.08001 10.72 6.08001ZM5.28001 6.08001C4.22401 6.08001 3.36001 6.94401 3.36001 8.00001C3.36001 9.05601 4.22401 9.92001 5.28001 9.92001C6.33601 9.92001 7.20001 9.05601 7.20001 8.00001C7.20001 6.94401 6.33601 6.08001 5.28001 6.08001Z" fill="white"/>
</g>
<defs>
<clipPath id="clip0_10_4615">
<rect width="16" height="16" fill="white"/>
</clipPath>
</defs>
</svg>
