<?xml version="1.0" standalone="no"?>
<!DOCTYPE svg PUBLIC "-//W3C//DTD SVG 1.1//EN" "http://www.w3.org/Graphics/SVG/1.1/DTD/svg11.dtd" >
<svg xmlns="http://www.w3.org/2000/svg">
<metadata></metadata>
<defs>
<font id="op_chevin_probold" horiz-adv-x="1327" >
<font-face units-per-em="2048" ascent="1536" descent="-512" />
<missing-glyph horiz-adv-x="630" />
<glyph unicode="fi" horiz-adv-x="1175" d="M23 952q0 47 33 80t79 33h31v92q0 68 17.5 127t53.5 109t101 79t151 29h78q50 0 84.5 -35.5t34.5 -83.5q0 -51 -34 -86.5t-85 -35.5h-22q-59 0 -81 -29t-22 -98v-68h93q46 0 79 -33t33 -80t-33 -80.5t-79 -33.5h-93v-713q0 -57 -40.5 -97t-98.5 -40q-57 0 -97 40t-40 97 v713h-31q-46 0 -79 33.5t-33 80.5zM743 1376q0 66 45.5 112t110.5 46t111.5 -46t46.5 -112q0 -64 -46.5 -109.5t-111.5 -45.5t-110.5 45.5t-45.5 109.5zM754 125v813q0 57 40 98t97 41q58 0 98.5 -41t40.5 -98v-813q0 -57 -40.5 -97t-98.5 -40q-57 0 -97 40t-40 97z" />
<glyph unicode="fl" horiz-adv-x="1185" d="M23 952q0 47 33 80t79 33h31v92q0 68 17.5 127t53.5 109t101 79t151 29h78q50 0 84.5 -35.5t34.5 -83.5q0 -51 -34 -86.5t-85 -35.5h-22q-59 0 -81 -29t-22 -98v-68h93q46 0 79 -33t33 -80t-33 -80.5t-79 -33.5h-93v-713q0 -57 -40.5 -97t-98.5 -40q-57 0 -97 40t-40 97 v713h-31q-46 0 -79 33.5t-33 80.5zM748 274v1072q0 57 39.5 97t97.5 40q57 0 97 -40t40 -97v-1049q0 -25 3.5 -42.5t15.5 -32.5t17 -19.5t25 -20.5q39 -31 39 -82q0 -112 -139 -112q-72 0 -129 45q-106 78 -106 241z" />
<glyph unicode=" "  horiz-adv-x="630" />
<glyph unicode="&#x09;" horiz-adv-x="630" />
<glyph unicode="&#xa0;" horiz-adv-x="630" />
<glyph unicode="!" horiz-adv-x="643" d="M152 160q0 75 52 127.5t126 52.5q75 0 127.5 -52.5t52.5 -127.5q0 -74 -52.5 -126t-127.5 -52q-74 0 -126 52t-52 126zM190 1356q-3 66 34.5 110.5t105.5 44.5q70 0 108 -44.5t35 -110.5l-33 -750q-3 -68 -27.5 -100.5t-82.5 -32.5q-55 0 -79.5 32.5t-29.5 100.5z" />
<glyph unicode="&#x22;" horiz-adv-x="858" d="M76 1362q-6 62 26.5 105.5t100.5 43.5q67 0 100 -44t27 -105l-25 -225q-8 -62 -30 -90.5t-72 -28.5q-51 0 -73 28t-30 91zM500 1362q-6 61 27.5 105t101.5 44q67 0 99 -44t26 -105l-25 -225q-6 -62 -28 -90.5t-72 -28.5q-52 0 -74.5 28.5t-30.5 90.5z" />
<glyph unicode="#" horiz-adv-x="1490" d="M37 459q0 53 36.5 90t90.5 37h153l50 319h-115q-54 0 -90.5 37.5t-36.5 91.5q0 53 36.5 89t90.5 36h154l36 246q7 51 50 81.5t94 22.5q52 -9 82 -50.5t22 -92.5l-31 -207h293l37 246q7 51 50 81.5t94 22.5q52 -9 83 -50.5t23 -92.5l-33 -207h115q53 0 90 -36.5t37 -88.5 q0 -54 -37 -91.5t-90 -37.5h-154l-49 -319h115q54 0 90.5 -37t36.5 -90q0 -54 -36.5 -91.5t-90.5 -37.5h-154l-35 -244q-9 -51 -51 -81t-94 -21q-51 7 -81.5 49.5t-22.5 93.5l32 203h-292l-37 -244q-7 -51 -50 -81t-96 -21q-51 7 -81.5 49.5t-22.5 93.5l31 203h-115 q-53 0 -90 37.5t-37 91.5zM571 586h295l47 319h-292z" />
<glyph unicode="$" horiz-adv-x="1146" d="M57 168q0 55 33.5 94t87.5 39q24 0 75.5 -18.5t86.5 -26.5q75 -20 172 -20q150 0 222.5 52t72.5 146q0 67 -42 104.5t-159 69.5q-28 8 -109.5 27t-145 38.5t-105.5 43.5q-178 99 -178 323q0 186 105.5 304.5t277.5 152.5v113q0 45 31.5 76.5t76.5 31.5q44 0 76.5 -32 t32.5 -76v-103q139 -3 243 -43q48 -17 72.5 -51t24.5 -76q0 -54 -34.5 -93.5t-94.5 -39.5q-21 0 -66 14.5t-72 20.5q-61 14 -141 14q-120 0 -185 -46t-65 -130q0 -75 44.5 -110.5t156.5 -65.5q22 -5 91.5 -20t108.5 -24.5t91.5 -27.5t83.5 -38q164 -104 164 -326 q0 -201 -114 -322t-308 -151v-109q0 -45 -32 -76.5t-77 -31.5q-46 0 -77 31t-31 77v101q-171 6 -299 55q-47 16 -71 51.5t-24 77.5z" />
<glyph unicode="%" horiz-adv-x="1226" d="M106 1157v125q0 109 69 169t171 60q100 0 168 -60t68 -169v-125q0 -110 -68 -170.5t-168 -60.5q-103 0 -171.5 60.5t-68.5 170.5zM272 1153q0 -40 19.5 -61t54.5 -21q32 0 52 21t20 61v129q0 41 -20 61.5t-52 20.5q-74 0 -74 -82v-129zM283 88l508 1372q12 31 42 44t62 1 q29 -10 42.5 -40.5t2.5 -59.5l-510 -1372q-10 -32 -39.5 -45t-60.5 -2q-31 12 -44.5 41.5t-2.5 60.5zM643 211v125q0 110 68.5 170.5t169.5 60.5q102 0 170.5 -60.5t68.5 -170.5v-125q0 -109 -68.5 -169t-170.5 -60q-101 0 -169.5 60t-68.5 169zM809 209q0 -41 20 -61.5 t52 -20.5q73 0 73 82v129q0 82 -73 82q-32 0 -52 -21t-20 -61v-129z" />
<glyph unicode="&#x26;" horiz-adv-x="1300" d="M100 412q0 75 23.5 141.5t66 120t87.5 93t104 79.5q-131 175 -131 323q0 71 22.5 129.5t59.5 97.5t88 65.5t105.5 38t113.5 11.5q152 0 246 -55q58 -32 91.5 -79.5t33.5 -98.5q0 -56 -37.5 -93.5t-89.5 -37.5q-36 0 -66 20q-7 7 -24.5 21.5t-20.5 17.5q-70 66 -131 66 q-44 0 -77.5 -31t-33.5 -88q0 -64 91 -180l325 -420q27 67 33 137q8 51 44 84t85 33q54 0 92.5 -37.5t38.5 -91.5q-2 -63 -34.5 -167t-82.5 -185l97 -125q30 -47 30 -86q0 -55 -38.5 -94t-94.5 -39q-66 0 -108 55l-66 86q-171 -141 -401 -141q-108 0 -194.5 36t-139 96.5 t-80 136.5t-27.5 161zM365 422q0 -90 53.5 -141.5t140.5 -51.5q125 0 229 93l-253 329q-170 -100 -170 -229z" />
<glyph unicode="'" horiz-adv-x="458" d="M104 1362q-8 61 25 105t100 44t100 -44t25 -105l-22 -225q-6 -62 -28.5 -90.5t-74.5 -28.5q-50 0 -73 28.5t-29 90.5z" />
<glyph unicode="(" horiz-adv-x="698" d="M86 657q0 262 59 512t191 453q43 68 113 68q56 0 94.5 -39.5t38.5 -100.5q0 -51 -25 -100q-188 -354 -188 -793t188 -790q25 -49 25 -100q0 -61 -38.5 -100.5t-94.5 -39.5q-70 0 -113 68q-132 202 -191 451.5t-59 510.5z" />
<glyph unicode=")" horiz-adv-x="698" d="M117 -233q0 55 26 100q189 348 189 790q0 443 -189 793q-26 46 -26 100q0 61 39.5 100.5t95.5 39.5q67 0 113 -68q247 -384 247 -965q0 -261 -58 -511t-189 -451q-46 -68 -113 -68q-56 0 -95.5 39.5t-39.5 100.5z" />
<glyph unicode="*" horiz-adv-x="995" d="M100 1221q16 51 58.5 66t81.5 -7l178 -78l-19 193q-6 47 20 81.5t79 34.5q52 0 77.5 -34t20.5 -82l-21 -193l179 78q29 11 56 11.5t50 -18t33 -52.5q18 -50 -7 -84.5t-71 -42.5l-190 -43l131 -144q31 -32 30 -76t-43 -75q-46 -29 -85 -17.5t-62 52.5l-98 167l-99 -167 q-23 -41 -62 -52.5t-85 17.5q-28 21 -37.5 48.5t-2 53.5t27.5 49l129 144l-189 43q-47 8 -71.5 42.5t-8.5 84.5z" />
<glyph unicode="+" horiz-adv-x="1189" d="M131 584q0 52 37.5 89.5t89.5 37.5h211v209q0 53 36.5 90t88.5 37q54 0 91.5 -37t37.5 -90v-209h209q52 0 89.5 -37.5t37.5 -89.5t-37.5 -89.5t-89.5 -37.5h-209v-211q0 -53 -37.5 -90t-91.5 -37q-52 0 -88.5 37t-36.5 90v211h-211q-52 0 -89.5 37.5t-37.5 89.5z" />
<glyph unicode="," horiz-adv-x="606" d="M125 158q0 76 53.5 130t130.5 54q84 0 134.5 -63.5t50.5 -161.5q0 -84 -24.5 -158t-60.5 -121.5t-77.5 -82.5t-75.5 -50.5t-55 -15.5q-28 0 -47 15t-19 46q0 22 13 40.5t33.5 33.5t41 32.5t39 47.5t25.5 69q-68 8 -115 61t-47 124z" />
<glyph unicode="-" horiz-adv-x="1042" d="M123 602q0 52 36.5 88.5t90.5 36.5h543q52 0 89.5 -37t37.5 -88q0 -52 -37 -89.5t-90 -37.5h-543q-54 0 -90.5 37t-36.5 90z" />
<glyph unicode="." horiz-adv-x="610" d="M125 160q0 75 52.5 127.5t127.5 52.5q74 0 127 -52.5t53 -127.5q0 -73 -53 -125.5t-127 -52.5q-75 0 -127.5 52t-52.5 126z" />
<glyph unicode="/" horiz-adv-x="733" d="M0 8l498 1553q15 50 61 73t98 8q50 -17 73.5 -63.5t6.5 -95.5l-497 -1555q-15 -50 -62 -73.5t-96 -6.5q-51 17 -74 63t-8 97z" />
<glyph unicode="0" horiz-adv-x="1146" d="M82 516v461q0 151 55.5 271t168.5 191.5t267 71.5t267 -71.5t169 -191.5t56 -271v-461q0 -152 -56 -272t-169 -191t-267 -71t-267 71.5t-168.5 191t-55.5 271.5zM365 508q0 -135 55.5 -202.5t152.5 -67.5t153 67.5t56 202.5v475q0 135 -56.5 202.5t-152.5 67.5 q-97 0 -152.5 -68t-55.5 -202v-475z" />
<glyph unicode="1" horiz-adv-x="1146" d="M64 1100q12 55 59 86l452 299q44 26 84 26q57 0 99.5 -41.5t42.5 -99.5v-1104h149q55 0 94 -38.5t39 -92.5q0 -57 -38.5 -96t-94.5 -39h-721q-56 0 -94.5 39t-38.5 96q0 54 39 92.5t94 38.5h289v862l-250 -167q-45 -30 -100.5 -18.5t-85.5 58.5q-30 44 -18 99z" />
<glyph unicode="2" horiz-adv-x="1146" d="M96 135q0 157 60.5 268t171.5 207q46 41 115 91.5t117.5 87t96 80t72.5 92.5t25 104q0 79 -48 134.5t-145 55.5q-100 0 -182 -47q-15 -9 -37.5 -24t-35 -22.5t-31 -14t-37.5 -6.5q-54 0 -94 38.5t-40 94.5q0 64 50 104q168 133 417 133q97 0 177 -27t132.5 -71 t88.5 -102.5t51.5 -120t15.5 -125.5q0 -88 -29 -163t-77 -131t-107 -105t-123 -94t-121 -89t-105 -99.5t-71 -115.5h498q57 0 96 -38.5t39 -94.5q0 -57 -39.5 -96t-95.5 -39h-670q-61 0 -98 37.5t-37 97.5z" />
<glyph unicode="3" horiz-adv-x="1146" d="M96 197q0 52 33.5 87t83.5 35q16 0 33.5 -7t29.5 -14.5t43 -27.5q71 -43 173 -43q106 0 167.5 58.5t61.5 158.5q0 199 -234 199q-143 0 -143 121q0 64 44.5 92.5t105.5 28.5q233 4 233 182q0 84 -47.5 139.5t-151.5 55.5q-95 0 -176 -50q-8 -5 -22.5 -14.5t-22.5 -14 t-20 -10t-23.5 -8t-25.5 -2.5q-45 0 -79 31.5t-34 87.5q0 73 72 125q49 44 138 74t206 30q94 0 171 -25.5t126.5 -66.5t83 -95t47.5 -108t14 -108q0 -249 -221 -336q244 -85 244 -362q0 -83 -31.5 -158.5t-92 -136.5t-158.5 -97t-220 -36q-244 0 -359 112q-49 46 -49 103z " />
<glyph unicode="4" horiz-adv-x="1146" d="M59 377q0 27 17 65l416 985q23 54 76 75.5t106 -1.5q52 -22 74 -76t0 -108l-345 -809h230v166q0 57 40 97t97 40t97 -40t40 -97v-166h54q53 0 89.5 -38t36.5 -93q0 -54 -37 -92.5t-89 -38.5h-54v-127q0 -57 -40 -97t-97 -40t-97 40t-40 97v127h-445q-54 0 -91.5 37 t-37.5 94z" />
<glyph unicode="5" horiz-adv-x="1146" d="M127 186q0 54 36.5 95t90.5 41q40 0 78 -25q92 -66 196 -66q110 0 160.5 66.5t50.5 175.5q0 115 -49.5 171t-126.5 56q-50 0 -83.5 -14t-69.5 -41q-7 -5 -22 -16.5t-21.5 -15.5t-18.5 -10.5t-23 -8.5t-24 -2q-59 0 -97.5 38t-35.5 101l20 631q3 57 44 94t92 37h497 q54 0 92.5 -39.5t38.5 -95.5q0 -54 -38.5 -93.5t-92.5 -39.5h-377l-12 -316q76 31 156 31q199 0 316.5 -124t117.5 -343q0 -77 -18 -147.5t-57 -133.5t-96 -109.5t-140 -73.5t-183 -27q-202 0 -331 84q-70 47 -70 120z" />
<glyph unicode="6" horiz-adv-x="1146" d="M90 545q0 125 38 255.5t104.5 249t144 221.5t168.5 195q45 45 100 45q61 0 101 -42t40 -99q0 -53 -43 -96q-176 -176 -270 -377q61 23 121 23q93 0 174.5 -28.5t146.5 -83.5t102.5 -144t37.5 -201q0 -220 -137 -350.5t-355 -130.5q-113 0 -204 45t-149 123t-89 179 t-31 216zM373 545q0 -157 57.5 -232t138.5 -75q102 0 152.5 58t50.5 159t-53.5 161t-155.5 60q-98 0 -186 -62q-4 -46 -4 -69z" />
<glyph unicode="7" horiz-adv-x="1146" d="M68 1358q0 56 39 95.5t96 39.5h719q55 0 94 -39.5t39 -95.5q0 -35 -15 -72l-469 -1214q-22 -54 -75 -78t-107 -4q-54 22 -78 75.5t-4 108.5l422 1051h-526q-57 0 -96 39.5t-39 93.5z" />
<glyph unicode="8" horiz-adv-x="1146" d="M72 397q0 122 64 211t192 162q-191 126 -191 344q0 186 118.5 291.5t313.5 105.5t312.5 -106.5t117.5 -276.5q0 -91 -41 -168t-145 -149q60 -33 103 -67t81.5 -82.5t58 -114t19.5 -146.5q0 -87 -32.5 -162.5t-94 -133t-157 -90.5t-213.5 -33q-244 0 -375 113t-131 302z M354 432q0 -95 60.5 -148t154.5 -53q100 0 162 53t62 140q0 37 -13.5 68t-32 52t-55.5 43.5t-64.5 35.5t-78.5 34q-195 -91 -195 -225zM410 1100q0 -71 47.5 -115.5t136.5 -81.5q139 79 139 191q0 82 -44.5 127t-115.5 45q-73 0 -118 -45t-45 -121z" />
<glyph unicode="9" horiz-adv-x="1146" d="M94 1030q0 220 137 350.5t355 130.5q91 0 168 -29.5t132.5 -81.5t95 -123t58.5 -155t19 -176q0 -124 -38 -254.5t-104.5 -249t-144 -222t-168.5 -195.5q-43 -43 -98 -43q-63 0 -103.5 41t-40.5 98q0 52 44 96q174 174 270 379q-58 -25 -121 -25q-92 0 -174 29t-147 84 t-102.5 144.5t-37.5 201.5zM377 1036q0 -100 54 -159.5t155 -59.5q104 0 186 62q4 46 4 67q0 158 -57.5 232.5t-138.5 74.5q-102 0 -152.5 -57.5t-50.5 -159.5z" />
<glyph unicode=":" horiz-adv-x="610" d="M125 160q0 75 52.5 127.5t127.5 52.5q74 0 127 -52.5t53 -127.5q0 -73 -53 -125.5t-127 -52.5q-75 0 -127.5 52t-52.5 126zM125 895q0 75 52.5 127.5t127.5 52.5q74 0 127 -52.5t53 -127.5q0 -73 -53 -125.5t-127 -52.5q-75 0 -127.5 52t-52.5 126z" />
<glyph unicode=";" horiz-adv-x="610" d="M125 158q0 76 54.5 130t129.5 54q84 0 134.5 -63.5t50.5 -161.5q0 -84 -24 -158t-60 -121.5t-77.5 -82.5t-75.5 -50.5t-56 -15.5q-28 0 -47 15t-19 46q0 22 13 40.5t33.5 33.5t41.5 32.5t40 47.5t26 69q-69 8 -116.5 60.5t-47.5 124.5zM125 895q0 75 52.5 127.5 t127.5 52.5q74 0 127 -52.5t53 -127.5q0 -73 -53 -125.5t-127 -52.5q-75 0 -127.5 52t-52.5 126z" />
<glyph unicode="&#x3c;" horiz-adv-x="1206" d="M135 561q0 32 17.5 61t46.5 44l696 350q44 21 90.5 7t69.5 -56q23 -43 9 -90t-56 -70l-504 -246l504 -246q43 -22 56.5 -69t-9.5 -90q-24 -42 -69.5 -56t-90.5 9l-696 348q-64 38 -64 104z" />
<glyph unicode="=" horiz-adv-x="1167" d="M121 358q0 52 37.5 89.5t89.5 37.5h674q52 0 89.5 -37.5t37.5 -89.5q0 -54 -37 -90.5t-90 -36.5h-674q-53 0 -90 36.5t-37 90.5zM121 846q0 52 37.5 89.5t89.5 37.5h674q52 0 89.5 -37.5t37.5 -89.5t-37.5 -89.5t-89.5 -37.5h-674q-52 0 -89.5 37.5t-37.5 89.5z" />
<glyph unicode="&#x3e;" horiz-adv-x="1206" d="M142.5 246q13.5 47 56.5 69l503 246l-503 246q-42 20 -56.5 68.5t9.5 91.5q23 42 69 56t90 -7l697 -350q29 -15 46 -43.5t17 -61.5q0 -67 -63 -104l-697 -348q-46 -21 -91 -8t-68 55q-23 43 -9.5 90z" />
<glyph unicode="?" horiz-adv-x="1013" d="M84 1305q0 75 90 131q127 73 307 73q77 0 150 -22t136 -65t101.5 -118t38.5 -171q0 -61 -16 -113t-49 -95t-64 -73.5t-78 -67.5q-94 -74 -119.5 -114t-25.5 -97q0 -50 -35.5 -83t-91.5 -33q-58 0 -93.5 35t-35.5 96q0 95 32 156.5t126 134.5q7 6 34 27.5t33.5 27t27 23.5 t26.5 26.5t18.5 25t16.5 29t8 29.5t4 35q0 87 -49.5 126.5t-126.5 39.5q-38 0 -72 -10t-52 -21t-46 -31q-36 -18 -66 -18q-59 0 -94 36t-35 81zM250 160q0 75 52 127.5t126 52.5q75 0 127.5 -52.5t52.5 -127.5q0 -74 -52.5 -126t-127.5 -52q-74 0 -126 52t-52 126z" />
<glyph unicode="@" horiz-adv-x="1681" d="M131 623q0 113 28 222.5t88 210t143.5 176.5t203.5 121.5t260 45.5q151 0 272 -35.5t199 -94t130.5 -139t74.5 -166t22 -178.5q0 -125 -44.5 -231t-136 -173t-212.5 -67q-153 0 -217 121q-40 -56 -97.5 -86.5t-123.5 -30.5q-106 0 -157.5 72.5t-51.5 183.5 q0 119 46.5 223t133 168t193.5 64q91 0 200 -31q25 -7 38.5 -26t14.5 -38t-1 -36l-45 -199q-11 -56 -11 -114q0 -123 99 -123q96 0 152.5 95t56.5 222q0 78 -17.5 146.5t-58 128.5t-101 102.5t-151 67t-203.5 24.5q-115 0 -211 -39.5t-159.5 -103.5t-107.5 -146 t-63.5 -165.5t-19.5 -163.5q0 -120 29.5 -217.5t90 -171t159.5 -114t231 -40.5q89 0 188 18q28 6 61.5 17.5t47.5 11.5q36 0 56 -22t20 -52q0 -61 -86 -84q-135 -38 -287 -38q-166 0 -295.5 50.5t-212 141.5t-125.5 215.5t-43 276.5zM709 590q0 -37 16 -57.5t45 -20.5 q90 0 129 162l43 184q-36 8 -65 8q-45 0 -84.5 -43t-61.5 -106.5t-22 -126.5z" />
<glyph unicode="A" horiz-adv-x="1183" d="M27 154q139 606 383 1212q59 147 180 147q127 0 186 -147q242 -593 381 -1212q5 -21 5 -41q0 -49 -32 -83q-45 -48 -112 -48q-48 0 -86 27.5t-49 82.5q-19 86 -56 217h-479q-38 -149 -53 -217q-13 -54 -50 -82t-83 -28q-64 0 -108 48q-32 35 -31 86q0 18 4 38zM416 561 h344q-71 241 -172 508q-101 -275 -172 -508z" />
<glyph unicode="B" horiz-adv-x="1314" d="M160 141v1211q0 58 41 99.5t100 41.5h387q121 0 212 -31.5t142.5 -85.5t76 -118t24.5 -138v-57q0 -101 -45.5 -178t-136.5 -117q115 -37 177 -127.5t62 -198.5v-57q0 -83 -25 -150.5t-77.5 -121.5t-143.5 -83.5t-215 -29.5h-438q-60 0 -100.5 41t-40.5 100zM442 260h291 q95 0 141 45t46 117v41q0 72 -53.5 116t-147.5 44h-277v-363zM442 870h191q227 0 227 158v51q0 70 -45.5 111t-130.5 41h-242v-361z" />
<glyph unicode="C" horiz-adv-x="1118" d="M131 631v231q0 114 18.5 210t60 178.5t105 139.5t156.5 89t211 32q86 0 170.5 -24t134.5 -62q70 -50 70 -114q0 -50 -34 -87.5t-93 -37.5q-10 0 -18 1t-19 5.5t-16.5 7t-23 11t-24.5 12.5q-62 34 -147 34q-136 0 -202 -95.5t-66 -307.5v-219q0 -217 63.5 -307t194.5 -90 q99 0 170 41q66 34 96 34q47 0 81 -33.5t34 -84.5q0 -65 -66 -119q-52 -43 -144 -68.5t-171 -25.5q-143 0 -248.5 46.5t-169 134t-93.5 204t-30 264.5z" />
<glyph unicode="D" horiz-adv-x="1345" d="M160 141v1211q0 58 41 99.5t100 41.5h387q95 0 173 -19.5t131.5 -51t94 -77.5t64.5 -94t38.5 -105t19.5 -106t5 -102v-385q0 -54 -5 -102.5t-19.5 -106t-38.5 -105t-64.5 -93t-94 -77t-131.5 -50.5t-173 -19h-387q-60 0 -100.5 41t-40.5 100zM442 264h226q150 0 207 73 t57 216v381q0 70 -11.5 120t-40 90t-81.5 60.5t-131 20.5h-226v-961z" />
<glyph unicode="E" horiz-adv-x="1161" d="M160 135v1223q0 56 39 95.5t94 39.5h637q57 0 96 -39.5t39 -95.5t-39 -94.5t-96 -38.5h-488v-348h443q54 0 92.5 -39t38.5 -93t-38.5 -91.5t-92.5 -37.5h-443v-348h516q56 0 95 -39t39 -94q0 -57 -39 -96t-95 -39h-665q-56 0 -94.5 39t-38.5 96z" />
<glyph unicode="F" horiz-adv-x="1077" d="M160 123v1235q0 56 39 95.5t94 39.5h625q55 0 94 -39.5t39 -95.5t-38.5 -94.5t-94.5 -38.5h-476v-348h392q54 0 91.5 -39t37.5 -93t-37.5 -91.5t-91.5 -37.5h-392v-493q0 -59 -41 -100t-100 -41q-60 0 -100.5 41t-40.5 100z" />
<glyph unicode="G" horiz-adv-x="1286" d="M131 631v231q0 114 18.5 210t60 178.5t105 139.5t156.5 89t211 32q90 0 175.5 -23.5t137.5 -64.5q72 -51 72 -116q0 -51 -33.5 -87t-93.5 -36q-36 0 -109 39q-62 34 -149 34q-136 0 -202 -95.5t-66 -307.5v-219q0 -217 63.5 -308t194.5 -91q128 0 179.5 66.5t51.5 186.5 v64h-135q-54 0 -91.5 38.5t-37.5 92.5t37.5 92.5t91.5 38.5h274q58 0 96 -39.5t38 -101.5v-176q0 -83 -16.5 -156.5t-54.5 -140.5t-95 -115t-143.5 -76t-194.5 -28q-143 0 -248.5 46.5t-169 134t-93.5 204t-30 264.5z" />
<glyph unicode="H" horiz-adv-x="1413" d="M160 123v1247q0 58 41 99.5t100 41.5q58 0 99.5 -42t41.5 -99v-512h531v512q0 57 41.5 99t99.5 42t98.5 -41.5t40.5 -99.5v-1247q0 -59 -40.5 -100t-98.5 -41t-99.5 41t-41.5 100v485h-531v-485q0 -59 -41 -100t-100 -41q-60 0 -100.5 41t-40.5 100z" />
<glyph unicode="I" horiz-adv-x="600" d="M160 123v1247q0 58 41 99.5t100 41.5q58 0 99.5 -42t41.5 -99v-1247q0 -59 -41 -100t-100 -41q-60 0 -100.5 41t-40.5 100z" />
<glyph unicode="J" horiz-adv-x="952" d="M6 123q0 59 34 97t95 38q4 0 66 -8q29 -2 92 -2q137 0 190.5 68t53.5 235v819q0 58 41 99.5t100 41.5q57 0 99 -42t42 -99v-819q0 -569 -526 -569q-95 0 -172 12q-57 9 -86 45t-29 84z" />
<glyph unicode="K" horiz-adv-x="1224" d="M160 123v1247q0 58 41 99.5t100 41.5q58 0 99.5 -42t41.5 -99v-491l463 581q42 51 107 51q61 0 99 -40t38 -99q0 -52 -33 -88l-352 -407q218 -308 414 -691q16 -31 16 -65q0 -59 -43 -99t-102 -40q-83 0 -125 79q-152 300 -351 596l-131 -151v-383q0 -59 -41 -100 t-100 -41q-60 0 -100.5 41t-40.5 100z" />
<glyph unicode="L" horiz-adv-x="1110" d="M160 135v1235q0 58 41 99.5t100 41.5q58 0 99.5 -42t41.5 -99v-1102h508q57 0 96 -38.5t39 -94.5q0 -57 -39 -96t-96 -39h-657q-56 0 -94.5 39t-38.5 96z" />
<glyph unicode="M" horiz-adv-x="1648" d="M160 111v1269q0 56 38.5 93.5t94.5 37.5q52 0 83.5 -19.5t53.5 -64.5l395 -804l400 813q38 75 131 75q56 0 94.5 -38.5t38.5 -92.5v-1267q0 -55 -37.5 -93t-91.5 -38q-55 0 -93 38.5t-38 92.5v778l-279 -580q-41 -84 -127 -84q-40 0 -73.5 21t-53.5 61l-278 582v-780 q0 -54 -37.5 -91.5t-91.5 -37.5t-91.5 37.5t-37.5 91.5z" />
<glyph unicode="N" horiz-adv-x="1376" d="M160 111v1271q0 54 37 91.5t100 37.5q94 0 137 -73l524 -871v815q0 53 37.5 91t91.5 38t92 -38t38 -91v-1271q0 -55 -38.5 -92t-97.5 -37q-93 0 -137 67l-526 875v-813q0 -54 -37.5 -91.5t-91.5 -37.5t-91.5 37.5t-37.5 91.5z" />
<glyph unicode="O" d="M131 535v423q0 88 16.5 166t56.5 150t99.5 123.5t152 82.5t208.5 31t208.5 -31t152.5 -82.5t99.5 -123.5t56.5 -150t17 -166v-423q0 -88 -17 -166t-56.5 -150.5t-99.5 -124.5t-152.5 -83t-208.5 -31t-208.5 31t-152 83t-99.5 124.5t-56.5 150.5t-16.5 166zM414 535 q0 -144 55.5 -221.5t194.5 -77.5t195 77.5t56 221.5v423q0 68 -11.5 119t-39 92t-77.5 62.5t-123 21.5q-72 0 -122 -21t-77.5 -62t-39 -92t-11.5 -120v-423z" />
<glyph unicode="P" horiz-adv-x="1232" d="M160 123v1229q0 58 41 99.5t100 41.5h387q103 0 184.5 -24.5t133.5 -65t86.5 -96.5t48.5 -114t14 -122v-104q0 -188 -120 -301t-335 -113h-258v-430q0 -59 -41 -100t-100 -41q-60 0 -100.5 41t-40.5 100zM442 811h248q97 0 140.5 45.5t43.5 114.5v94q0 162 -210 162h-222 v-416z" />
<glyph unicode="Q" d="M131 535v423q0 88 16.5 166t56.5 150t99.5 123.5t152 82.5t208.5 31q115 0 207.5 -31t152.5 -82.5t100 -123.5t57 -150t17 -166v-423q0 -179 -70 -308l101 -92q41 -41 41 -89.5t-37 -86.5t-85 -41h-7q-44 0 -84 37l-99 96q-120 -71 -294 -71q-116 0 -208.5 31t-152 83 t-99.5 124.5t-56.5 150.5t-16.5 166zM412 535q0 -144 56.5 -221.5t195.5 -77.5q56 0 94 18l-25 27q-30 29 -30 67q0 3 1 6q2 43 35 76q28 29 63 37q9 2 18 2q25 0 48 -16l29 -23q18 43 18 105v423q0 68 -12 119.5t-39.5 93t-77.5 63t-122 21.5q-139 0 -195.5 -77.5 t-56.5 -219.5v-423z" />
<glyph unicode="R" horiz-adv-x="1271" d="M160 123v1229q0 58 41 99.5t100 41.5h385q234 0 354.5 -108t120.5 -310v-80q0 -129 -61 -222.5t-174 -137.5q126 -218 237 -455q14 -35 14 -64q-1 -20 -7 -38q-16 -44 -55 -70t-85 -26q-86 0 -125 84q-126 274 -274 516h-189v-459q0 -59 -41 -100t-100 -41 q-60 0 -100.5 41t-40.5 100zM442 838h230q93 0 150 40t57 117v80q0 75 -51 114.5t-148 39.5h-238v-391z" />
<glyph unicode="S" horiz-adv-x="1200" d="M88 170q0 53 34 92t89 39q24 0 75.5 -18.5t86.5 -26.5q77 -18 170 -18q297 0 297 196q0 67 -42.5 104.5t-160.5 69.5q-28 8 -109.5 27t-145.5 38.5t-106 43.5q-176 100 -176 323q0 148 69.5 256.5t183.5 161.5t257 53q194 0 334 -47q47 -17 71.5 -51t24.5 -76 q0 -54 -35.5 -94.5t-95.5 -40.5q-21 0 -65 15.5t-70 21.5q-61 14 -141 14q-120 0 -186 -46.5t-66 -129.5q0 -75 45 -110.5t156 -63.5q30 -8 97 -23t106 -25t88 -28t81 -39q168 -105 168 -323q0 -157 -73.5 -268t-196 -163t-283.5 -52q-230 0 -385 57q-47 17 -71.5 52 t-24.5 79z" />
<glyph unicode="T" horiz-adv-x="1232" d="M27 1356q0 57 39.5 97t95.5 40h909q56 0 95.5 -40t39.5 -97t-39.5 -97t-95.5 -40h-313v-1096q0 -58 -41.5 -99.5t-100.5 -41.5q-58 0 -99.5 41t-41.5 100v1096h-313q-56 0 -95.5 40t-39.5 97z" />
<glyph unicode="U" d="M131 485v885q0 59 40.5 100t98.5 41q59 0 100.5 -41.5t41.5 -99.5v-872q0 -41 6.5 -77t23.5 -73t44.5 -62.5t73 -42t104.5 -16.5t104.5 16.5t72.5 42t44.5 62.5t23.5 73t6 77v872q0 57 42 99t100 42t99.5 -42t41.5 -99v-885q0 -106 -32.5 -195.5t-96 -159t-167.5 -109 t-238 -39.5t-237.5 39.5t-167 109t-96 159t-32.5 195.5z" />
<glyph unicode="V" horiz-adv-x="1179" d="M29 1329q-7 25 -7 47q0 47 32 83q47 52 116 52q44 0 80 -26.5t49 -77.5q167 -576 295 -958q102 296 301 964q13 49 47 73.5t76 24.5q66 0 110 -49q31 -34 31 -80q0 -19 -6 -41q-162 -553 -391 -1212q-53 -147 -176 -147q-63 0 -106 34t-70 115q-233 677 -381 1198z" />
<glyph unicode="W" horiz-adv-x="1816" d="M35 1380q0 59 42.5 95t98.5 36q46 0 83 -28t48 -82q106 -514 221 -959q128 481 213 901q36 168 168 168q73 0 111 -43.5t55 -121.5q81 -403 211 -904q114 431 223 959q10 54 47.5 82t83.5 28q56 0 99 -36t43 -95q0 -9 -4 -37q-137 -634 -297 -1202q-22 -77 -69 -118 t-114 -41q-62 0 -111.5 40.5t-70.5 114.5q-89 315 -209 817q-86 -376 -207 -817q-21 -74 -70.5 -114.5t-111.5 -40.5q-137 0 -184 159q-161 582 -295 1202q-4 14 -4 37z" />
<glyph unicode="X" horiz-adv-x="1140" d="M6 117q0 35 21 73q132 228 381 588q-207 303 -330 531q-19 40 -19 67q0 56 44 95.5t102 39.5q70 0 112 -73q103 -192 252 -418q135 202 254 416q38 75 113 75q58 0 102.5 -40t44.5 -97q0 -33 -20 -69q-125 -233 -328 -531q256 -376 379 -586q21 -40 21 -73q0 -55 -44 -94 t-100 -39q-71 0 -112 69q-88 155 -306 484q-160 -231 -309 -482q-38 -71 -112 -71q-57 0 -101.5 39t-44.5 96z" />
<glyph unicode="Y" horiz-adv-x="1075" d="M0 1374q0 59 44.5 98t102.5 39q81 0 121 -84q92 -217 273 -563q172 334 274 566q38 81 119 81q55 0 98 -38t43 -95q0 -24 -14 -59q-149 -337 -383 -770v-426q0 -59 -41 -100t-100 -41q-60 0 -101 41t-41 100v426q-232 427 -381 766q-14 28 -14 59z" />
<glyph unicode="Z" horiz-adv-x="1140" d="M53 135q0 64 43 131l611 959h-519q-54 0 -92.5 39t-38.5 94q0 56 38.5 95.5t92.5 39.5h766q61 0 96 -38t35 -97q0 -58 -43 -123l-616 -967h530q56 0 95 -39t39 -94q0 -57 -39 -96t-95 -39h-770q-58 0 -95.5 38.5t-37.5 96.5z" />
<glyph unicode="[" horiz-adv-x="688" d="M102 -242v1796q0 56 39.5 95t96.5 39h215q56 0 95.5 -39.5t39.5 -94.5q0 -57 -39.5 -96t-95.5 -39h-68v-1525h68q55 0 95 -40t40 -96q0 -55 -39.5 -94t-95.5 -39h-215q-57 0 -96.5 38.5t-39.5 94.5z" />
<glyph unicode="\" horiz-adv-x="800" d="M6 1430q-19 47 2 93.5t68 63.5q47 19 92.5 -1.5t64.5 -67.5l568 -1491q17 -47 -4 -94t-68 -66q-47 -17 -94 4.5t-64 67.5z" />
<glyph unicode="]" horiz-adv-x="688" d="M100 -242q0 56 39.5 96t96.5 40h67v1525h-67q-57 0 -96.5 39t-39.5 96q0 56 39.5 95t96.5 39h215q56 0 95.5 -39.5t39.5 -94.5v-1796q0 -55 -39.5 -94t-95.5 -39h-215q-57 0 -96.5 38.5t-39.5 94.5z" />
<glyph unicode="^" horiz-adv-x="1069" d="M96.5 882.5q-9.5 49.5 18.5 92.5l293 450q52 74 127 74t127 -74l292 -450q28 -43 18.5 -92.5t-50.5 -77.5q-43 -29 -92.5 -19t-77.5 54l-217 334l-218 -334q-28 -44 -78.5 -54t-91.5 19q-41 28 -50.5 77.5z" />
<glyph unicode="_" horiz-adv-x="985" d="M-119 -287q0 49 34.5 84t84.5 35h985q49 0 84 -35t35 -84t-34.5 -82.5t-84.5 -33.5h-985q-50 0 -84.5 33.5t-34.5 82.5z" />
<glyph unicode="`" horiz-adv-x="1085" d="M375 1540q0 47 27.5 79t80.5 32q76 0 107 -74l98 -197q21 -51 21 -71q0 -39 -25.5 -67t-65.5 -28q-37 0 -60.5 16t-47.5 54l-102 170q-33 56 -33 86z" />
<glyph unicode="a" horiz-adv-x="1091" d="M72 309v15q0 144 105.5 226.5t299.5 82.5h182v39q0 96 -33 141t-122 45q-75 0 -146 -27q-12 -4 -35.5 -13t-38.5 -13t-32 -4q-46 0 -76.5 30.5t-30.5 73.5q0 80 119 127q111 45 262 45q221 0 315.5 -103t94.5 -335v-342q0 -33 8 -55.5t16.5 -32.5t28.5 -27q39 -35 39 -82 q0 -57 -36.5 -84.5t-98.5 -27.5q-60 0 -109 28q-43 26 -61 58q-101 -86 -283 -86q-179 0 -273.5 85.5t-94.5 235.5zM346 303q0 -58 38.5 -89.5t115.5 -31.5q73 0 116 41.5t43 120.5v90h-149q-164 0 -164 -117v-14z" />
<glyph unicode="b" horiz-adv-x="1128" d="M66 100q0 52 38 82q21 18 29 27t16.5 32t8.5 56v1049q0 57 39.5 97t97.5 40q57 0 98 -40t41 -97v-349q43 35 104 57.5t124 22.5q104 0 174.5 -30.5t111 -93.5t57.5 -147t17 -202v-174q0 -216 -97.5 -329t-295.5 -113q-70 0 -139.5 21.5t-120.5 58.5q-3 -3 -11 -11.5 t-14 -14t-12 -9.5q-57 -45 -129 -45q-63 0 -100 27.5t-37 84.5zM434 274q68 -55 146 -55q88 0 128 46.5t40 140.5v243q0 98 -36.5 146.5t-121.5 48.5q-41 0 -83.5 -19t-72.5 -53v-498z" />
<glyph unicode="c" horiz-adv-x="919" d="M104 453v143q0 100 27.5 186.5t80.5 152.5t136 104t187 38q166 0 268 -59q63 -37 63 -94q0 -22 -10 -47q-17 -43 -58 -61q-20 -8 -39 -9q-21 0 -42 10q-74 33 -156 33q-85 0 -131.5 -58.5t-46.5 -164.5v-191q0 -105 42.5 -164t125.5 -59q90 0 166 35q20 10 41 10 q20 0 41 -10q42 -18 57 -62q7 -23 7 -43q0 -62 -64 -98q-109 -57 -264 -57q-111 0 -195.5 35t-135 98.5t-75.5 146.5t-25 185z" />
<glyph unicode="d" horiz-adv-x="1128" d="M104 426v166q0 238 86.5 361.5t288.5 123.5q122 0 217 -63v332q0 57 40 97t98 40q57 0 98 -40t41 -97v-1049q0 -48 12 -69.5t41 -45.5q37 -37 37 -82q0 -112 -139 -112q-69 0 -129 45q-21 18 -35 37q-116 -82 -260 -82q-396 0 -396 438zM383 406q0 -95 38 -141t126 -46 q72 0 149 57v504q-67 64 -151 64q-86 0 -124 -50t-38 -149v-239z" />
<glyph unicode="e" horiz-adv-x="1054" d="M104 436v191q0 73 16 139t50.5 123t84.5 98.5t122.5 65.5t159.5 24q112 0 196.5 -35t134 -97.5t73.5 -141t24 -172.5v-84q0 -42 -28 -70t-67 -28h-489v-41q0 -95 43.5 -147t130.5 -52q79 0 156 22q12 4 37 14.5t40 14.5t33 4q46 0 72.5 -29.5t26.5 -76.5q0 -78 -119 -129 q-113 -41 -264 -41q-93 0 -167 24t-123.5 64.5t-82 98t-46.5 122.5t-14 139zM381 653h317v27q0 90 -37 136t-118 46t-121.5 -47t-40.5 -135v-27z" />
<glyph unicode="f" horiz-adv-x="757" d="M23 950q0 47 33 81t79 34h31v29q0 194 100.5 301.5t292.5 107.5h98q51 0 87 -36t36 -87q0 -50 -36 -85t-87 -35h-61q-79 0 -116.5 -39t-37.5 -127v-29h129q47 0 81 -34t34 -81q0 -46 -34 -79t-81 -33h-129v-713q0 -57 -40.5 -97t-98.5 -40q-57 0 -97 40t-40 97v713h-31 q-46 0 -79 33t-33 79z" />
<glyph unicode="g" horiz-adv-x="1107" d="M104 528v80q0 229 88.5 349t284.5 120q129 0 228 -86q14 39 47.5 62.5t81.5 23.5q63 0 101 -40t38 -99v-844q0 -226 -125 -347.5t-352 -121.5q-160 0 -258 43q-88 43 -88 115q0 46 32.5 78.5t79.5 32.5q13 0 25 -3t29 -10t28 -10q63 -23 133 -23q219 0 219 228v51 q-106 -64 -219 -64q-204 0 -288.5 115.5t-84.5 349.5zM383 483q0 -97 34.5 -141.5t121.5 -44.5q35 0 79.5 14.5t77.5 40.5v424q-33 31 -76 49.5t-79 18.5q-83 0 -120.5 -48.5t-37.5 -146.5v-166z" />
<glyph unicode="h" horiz-adv-x="1138" d="M135 125v1221q0 57 40.5 97t96.5 40q58 0 99 -40t41 -97v-336q98 67 245 67q184 0 265.5 -101t81.5 -286v-565q0 -57 -40.5 -97t-97.5 -40q-58 0 -98.5 40t-40.5 97v532q0 74 -31 117t-114 43q-106 0 -170 -84v-608q0 -57 -41 -97t-99 -40q-56 0 -96.5 40t-40.5 97z" />
<glyph unicode="i" horiz-adv-x="548" d="M117 1368q0 66 45 112t110 46q66 0 112 -46t46 -112q0 -65 -46 -110.5t-112 -45.5q-64 0 -109.5 45.5t-45.5 110.5zM135 125v813q0 57 40.5 98t96.5 41q58 0 99 -41t41 -98v-813q0 -57 -41 -97t-99 -40q-56 0 -96.5 40t-40.5 97z" />
<glyph unicode="j" horiz-adv-x="548" d="M-133 -260q0 47 30.5 77t84.5 36q80 8 116.5 53t36.5 147v883q0 58 40 98.5t97 40.5q61 0 100.5 -41.5t39.5 -97.5v-864q0 -218 -107 -332.5t-323 -114.5q-54 0 -84.5 33t-30.5 82zM117 1366q0 66 45 112t110 46q66 0 112 -46t46 -112q0 -64 -46 -109t-112 -45 q-65 0 -110 45t-45 109z" />
<glyph unicode="k" horiz-adv-x="1040" d="M135 125v1221q0 57 40.5 97t96.5 40q58 0 99 -40t41 -97v-672l372 368q36 34 85 34h3q51 -1 86 -38t35 -87.5t-37 -84.5l-227 -217q156 -231 264 -479q12 -30 12 -57q0 -39 -26 -71q-44 -54 -113 -54q-85 0 -118 84q-97 221 -211 397l-125 -119v-225q0 -57 -41 -97 t-99 -40q-56 0 -96.5 40t-40.5 97z" />
<glyph unicode="l" horiz-adv-x="567" d="M127 274v1072q0 57 41 97t98 40t98.5 -40t41.5 -97v-1049q0 -33 9.5 -56t18 -31.5t31.5 -27.5q39 -35 39 -82q0 -57 -37.5 -84.5t-101.5 -27.5q-72 0 -129 45q-109 80 -109 241z" />
<glyph unicode="m" horiz-adv-x="1744" d="M66 950q0 58 37 86.5t100 28.5q67 0 131 -45q30 -26 45 -49q119 106 303 106q191 0 272 -114q117 114 312 114q184 0 264 -100t80 -285v-567q0 -57 -41 -97t-99 -40q-56 0 -96.5 40t-40.5 97v532q0 35 -5.5 61t-20 50t-43.5 36.5t-72 12.5q-107 0 -170 -84q4 -24 4 -41 v-567q0 -57 -41 -97t-98 -40t-97 40t-40 97v532q0 73 -31 116.5t-113 43.5q-106 0 -166 -80v-612q0 -57 -40 -97t-97 -40q-58 0 -98.5 40t-40.5 97v629q0 11 -0.5 21t-3.5 19t-4.5 15t-7 13.5t-6.5 10.5t-9 10.5t-9 8.5t-10 9t-10 9q-38 26 -38 80z" />
<glyph unicode="n" horiz-adv-x="1167" d="M66 950q0 58 37 86.5t100 28.5q67 0 131 -45q28 -24 45 -53q116 110 309 110q184 0 264 -101t80 -286v-565q0 -57 -40.5 -97t-98.5 -40q-57 0 -97 40t-40 97v532q0 74 -30.5 117t-113.5 43q-111 0 -172 -84v-608q0 -57 -40 -97t-97 -40q-58 0 -98.5 40t-40.5 97v629 q0 11 -0.5 21t-3.5 19t-4.5 15t-7 13.5t-6.5 10.5t-9 10.5t-9 8.5t-10 9t-10 9q-38 26 -38 80z" />
<glyph unicode="o" horiz-adv-x="1089" d="M104 422v219q0 91 26.5 168.5t79 138t138.5 95t197 34.5t197 -34.5t138 -95t78.5 -138t26.5 -168.5v-219q0 -91 -26.5 -168.5t-78.5 -137.5t-138 -94t-197 -34t-197 34t-138.5 94t-79 137.5t-26.5 168.5zM383 424q0 -188 162 -188q164 0 164 188v215q0 188 -164 188 q-162 0 -162 -188v-215z" />
<glyph unicode="p" horiz-adv-x="1128" d="M66 963q0 58 37 86t100 28q72 0 129 -45q24 -20 37 -39q52 39 122 61.5t138 22.5q393 0 393 -438v-166q0 -239 -86.5 -362t-290.5 -123q-125 0 -211 61v-287q0 -57 -41 -97t-98 -40q-58 0 -97.5 40t-39.5 97v1004q0 33 -8 56t-17 33.5t-29 27.5q-38 26 -38 80zM434 285 q30 -31 71 -48.5t79 -17.5q86 0 125 51t39 150v239q0 94 -39.5 139.5t-128.5 45.5q-74 0 -146 -56v-503z" />
<glyph unicode="q" horiz-adv-x="1128" d="M104 459v174q0 215 99.5 329.5t296.5 114.5q69 0 138.5 -22.5t121.5 -59.5q15 22 37 37q57 45 129 45q63 0 100 -28t37 -86q0 -50 -37 -80q-20 -18 -29 -28.5t-16.5 -33t-7.5 -55.5v-1004q0 -57 -41 -97t-98 -40t-98.5 40t-41.5 97l2 304q-99 -78 -229 -78 q-104 0 -175 31t-112 93.5t-58.5 146t-17.5 200.5zM381 414q0 -98 36.5 -146.5t121.5 -48.5q40 0 82.5 19.5t74.5 52.5v497q-69 56 -149 56q-86 0 -126 -46.5t-40 -140.5v-243z" />
<glyph unicode="r" horiz-adv-x="870" d="M66 950q0 57 36.5 86t102.5 29q57 0 108.5 -33t83.5 -86q103 129 283 129q75 0 129.5 -36t54.5 -101q0 -56 -35 -95.5t-96 -39.5q-14 0 -48 5t-69 5q-139 0 -176 -119v-569q0 -57 -40 -97t-97 -40q-58 0 -98.5 40t-40.5 97v629q0 11 -0.5 21t-3.5 19t-4.5 15t-7 13.5 t-6.5 10.5t-9 10.5t-9 8.5t-10 9t-10 9q-38 26 -38 80z" />
<glyph unicode="s" horiz-adv-x="948" d="M76 178q17 50 61 70q25 12 50 11q20 0 40 -7q52 -20 97 -29.5t118 -9.5q77 0 120.5 27t43.5 73q0 30 -15 50.5t-46.5 33t-61 19.5t-80 17t-81.5 18q-53 13 -92 31.5t-76 51t-56.5 86t-19.5 125.5q0 106 53.5 182.5t139 113t190.5 36.5q157 0 287 -45q47 -17 67 -58 q12 -24 12 -50q0 -18 -6 -37q-13 -45 -55 -67q-26 -14 -55 -14q-16 0 -33 5q-118 41 -201 41q-68 0 -103.5 -25t-35.5 -63q0 -23 10.5 -40.5t24 -28t42 -20t49 -14t62 -13t64.5 -13.5q46 -10 81.5 -22t74.5 -35.5t64 -55t41.5 -82t16.5 -114.5q0 -88 -35.5 -155t-97 -106 t-136 -58t-159.5 -19q-173 0 -297 43q-43 14 -61 58q-11 26 -11 52q0 18 5 37z" />
<glyph unicode="t" horiz-adv-x="780" d="M18 950q0 47 33.5 81t79.5 34h33v139q0 57 41 98t98 41t97 -41t40 -98v-139h158q47 0 81 -34t34 -81q0 -46 -34 -79t-81 -33h-158l2 -357q0 -131 33.5 -184t128.5 -53h39q50 0 85.5 -35t35.5 -86t-35.5 -87t-85.5 -36h-78q-401 0 -401 475v363h-33q-46 0 -79.5 33 t-33.5 79z" />
<glyph unicode="u" horiz-adv-x="1171" d="M139 371v567q0 57 40 98t97 41t98.5 -41t41.5 -98v-532q0 -79 30 -119.5t113 -40.5q109 0 170 88v604q0 57 41 98t98 41t97.5 -41t40.5 -98v-641q0 -25 3.5 -42.5t15.5 -32.5t17 -19.5t25 -20.5q39 -35 39 -82q0 -57 -37.5 -84.5t-101.5 -27.5q-72 0 -129 45 q-28 19 -52 59q-113 -104 -303 -104q-177 0 -260.5 102t-83.5 281z" />
<glyph unicode="v" horiz-adv-x="1015" d="M41 913q-8 24 -8 45q0 40 28 72q42 48 105 47q39 0 71 -22.5t46 -67.5q97 -322 219 -655q80 215 225 653q14 45 47 68.5t74 23.5q64 1 108 -49q28 -31 28 -72q0 -23 -9 -49q-125 -382 -293 -782q-35 -80 -79 -108.5t-103 -28.5q-65 0 -107.5 28t-75.5 109 q-169 432 -276 788z" />
<glyph unicode="w" horiz-adv-x="1495" d="M43 930q-3 16 -3 30q0 45 30 76q40 41 98 41q43 0 78 -25.5t45 -74.5q93 -417 155 -639q92 340 150 610q27 129 154 129q121 0 149 -129q74 -334 152 -610q81 299 153 639q10 49 45 74.5t78 25.5q58 0 98 -41q30 -31 30 -76q0 -14 -3 -30q-106 -478 -213 -815 q-22 -65 -69 -96t-107 -31t-106 30.5t-64 92.5q-89 303 -145 534q-68 -270 -146 -534q-18 -62 -64 -92.5t-108 -30.5q-59 0 -106 31.5t-68 95.5q-119 374 -213 815z" />
<glyph unicode="x" horiz-adv-x="952" d="M59 170q74 144 248 369q-53 69 -84.5 112t-72 107t-68.5 123q-14 34 -14 63q0 20 6 38q16 44 56 69.5t87 25.5q39 0 73.5 -21t53.5 -63q57 -123 135 -229q105 150 144 235q35 78 116 78q69 0 112 -55q25 -32 25 -68q0 -27 -14 -57q-60 -130 -221 -344q61 -78 94 -121.5 t79.5 -113.5t78.5 -132q15 -35 15 -65q0 -19 -6 -35q-16 -44 -55.5 -71t-86.5 -27q-83 0 -125 80q-53 108 -166 264q-115 -156 -172 -271q-37 -73 -115 -73q-70 0 -114 56q-25 31 -25 66q0 29 16 60z" />
<glyph unicode="y" horiz-adv-x="968" d="M-10 -240q0 50 31 87.5t92 43.5q74 5 131.5 36.5t109.5 115.5q-211 518 -317 866q-7 24 -7 45q0 43 29 75q44 48 109 48q40 0 73 -24.5t44 -69.5q118 -376 198 -598l191 600q13 46 48 69t77 23q69 0 112 -54q26 -33 26 -73q0 -27 -11 -57l-260 -741q-94 -262 -213.5 -387 t-309.5 -140q-9 -1 -17 -1q-58 0 -94 36q-42 42 -42 100z" />
<glyph unicode="z" horiz-adv-x="909" d="M41 135q0 42 27 80l440 610h-318q-49 0 -83.5 34.5t-34.5 84.5q0 51 34 86t84 35h551q49 0 89 -30t40 -89q0 -60 -41 -115l-428 -591h349q50 0 85 -35t35 -86q0 -48 -35.5 -83.5t-84.5 -35.5h-586q-43 0 -83 37.5t-40 97.5z" />
<glyph unicode="{" horiz-adv-x="784" d="M61 657q0 45 29.5 77t71.5 32h8q37 0 61.5 30t24.5 97q0 46 -37 199.5t-37 230.5q0 94 29.5 166.5t79.5 114.5t109.5 63t125.5 21h19q55 0 91 -40t36 -98q0 -56 -33.5 -94.5t-83.5 -38.5h-6q-35 0 -61.5 -28.5t-26.5 -83.5q0 -63 38 -199t38 -205q0 -91 -39 -151 t-109 -86v-15q70 -26 109 -86t39 -151q0 -70 -38 -205.5t-38 -198.5q0 -54 26.5 -83t61.5 -29h6q51 0 84 -38.5t33 -95.5t-36 -96t-91 -39h-19q-67 0 -126 20.5t-109 62.5t-79.5 114.5t-29.5 167.5q0 77 37 230t37 198q0 67 -25 98t-61 31h-8q-43 0 -72 31t-29 77z" />
<glyph unicode="|" horiz-adv-x="573" d="M145 -236v1784q0 58 41.5 100t100.5 42q58 0 99.5 -41.5t41.5 -100.5v-1784q0 -58 -41 -99.5t-100 -41.5t-100.5 41.5t-41.5 99.5z" />
<glyph unicode="}" horiz-adv-x="784" d="M113 -238q0 57 33.5 95.5t84.5 38.5h7q35 0 60.5 28.5t25.5 83.5q0 64 -37 199t-37 205q0 184 147 237v15q-147 53 -147 237q0 70 37 205.5t37 198.5q0 56 -25 84t-61 28h-7q-51 0 -84.5 38.5t-33.5 94.5q0 58 36.5 98t92.5 40h18q66 0 125 -21t108.5 -63t79 -114.5 t29.5 -166.5q0 -77 -37 -230.5t-37 -199.5q0 -66 25.5 -96.5t62.5 -30.5h9q42 0 70 -32t28 -77q0 -46 -28 -77t-70 -31h-9q-37 0 -62.5 -31t-25.5 -98q0 -45 37 -198t37 -230q0 -95 -29.5 -167.5t-79 -114.5t-108.5 -62.5t-125 -20.5h-18q-56 0 -92.5 38.5t-36.5 96.5z" />
<glyph unicode="~" horiz-adv-x="1284" d="M117 573q0 71 51.5 123.5t124 76.5t151.5 24q58 0 113 -16.5t90.5 -37t81.5 -37t88 -16.5q44 0 77.5 18.5t64.5 37t67 18.5q58 0 99.5 -41t41.5 -98q0 -71 -51 -122.5t-123.5 -74t-152.5 -22.5q-58 0 -113 16t-91.5 35t-82.5 35t-88 16q-35 0 -64 -12t-46 -26t-43 -26 t-56 -12q-57 0 -98 41.5t-41 99.5z" />
<glyph unicode="&#xa1;" horiz-adv-x="622" d="M131 897q0 75 53 127.5t127 52.5q75 0 128 -52.5t53 -127.5q0 -74 -53 -127t-128 -53q-73 0 -126.5 53.5t-53.5 126.5zM170 -299l31 750q5 69 29.5 102t80.5 33t81 -33t28 -102l33 -750q3 -66 -35.5 -111t-106.5 -45q-69 0 -106.5 45t-34.5 111z" />
<glyph unicode="&#xa2;" horiz-adv-x="919" d="M104 453v143q0 183 88 312t252 159v80q0 46 31.5 77t77.5 31q44 0 76.5 -31.5t32.5 -76.5v-82q85 -14 141 -49q87 -48 53 -142q-17 -43 -58 -59.5t-81 2.5q-74 33 -156 33q-85 0 -131.5 -59t-46.5 -166v-189q0 -105 42.5 -164t125.5 -59q90 0 166 35q40 19 82 0.5 t57 -62.5q27 -93 -57 -141q-71 -36 -137 -45v-86q0 -43 -33 -75t-76 -32q-45 0 -77 32t-32 75v80q-173 27 -256.5 148.5t-83.5 310.5z" />
<glyph unicode="&#xa3;" horiz-adv-x="1146" d="M37 133q0 55 39.5 90t116.5 60q11 4 22.5 10.5t26.5 24t26 41t19 64t8 91.5q0 31 -14 59h-86q-47 0 -81 33.5t-34 79.5q0 47 34 81t81 34h32q-49 157 -49 250q0 91 30.5 171t90 144t159.5 101.5t228 37.5q153 0 275 -41q108 -34 108 -127q0 -57 -35 -95t-90 -38 q-20 0 -78 15q-95 22 -155 22q-71 0 -122.5 -17.5t-78 -48t-38 -63t-11.5 -70.5q0 -91 53 -241h260q47 0 81 -34t34 -81q0 -46 -34 -79.5t-81 -33.5h-209q10 -27 10 -59q3 -147 -98 -248h500q55 0 94 -39t39 -94t-39 -94t-94 -39h-807q-56 0 -94.5 39t-38.5 94z" />
<glyph unicode="&#xa4;" horiz-adv-x="1439" d="M103.5 304q-1.5 50 33.5 85l133 133q-77 118 -77 273q0 152 79 276l-135 135q-34 35 -32.5 84.5t38.5 87.5q33 36 83.5 36t84.5 -34l133 -135q129 80 279 80q145 0 272 -78l131 131q35 35 85.5 34t88.5 -38q35 -35 35 -85t-35 -85l-129 -129q82 -132 82 -280t-79 -277 l126 -127q36 -34 35 -84t-35 -84q-38 -38 -87.5 -39.5t-86.5 33.5l-127 127q-125 -80 -276 -80q-157 0 -281 82l-131 -131q-34 -35 -84 -33.5t-84 35.5q-38 37 -39.5 87zM383 795q0 -140 99.5 -239t240.5 -99q138 0 237 99.5t99 238.5t-99 237t-237 98q-141 0 -240.5 -98 t-99.5 -237z" />
<glyph unicode="&#xa5;" horiz-adv-x="1146" d="M37 1374q0 59 43.5 98t101.5 39q81 0 121 -84q97 -222 275 -563q160 309 272 566q38 81 119 81q56 0 99.5 -38t43.5 -95q0 -24 -14 -59q-89 -200 -189 -395h60q44 0 77 -33.5t33 -79.5q0 -45 -32.5 -78t-77.5 -33h-174q-52 -98 -82 -151v-29h256q44 0 77 -33t33 -79 q0 -44 -33 -77.5t-77 -33.5h-256v-174q0 -59 -41 -100t-101 -41q-59 0 -100 41t-41 100v174h-254q-45 0 -77.5 33t-32.5 78q0 46 32 79t78 33h254v29q-54 98 -80 151h-174q-46 0 -78 32.5t-32 78.5t32.5 79.5t77.5 33.5h60q-84 164 -187 391q-12 24 -12 59z" />
<glyph unicode="&#xa6;" horiz-adv-x="573" d="M145 -55v522q0 60 41.5 100.5t100.5 40.5t100 -40.5t41 -100.5v-522q0 -59 -41.5 -100.5t-99.5 -41.5q-59 0 -100.5 41.5t-41.5 100.5zM145 1024v524q0 57 42 98.5t100 41.5t99.5 -41.5t41.5 -98.5v-524q0 -60 -41 -100.5t-100 -40.5t-100.5 40.5t-41.5 100.5z" />
<glyph unicode="&#xa7;" horiz-adv-x="1112" d="M88 571q0 173 121 279q-74 84 -74 217q0 100 36 180.5t98.5 131.5t143 77.5t171.5 26.5q170 0 290 -45q95 -35 95 -117q0 -48 -31.5 -83.5t-83.5 -35.5q-17 0 -32.5 4t-39 13.5t-37.5 13.5q-74 20 -143 20q-100 0 -157.5 -39.5t-57.5 -115.5q0 -61 38.5 -92.5 t131.5 -57.5q21 -6 82.5 -24t94 -28t76.5 -27.5t71 -34.5q151 -94 151 -283q0 -171 -123 -281q78 -81 78 -215q0 -101 -36.5 -182t-99 -131t-142.5 -76t-172 -26q-168 0 -293 43q-92 35 -92 118q0 47 31.5 83t82.5 36q21 0 59 -13.5t52 -17.5q70 -20 143 -20q99 0 156 39.5 t57 114.5q0 61 -38 92t-132 59q-24 7 -82 24t-92 27.5t-77 28t-70 33.5q-154 97 -154 284zM342 596q0 -61 46.5 -94t162.5 -66q14 -5 69.5 -22t86.5 -29q71 50 71 139q0 62 -46 94.5t-163 67.5q-87 26 -155 49q-72 -51 -72 -139z" />
<glyph unicode="&#xa8;" horiz-adv-x="1085" d="M209 1382q0 59 39.5 99.5t97.5 40.5t98.5 -40.5t40.5 -99.5q0 -58 -40 -97.5t-99 -39.5q-58 0 -97.5 39.5t-39.5 97.5zM598 1382q0 59 39.5 99.5t97.5 40.5t98.5 -40.5t40.5 -99.5q0 -58 -40 -97.5t-99 -39.5t-98 39.5t-39 97.5z" />
<glyph unicode="&#xa9;" horiz-adv-x="1789" d="M131 745q0 155 60.5 297t163 244.5t244 163.5t296.5 61t297 -61t244.5 -163.5t163.5 -244.5t61 -297t-61 -296.5t-163.5 -243.5t-244 -162.5t-297.5 -60.5q-155 0 -296.5 60.5t-244 162.5t-163 243.5t-60.5 296.5zM313 745q0 -158 78 -292.5t212 -212.5t292 -78t292 78 t212 212.5t78 292.5q0 159 -77.5 293.5t-212 213.5t-292.5 79t-292.5 -79t-212 -213.5t-77.5 -293.5zM565 698v99q0 153 87.5 258.5t240.5 105.5q107 0 186 -35q58 -25 58 -77q0 -35 -24 -63t-60 -28q-18 0 -39 9q-44 20 -111 20t-111 -50t-44 -140v-99q0 -102 39 -147 t114 -45q70 0 121 22q16 7 35 7q35 0 57.5 -27t22.5 -62q0 -55 -56 -77q-84 -37 -188 -37q-161 0 -244.5 99.5t-83.5 266.5z" />
<glyph unicode="&#xaa;" horiz-adv-x="923" d="M72 842v12q0 120 86.5 187t247.5 67h149v31q0 78 -27.5 115.5t-99.5 37.5q-76 0 -152 -37q-47 -22 -83 -8.5t-52 49.5q-15 27 -6 60t43 55q95 62 268 62q182 0 259 -84.5t77 -276.5v-278q0 -39 10.5 -58t32.5 -37q33 -26 33 -67q0 -94 -115 -94q-61 0 -104 34 q-18 13 -33 35q-83 -69 -231 -69t-225.5 70.5t-77.5 193.5zM299 838q0 -99 125 -99q59 0 95 33.5t36 97.5v74h-123q-133 0 -133 -96v-10z" />
<glyph unicode="&#xab;" horiz-adv-x="1409" d="M63 569q0 48 37 88l363 373q36 39 92 39q51 0 86 -35q39 -36 39 -90q0 -50 -35 -88l-278 -287l278 -288q35 -38 35 -86q0 -55 -39 -91q-36 -36 -88 -36t-90 38l-363 375q-37 40 -37 88zM698 569q0 48 37 88l363 373q36 39 92 39q51 0 86 -35q39 -36 39 -90q0 -50 -35 -88 l-279 -287l279 -288q35 -38 35 -86q0 -55 -39 -91q-36 -36 -88 -36t-90 38l-363 375q-37 40 -37 88z" />
<glyph unicode="&#xac;" horiz-adv-x="1234" d="M123 780q0 52 37.5 89.5t89.5 37.5h735q53 0 90 -37.5t37 -89.5v-276q0 -52 -37 -89.5t-90 -37.5t-91 37.5t-38 89.5v149h-606q-52 0 -89.5 37.5t-37.5 89.5z" />
<glyph unicode="&#xad;" horiz-adv-x="1042" d="M123 602q0 52 36.5 88.5t90.5 36.5h543q52 0 89.5 -37t37.5 -88q0 -52 -37 -89.5t-90 -37.5h-543q-54 0 -90.5 37t-36.5 90z" />
<glyph unicode="&#xae;" horiz-adv-x="1789" d="M131 745q0 155 60.5 297t163 244.5t244 163.5t296.5 61t297 -61t244.5 -163.5t163.5 -244.5t61 -297t-61 -296.5t-163.5 -243.5t-244 -162.5t-297.5 -60.5q-155 0 -296.5 60.5t-244 162.5t-163 243.5t-60.5 296.5zM313 745q0 -158 78 -292.5t212 -212.5t292 -78t292 78 t212 212.5t78 292.5q0 159 -77.5 293.5t-212 213.5t-292.5 79t-292.5 -79t-212 -213.5t-77.5 -293.5zM621 432v629q0 37 26 64.5t64 27.5h217q132 0 194 -64t62 -159v-64q0 -67 -32 -116t-93 -74l104 -207q11 -18 11 -37q0 -38 -28 -65t-67 -27q-58 0 -84 59l-114 248h-78 v-215q0 -37 -27.5 -64.5t-64.5 -27.5q-38 0 -64 27.5t-26 64.5zM803 805h100q98 0 98 76v34q0 74 -83 74h-115v-184z" />
<glyph unicode="&#xaf;" horiz-adv-x="1085" d="M244 1382q0 47 33.5 81t80.5 34h369q47 0 81 -34t34 -81t-34 -80.5t-81 -33.5h-369q-47 0 -80.5 33.5t-33.5 80.5z" />
<glyph unicode="&#xb0;" horiz-adv-x="876" d="M66 1139q0 155 108.5 263.5t263.5 108.5t264 -108.5t109 -263.5q0 -154 -109 -262.5t-264 -108.5t-263.5 108.5t-108.5 262.5zM264 1139q0 -71 51 -121.5t123 -50.5t123 50.5t51 121.5q0 72 -51 122t-123 50t-123 -50t-51 -122z" />
<glyph unicode="&#xb1;" horiz-adv-x="1189" d="M131 127q0 54 37 91.5t90 37.5h674q53 0 90 -37.5t37 -91.5q0 -53 -37.5 -90t-89.5 -37h-674q-52 0 -89.5 37t-37.5 90zM131 827q0 53 37.5 91t89.5 38h211v209q0 53 36.5 90t88.5 37q54 0 91.5 -37t37.5 -90v-209h209q52 0 89.5 -38t37.5 -91q0 -52 -37 -88.5t-90 -36.5 h-209v-210q0 -53 -37.5 -90t-91.5 -37q-52 0 -88.5 37t-36.5 90v210h-211q-53 0 -90 36.5t-37 88.5z" />
<glyph unicode="&#xb2;" horiz-adv-x="921" d="M195 719q0 97 40.5 163t110.5 124q25 21 75 58t75 57.5t47 54.5t22 69q0 45 -26 76t-80 31q-55 0 -103 -27q-11 -6 -27 -16.5t-28.5 -16.5t-26.5 -6q-31 0 -53 23t-22 55q0 37 28 59q95 76 236 76q69 0 122 -23t83 -60.5t44.5 -81t14.5 -89.5q0 -47 -13.5 -86.5t-41 -73 t-52.5 -56t-65 -52.5q-99 -69 -130 -101q-37 -38 -54 -79h280q32 0 54 -23t22 -55t-22 -55t-54 -23h-381q-33 0 -54 22t-21 56z" />
<glyph unicode="&#xb3;" horiz-adv-x="921" d="M203 754q0 31 19 51t48 20q6 0 13.5 -2.5t12.5 -5t17 -9.5t19 -11q40 -25 94 -25q61 0 95 33t34 90q0 111 -131 111q-82 0 -82 69q0 37 25.5 52.5t60.5 15.5q131 4 131 104q0 46 -26.5 76.5t-83.5 30.5q-56 0 -101 -25q-6 -4 -16 -10.5t-15.5 -10.5t-15 -7t-18.5 -3 q-26 0 -46 19t-20 51q0 39 41 72q67 59 197 59q67 0 118 -21.5t79 -56.5t41.5 -73.5t13.5 -77.5q0 -136 -121 -191q133 -48 133 -205q0 -101 -74 -172t-211 -71q-139 0 -205 63q-26 26 -26 60z" />
<glyph unicode="&#xb4;" horiz-adv-x="1085" d="M373 1309q0 23 20 71l99 197q31 74 106 74q53 0 81 -32t28 -79q0 -34 -31 -86l-105 -170q-24 -38 -47 -54t-59 -16q-41 0 -66.5 27.5t-25.5 67.5z" />
<glyph unicode="&#xb5;" horiz-adv-x="1171" d="M139 -238v1176q0 57 40 98t97 41t98.5 -41t41.5 -98v-532q0 -79 30 -119.5t113 -40.5q109 0 170 88v604q0 57 41 98t98 41t97.5 -41t40.5 -98v-641q0 -25 3.5 -42.5t15.5 -32.5t17 -19.5t25 -20.5q39 -35 39 -82q0 -57 -37.5 -84.5t-101.5 -27.5q-72 0 -129 45 q-28 19 -52 59q-113 -104 -303 -104q-41 0 -67 16v-242q0 -57 -41.5 -98t-98.5 -41t-97 41t-40 98z" />
<glyph unicode="&#xb6;" horiz-adv-x="1490" d="M143 1112q0 161 116 275t280 114h749q51 0 86 -35.5t35 -85.5q0 -51 -35 -85.5t-86 -34.5h-45v-1450q0 -59 -41.5 -100.5t-99.5 -41.5q-57 0 -99 42t-42 100v1450h-168v-1450q0 -58 -41.5 -100t-100.5 -42q-58 0 -99.5 41.5t-41.5 100.5v913q-154 9 -260.5 121 t-106.5 268z" />
<glyph unicode="&#xb7;" horiz-adv-x="610" d="M125 602q0 75 52.5 127.5t127.5 52.5q74 0 127 -52.5t53 -127.5q0 -73 -53 -125.5t-127 -52.5q-75 0 -127.5 52t-52.5 126z" />
<glyph unicode="&#xb8;" horiz-adv-x="1085" d="M344 -348q0 51 94 51q119 0 119 64q0 27 -21 39.5t-67 17.5q-44 3 -62 17.5t-14 49.5l10 115h125v-86q106 0 159.5 -45t53.5 -119q0 -78 -65 -124t-180 -46q-152 0 -152 66z" />
<glyph unicode="&#xb9;" horiz-adv-x="921" d="M171 1265.5q7 30.5 34 49.5l258 170q24 14 47 14q33 0 56.5 -23.5t23.5 -56.5v-624h84q32 0 55 -22.5t23 -53.5q0 -32 -23 -55t-55 -23h-408q-32 0 -55 23t-23 55q0 31 23 53.5t55 22.5h162v485l-139 -94q-28 -19 -59 -12.5t-48 34.5q-18 27 -11 57.5z" />
<glyph unicode="&#xba;" horiz-adv-x="933" d="M104 936v178q0 156 92.5 257.5t270.5 101.5q179 0 270.5 -101t91.5 -258v-178q0 -76 -21.5 -139.5t-64.5 -113t-113.5 -77.5t-162.5 -28q-179 0 -271 100.5t-92 257.5zM336 936q0 -154 131 -154q133 0 133 154v176q0 154 -133 154q-131 0 -131 -154v-176z" />
<glyph unicode="&#xbb;" horiz-adv-x="1409" d="M94 193q0 50 35 88l277 288l-277 287q-35 38 -35 88q0 54 39 90q35 35 86 35q56 0 92 -39l363 -373q37 -40 37 -88t-37 -88l-363 -375q-38 -38 -90 -38t-88 36q-39 36 -39 89zM729 195q0 48 35 86l278 288l-278 287q-35 38 -35 88q0 54 39 90q35 35 86 35q56 0 92 -39 l363 -373q37 -40 37 -88t-37 -88l-363 -375q-38 -38 -90 -38t-88 36q-39 36 -39 91z" />
<glyph unicode="&#xbc;" horiz-adv-x="921" d="M72 526q0 30 20.5 51t50.5 21h635q30 0 51 -21t21 -51q0 -31 -20.5 -51t-51.5 -20h-635q-31 0 -51 20t-20 51zM172 -231q0 14 10 34l217 519q12 28 41 39t58 -1q28 -12 39.5 -40.5t-0.5 -57.5l-179 -424h117v88q0 29 21.5 50.5t50.5 21.5q31 0 52.5 -21.5t21.5 -50.5v-88 h26q29 0 49.5 -20t20.5 -49t-20.5 -49.5t-49.5 -20.5h-26v-68q0 -29 -21.5 -50t-52.5 -21q-29 0 -50.5 21t-21.5 50v68h-231q-31 0 -51.5 19.5t-20.5 50.5zM186 1283.5q6 28.5 31 43.5l238 158q25 14 45 14q30 0 51.5 -22.5t21.5 -53.5v-577h80q29 0 49.5 -20.5t20.5 -51.5 q0 -29 -20.5 -50.5t-49.5 -21.5h-379q-30 0 -50.5 21t-20.5 51q0 31 20 51.5t51 20.5h150v448l-129 -86q-25 -15 -54 -9t-46 30q-15 26 -9 54.5z" />
<glyph unicode="&#xbd;" horiz-adv-x="921" d="M72 526q0 30 20.5 51t50.5 21h635q30 0 51 -21t21 -51q0 -31 -20.5 -51t-51.5 -20h-635q-31 0 -51 20t-20 51zM186 1283.5q6 28.5 31 43.5l238 158q25 14 45 14q30 0 51.5 -22.5t21.5 -53.5v-577h80q29 0 49.5 -20.5t20.5 -51.5q0 -29 -20.5 -50.5t-49.5 -21.5h-379 q-30 0 -50.5 21t-20.5 51q0 31 20 51.5t51 20.5h150v448l-129 -86q-25 -15 -54 -9t-46 30q-15 26 -9 54.5zM221 -358q0 90 37.5 151t103.5 115q24 21 69.5 54.5t70 53t45 50.5t20.5 63q0 41 -25.5 70.5t-74.5 29.5q-46 0 -96 -24q-10 -5 -25.5 -15.5t-26.5 -16t-24 -5.5 q-28 0 -49 21t-21 51q0 36 27 55q87 72 219 72q64 0 113 -21.5t77 -57t42 -76t14 -83.5q0 -83 -42 -137.5t-120 -110.5q-6 -4 -30 -21.5t-31.5 -23.5t-26.5 -21t-27.5 -24t-21 -23.5t-20 -28t-13.5 -28.5h260q30 0 51 -20t21 -49q0 -30 -21 -51t-51 -21h-352q-32 0 -52 20 t-20 52z" />
<glyph unicode="&#xbe;" horiz-adv-x="921" d="M72 526q0 30 20.5 51t50.5 21h635q30 0 51 -21t21 -51q0 -31 -20.5 -51t-51.5 -20h-635q-31 0 -51 20t-20 51zM174 -231q0 2 8 34l219 519q12 28 40.5 39t56.5 -1q29 -12 41 -40.5t0 -57.5l-181 -424h119v88q0 30 21 51t51 21q31 0 52.5 -21.5t21.5 -50.5v-88h26 q28 0 48 -20t20 -49t-20 -49.5t-48 -20.5h-26v-68q0 -29 -21.5 -50t-52.5 -21t-51.5 21t-20.5 50v68h-233q-30 0 -50 20t-20 50zM231 809q0 27 17.5 45t44.5 18q17 0 57 -24q42 -25 88 -25q57 0 89 31t32 84q0 102 -123 102q-76 0 -76 66q0 33 24 48t56 15q123 4 123 97 q0 43 -25.5 71.5t-78.5 28.5q-47 0 -92 -25q-2 -2 -9 -7t-10 -7t-9 -5.5t-10.5 -4.5t-10.5 -2.5t-13 -1.5q-25 0 -42 16.5t-17 48.5q0 39 37 66q67 55 182 55q61 0 108.5 -20t73.5 -52.5t38.5 -68t12.5 -72.5q0 -129 -112 -176q125 -48 125 -190q0 -94 -70 -161t-197 -67 q-125 0 -188 60q-25 25 -25 57z" />
<glyph unicode="&#xbf;" horiz-adv-x="946" d="M106 -76q0 61 16 113t49 95t64 72.5t78 67.5q95 74 121.5 114.5t26.5 96.5q0 50 34.5 83.5t90.5 33.5q59 0 94 -35t35 -96q0 -96 -31 -157t-125 -134q-7 -6 -31 -24.5t-30.5 -24t-25.5 -21.5t-25 -23t-19 -21.5t-17.5 -24.5t-11 -24.5t-8.5 -29t-2 -30.5 q0 -87 50.5 -126.5t127.5 -39.5q55 0 91.5 15t78.5 46q38 19 66 19q59 0 93 -36t34 -81q0 -74 -88 -131q-132 -74 -307 -74q-78 0 -151.5 21.5t-137 65t-102 118.5t-38.5 172zM406 897q0 75 53 127.5t127 52.5q75 0 126.5 -52.5t51.5 -127.5q0 -74 -52 -127t-126 -53 t-127 53.5t-53 126.5z" />
<glyph unicode="&#xc0;" horiz-adv-x="1183" d="M27 154q139 606 383 1212q59 147 180 147q127 0 186 -147q242 -593 381 -1212q18 -75 -27 -123.5t-112 -48.5q-48 0 -86 27.5t-49 82.5q-19 86 -56 217h-479q-38 -149 -53 -217q-13 -54 -50 -82t-83 -28q-64 0 -107.5 48.5t-27.5 123.5zM416 561h344q-71 241 -172 508 q-101 -275 -172 -508zM434 1952q0 47 28 78.5t81 31.5q75 0 106 -73l99 -197q20 -48 20 -72q0 -39 -25 -66.5t-65 -27.5q-37 0 -61 16t-48 54l-102 170q-33 56 -33 86z" />
<glyph unicode="&#xc1;" horiz-adv-x="1183" d="M27 154q139 606 383 1212q59 147 180 147q127 0 186 -147q242 -593 381 -1212q18 -75 -27 -123.5t-112 -48.5q-48 0 -86 27.5t-49 82.5q-19 86 -56 217h-479q-38 -149 -53 -217q-13 -54 -50 -82t-83 -28q-64 0 -107.5 48.5t-27.5 123.5zM406 1720q0 24 20 72l98 197 q31 73 107 73q53 0 80.5 -31.5t27.5 -78.5q0 -35 -30 -86l-105 -170q-24 -38 -47 -54t-59 -16q-42 0 -67 27t-25 67zM416 561h344q-71 241 -172 508q-101 -275 -172 -508z" />
<glyph unicode="&#xc2;" horiz-adv-x="1183" d="M27 154q139 606 383 1212q59 147 180 147q127 0 186 -147q242 -593 381 -1212q18 -75 -27 -123.5t-112 -48.5q-48 0 -86 27.5t-49 82.5q-19 86 -56 217h-479q-38 -149 -53 -217q-13 -54 -50 -82t-83 -28q-64 0 -107.5 48.5t-27.5 123.5zM256 1749q0 43 41 78l219 186 q39 31 78 31q37 -2 78 -31l219 -192q41 -33 41 -78q0 -34 -25 -66q-31 -39 -73 -39q-32 0 -68 25l-172 131l-172 -131q-35 -21 -66 -21q-46 0 -75 39q-25 36 -25 68zM416 561h344q-71 241 -172 508q-101 -275 -172 -508z" />
<glyph unicode="&#xc3;" horiz-adv-x="1183" d="M27 154q139 606 383 1212q59 147 180 147q127 0 186 -147q242 -593 381 -1212q18 -75 -27 -123.5t-112 -48.5q-48 0 -86 27.5t-49 82.5q-19 86 -56 217h-479q-38 -149 -53 -217q-13 -54 -50 -82t-83 -28q-64 0 -107.5 48.5t-27.5 123.5zM225 1812q-1 86 67.5 137.5 t153.5 53.5q50 1 97.5 -21t88.5 -44t77 -21q25 0 44 10t29 22t28.5 22t43.5 11q38 2 67 -32.5t29 -81.5q1 -87 -67 -137t-154 -52q-50 -1 -97 20t-88 42t-77 20q-25 0 -44.5 -10t-30 -22.5t-29 -22.5t-41.5 -10q-39 0 -68 33.5t-29 82.5zM416 561h344q-71 241 -172 508 q-101 -275 -172 -508z" />
<glyph unicode="&#xc4;" horiz-adv-x="1183" d="M27 154q139 606 383 1212q59 147 180 147q127 0 186 -147q242 -593 381 -1212q18 -75 -27 -123.5t-112 -48.5q-48 0 -86 27.5t-49 82.5q-19 86 -56 217h-479q-38 -149 -53 -217q-13 -54 -50 -82t-83 -28q-64 0 -107.5 48.5t-27.5 123.5zM258 1798q0 59 39.5 99t97.5 40 q59 0 99.5 -40.5t40.5 -98.5t-40.5 -97.5t-99.5 -39.5t-98 39.5t-39 97.5zM416 561h344q-71 241 -172 508q-101 -275 -172 -508zM647 1798q0 59 39.5 99t97.5 40q59 0 99.5 -40.5t40.5 -98.5t-40.5 -97.5t-99.5 -39.5q-58 0 -97.5 39.5t-39.5 97.5z" />
<glyph unicode="&#xc5;" horiz-adv-x="1183" d="M27 154q139 606 383 1212q59 147 180 147q127 0 186 -147q242 -593 381 -1212q18 -75 -27 -123.5t-112 -48.5q-48 0 -86 27.5t-49 82.5q-19 86 -56 217h-479q-38 -149 -53 -217q-13 -54 -50 -82t-83 -28q-64 0 -107.5 48.5t-27.5 123.5zM346 1780q0 101 71.5 172 t172.5 71t172.5 -71t71.5 -172t-71.5 -172.5t-172.5 -71.5t-172.5 71.5t-71.5 172.5zM416 561h344q-71 241 -172 508q-101 -275 -172 -508zM471 1780q0 -50 34.5 -84.5t84.5 -34.5t84.5 34.5t34.5 84.5q0 49 -34.5 83.5t-84.5 34.5t-84.5 -34.5t-34.5 -83.5z" />
<glyph unicode="&#xc6;" horiz-adv-x="1826" d="M23 121q0 25 14 65q260 549 606 1162q37 69 87.5 107t127.5 38h739q56 0 96 -40t40 -95t-40 -94t-96 -39h-444v-348h397q54 0 91.5 -39t37.5 -93t-37.5 -91.5t-91.5 -37.5h-397v-348h471q56 0 94.5 -39t38.5 -94q0 -57 -38.5 -96t-94.5 -39h-618q-57 0 -96.5 39t-39.5 96 v172h-460l-117 -239q-38 -82 -123 -82q-62 0 -104.5 38.5t-42.5 96.5zM535 557h335v623q-146 -254 -335 -623z" />
<glyph unicode="&#xc7;" horiz-adv-x="1118" d="M131 631v231q0 114 18.5 210t60 178.5t105 139.5t156.5 89t211 32q88 0 174.5 -25t140.5 -71q60 -43 60 -104q0 -50 -34 -88t-95 -39q-8 0 -15.5 1.5l-12.5 2.5t-14.5 5.5t-13 6t-16.5 8.5t-18 9q-55 40 -156 40q-136 0 -202 -95.5t-66 -307.5v-219q0 -217 63.5 -307 t194.5 -90q105 0 176 45q58 30 88 30q48 0 82.5 -33.5t34.5 -84.5q0 -65 -56 -107q-50 -47 -130 -73t-160 -31v-70q108 0 160.5 -44.5t52.5 -119.5q0 -78 -65 -124t-181 -46q-152 0 -152 66q0 27 22 39t72 12q119 0 119 61q0 51 -86 60q-44 3 -62.5 17.5t-15.5 49.5l9 103 q-233 27 -341 195t-108 448z" />
<glyph unicode="&#xc8;" horiz-adv-x="1161" d="M160 135v1223q0 56 39 95.5t94 39.5h637q57 0 96 -39.5t39 -95.5t-39 -94.5t-96 -38.5h-488v-348h443q54 0 92.5 -39t38.5 -93t-38.5 -91.5t-92.5 -37.5h-443v-348h516q56 0 95 -39t39 -94q0 -57 -39 -96t-95 -39h-665q-56 0 -94.5 39t-38.5 96zM453 1952q0 47 27.5 78.5 t80.5 31.5q76 0 107 -73l98 -197q20 -48 20 -72q0 -39 -25 -66.5t-65 -27.5q-37 0 -60.5 16t-47.5 54l-103 170q-32 54 -32 86z" />
<glyph unicode="&#xc9;" horiz-adv-x="1161" d="M160 135v1223q0 56 39 95.5t94 39.5h637q57 0 96 -39.5t39 -95.5t-39 -94.5t-96 -38.5h-488v-348h443q54 0 92.5 -39t38.5 -93t-38.5 -91.5t-92.5 -37.5h-443v-348h516q56 0 95 -39t39 -94q0 -57 -39 -96t-95 -39h-665q-56 0 -94.5 39t-38.5 96zM463 1720q0 24 20 72 l99 197q31 73 106 73q53 0 81 -31.5t28 -78.5q0 -34 -31 -86l-104 -170q-24 -38 -47.5 -54t-59.5 -16q-42 0 -67 27t-25 67z" />
<glyph unicode="&#xca;" horiz-adv-x="1161" d="M160 135v1223q0 56 39 95.5t94 39.5h637q57 0 96 -39.5t39 -95.5t-39 -94.5t-96 -38.5h-488v-348h443q54 0 92.5 -39t38.5 -93t-38.5 -91.5t-92.5 -37.5h-443v-348h516q56 0 95 -39t39 -94q0 -57 -39 -96t-95 -39h-665q-56 0 -94.5 39t-38.5 96zM279 1749q0 44 40 78 l220 186q39 31 77 31q37 -2 78 -31l219 -192q41 -33 41 -78q0 -35 -24 -66q-31 -39 -74 -39q-32 0 -68 25l-172 131l-172 -131q-34 -21 -65 -21q-47 0 -76 39q-24 34 -24 68z" />
<glyph unicode="&#xcb;" horiz-adv-x="1161" d="M160 135v1223q0 56 39 95.5t94 39.5h637q57 0 96 -39.5t39 -95.5t-39 -94.5t-96 -38.5h-488v-348h443q54 0 92.5 -39t38.5 -93t-38.5 -91.5t-92.5 -37.5h-443v-348h516q56 0 95 -39t39 -94q0 -57 -39 -96t-95 -39h-665q-56 0 -94.5 39t-38.5 96zM260 1798q0 59 39.5 99 t97.5 40q59 0 99.5 -40.5t40.5 -98.5t-40.5 -97.5t-99.5 -39.5t-98 39.5t-39 97.5zM649 1798q0 59 39.5 99t97.5 40q59 0 99.5 -40.5t40.5 -98.5t-40.5 -97.5t-99.5 -39.5q-58 0 -97.5 39.5t-39.5 97.5z" />
<glyph unicode="&#xcc;" horiz-adv-x="600" d="M137 1952q0 47 28 78.5t81 31.5q75 0 106 -73l99 -197q20 -48 20 -72q0 -39 -25 -66.5t-65 -27.5q-37 0 -61 16t-48 54l-102 170q-33 56 -33 86zM160 123v1247q0 58 41 99.5t100 41.5q58 0 99.5 -42t41.5 -99v-1247q0 -59 -41 -100t-100 -41q-60 0 -100.5 41t-40.5 100z " />
<glyph unicode="&#xcd;" horiz-adv-x="600" d="M121 1720q0 24 20 72l99 197q31 73 106 73q53 0 81 -31.5t28 -78.5q0 -34 -31 -86l-105 -170q-24 -38 -47 -54t-59 -16q-42 0 -67 27t-25 67zM160 123v1247q0 58 41 99.5t100 41.5q58 0 99.5 -42t41.5 -99v-1247q0 -59 -41 -100t-100 -41q-60 0 -100.5 41t-40.5 100z" />
<glyph unicode="&#xce;" horiz-adv-x="600" d="M-35 1749q0 43 41 78l219 186q39 31 78 31q37 -2 78 -31l219 -192q41 -33 41 -78q0 -34 -25 -66q-31 -39 -73 -39q-32 0 -68 25l-172 131l-172 -131q-35 -21 -65 -21q-47 0 -76 39q-25 36 -25 68zM160 123v1247q0 58 41 99.5t100 41.5q58 0 99.5 -42t41.5 -99v-1247 q0 -59 -41 -100t-100 -41q-60 0 -100.5 41t-40.5 100z" />
<glyph unicode="&#xcf;" horiz-adv-x="600" d="M-31 1798q0 59 39.5 99t97.5 40q59 0 99.5 -40.5t40.5 -98.5t-40.5 -97.5t-99.5 -39.5q-58 0 -97.5 39.5t-39.5 97.5zM160 123v1247q0 58 41 99.5t100 41.5q58 0 99.5 -42t41.5 -99v-1247q0 -59 -41 -100t-100 -41q-60 0 -100.5 41t-40.5 100zM358 1798q0 59 40 99t98 40 t98.5 -40.5t40.5 -98.5t-40 -97.5t-99 -39.5t-98.5 39.5t-39.5 97.5z" />
<glyph unicode="&#xd0;" horiz-adv-x="1386" d="M23 733q0 54 38 91.5t93 37.5h45v490q0 57 41.5 99t99.5 42h387q95 0 173 -19.5t131.5 -51t94.5 -77.5t65 -94t39 -105t20 -106t5 -102v-385q0 -54 -5 -102.5t-20 -106t-39 -105t-64.5 -93t-94.5 -77t-132 -50.5t-173 -19h-387q-58 0 -99.5 41t-41.5 100v461h-45 q-55 0 -93 38.5t-38 92.5zM481 264h228q149 0 206.5 73.5t57.5 215.5v381q0 69 -12 119.5t-40.5 90.5t-81.5 60.5t-130 20.5h-228v-363h113q54 0 92.5 -37.5t38.5 -91.5t-38.5 -92.5t-92.5 -38.5h-113v-338z" />
<glyph unicode="&#xd1;" horiz-adv-x="1376" d="M160 111v1271q0 54 37 91.5t100 37.5q94 0 137 -73l524 -871v815q0 53 37.5 91t91.5 38t92 -38t38 -91v-1271q0 -55 -38.5 -92t-97.5 -37q-93 0 -137 67l-526 875v-813q0 -54 -37.5 -91.5t-91.5 -37.5t-91.5 37.5t-37.5 91.5zM315 1812q-1 86 68 137.5t154 53.5 q50 1 97 -21t88 -44t77 -21q25 0 44 10t29 22t28.5 22t43.5 11q38 2 67 -32.5t29 -81.5q1 -87 -67 -137t-154 -52q-50 -1 -97 20t-88 42t-77 20q-25 0 -44.5 -10t-30 -22.5t-29 -22.5t-41.5 -10q-39 0 -68 33.5t-29 82.5z" />
<glyph unicode="&#xd2;" d="M131 535v423q0 88 16.5 166t56.5 150t99.5 123.5t152 82.5t208.5 31t208.5 -31t152.5 -82.5t99.5 -123.5t56.5 -150t17 -166v-423q0 -88 -17 -166t-56.5 -150.5t-99.5 -124.5t-152.5 -83t-208.5 -31t-208.5 31t-152 83t-99.5 124.5t-56.5 150.5t-16.5 166zM414 535 q0 -144 55.5 -221.5t194.5 -77.5t195 77.5t56 221.5v423q0 68 -11.5 119t-39 92t-77.5 62.5t-123 21.5q-72 0 -122 -21t-77.5 -62t-39 -92t-11.5 -120v-423zM514 1952q0 47 28 78.5t81 31.5q75 0 106 -73l98 -197q21 -51 21 -72q0 -39 -25 -66.5t-65 -27.5q-37 0 -61 16 t-48 54l-102 170q-33 56 -33 86z" />
<glyph unicode="&#xd3;" d="M131 535v423q0 88 16.5 166t56.5 150t99.5 123.5t152 82.5t208.5 31t208.5 -31t152.5 -82.5t99.5 -123.5t56.5 -150t17 -166v-423q0 -88 -17 -166t-56.5 -150.5t-99.5 -124.5t-152.5 -83t-208.5 -31t-208.5 31t-152 83t-99.5 124.5t-56.5 150.5t-16.5 166zM414 535 q0 -144 55.5 -221.5t194.5 -77.5t195 77.5t56 221.5v423q0 68 -11.5 119t-39 92t-77.5 62.5t-123 21.5q-72 0 -122 -21t-77.5 -62t-39 -92t-11.5 -120v-423zM471 1720q0 21 21 72l98 197q31 73 106 73q53 0 81 -31.5t28 -78.5q0 -34 -31 -86l-104 -170q-24 -38 -47.5 -54 t-59.5 -16q-42 0 -67 27t-25 67z" />
<glyph unicode="&#xd4;" d="M131 535v423q0 88 16.5 166t56.5 150t99.5 123.5t152 82.5t208.5 31t208.5 -31t152.5 -82.5t99.5 -123.5t56.5 -150t17 -166v-423q0 -88 -17 -166t-56.5 -150.5t-99.5 -124.5t-152.5 -83t-208.5 -31t-208.5 31t-152 83t-99.5 124.5t-56.5 150.5t-16.5 166zM326 1749 q0 43 41 78l219 186q39 31 78 31q36 -2 77 -31l220 -192q40 -32 40 -78q0 -35 -24 -66q-31 -39 -74 -39q-31 0 -67 25l-172 131l-172 -131q-34 -21 -66 -21q-47 0 -76 39q-24 34 -24 68zM414 535q0 -144 55.5 -221.5t194.5 -77.5t195 77.5t56 221.5v423q0 68 -11.5 119 t-39 92t-77.5 62.5t-123 21.5q-72 0 -122 -21t-77.5 -62t-39 -92t-11.5 -120v-423z" />
<glyph unicode="&#xd5;" d="M131 535v423q0 88 16.5 166t56.5 150t99.5 123.5t152 82.5t208.5 31t208.5 -31t152.5 -82.5t99.5 -123.5t56.5 -150t17 -166v-423q0 -88 -17 -166t-56.5 -150.5t-99.5 -124.5t-152.5 -83t-208.5 -31t-208.5 31t-152 83t-99.5 124.5t-56.5 150.5t-16.5 166zM291 1812 q-1 86 67.5 137.5t153.5 53.5q50 1 97 -21t88 -44t77 -21q32 0 53 16t41.5 32t51.5 17q38 2 67 -32.5t29 -81.5q1 -87 -67 -137t-154 -52q-50 -1 -97.5 20t-88.5 42t-77 20q-25 0 -44.5 -10t-30 -22.5t-29 -22.5t-41.5 -10q-39 0 -67.5 33.5t-28.5 82.5zM414 535 q0 -144 55.5 -221.5t194.5 -77.5t195 77.5t56 221.5v423q0 68 -11.5 119t-39 92t-77.5 62.5t-123 21.5q-72 0 -122 -21t-77.5 -62t-39 -92t-11.5 -120v-423z" />
<glyph unicode="&#xd6;" d="M131 535v423q0 88 16.5 166t56.5 150t99.5 123.5t152 82.5t208.5 31t208.5 -31t152.5 -82.5t99.5 -123.5t56.5 -150t17 -166v-423q0 -88 -17 -166t-56.5 -150.5t-99.5 -124.5t-152.5 -83t-208.5 -31t-208.5 31t-152 83t-99.5 124.5t-56.5 150.5t-16.5 166zM332 1798 q0 59 39.5 99t97.5 40q59 0 99 -40.5t40 -98.5t-40 -97.5t-99 -39.5t-98 39.5t-39 97.5zM414 535q0 -144 55.5 -221.5t194.5 -77.5t195 77.5t56 221.5v423q0 68 -11.5 119t-39 92t-77.5 62.5t-123 21.5q-72 0 -122 -21t-77.5 -62t-39 -92t-11.5 -120v-423zM721 1798 q0 59 39.5 99t97.5 40t98.5 -40.5t40.5 -98.5t-40 -97.5t-99 -39.5q-58 0 -97.5 39.5t-39.5 97.5z" />
<glyph unicode="&#xd7;" horiz-adv-x="1003" d="M129 339.5q0 52.5 37 90.5l156 156l-156 153q-37 38 -37 91t37 90q38 38 90.5 38t89.5 -38l156 -154l155 154q37 38 90 38t91 -38q37 -37 37 -90t-37 -91l-156 -153l156 -156q37 -38 37 -90.5t-37 -89.5q-38 -38 -91 -38t-90 38l-155 156l-156 -156q-37 -38 -89.5 -38 t-90.5 38q-37 37 -37 89.5z" />
<glyph unicode="&#xd8;" d="M131 535v423q0 88 16.5 166t56.5 150t99.5 123.5t152 82.5t208.5 31q132 0 237 -43l23 52q14 29 43.5 40.5t60.5 -1.5q29 -12 40.5 -43t-1.5 -62l-29 -68q160 -147 160 -428v-423q0 -88 -17 -166t-56.5 -150.5t-99.5 -124.5t-152.5 -83t-208.5 -31q-138 0 -236 43 l-25 -54q-12 -29 -42.5 -40t-61.5 1q-29 14 -40.5 44t1.5 61l31 69q-160 145 -160 431zM414 535q0 -68 20 -109l361 803q-47 24 -131 24q-72 0 -122 -21t-77.5 -62t-39 -92t-11.5 -120v-423zM535 262q51 -26 129 -26q139 0 195 77.5t56 221.5v423q0 66 -20 107z" />
<glyph unicode="&#xd9;" d="M131 485v885q0 59 40.5 100t98.5 41q59 0 100.5 -41.5t41.5 -99.5v-872q0 -41 6.5 -77t23.5 -73t44.5 -62.5t73 -42t104.5 -16.5t104.5 16.5t72.5 42t44.5 62.5t23.5 73t6 77v872q0 57 42 99t100 42t99.5 -42t41.5 -99v-885q0 -106 -32.5 -195.5t-96 -159t-167.5 -109 t-238 -39.5t-237.5 39.5t-167 109t-96 159t-32.5 195.5zM492 1952q0 47 27.5 78.5t80.5 31.5q76 0 107 -73l98 -197q20 -48 20 -72q0 -39 -25 -66.5t-65 -27.5q-37 0 -60.5 16t-47.5 54l-103 170q-32 54 -32 86z" />
<glyph unicode="&#xda;" d="M131 485v885q0 59 40.5 100t98.5 41q59 0 100.5 -41.5t41.5 -99.5v-872q0 -41 6.5 -77t23.5 -73t44.5 -62.5t73 -42t104.5 -16.5t104.5 16.5t72.5 42t44.5 62.5t23.5 73t6 77v872q0 57 42 99t100 42t99.5 -42t41.5 -99v-885q0 -106 -32.5 -195.5t-96 -159t-167.5 -109 t-238 -39.5t-237.5 39.5t-167 109t-96 159t-32.5 195.5zM512 1720q0 24 20 72l99 197q31 73 106 73q53 0 81 -31.5t28 -78.5q0 -34 -31 -86l-104 -170q-24 -38 -47.5 -54t-59.5 -16q-42 0 -67 27t-25 67z" />
<glyph unicode="&#xdb;" d="M131 485v885q0 59 40.5 100t98.5 41q59 0 100.5 -41.5t41.5 -99.5v-872q0 -41 6.5 -77t23.5 -73t44.5 -62.5t73 -42t104.5 -16.5t104.5 16.5t72.5 42t44.5 62.5t23.5 73t6 77v872q0 57 42 99t100 42t99.5 -42t41.5 -99v-885q0 -106 -32.5 -195.5t-96 -159t-167.5 -109 t-238 -39.5t-237.5 39.5t-167 109t-96 159t-32.5 195.5zM322 1749q0 44 40 78l220 186q39 31 77 31q37 -2 78 -31l219 -192q41 -33 41 -78q0 -35 -24 -66q-31 -39 -74 -39q-32 0 -68 25l-172 131l-172 -131q-34 -21 -65 -21q-47 0 -76 39q-24 34 -24 68z" />
<glyph unicode="&#xdc;" d="M131 485v885q0 59 40.5 100t98.5 41q59 0 100.5 -41.5t41.5 -99.5v-872q0 -41 6.5 -77t23.5 -73t44.5 -62.5t73 -42t104.5 -16.5t104.5 16.5t72.5 42t44.5 62.5t23.5 73t6 77v872q0 57 42 99t100 42t99.5 -42t41.5 -99v-885q0 -106 -32.5 -195.5t-96 -159t-167.5 -109 t-238 -39.5t-237.5 39.5t-167 109t-96 159t-32.5 195.5zM332 1798q0 59 39.5 99t97.5 40q59 0 99 -40.5t40 -98.5t-40 -97.5t-99 -39.5t-98 39.5t-39 97.5zM721 1798q0 59 39.5 99t97.5 40t98.5 -40.5t40.5 -98.5t-40 -97.5t-99 -39.5q-58 0 -97.5 39.5t-39.5 97.5z" />
<glyph unicode="&#xdd;" horiz-adv-x="1075" d="M0 1374q0 59 44.5 98t102.5 39q81 0 121 -84q92 -217 273 -563q172 334 274 566q38 81 119 81q55 0 98 -38t43 -95q0 -24 -14 -59q-149 -337 -383 -770v-426q0 -59 -41 -100t-100 -41q-60 0 -101 41t-41 100v426q-232 427 -381 766q-14 28 -14 59zM369 1720q0 24 20 72 l98 197q31 73 107 73q53 0 80.5 -31.5t27.5 -78.5q0 -35 -30 -86l-105 -170q-24 -38 -47 -54t-59 -16q-42 0 -67 27t-25 67z" />
<glyph unicode="&#xde;" horiz-adv-x="1232" d="M160 -219v1640q0 58 41 100t100 42q58 0 99.5 -42.5t41.5 -99.5v-270h246q103 0 184.5 -24.5t133.5 -65t86.5 -96.5t48.5 -114t14 -122v-104q0 -187 -120.5 -300.5t-334.5 -113.5h-258v-430q0 -59 -41 -100t-100 -41q-60 0 -100.5 41t-40.5 100zM442 469h248 q97 0 140.5 45.5t43.5 114.5v94q0 162 -210 162h-222v-416z" />
<glyph unicode="&#xdf;" horiz-adv-x="1230" d="M135 12v961q0 255 126.5 387.5t342.5 132.5q180 0 291 -96.5t111 -270.5q0 -68 -20.5 -119.5t-51.5 -78.5t-66.5 -49.5t-66.5 -35t-51.5 -32t-20.5 -43.5q0 -34 28.5 -54.5t82.5 -35.5q54 -16 92.5 -32.5t77.5 -43.5t62.5 -61t38.5 -84.5t15 -114.5q0 -90 -36.5 -159.5 t-99.5 -110.5t-140 -61.5t-164 -20.5q-100 0 -156 22q-43 13 -62 58.5t-5 89.5q10 26 35 47t63 20q82 -12 129 -12q80 0 127 31.5t47 93.5q0 16 -3 30.5t-11 26.5t-15.5 21.5t-23.5 20t-26.5 16.5t-33.5 16t-36 15.5t-42 16.5t-44 17q-166 61 -166 207q0 47 15.5 83 t40.5 58.5t55 41.5t60 36.5t55 37.5t40.5 52t15.5 74q0 75 -44 110t-107 35q-182 0 -182 -282v-961q0 -58 -40.5 -98.5t-99.5 -40.5q-56 0 -96.5 40.5t-40.5 98.5z" />
<glyph unicode="&#xe0;" horiz-adv-x="1095" d="M72 309v15q0 144 105.5 226.5t299.5 82.5h182v39q0 96 -33 141t-122 45q-75 0 -146 -27q-12 -4 -35.5 -13t-38.5 -13t-32 -4q-46 0 -76.5 30.5t-30.5 73.5q0 80 119 127q111 45 262 45q221 0 315.5 -103t94.5 -335v-342q0 -33 8 -55.5t16.5 -32.5t28.5 -27q39 -35 39 -82 q0 -57 -36.5 -84.5t-98.5 -27.5q-60 0 -109 28q-43 26 -61 58q-101 -86 -283 -86q-179 0 -273.5 85.5t-94.5 235.5zM346 303q0 -58 38.5 -89.5t115.5 -31.5q73 0 116 41.5t43 120.5v90h-149q-164 0 -164 -117v-14zM354 1540q0 47 28 79t81 32q75 0 106 -74l99 -197 q20 -48 20 -71q0 -40 -25 -67.5t-65 -27.5q-37 0 -61 16t-48 54l-102 170q-33 56 -33 86z" />
<glyph unicode="&#xe1;" horiz-adv-x="1095" d="M72 309v15q0 144 105.5 226.5t299.5 82.5h182v39q0 96 -33 141t-122 45q-75 0 -146 -27q-12 -4 -35.5 -13t-38.5 -13t-32 -4q-46 0 -76.5 30.5t-30.5 73.5q0 80 119 127q111 45 262 45q221 0 315.5 -103t94.5 -335v-342q0 -33 8 -55.5t16.5 -32.5t28.5 -27q39 -35 39 -82 q0 -57 -36.5 -84.5t-98.5 -27.5q-60 0 -109 28q-43 26 -61 58q-101 -86 -283 -86q-179 0 -273.5 85.5t-94.5 235.5zM346 303q0 -58 38.5 -89.5t115.5 -31.5q73 0 116 41.5t43 120.5v90h-149q-164 0 -164 -117v-14zM371 1309q0 23 20 71l98 197q31 74 107 74q53 0 81 -32 t28 -79q0 -34 -31 -86l-105 -170q-24 -38 -47 -54t-59 -16q-41 0 -66.5 27.5t-25.5 67.5z" />
<glyph unicode="&#xe2;" horiz-adv-x="1095" d="M72 309v15q0 144 105.5 226.5t299.5 82.5h182v39q0 96 -33 141t-122 45q-75 0 -146 -27q-12 -4 -35.5 -13t-38.5 -13t-32 -4q-46 0 -76.5 30.5t-30.5 73.5q0 80 119 127q111 45 262 45q221 0 315.5 -103t94.5 -335v-342q0 -33 8 -55.5t16.5 -32.5t28.5 -27q39 -35 39 -82 q0 -57 -36.5 -84.5t-98.5 -27.5q-60 0 -109 28q-43 26 -61 58q-101 -86 -283 -86q-179 0 -273.5 85.5t-94.5 235.5zM188 1337q0 43 41 78l220 187q38 30 77 30q38 -2 78 -30l219 -193q41 -33 41 -78q0 -34 -24 -65q-31 -39 -74 -39q-34 0 -68 24l-172 131l-172 -131 q-33 -20 -65 -20q-47 0 -76 39q-25 36 -25 67zM346 303q0 -58 38.5 -89.5t115.5 -31.5q73 0 116 41.5t43 120.5v90h-149q-164 0 -164 -117v-14z" />
<glyph unicode="&#xe3;" horiz-adv-x="1095" d="M72 309v15q0 144 105.5 226.5t299.5 82.5h182v39q0 96 -33 141t-122 45q-75 0 -146 -27q-12 -4 -35.5 -13t-38.5 -13t-32 -4q-46 0 -76.5 30.5t-30.5 73.5q0 80 119 127q111 45 262 45q221 0 315.5 -103t94.5 -335v-342q0 -33 8 -55.5t16.5 -32.5t28.5 -27q39 -35 39 -82 q0 -57 -36.5 -84.5t-98.5 -27.5q-60 0 -109 28q-43 26 -61 58q-101 -86 -283 -86q-179 0 -273.5 85.5t-94.5 235.5zM158 1401q-1 86 67.5 137t153.5 53q50 1 97 -21t88 -44t77 -21q32 0 52.5 16t41 32.5t51.5 17.5q38 2 67.5 -33t29.5 -82q1 -87 -67 -136.5t-154 -51.5 q-50 -1 -97.5 20t-88.5 42t-77 20q-32 0 -53.5 -16.5t-42 -33t-49.5 -16.5q-39 0 -67.5 34t-28.5 83zM346 303q0 -58 38.5 -89.5t115.5 -31.5q73 0 116 41.5t43 120.5v90h-149q-164 0 -164 -117v-14z" />
<glyph unicode="&#xe4;" horiz-adv-x="1095" d="M72 309v15q0 144 105.5 226.5t299.5 82.5h182v39q0 96 -33 141t-122 45q-75 0 -146 -27q-12 -4 -35.5 -13t-38.5 -13t-32 -4q-46 0 -76.5 30.5t-30.5 73.5q0 80 119 127q111 45 262 45q221 0 315.5 -103t94.5 -335v-342q0 -33 8 -55.5t16.5 -32.5t28.5 -27q39 -35 39 -82 q0 -57 -36.5 -84.5t-98.5 -27.5q-60 0 -109 28q-43 26 -61 58q-101 -86 -283 -86q-179 0 -273.5 85.5t-94.5 235.5zM205 1382q0 59 39.5 99.5t97.5 40.5t98.5 -40.5t40.5 -99.5q0 -58 -40 -97.5t-99 -39.5q-58 0 -97.5 39.5t-39.5 97.5zM346 303q0 -58 38.5 -89.5 t115.5 -31.5q73 0 116 41.5t43 120.5v90h-149q-164 0 -164 -117v-14zM594 1382q0 59 39.5 99.5t97.5 40.5t98.5 -40.5t40.5 -99.5q0 -58 -40 -97.5t-99 -39.5t-98 39.5t-39 97.5z" />
<glyph unicode="&#xe5;" horiz-adv-x="1095" d="M72 309v15q0 144 105.5 226.5t299.5 82.5h182v39q0 96 -33 141t-122 45q-75 0 -146 -27q-12 -4 -35.5 -13t-38.5 -13t-32 -4q-46 0 -76.5 30.5t-30.5 73.5q0 80 119 127q111 45 262 45q221 0 315.5 -103t94.5 -335v-342q0 -33 8 -55.5t16.5 -32.5t28.5 -27q39 -35 39 -82 q0 -57 -36.5 -84.5t-98.5 -27.5q-60 0 -109 28q-43 26 -61 58q-101 -86 -283 -86q-179 0 -273.5 85.5t-94.5 235.5zM276 1425q0 101 71.5 172.5t172.5 71.5t172.5 -71.5t71.5 -172.5t-71.5 -172t-172.5 -71t-172.5 71t-71.5 172zM346 303q0 -58 38.5 -89.5t115.5 -31.5 q73 0 116 41.5t43 120.5v90h-149q-164 0 -164 -117v-14zM401 1425q0 -49 34.5 -83.5t84.5 -34.5t84.5 34.5t34.5 83.5t-34.5 84t-84.5 35t-84.5 -35t-34.5 -84z" />
<glyph unicode="&#xe6;" horiz-adv-x="1609" d="M72 307v19q0 146 105 227.5t300 81.5h182v37q0 96 -33 141t-122 45q-104 0 -185 -45q-56 -24 -97.5 -9.5t-63.5 54.5q-20 32 -9.5 74.5t52.5 68.5q117 76 325 76q200 0 295 -92q102 92 273 92q113 0 197.5 -35.5t133.5 -98t73 -140t24 -170.5v-92q0 -41 -28.5 -70 t-68.5 -29h-489v-34q0 -94 42.5 -144.5t127.5 -50.5q72 0 122 10.5t107 34.5q42 17 82.5 -4t52.5 -66t-4 -81.5t-55 -53.5q-144 -65 -319 -65q-210 0 -320 123q-102 -123 -332 -123q-180 0 -274 85t-94 234zM346 303q0 -119 154 -119q73 0 116 40.5t43 119.5v98h-149 q-164 0 -164 -118v-21zM936 635h319v45q0 182 -157 182q-79 0 -120.5 -47t-41.5 -135v-45z" />
<glyph unicode="&#xe7;" horiz-adv-x="919" d="M104 455v141q0 100 27.5 186.5t80.5 152.5t136 104t187 38q166 0 268 -59q87 -51 53 -141q-17 -44 -58 -61.5t-81 1.5q-74 33 -156 33q-85 0 -131.5 -58.5t-46.5 -164.5v-189q0 -107 42.5 -166t125.5 -59q90 0 166 35q40 19 82 0.5t57 -62.5q28 -94 -57 -139 q-92 -50 -221 -57v-68q106 0 159.5 -45t53.5 -119q0 -78 -65 -124t-181 -46q-152 0 -152 68q0 49 94 49q119 0 119 62q0 51 -88 57q-44 5 -62 20t-14 50l9 100q-176 24 -261.5 146.5t-85.5 314.5z" />
<glyph unicode="&#xe8;" horiz-adv-x="1054" d="M104 436v191q0 73 16 139t50.5 123t84.5 98.5t122.5 65.5t159.5 24q112 0 196.5 -35t134 -97.5t73.5 -141t24 -172.5v-84q0 -42 -28 -70t-67 -28h-489v-41q0 -95 43.5 -147t130.5 -52q79 0 156 22q12 4 37 14.5t40 14.5t33 4q46 0 72.5 -29.5t26.5 -76.5q0 -78 -119 -129 q-113 -41 -264 -41q-93 0 -167 24t-123.5 64.5t-82 98t-46.5 122.5t-14 139zM377 1540q0 47 27.5 79t80.5 32q76 0 107 -74l98 -197q21 -51 21 -71q0 -40 -25 -67.5t-65 -27.5q-37 0 -61 16t-48 54l-102 170q-33 56 -33 86zM381 653h317v27q0 90 -37 136t-118 46t-121.5 -47 t-40.5 -135v-27z" />
<glyph unicode="&#xe9;" horiz-adv-x="1054" d="M104 436v191q0 73 16 139t50.5 123t84.5 98.5t122.5 65.5t159.5 24q112 0 196.5 -35t134 -97.5t73.5 -141t24 -172.5v-84q0 -42 -28 -70t-67 -28h-489v-41q0 -95 43.5 -147t130.5 -52q79 0 156 22q12 4 37 14.5t40 14.5t33 4q46 0 72.5 -29.5t26.5 -76.5q0 -78 -119 -129 q-113 -41 -264 -41q-93 0 -167 24t-123.5 64.5t-82 98t-46.5 122.5t-14 139zM373 1309q0 23 20 71l99 197q31 74 106 74q53 0 81 -32t28 -79q0 -34 -31 -86l-105 -170q-24 -38 -47 -54t-59 -16q-41 0 -66.5 27.5t-25.5 67.5zM381 653h317v27q0 90 -37 136t-118 46 t-121.5 -47t-40.5 -135v-27z" />
<glyph unicode="&#xea;" horiz-adv-x="1054" d="M104 436v191q0 73 16 139t50.5 123t84.5 98.5t122.5 65.5t159.5 24q112 0 196.5 -35t134 -97.5t73.5 -141t24 -172.5v-84q0 -42 -28 -70t-67 -28h-489v-41q0 -95 43.5 -147t130.5 -52q79 0 156 22q12 4 37 14.5t40 14.5t33 4q46 0 72.5 -29.5t26.5 -76.5q0 -78 -119 -129 q-113 -41 -264 -41q-93 0 -167 24t-123.5 64.5t-82 98t-46.5 122.5t-14 139zM193 1337q0 44 40 78l220 187q38 30 77 30q38 -2 78 -30l219 -193q41 -33 41 -78q0 -34 -24 -65q-31 -39 -74 -39q-34 0 -68 24l-172 131l-172 -131q-33 -20 -65 -20q-47 0 -76 39q-24 34 -24 67z M381 653h317v27q0 90 -37 136t-118 46t-121.5 -47t-40.5 -135v-27z" />
<glyph unicode="&#xeb;" horiz-adv-x="1054" d="M104 436v191q0 73 16 139t50.5 123t84.5 98.5t122.5 65.5t159.5 24q112 0 196.5 -35t134 -97.5t73.5 -141t24 -172.5v-84q0 -42 -28 -70t-67 -28h-489v-41q0 -95 43.5 -147t130.5 -52q79 0 156 22q12 4 37 14.5t40 14.5t33 4q46 0 72.5 -29.5t26.5 -76.5q0 -78 -119 -129 q-113 -41 -264 -41q-93 0 -167 24t-123.5 64.5t-82 98t-46.5 122.5t-14 139zM199 1382q0 59 39.5 99.5t97.5 40.5t98.5 -40.5t40.5 -99.5q0 -58 -40 -97.5t-99 -39.5q-58 0 -97.5 39.5t-39.5 97.5zM381 653h317v27q0 90 -37 136t-118 46t-121.5 -47t-40.5 -135v-27z M588 1382q0 59 39.5 99.5t97.5 40.5t98.5 -40.5t40.5 -99.5q0 -58 -40 -97.5t-99 -39.5t-98 39.5t-39 97.5z" />
<glyph unicode="&#xec;" horiz-adv-x="548" d="M109 1540q0 47 27.5 79t80.5 32q76 0 107 -74l98 -197q20 -48 20 -71q0 -40 -25 -67.5t-65 -27.5q-37 0 -60.5 16t-47.5 54l-103 170q-32 54 -32 86zM135 125v813q0 57 40.5 98t96.5 41q58 0 99 -41t41 -98v-813q0 -57 -41 -97t-99 -40q-56 0 -96.5 40t-40.5 97z" />
<glyph unicode="&#xed;" horiz-adv-x="548" d="M106 1309q0 20 21 71l98 197q31 74 107 74q53 0 80.5 -32t27.5 -79q0 -35 -30 -86l-105 -170q-24 -38 -47 -54t-59 -16q-42 0 -67.5 27.5t-25.5 67.5zM135 125v813q0 57 40.5 98t96.5 41q58 0 99 -41t41 -98v-813q0 -57 -41 -97t-99 -40q-56 0 -96.5 40t-40.5 97z" />
<glyph unicode="&#xee;" horiz-adv-x="548" d="M-63 1337q0 44 40 78l220 187q37 30 77 30q38 -2 78 -30l219 -193q41 -33 41 -78q0 -34 -24 -65q-31 -39 -74 -39q-34 0 -68 24l-172 131l-172 -131q-33 -20 -65 -20q-47 0 -76 39q-24 34 -24 67zM135 125v813q0 57 40.5 98t96.5 41q58 0 99 -41t41 -98v-813 q0 -57 -41 -97t-99 -40q-56 0 -96.5 40t-40.5 97z" />
<glyph unicode="&#xef;" horiz-adv-x="548" d="M-55 1382q0 59 39.5 99.5t97.5 40.5t98.5 -40.5t40.5 -99.5q0 -58 -40 -97.5t-99 -39.5q-58 0 -97.5 39.5t-39.5 97.5zM135 125v813q0 57 40.5 98t96.5 41q58 0 99 -41t41 -98v-813q0 -57 -41 -97t-99 -40q-56 0 -96.5 40t-40.5 97zM334 1382q0 59 39.5 99.5t97.5 40.5 t98.5 -40.5t40.5 -99.5q0 -58 -40 -97.5t-99 -39.5t-98 39.5t-39 97.5z" />
<glyph unicode="&#xf0;" horiz-adv-x="1171" d="M102 461q0 86 26.5 160t71 125t103.5 87.5t123.5 54t130.5 17.5q55 0 117 -20q-64 113 -162 211l-115 -86q-32 -25 -74 -19.5t-67 39.5q-26 34 -20 76t40 68l76 57l-30 24q-60 43 -60 111q0 59 39.5 100t97.5 41q43 0 82 -26q45 -32 101 -78l114 86q34 26 75.5 20 t68.5 -39q25 -34 19 -75.5t-40 -67.5l-84 -63q334 -346 334 -768q0 -126 -38.5 -225.5t-105.5 -161.5t-153.5 -94.5t-187.5 -32.5q-214 0 -348 133t-134 346zM379 461q0 -100 53 -164t152 -64q95 0 152 64.5t57 198.5q0 63 -13 133q-70 47 -178 47q-88 0 -155.5 -60.5 t-67.5 -154.5z" />
<glyph unicode="&#xf1;" horiz-adv-x="1167" d="M66 950q0 58 37 86.5t100 28.5q67 0 131 -45q28 -24 45 -53q116 110 309 110q184 0 264 -101t80 -286v-565q0 -57 -40.5 -97t-98.5 -40q-57 0 -97 40t-40 97v532q0 74 -30.5 117t-113.5 43q-111 0 -172 -84v-608q0 -57 -40 -97t-97 -40q-58 0 -98.5 40t-40.5 97v629 q0 11 -0.5 21t-3.5 19t-4.5 15t-7 13.5t-6.5 10.5t-9 10.5t-9 8.5t-10 9t-10 9q-38 26 -38 80zM227 1401q-1 86 68 137t154 53q50 1 97 -21t88 -44t77 -21q32 0 52.5 16t41 32.5t51.5 17.5q38 1 67 -33.5t29 -81.5q1 -87 -67 -136.5t-154 -51.5q-50 -1 -97 20t-88 42t-77 20 q-32 0 -53.5 -16.5t-42 -33t-49.5 -16.5q-39 0 -68 34t-29 83z" />
<glyph unicode="&#xf2;" horiz-adv-x="1089" d="M104 422v219q0 91 26.5 168.5t79 138t138.5 95t197 34.5t197 -34.5t138 -95t78.5 -138t26.5 -168.5v-219q0 -91 -26.5 -168.5t-78.5 -137.5t-138 -94t-197 -34t-197 34t-138.5 94t-79 137.5t-26.5 168.5zM383 424q0 -188 162 -188q164 0 164 188v215q0 188 -164 188 q-162 0 -162 -188v-215zM387 1540q0 47 28 79t81 32q75 0 106 -74l98 -197q21 -51 21 -71q0 -40 -25 -67.5t-65 -27.5q-37 0 -61 16t-48 54l-102 170q-33 56 -33 86z" />
<glyph unicode="&#xf3;" horiz-adv-x="1089" d="M104 422v219q0 91 26.5 168.5t79 138t138.5 95t197 34.5t197 -34.5t138 -95t78.5 -138t26.5 -168.5v-219q0 -91 -26.5 -168.5t-78.5 -137.5t-138 -94t-197 -34t-197 34t-138.5 94t-79 137.5t-26.5 168.5zM373 1309q0 23 20 71l99 197q31 74 106 74q53 0 81 -32t28 -79 q0 -34 -31 -86l-105 -170q-24 -38 -47 -54t-59 -16q-41 0 -66.5 27.5t-25.5 67.5zM383 424q0 -188 162 -188q164 0 164 188v215q0 188 -164 188q-162 0 -162 -188v-215z" />
<glyph unicode="&#xf4;" horiz-adv-x="1089" d="M104 422v219q0 91 26.5 168.5t79 138t138.5 95t197 34.5t197 -34.5t138 -95t78.5 -138t26.5 -168.5v-219q0 -91 -26.5 -168.5t-78.5 -137.5t-138 -94t-197 -34t-197 34t-138.5 94t-79 137.5t-26.5 168.5zM205 1337q0 43 41 78l219 187q37 30 78 30q38 -2 78 -30l219 -193 q41 -33 41 -78q0 -33 -25 -65q-31 -39 -74 -39q-33 0 -67 24l-172 131l-172 -131q-33 -20 -66 -20q-47 0 -76 39q-24 34 -24 67zM383 424q0 -188 162 -188q164 0 164 188v215q0 188 -164 188q-162 0 -162 -188v-215z" />
<glyph unicode="&#xf5;" horiz-adv-x="1089" d="M104 422v219q0 91 26.5 168.5t79 138t138.5 95t197 34.5t197 -34.5t138 -95t78.5 -138t26.5 -168.5v-219q0 -91 -26.5 -168.5t-78.5 -137.5t-138 -94t-197 -34t-197 34t-138.5 94t-79 137.5t-26.5 168.5zM188 1401q-1 86 68 137t154 53q50 1 97 -21t88 -44t77 -21 q32 0 52.5 16t41 32.5t51.5 17.5q38 1 67 -33.5t29 -81.5q1 -87 -67 -136.5t-154 -51.5q-50 -1 -97 20t-88 42t-77 20q-32 0 -53.5 -16.5t-42 -33t-49.5 -16.5q-39 0 -68 34t-29 83zM383 424q0 -188 162 -188q164 0 164 188v215q0 188 -164 188q-162 0 -162 -188v-215z" />
<glyph unicode="&#xf6;" horiz-adv-x="1089" d="M104 422v219q0 91 26.5 168.5t79 138t138.5 95t197 34.5t197 -34.5t138 -95t78.5 -138t26.5 -168.5v-219q0 -91 -26.5 -168.5t-78.5 -137.5t-138 -94t-197 -34t-197 34t-138.5 94t-79 137.5t-26.5 168.5zM211 1382q0 59 39.5 99.5t97.5 40.5t98.5 -40.5t40.5 -99.5 q0 -58 -40 -97.5t-99 -39.5q-58 0 -97.5 39.5t-39.5 97.5zM383 424q0 -188 162 -188q164 0 164 188v215q0 188 -164 188q-162 0 -162 -188v-215zM600 1382q0 59 39.5 99.5t97.5 40.5q59 0 99.5 -41t40.5 -99t-40.5 -97.5t-99.5 -39.5t-98 39.5t-39 97.5z" />
<glyph unicode="&#xf7;" horiz-adv-x="1280" d="M168 592q0 52 37 89.5t90 37.5h690q53 0 90 -37.5t37 -89.5t-37 -89.5t-90 -37.5h-690q-53 0 -90 37.5t-37 89.5zM477 176q0 68 47.5 116t114.5 48q69 0 116.5 -48t47.5 -116t-47.5 -116t-116.5 -48q-67 0 -114.5 48t-47.5 116zM477 1008q0 68 47.5 115.5t114.5 47.5 q69 0 116.5 -47.5t47.5 -115.5t-47.5 -116t-116.5 -48q-67 0 -114.5 48t-47.5 116z" />
<glyph unicode="&#xf8;" horiz-adv-x="1089" d="M104 422v219q0 91 26.5 168.5t79 138t138.5 95t197 34.5q84 0 168 -24l32 73q9 23 33 32.5t47 -1.5q23 -9 31.5 -32t-0.5 -46l-35 -80q164 -113 164 -358v-219q0 -91 -26.5 -168.5t-78.5 -137.5t-138 -94t-197 -34q-96 0 -166 24l-35 -75q-9 -23 -32 -32t-46 1 q-23 9 -31.5 33t1.5 47l34 77q-83 58 -124.5 151.5t-41.5 207.5zM383 424q0 -49 18 -70l207 465q-24 8 -63 8q-162 0 -162 -188v-215zM483 244q21 -8 62 -8q164 0 164 188v215q0 46 -19 70z" />
<glyph unicode="&#xf9;" horiz-adv-x="1171" d="M139 371v567q0 57 40 98t97 41t98.5 -41t41.5 -98v-532q0 -79 30 -119.5t113 -40.5q109 0 170 88v604q0 57 41 98t98 41t97.5 -41t40.5 -98v-641q0 -25 3.5 -42.5t15.5 -32.5t17 -19.5t25 -20.5q39 -35 39 -82q0 -57 -37.5 -84.5t-101.5 -27.5q-72 0 -129 45 q-28 19 -52 59q-113 -104 -303 -104q-177 0 -260.5 102t-83.5 281zM401 1540q0 47 28 79t81 32q75 0 106 -74l99 -197q20 -48 20 -71q0 -40 -25 -67.5t-65 -27.5q-37 0 -60.5 16t-47.5 54l-103 170q-33 56 -33 86z" />
<glyph unicode="&#xfa;" horiz-adv-x="1171" d="M139 371v567q0 57 40 98t97 41t98.5 -41t41.5 -98v-532q0 -79 30 -119.5t113 -40.5q109 0 170 88v604q0 57 41 98t98 41t97.5 -41t40.5 -98v-641q0 -25 3.5 -42.5t15.5 -32.5t17 -19.5t25 -20.5q39 -35 39 -82q0 -57 -37.5 -84.5t-101.5 -27.5q-72 0 -129 45 q-28 19 -52 59q-113 -104 -303 -104q-177 0 -260.5 102t-83.5 281zM401 1309q0 20 21 71l98 197q31 74 107 74q53 0 80.5 -32t27.5 -79q0 -35 -30 -86l-105 -170q-24 -38 -47 -54t-59 -16q-42 0 -67.5 27.5t-25.5 67.5z" />
<glyph unicode="&#xfb;" horiz-adv-x="1171" d="M139 371v567q0 57 40 98t97 41t98.5 -41t41.5 -98v-532q0 -79 30 -119.5t113 -40.5q109 0 170 88v604q0 57 41 98t98 41t97.5 -41t40.5 -98v-641q0 -25 3.5 -42.5t15.5 -32.5t17 -19.5t25 -20.5q39 -35 39 -82q0 -57 -37.5 -84.5t-101.5 -27.5q-72 0 -129 45 q-28 19 -52 59q-113 -104 -303 -104q-177 0 -260.5 102t-83.5 281zM231 1337q0 43 41 78l220 187q37 30 77 30q38 -2 78 -30l219 -193q41 -33 41 -78q0 -34 -24 -65q-31 -39 -74 -39q-33 0 -68 24l-172 131l-172 -131q-33 -20 -65 -20q-47 0 -76 39q-25 36 -25 67z" />
<glyph unicode="&#xfc;" horiz-adv-x="1171" d="M139 371v567q0 57 40 98t97 41t98.5 -41t41.5 -98v-532q0 -79 30 -119.5t113 -40.5q109 0 170 88v604q0 57 41 98t98 41t97.5 -41t40.5 -98v-641q0 -25 3.5 -42.5t15.5 -32.5t17 -19.5t25 -20.5q39 -35 39 -82q0 -57 -37.5 -84.5t-101.5 -27.5q-72 0 -129 45 q-28 19 -52 59q-113 -104 -303 -104q-177 0 -260.5 102t-83.5 281zM246 1382q0 59 39.5 99.5t97.5 40.5t98.5 -40.5t40.5 -99.5q0 -58 -40 -97.5t-99 -39.5t-98 39.5t-39 97.5zM635 1382q0 59 39.5 99.5t97.5 40.5t98.5 -40.5t40.5 -99.5q0 -58 -40 -97.5t-99 -39.5 q-58 0 -97.5 39.5t-39.5 97.5z" />
<glyph unicode="&#xfd;" horiz-adv-x="970" d="M-10 -240q0 50 31 87.5t92 43.5q74 5 131.5 36.5t109.5 115.5q-211 518 -317 866q-22 72 22 120t109 48q40 0 73 -24.5t44 -69.5q118 -376 198 -598l191 600q13 46 48 69t77 23q69 0 112 -54t15 -130l-260 -741q-94 -262 -213.5 -387t-309.5 -140q-70 -6 -111.5 35.5 t-41.5 99.5zM338 1309q0 23 20 71l99 197q31 74 106 74q53 0 81 -32t28 -79q0 -34 -31 -86l-104 -170q-24 -38 -47.5 -54t-59.5 -16q-41 0 -66.5 27.5t-25.5 67.5z" />
<glyph unicode="&#xfe;" horiz-adv-x="1103" d="M131 -242v1616q0 57 40.5 98t96.5 41q58 0 99 -41t41 -98v-348q91 45 196 45q395 0 395 -438v-166q0 -237 -87.5 -360t-288.5 -123q-121 0 -215 59v-285q0 -58 -40.5 -97.5t-99.5 -39.5q-56 0 -96.5 39.5t-40.5 97.5zM408 279q70 -64 151 -64q86 0 124 51t38 150v239 q0 94 -38.5 139.5t-125.5 45.5q-75 0 -149 -58v-503z" />
<glyph unicode="&#xff;" horiz-adv-x="968" d="M-10 -240q0 50 31 87.5t92 43.5q74 5 131.5 36.5t109.5 115.5q-211 518 -317 866q-22 72 22 120t109 48q40 0 73 -24.5t44 -69.5q118 -376 198 -598l191 600q13 46 48 69t77 23q69 0 112 -54t15 -130l-260 -741q-94 -262 -213.5 -387t-309.5 -140q-70 -6 -111.5 35.5 t-41.5 99.5zM150 1382q0 59 39.5 99.5t97.5 40.5t98.5 -40.5t40.5 -99.5q0 -58 -40 -97.5t-99 -39.5t-98 39.5t-39 97.5zM539 1382q0 59 39.5 99.5t97.5 40.5t98.5 -40.5t40.5 -99.5q0 -58 -40 -97.5t-99 -39.5q-58 0 -97.5 39.5t-39.5 97.5z" />
<glyph unicode="&#x100;" horiz-adv-x="1183" d="M27 154q139 606 383 1212q59 147 180 147q127 0 186 -147q242 -593 381 -1212q18 -75 -27 -123.5t-112 -48.5q-48 0 -86 27.5t-49 82.5q-19 86 -56 217h-479q-38 -149 -53 -217q-13 -54 -50 -82t-83 -28q-64 0 -107.5 48.5t-27.5 123.5zM293 1817q0 47 34 80.5t81 33.5 h368q47 0 81 -33.5t34 -80.5t-34 -81t-81 -34h-368q-47 0 -81 34t-34 81zM416 561h344q-71 241 -172 508q-101 -275 -172 -508z" />
<glyph unicode="&#x101;" horiz-adv-x="1091" d="M72 309v15q0 144 105.5 226.5t299.5 82.5h182v39q0 96 -33 141t-122 45q-75 0 -146 -27q-12 -4 -35.5 -13t-38.5 -13t-32 -4q-46 0 -76.5 30.5t-30.5 73.5q0 80 119 127q111 45 262 45q221 0 315.5 -103t94.5 -335v-342q0 -33 8 -55.5t16.5 -32.5t28.5 -27q39 -35 39 -82 q0 -57 -36.5 -84.5t-98.5 -27.5q-60 0 -109 28q-43 26 -61 58q-101 -86 -283 -86q-179 0 -273.5 85.5t-94.5 235.5zM242 1382q0 47 33.5 81t80.5 34h369q47 0 81 -34t34 -81t-34 -80.5t-81 -33.5h-369q-47 0 -80.5 33.5t-33.5 80.5zM346 303q0 -58 38.5 -89.5t115.5 -31.5 q73 0 116 41.5t43 120.5v90h-149q-164 0 -164 -117v-14z" />
<glyph unicode="&#x102;" horiz-adv-x="1183" d="M27 154q139 606 383 1212q59 147 180 147q127 0 186 -147q242 -593 381 -1212q18 -75 -27 -123.5t-112 -48.5q-48 0 -86 27.5t-49 82.5q-19 86 -56 217h-479q-38 -149 -53 -217q-13 -54 -50 -82t-83 -28q-64 0 -107.5 48.5t-27.5 123.5zM258.5 1942q8.5 33 38.5 57 q31 26 75 20.5t70 -47.5q62 -108 146 -108q85 0 149 108q26 41 68.5 48t73.5 -17q33 -22 42.5 -58t-14.5 -79q-126 -205 -319 -205t-316 205q-22 43 -13.5 76zM416 561h344q-71 241 -172 508q-101 -275 -172 -508z" />
<glyph unicode="&#x103;" horiz-adv-x="1091" d="M72 309v15q0 144 105.5 226.5t299.5 82.5h182v39q0 96 -33 141t-122 45q-75 0 -146 -27q-12 -4 -35.5 -13t-38.5 -13t-32 -4q-46 0 -76.5 30.5t-30.5 73.5q0 80 119 127q111 45 262 45q221 0 315.5 -103t94.5 -335v-342q0 -33 8 -55.5t16.5 -32.5t28.5 -27q39 -35 39 -82 q0 -57 -36.5 -84.5t-98.5 -27.5q-60 0 -109 28q-43 26 -61 58q-101 -86 -283 -86q-179 0 -273.5 85.5t-94.5 235.5zM213.5 1508q8.5 33 38.5 57q31 26 75 20.5t70 -47.5q62 -108 146 -108q85 0 149 108q26 41 68.5 48t73.5 -17q33 -22 42.5 -58t-14.5 -79 q-126 -205 -319 -205t-316 205q-22 43 -13.5 76zM346 303q0 -58 38.5 -89.5t115.5 -31.5q73 0 116 41.5t43 120.5v90h-149q-164 0 -164 -117v-14z" />
<glyph unicode="&#x104;" horiz-adv-x="1183" d="M27 154q139 606 383 1212q59 147 180 147q127 0 186 -147q242 -593 381 -1212q14 -64 -16.5 -109.5t-85.5 -58.5q-109 -78 -109 -152q0 -78 121 -78q49 0 73.5 -26t24.5 -66q0 -48 -37 -72t-98 -24q-60 0 -110 10t-93 31.5t-67.5 61t-24.5 93.5q0 141 178 263 q-21 24 -30 65q-19 86 -56 217h-479q-38 -149 -53 -217q-13 -54 -50 -82t-83 -28q-64 0 -107.5 48.5t-27.5 123.5zM416 561h344q-71 241 -172 508q-101 -275 -172 -508z" />
<glyph unicode="&#x105;" horiz-adv-x="1091" d="M72 309v15q0 144 105.5 226.5t299.5 82.5h182v39q0 96 -33 141t-122 45q-75 0 -146 -27q-12 -4 -35.5 -13t-38.5 -13t-32 -4q-46 0 -76.5 30.5t-30.5 73.5q0 80 119 127q111 45 262 45q221 0 315.5 -103t94.5 -335v-342q0 -33 8 -55.5t16.5 -32.5t28.5 -27q39 -35 39 -82 q0 -50 -29 -77.5t-79 -32.5q-113 -84 -113 -156q0 -39 32.5 -58.5t88.5 -19.5q50 0 75 -26t25 -66q0 -47 -37.5 -71.5t-97.5 -24.5t-110.5 10t-94 31.5t-68 61t-24.5 93.5q0 138 176 259q-35 27 -49 51q-101 -86 -283 -86q-179 0 -273.5 85.5t-94.5 235.5zM346 303 q0 -58 38.5 -89.5t115.5 -31.5q73 0 116 41.5t43 120.5v90h-149q-164 0 -164 -117v-14z" />
<glyph unicode="&#x106;" horiz-adv-x="1118" d="M131 631v231q0 114 18.5 210t60 178.5t105 139.5t156.5 89t211 32q86 0 170.5 -24t134.5 -62q70 -50 70 -114q0 -50 -34 -87.5t-93 -37.5q-10 0 -18 1t-19 5.5t-16.5 7t-23 11t-24.5 12.5q-62 34 -147 34q-136 0 -202 -95.5t-66 -307.5v-219q0 -217 63.5 -307t194.5 -90 q99 0 170 41q66 34 96 34q47 0 81 -33.5t34 -84.5q0 -65 -66 -119q-52 -43 -144 -68.5t-171 -25.5q-143 0 -248.5 46.5t-169 134t-93.5 204t-30 264.5zM510 1724q0 24 20 72l99 197q31 73 106 73q53 0 81 -31.5t28 -78.5q0 -34 -31 -86l-104 -170q-24 -38 -47.5 -54 t-59.5 -16q-42 0 -67 27t-25 67z" />
<glyph unicode="&#x107;" horiz-adv-x="919" d="M104 453v143q0 100 27.5 186.5t80.5 152.5t136 104t187 38q166 0 268 -59q87 -51 53 -141q-17 -44 -58 -61.5t-81 1.5q-74 33 -156 33q-85 0 -131.5 -58.5t-46.5 -164.5v-191q0 -105 42.5 -164t125.5 -59q90 0 166 35q40 19 82 0.5t57 -62.5q27 -93 -57 -141 q-109 -57 -264 -57q-111 0 -195.5 35t-135 98.5t-75.5 146.5t-25 185zM383 1309q0 23 20 71l99 197q31 74 106 74q53 0 81 -32t28 -79q0 -34 -31 -86l-104 -170q-24 -38 -47.5 -54t-59.5 -16q-41 0 -66.5 27.5t-25.5 67.5z" />
<glyph unicode="&#x10c;" horiz-adv-x="1118" d="M131 631v231q0 114 18.5 210t60 178.5t105 139.5t156.5 89t211 32q86 0 170.5 -24t134.5 -62q70 -50 70 -114q0 -50 -34 -87.5t-93 -37.5q-10 0 -18 1t-19 5.5t-16.5 7t-23 11t-24.5 12.5q-62 34 -147 34q-136 0 -202 -95.5t-66 -307.5v-219q0 -217 63.5 -307t194.5 -90 q99 0 170 41q66 34 96 34q47 0 81 -33.5t34 -84.5q0 -65 -66 -119q-52 -43 -144 -68.5t-171 -25.5q-143 0 -248.5 46.5t-169 134t-93.5 204t-30 264.5zM326 1933q0 35 24 66q30 41 76 41q28 0 66 -23l172 -131l172 133q36 25 67 25q43 0 74 -39q24 -34 24 -68q0 -43 -40 -77 l-220 -191q-41 -29 -77 -31q-42 0 -78 29l-219 188q-41 33 -41 78z" />
<glyph unicode="&#x10d;" horiz-adv-x="919" d="M104 453v143q0 100 27.5 186.5t80.5 152.5t136 104t187 38q166 0 268 -59q87 -51 53 -141q-17 -44 -58 -61.5t-81 1.5q-74 33 -156 33q-85 0 -131.5 -58.5t-46.5 -164.5v-191q0 -105 42.5 -164t125.5 -59q90 0 166 35q40 19 82 0.5t57 -62.5q27 -93 -57 -141 q-109 -57 -264 -57q-111 0 -195.5 35t-135 98.5t-75.5 146.5t-25 185zM197 1522q0 34 24 65q30 41 76 41q29 0 65 -22l173 -131l172 133q35 24 67 24q43 0 74 -39q24 -34 24 -67q0 -43 -41 -78l-219 -191q-40 -28 -77 -30q-43 0 -78 28l-219 189q-41 33 -41 78z" />
<glyph unicode="&#x10e;" horiz-adv-x="1345" d="M160 141v1211q0 58 41 99.5t100 41.5h387q95 0 173 -19.5t131.5 -51t94 -77.5t64.5 -94t38.5 -105t19.5 -106t5 -102v-385q0 -54 -5 -102.5t-19.5 -106t-38.5 -105t-64.5 -93t-94 -77t-131.5 -50.5t-173 -19h-387q-60 0 -100.5 41t-40.5 100zM315 1933q0 34 25 66 q30 41 76 41q27 0 65 -23l172 -131l172 133q36 25 68 25q43 0 74 -39q24 -34 24 -68q0 -42 -41 -77l-219 -191q-41 -29 -78 -31q-42 0 -78 29l-219 188q-41 33 -41 78zM442 264h226q150 0 207 73t57 216v381q0 70 -11.5 120t-40 90t-81.5 60.5t-131 20.5h-226v-961z" />
<glyph unicode="&#x10f;" horiz-adv-x="1466" d="M104 426v166q0 238 86.5 361.5t288.5 123.5q122 0 217 -63v332q0 57 40 97t98 40q57 0 98 -40t41 -97v-1049q0 -48 12 -69.5t41 -45.5q37 -37 37 -82q0 -112 -139 -112q-69 0 -129 45q-21 18 -35 37q-116 -82 -260 -82q-396 0 -396 438zM383 406q0 -95 38 -141t126 -46 q72 0 149 57v504q-67 64 -151 64q-86 0 -124 -50t-38 -149v-239zM1130 1354q0 55 39 93t95 38q61 0 99 -43.5t38 -114.5q0 -54 -18 -103.5t-44.5 -84t-57 -60.5t-56 -38.5t-41.5 -12.5q-19 0 -32 13.5t-13 33.5q0 22 19.5 40t44 44.5t32.5 65.5q-45 9 -75 45.5t-30 83.5z " />
<glyph unicode="&#x110;" horiz-adv-x="1386" d="M23 733q0 54 38 91.5t93 37.5h45v490q0 57 41.5 99t99.5 42h387q95 0 173 -19.5t131.5 -51t94.5 -77.5t65 -94t39 -105t20 -106t5 -102v-385q0 -54 -5 -102.5t-20 -106t-39 -105t-64.5 -93t-94.5 -77t-132 -50.5t-173 -19h-387q-58 0 -99.5 41t-41.5 100v461h-45 q-55 0 -93 38.5t-38 92.5zM481 264h228q149 0 206.5 73.5t57.5 215.5v381q0 69 -12 119.5t-40.5 90.5t-81.5 60.5t-130 20.5h-228v-363h113q54 0 92.5 -37.5t38.5 -91.5t-38.5 -92.5t-92.5 -38.5h-113v-338z" />
<glyph unicode="&#x111;" horiz-adv-x="1128" d="M104 426v166q0 238 86.5 361.5t288.5 123.5q122 0 217 -63v119h-88q-41 0 -69.5 29t-28.5 69t28.5 69t69.5 29h88v17q0 57 40 97t98 40q57 0 98 -40t41 -97v-17h55q41 0 69.5 -29t28.5 -69t-28.5 -69t-69.5 -29h-55v-836q0 -48 12 -69.5t41 -45.5q37 -37 37 -82 q0 -112 -139 -112q-69 0 -129 45q-21 18 -35 37q-116 -82 -260 -82q-396 0 -396 438zM383 406q0 -95 38 -141t126 -46q72 0 149 57v504q-67 64 -151 64q-86 0 -124 -50t-38 -149v-239z" />
<glyph unicode="&#x112;" horiz-adv-x="1161" d="M160 135v1223q0 56 39 95.5t94 39.5h637q57 0 96 -39.5t39 -95.5t-39 -94.5t-96 -38.5h-488v-348h443q54 0 92.5 -39t38.5 -93t-38.5 -91.5t-92.5 -37.5h-443v-348h516q56 0 95 -39t39 -94q0 -57 -39 -96t-95 -39h-665q-56 0 -94.5 39t-38.5 96zM281 1817q0 47 33.5 80.5 t80.5 33.5h369q47 0 81 -33.5t34 -80.5t-34 -81t-81 -34h-369q-47 0 -80.5 34t-33.5 81z" />
<glyph unicode="&#x113;" horiz-adv-x="1054" d="M104 436v191q0 73 16 139t50.5 123t84.5 98.5t122.5 65.5t159.5 24q112 0 196.5 -35t134 -97.5t73.5 -141t24 -172.5v-84q0 -42 -28 -70t-67 -28h-489v-41q0 -95 43.5 -147t130.5 -52q79 0 156 22q12 4 37 14.5t40 14.5t33 4q46 0 72.5 -29.5t26.5 -76.5q0 -78 -119 -129 q-113 -41 -264 -41q-93 0 -167 24t-123.5 64.5t-82 98t-46.5 122.5t-14 139zM246 1382q0 47 33.5 81t80.5 34h369q47 0 81 -34t34 -81t-34 -80.5t-81 -33.5h-369q-47 0 -80.5 33.5t-33.5 80.5zM381 653h317v27q0 90 -37 136t-118 46t-121.5 -47t-40.5 -135v-27z" />
<glyph unicode="&#x116;" horiz-adv-x="1161" d="M160 135v1223q0 56 39 95.5t94 39.5h637q57 0 96 -39.5t39 -95.5t-39 -94.5t-96 -38.5h-488v-348h443q54 0 92.5 -39t38.5 -93t-38.5 -91.5t-92.5 -37.5h-443v-348h516q56 0 95 -39t39 -94q0 -57 -39 -96t-95 -39h-665q-56 0 -94.5 39t-38.5 96zM424 1786q0 66 45.5 112 t110.5 46q66 0 111.5 -46t45.5 -112q0 -65 -45.5 -110.5t-111.5 -45.5q-64 0 -110 46t-46 110z" />
<glyph unicode="&#x117;" horiz-adv-x="1054" d="M104 436v191q0 73 16 139t50.5 123t84.5 98.5t122.5 65.5t159.5 24q112 0 196.5 -35t134 -97.5t73.5 -141t24 -172.5v-84q0 -42 -28 -70t-67 -28h-489v-41q0 -95 43.5 -147t130.5 -52q79 0 156 22q12 4 37 14.5t40 14.5t33 4q46 0 72.5 -29.5t26.5 -76.5q0 -78 -119 -129 q-113 -41 -264 -41q-93 0 -167 24t-123.5 64.5t-82 98t-46.5 122.5t-14 139zM381 653h317v27q0 90 -37 136t-118 46t-121.5 -47t-40.5 -135v-27zM387 1368q0 66 45.5 112t110.5 46q66 0 111.5 -46t45.5 -112q0 -65 -45.5 -110.5t-111.5 -45.5q-65 0 -110.5 46t-45.5 110z " />
<glyph unicode="&#x118;" horiz-adv-x="1161" d="M160 135v1223q0 56 39 95.5t94 39.5h637q57 0 96 -39.5t39 -95.5t-39 -94.5t-96 -38.5h-488v-348h443q54 0 92.5 -39t38.5 -93t-38.5 -91.5t-92.5 -37.5h-443v-348h516q56 0 95 -39t39 -94q0 -48 -28.5 -84t-72.5 -47q-121 -81 -121 -160q0 -77 121 -77q48 0 73.5 -26.5 t25.5 -66.5q0 -48 -37.5 -72t-98.5 -24q-60 0 -110.5 10t-94 32t-68 61.5t-24.5 93.5q0 59 36 117.5t104 107.5h-504q-56 0 -94.5 39t-38.5 96z" />
<glyph unicode="&#x119;" horiz-adv-x="1054" d="M104 436v191q0 73 16 139t50.5 123t84.5 98.5t122.5 65.5t159.5 24q112 0 196.5 -35t134 -97.5t73.5 -141t24 -172.5v-84q0 -42 -28 -70t-67 -28h-489v-41q0 -95 43.5 -147t130.5 -52q79 0 156 22q12 4 37 14.5t40 14.5t33 4q46 0 72.5 -29.5t26.5 -76.5q0 -72 -103 -123 q-119 -79 -119 -158q0 -78 121 -78q48 0 73.5 -26.5t25.5 -65.5q0 -48 -37.5 -72t-98.5 -24q-60 0 -110.5 10t-94 31.5t-68 61t-24.5 93.5q0 98 86 181h-34q-93 0 -167 24t-123.5 64.5t-82 98t-46.5 122.5t-14 139zM381 653h317v27q0 90 -37 136t-118 46t-121.5 -47 t-40.5 -135v-27z" />
<glyph unicode="&#x11a;" horiz-adv-x="1161" d="M160 135v1223q0 56 39 95.5t94 39.5h637q57 0 96 -39.5t39 -95.5t-39 -94.5t-96 -38.5h-488v-348h443q54 0 92.5 -39t38.5 -93t-38.5 -91.5t-92.5 -37.5h-443v-348h516q56 0 95 -39t39 -94q0 -57 -39 -96t-95 -39h-665q-56 0 -94.5 39t-38.5 96zM260 1937q0 34 25 66 q30 41 75 41q28 0 66 -23l172 -131l172 133q36 25 68 25q42 0 73 -39q25 -36 25 -67q0 -43 -41 -78l-219 -191q-41 -29 -78 -31q-42 0 -78 29l-219 189q-41 33 -41 77z" />
<glyph unicode="&#x11b;" horiz-adv-x="1054" d="M104 436v191q0 73 16 139t50.5 123t84.5 98.5t122.5 65.5t159.5 24q112 0 196.5 -35t134 -97.5t73.5 -141t24 -172.5v-84q0 -42 -28 -70t-67 -28h-489v-41q0 -95 43.5 -147t130.5 -52q79 0 156 22q12 4 37 14.5t40 14.5t33 4q46 0 72.5 -29.5t26.5 -76.5q0 -78 -119 -129 q-113 -41 -264 -41q-93 0 -167 24t-123.5 64.5t-82 98t-46.5 122.5t-14 139zM205 1522q0 34 24 65q30 41 76 41q30 0 66 -22l172 -131l172 133q34 24 67 24q43 0 74 -39q25 -36 25 -67q0 -43 -41 -78l-219 -191q-40 -28 -78 -30q-43 0 -78 28l-219 189q-41 33 -41 78z M381 653h317v27q0 90 -37 136t-118 46t-121.5 -47t-40.5 -135v-27z" />
<glyph unicode="&#x11e;" horiz-adv-x="1286" d="M131 631v231q0 114 18.5 210t60 178.5t105 139.5t156.5 89t211 32q90 0 175.5 -23.5t137.5 -64.5q72 -51 72 -116q0 -51 -33.5 -87t-93.5 -36q-36 0 -109 39q-62 34 -149 34q-136 0 -202 -95.5t-66 -307.5v-219q0 -217 63.5 -308t194.5 -91q128 0 179.5 66.5t51.5 186.5 v64h-135q-54 0 -91.5 38.5t-37.5 92.5t37.5 92.5t91.5 38.5h274q58 0 96 -39.5t38 -101.5v-176q0 -83 -16.5 -156.5t-54.5 -140.5t-95 -115t-143.5 -76t-194.5 -28q-143 0 -248.5 46.5t-169 134t-93.5 204t-30 264.5zM310 1942q8 33 38 57q31 26 75.5 20.5t70.5 -47.5 q62 -108 145 -108q85 0 149 108q26 41 68.5 48t73.5 -17q33 -22 42.5 -58t-14.5 -79q-126 -205 -319 -205q-192 0 -315 205q-22 43 -14 76z" />
<glyph unicode="&#x11f;" horiz-adv-x="1107" d="M104 528v80q0 229 88.5 349t284.5 120q129 0 228 -86q14 39 47.5 62.5t81.5 23.5q63 0 101 -40t38 -99v-844q0 -226 -125 -347.5t-352 -121.5q-160 0 -258 43q-88 43 -88 115q0 46 32.5 78.5t79.5 32.5q13 0 25 -3t29 -10t28 -10q63 -23 133 -23q219 0 219 228v51 q-106 -64 -219 -64q-204 0 -288.5 115.5t-84.5 349.5zM222 1508q8 33 38 57q31 26 75.5 20.5t70.5 -47.5q62 -108 145 -108q85 0 149 108q26 41 68.5 48t73.5 -17q33 -22 42.5 -58t-14.5 -79q-126 -205 -319 -205q-192 0 -315 205q-22 43 -14 76zM383 483q0 -97 34.5 -141.5 t121.5 -44.5q35 0 79.5 14.5t77.5 40.5v424q-33 31 -76 49.5t-79 18.5q-83 0 -120.5 -48.5t-37.5 -146.5v-166z" />
<glyph unicode="&#x122;" horiz-adv-x="1286" d="M131 631v231q0 114 18.5 210t60 178.5t105 139.5t156.5 89t211 32q90 0 175.5 -23.5t137.5 -64.5q72 -51 72 -116q0 -51 -33.5 -87t-93.5 -36q-36 0 -109 39q-62 34 -149 34q-136 0 -202 -95.5t-66 -307.5v-219q0 -217 63.5 -308t194.5 -91q128 0 179.5 66.5t51.5 186.5 v64h-135q-54 0 -91.5 38.5t-37.5 92.5t37.5 92.5t91.5 38.5h274q58 0 96 -39.5t38 -101.5v-176q0 -83 -16.5 -156.5t-54.5 -140.5t-95 -115t-143.5 -76t-194.5 -28q-143 0 -248.5 46.5t-169 134t-93.5 204t-30 264.5zM551 -256q0 54 37.5 92.5t89.5 38.5q59 0 95 -45 t36 -115q0 -59 -17 -111t-42.5 -85.5t-55 -58t-53.5 -35.5t-39 -11q-45 0 -45 41q0 19 14.5 35.5t33 28.5t36.5 37t23 59q-48 5 -80.5 41.5t-32.5 87.5z" />
<glyph unicode="&#x123;" horiz-adv-x="1107" d="M104 528v80q0 229 88.5 349t284.5 120q129 0 228 -86q14 39 47.5 62.5t81.5 23.5q63 0 101 -40t38 -99v-844q0 -226 -125 -347.5t-352 -121.5q-160 0 -258 43q-88 43 -88 115q0 46 32.5 78.5t79.5 32.5q13 0 25 -3t29 -10t28 -10q63 -23 133 -23q219 0 219 228v51 q-106 -64 -219 -64q-204 0 -288.5 115.5t-84.5 349.5zM383 483q0 -97 34.5 -141.5t121.5 -44.5q35 0 79.5 14.5t77.5 40.5v424q-33 31 -76 49.5t-79 18.5q-83 0 -120.5 -48.5t-37.5 -146.5v-166zM391 1397q0 59 17 111t42.5 85.5t55 58t53.5 35.5t39 11q47 0 47 -41 q0 -19 -14.5 -36t-33 -28.5t-36 -36.5t-22.5 -59q48 -6 80 -42.5t32 -86.5q0 -54 -38 -92.5t-91 -38.5q-58 0 -94.5 45t-36.5 115z" />
<glyph unicode="&#x12a;" horiz-adv-x="600" d="M2 1817q0 47 34 80.5t81 33.5h368q47 0 81 -33.5t34 -80.5t-34 -81t-81 -34h-368q-47 0 -81 34t-34 81zM160 123v1247q0 58 41 99.5t100 41.5q58 0 99.5 -42t41.5 -99v-1247q0 -59 -41 -100t-100 -41q-60 0 -100.5 41t-40.5 100z" />
<glyph unicode="&#x12b;" horiz-adv-x="548" d="M-23 1382q0 47 34 81t81 34h369q47 0 80.5 -34t33.5 -81t-33.5 -80.5t-80.5 -33.5h-369q-47 0 -81 33.5t-34 80.5zM135 125v813q0 57 40.5 98t96.5 41q58 0 99 -41t41 -98v-813q0 -57 -41 -97t-99 -40q-56 0 -96.5 40t-40.5 97z" />
<glyph unicode="&#x12e;" horiz-adv-x="600" d="M51 -221q0 61 41.5 123.5t112.5 113.5q-45 42 -45 107v1247q0 58 41 99.5t100 41.5q58 0 99.5 -42t41.5 -99v-1247q0 -40 -20.5 -74t-54.5 -51q-105 -79 -105 -152q0 -75 121 -75q49 0 73.5 -27t24.5 -66q0 -49 -37 -73.5t-98 -24.5q-59 0 -109.5 10.5t-93.5 32.5 t-67.5 62t-24.5 94z" />
<glyph unicode="&#x12f;" horiz-adv-x="548" d="M18 -219q0 63 44 127t118 115q-45 39 -45 102v813q0 57 40.5 98t96.5 41q58 0 99 -41t41 -98v-813q0 -37 -19.5 -69t-50.5 -50q-113 -83 -113 -156q0 -38 32.5 -57.5t88.5 -19.5q49 0 75 -27t26 -65q0 -49 -38 -74t-100 -25q-58 0 -108.5 10.5t-93.5 32.5t-68 62t-25 94z M117 1368q0 66 45 112t110 46q66 0 112 -46t46 -112q0 -65 -46 -110.5t-112 -45.5q-64 0 -109.5 45.5t-45.5 110.5z" />
<glyph unicode="&#x130;" horiz-adv-x="600" d="M145 1786q0 66 45.5 112t110.5 46q66 0 112 -46t46 -112q0 -65 -46 -110.5t-112 -45.5q-65 0 -110.5 46t-45.5 110zM160 123v1247q0 58 41 99.5t100 41.5q58 0 99.5 -42t41.5 -99v-1247q0 -59 -41 -100t-100 -41q-60 0 -100.5 41t-40.5 100z" />
<glyph unicode="&#x131;" horiz-adv-x="548" d="M135 125v813q0 57 40.5 98t96.5 41q58 0 99 -41t41 -98v-813q0 -57 -41 -97t-99 -40q-56 0 -96.5 40t-40.5 97z" />
<glyph unicode="&#x136;" horiz-adv-x="1224" d="M160 123v1247q0 58 41 99.5t100 41.5q58 0 99.5 -42t41.5 -99v-491l463 581q42 51 107 51q61 0 99 -40t38 -99q0 -52 -33 -88l-352 -407q218 -308 414 -691q16 -31 16 -65q0 -59 -43 -99t-102 -40q-83 0 -125 79q-152 300 -351 596l-131 -151v-383q0 -59 -41 -100 t-100 -41q-60 0 -100.5 41t-40.5 100zM541 -256q0 54 37.5 92.5t89.5 38.5q59 0 95 -45t36 -115q0 -59 -17 -111t-42.5 -85.5t-55 -58t-53.5 -35.5t-39 -11q-45 0 -45 41q0 19 14.5 35.5t32.5 28.5t36 37t23 59q-47 5 -79.5 41.5t-32.5 87.5z" />
<glyph unicode="&#x137;" horiz-adv-x="1040" d="M135 125v1221q0 57 40.5 97t96.5 40q58 0 99 -40t41 -97v-672l372 368q37 35 88 34t86 -38t35 -87.5t-37 -84.5l-227 -217q156 -231 264 -479q30 -74 -14 -128t-113 -54q-85 0 -118 84q-97 221 -211 397l-125 -119v-225q0 -57 -41 -97t-99 -40q-56 0 -96.5 40t-40.5 97z M451 -256q0 54 37.5 92.5t89.5 38.5q59 0 95 -45t36 -115q0 -59 -17 -111t-42.5 -85.5t-55 -58t-53.5 -35.5t-39 -11q-45 0 -45 41q0 19 14.5 35.5t32.5 28.5t36 37t23 59q-47 5 -79.5 41.5t-32.5 87.5z" />
<glyph unicode="&#x139;" horiz-adv-x="1110" d="M160 135v1235q0 58 41 99.5t100 41.5q58 0 99.5 -42t41.5 -99v-1102h508q57 0 96 -38.5t39 -94.5q0 -57 -39 -96t-96 -39h-657q-56 0 -94.5 39t-38.5 96zM170 1724q0 24 20 72l99 197q31 73 106 73q53 0 81 -31.5t28 -78.5q0 -34 -31 -86l-104 -170q-24 -38 -47.5 -54 t-59.5 -16q-42 0 -67 27t-25 67z" />
<glyph unicode="&#x13a;" horiz-adv-x="567" d="M127 274v1072q0 57 41 97t98 40t98.5 -40t41.5 -97v-1049q0 -33 9.5 -56t18 -31.5t31.5 -27.5q39 -35 39 -82q0 -57 -37.5 -84.5t-101.5 -27.5q-72 0 -129 45q-109 80 -109 241zM162 1724q0 24 20 72l99 197q31 73 106 73q53 0 81 -31.5t28 -78.5q0 -34 -31 -86 l-105 -170q-24 -38 -47 -54t-59 -16q-42 0 -67 27t-25 67z" />
<glyph unicode="&#x13b;" horiz-adv-x="1110" d="M160 135v1235q0 58 41 99.5t100 41.5q58 0 99.5 -42t41.5 -99v-1102h508q57 0 96 -38.5t39 -94.5q0 -57 -39 -96t-96 -39h-657q-56 0 -94.5 39t-38.5 96zM498 -256q0 54 37.5 92.5t89.5 38.5q59 0 95 -45t36 -115q0 -59 -17 -111t-42.5 -85.5t-55 -58t-53.5 -35.5 t-39 -11q-45 0 -45 41q0 19 14.5 35.5t32.5 28.5t36 37t23 59q-47 5 -79.5 41.5t-32.5 87.5z" />
<glyph unicode="&#x13c;" horiz-adv-x="567" d="M127 274v1072q0 57 41 97t98 40t98.5 -40t41.5 -97v-1049q0 -33 9.5 -56t18 -31.5t31.5 -27.5q39 -35 39 -82q0 -57 -37.5 -84.5t-101.5 -27.5q-72 0 -129 45q-109 80 -109 241zM172 -256q0 54 37.5 92.5t89.5 38.5q59 0 95 -45t36 -115q0 -59 -17 -111t-42.5 -85.5 t-55 -58t-53.5 -35.5t-39 -11q-45 0 -45 41q0 19 14.5 35.5t33 28.5t36.5 37t23 59q-48 5 -80.5 41.5t-32.5 87.5z" />
<glyph unicode="&#x13d;" horiz-adv-x="1110" d="M160 135v1235q0 58 41 99.5t100 41.5q58 0 99.5 -42t41.5 -99v-1102h508q57 0 96 -38.5t39 -94.5q0 -57 -39 -96t-96 -39h-657q-56 0 -94.5 39t-38.5 96zM668 1382q0 54 37.5 92.5t89.5 38.5q59 0 95 -44.5t36 -114.5q0 -59 -17 -111t-42.5 -85.5t-55 -58t-53.5 -35.5 t-39 -11q-45 0 -45 41q0 19 14.5 35t32.5 28t36 37t23 59q-47 5 -79.5 41.5t-32.5 87.5z" />
<glyph unicode="&#x13e;" horiz-adv-x="911" d="M127 274v1072q0 57 41 97t98 40t98.5 -40t41.5 -97v-1049q0 -33 9.5 -56t18 -31.5t31.5 -27.5q39 -35 39 -82q0 -57 -37.5 -84.5t-101.5 -27.5q-72 0 -129 45q-109 80 -109 241zM578 1352q0 54 37.5 92.5t89.5 38.5q59 0 95 -45t36 -115q0 -59 -17 -111t-42.5 -85.5 t-55 -58t-53.5 -35.5t-39 -11q-45 0 -45 41q0 19 14.5 35.5t32.5 28.5t36 37t23 59q-47 5 -79.5 41.5t-32.5 87.5z" />
<glyph unicode="&#x141;" horiz-adv-x="1220" d="M19 599.5q11 53.5 55 82.5l194 125v563q0 57 42 99t100 42q57 0 98 -42t41 -99v-381l78 49q44 29 96.5 18t83.5 -55q29 -46 17 -99t-56 -81l-219 -143v-410h510q56 0 95.5 -39t39.5 -94q0 -57 -39.5 -96t-95.5 -39h-656q-57 0 -96 39t-39 96v361l-51 -33 q-44 -29 -97.5 -18t-82.5 57q-29 44 -18 97.5z" />
<glyph unicode="&#x142;" horiz-adv-x="831" d="M15.5 598.5q11.5 52.5 56.5 81.5l194 127v547q0 57 41 98t99 41q57 0 97 -41t40 -98v-367l80 51q46 29 98.5 17.5t81.5 -56.5q29 -44 17.5 -96.5t-56.5 -81.5l-221 -143v-373q0 -32 10 -55t19 -32t32 -28q39 -31 39 -79q0 -59 -37.5 -87t-101.5 -28q-72 0 -129 45 q-109 80 -109 240v217l-53 -35q-44 -29 -97.5 -17t-82.5 56t-17.5 96.5z" />
<glyph unicode="&#x143;" horiz-adv-x="1376" d="M160 111v1271q0 54 37 91.5t100 37.5q94 0 137 -73l524 -871v815q0 53 37.5 91t91.5 38t92 -38t38 -91v-1271q0 -55 -38.5 -92t-97.5 -37q-93 0 -137 67l-526 875v-813q0 -54 -37.5 -91.5t-91.5 -37.5t-91.5 37.5t-37.5 91.5zM518 1724q0 21 21 72l98 197q31 73 106 73 q53 0 81 -31.5t28 -78.5q0 -34 -31 -86l-104 -170q-24 -38 -47.5 -54t-59.5 -16q-42 0 -67 27t-25 67z" />
<glyph unicode="&#x144;" horiz-adv-x="1167" d="M66 950q0 58 37 86.5t100 28.5q67 0 131 -45q28 -24 45 -53q116 110 309 110q184 0 264 -101t80 -286v-565q0 -57 -40.5 -97t-98.5 -40q-57 0 -97 40t-40 97v532q0 74 -30.5 117t-113.5 43q-111 0 -172 -84v-608q0 -57 -40 -97t-97 -40q-58 0 -98.5 40t-40.5 97v629 q0 11 -0.5 21t-3.5 19t-4.5 15t-7 13.5t-6.5 10.5t-9 10.5t-9 8.5t-10 9t-10 9q-38 26 -38 80zM416 1309q0 23 20 71l99 197q31 74 106 74q53 0 81 -32t28 -79q0 -34 -31 -86l-105 -170q-24 -38 -47 -54t-59 -16q-41 0 -66.5 27.5t-25.5 67.5z" />
<glyph unicode="&#x145;" horiz-adv-x="1376" d="M160 111v1271q0 54 37 91.5t100 37.5q94 0 137 -73l524 -871v815q0 53 37.5 91t91.5 38t92 -38t38 -91v-1271q0 -55 -38.5 -92t-97.5 -37q-93 0 -137 67l-526 875v-813q0 -54 -37.5 -91.5t-91.5 -37.5t-91.5 37.5t-37.5 91.5zM555 -256q0 54 37.5 92.5t89.5 38.5 q59 0 95 -45t36 -115q0 -59 -17 -111t-42.5 -85.5t-55 -58t-53.5 -35.5t-39 -11q-45 0 -45 41q0 19 14.5 35.5t33 28.5t36.5 37t23 59q-48 5 -80.5 41.5t-32.5 87.5z" />
<glyph unicode="&#x146;" horiz-adv-x="1167" d="M66 950q0 58 37 86.5t100 28.5q67 0 131 -45q28 -24 45 -53q116 110 309 110q184 0 264 -101t80 -286v-565q0 -57 -40.5 -97t-98.5 -40q-57 0 -97 40t-40 97v532q0 74 -30.5 117t-113.5 43q-111 0 -172 -84v-608q0 -57 -40 -97t-97 -40q-58 0 -98.5 40t-40.5 97v629 q0 11 -0.5 21t-3.5 19t-4.5 15t-7 13.5t-6.5 10.5t-9 10.5t-9 8.5t-10 9t-10 9q-38 26 -38 80zM475 -256q0 54 37.5 92.5t89.5 38.5q59 0 95 -45t36 -115q0 -59 -17 -111t-42.5 -85.5t-55 -58t-53.5 -35.5t-39 -11q-45 0 -45 41q0 19 14.5 35.5t33 28.5t36.5 37t23 59 q-48 5 -80.5 41.5t-32.5 87.5z" />
<glyph unicode="&#x147;" horiz-adv-x="1376" d="M160 111v1271q0 54 37 91.5t100 37.5q94 0 137 -73l524 -871v815q0 53 37.5 91t91.5 38t92 -38t38 -91v-1271q0 -55 -38.5 -92t-97.5 -37q-93 0 -137 67l-526 875v-813q0 -54 -37.5 -91.5t-91.5 -37.5t-91.5 37.5t-37.5 91.5zM350 1933q0 34 25 66q30 41 76 41 q27 0 65 -23l172 -131l172 133q36 25 68 25q42 0 73 -39q25 -36 25 -68q0 -42 -41 -77l-219 -191q-41 -29 -78 -31q-42 0 -78 29l-219 188q-41 33 -41 78z" />
<glyph unicode="&#x148;" horiz-adv-x="1167" d="M66 950q0 58 37 86.5t100 28.5q67 0 131 -45q28 -24 45 -53q116 110 309 110q184 0 264 -101t80 -286v-565q0 -57 -40.5 -97t-98.5 -40q-57 0 -97 40t-40 97v532q0 74 -30.5 117t-113.5 43q-111 0 -172 -84v-608q0 -57 -40 -97t-97 -40q-58 0 -98.5 40t-40.5 97v629 q0 11 -0.5 21t-3.5 19t-4.5 15t-7 13.5t-6.5 10.5t-9 10.5t-9 8.5t-10 9t-10 9q-38 26 -38 80zM248 1522q0 34 24 65q30 41 76 41q30 0 66 -22l172 -131l172 133q35 24 67 24q43 0 74 -39q25 -36 25 -67q0 -43 -41 -78l-219 -191q-40 -28 -78 -30q-43 0 -78 28l-219 189 q-41 33 -41 78z" />
<glyph unicode="&#x14c;" d="M131 535v423q0 88 16.5 166t56.5 150t99.5 123.5t152 82.5t208.5 31t208.5 -31t152.5 -82.5t99.5 -123.5t56.5 -150t17 -166v-423q0 -88 -17 -166t-56.5 -150.5t-99.5 -124.5t-152.5 -83t-208.5 -31t-208.5 31t-152 83t-99.5 124.5t-56.5 150.5t-16.5 166zM365 1817 q0 47 33.5 80.5t80.5 33.5h369q47 0 81 -33.5t34 -80.5t-34 -81t-81 -34h-369q-47 0 -80.5 34t-33.5 81zM414 535q0 -144 55.5 -221.5t194.5 -77.5t195 77.5t56 221.5v423q0 68 -11.5 119t-39 92t-77.5 62.5t-123 21.5q-72 0 -122 -21t-77.5 -62t-39 -92t-11.5 -120v-423z " />
<glyph unicode="&#x14d;" horiz-adv-x="1089" d="M104 422v219q0 91 26.5 168.5t79 138t138.5 95t197 34.5t197 -34.5t138 -95t78.5 -138t26.5 -168.5v-219q0 -91 -26.5 -168.5t-78.5 -137.5t-138 -94t-197 -34t-197 34t-138.5 94t-79 137.5t-26.5 168.5zM244 1382q0 47 33.5 81t80.5 34h369q47 0 81 -34t34 -81 t-34 -80.5t-81 -33.5h-369q-47 0 -80.5 33.5t-33.5 80.5zM383 424q0 -188 162 -188q164 0 164 188v215q0 188 -164 188q-162 0 -162 -188v-215z" />
<glyph unicode="&#x150;" d="M131 535v423q0 88 16.5 166t56.5 150t99.5 123.5t152 82.5t208.5 31t208.5 -31t152.5 -82.5t99.5 -123.5t56.5 -150t17 -166v-423q0 -88 -17 -166t-56.5 -150.5t-99.5 -124.5t-152.5 -83t-208.5 -31t-208.5 31t-152 83t-99.5 124.5t-56.5 150.5t-16.5 166zM344 1743 q0 27 10 47l113 231q12 27 39.5 45.5t58.5 18.5q34 0 56 -14q61 -34 61 -93q0 -27 -16 -53l-136 -219q-35 -57 -88 -57q-18 0 -41 10q-57 26 -57 84zM414 535q0 -144 55.5 -221.5t194.5 -77.5t195 77.5t56 221.5v423q0 68 -11.5 119t-39 92t-77.5 62.5t-123 21.5 q-72 0 -122 -21t-77.5 -62t-39 -92t-11.5 -120v-423zM772 1743q0 20 10 47l115 231q13 28 39.5 46t58.5 18q31 0 56 -14q59 -33 59 -93q0 -32 -16 -53l-133 -219q-39 -57 -89 -57q-20 0 -43 10q-57 26 -57 84z" />
<glyph unicode="&#x151;" horiz-adv-x="1089" d="M104 422v219q0 91 26.5 168.5t79 138t138.5 95t197 34.5t197 -34.5t138 -95t78.5 -138t26.5 -168.5v-219q0 -91 -26.5 -168.5t-78.5 -137.5t-138 -94t-197 -34t-197 34t-138.5 94t-79 137.5t-26.5 168.5zM217 1309q0 27 10 47l113 231q12 27 39.5 45.5t58.5 18.5 q32 0 56 -15q61 -34 61 -92q0 -27 -16 -53l-136 -219q-36 -58 -88 -58q-15 0 -41 11q-57 26 -57 84zM383 424q0 -188 162 -188q164 0 164 188v215q0 188 -164 188q-162 0 -162 -188v-215zM645 1309q0 20 10 47l115 231q13 28 39.5 46t58.5 18q29 0 56 -15q59 -33 59 -92 q0 -32 -16 -53l-133 -219q-39 -58 -89 -58q-17 0 -43 11q-57 26 -57 84z" />
<glyph unicode="&#x152;" horiz-adv-x="1918" d="M131 535v423q0 88 16.5 166t56.5 150t99.5 123.5t152 82.5t208.5 31q85 0 158.5 -19.5t119.5 -51.5q41 53 109 53h637q56 0 95.5 -39.5t39.5 -95.5t-39.5 -95.5t-95.5 -39.5h-490v-346h442q55 0 93.5 -39t38.5 -93t-38.5 -91.5t-93.5 -37.5h-442v-348h516q56 0 95.5 -39 t39.5 -94q0 -57 -39.5 -96t-95.5 -39h-663q-68 0 -109 53q-109 -73 -278 -73q-116 0 -208.5 31t-152 83t-99.5 124.5t-56.5 150.5t-16.5 166zM412 535q0 -144 56.5 -221.5t195.5 -77.5q72 0 122 21.5t77.5 63t39.5 93.5t12 121v423q0 68 -12 119.5t-39.5 93t-77.5 63 t-122 21.5q-139 0 -195.5 -77.5t-56.5 -219.5v-423z" />
<glyph unicode="&#x153;" horiz-adv-x="1656" d="M104 422v219q0 91 26.5 168.5t79 138t138.5 95t197 34.5q192 0 303 -108q111 108 293 108q113 0 197.5 -35t133.5 -97.5t73 -141t24 -172.5v-84q0 -42 -28 -70t-68 -28h-490v-41q3 -195 170 -195q73 0 122 10.5t107 34.5q42 17 83 -4t53 -66t-3.5 -81.5t-54.5 -55.5 q-151 -63 -321 -63q-186 0 -295 104q-107 -104 -299 -104q-111 0 -197 34t-138.5 94t-79 137.5t-26.5 168.5zM383 424q0 -188 162 -188q164 0 164 188v215q0 188 -164 188q-162 0 -162 -188v-215zM983 653h320v27q0 182 -156 182q-81 0 -122.5 -47.5t-41.5 -134.5v-27z" />
<glyph unicode="&#x154;" horiz-adv-x="1271" d="M160 123v1229q0 58 41 99.5t100 41.5h385q234 0 354.5 -108t120.5 -310v-80q0 -129 -61 -222.5t-174 -137.5q126 -218 237 -455q23 -58 7.5 -102t-55 -70t-85.5 -26q-86 0 -125 84q-126 274 -274 516h-189v-459q0 -59 -41 -100t-100 -41q-60 0 -100.5 41t-40.5 100z M442 838h230q93 0 150 40t57 117v80q0 75 -51 114.5t-148 39.5h-238v-391zM467 1724q0 24 20 72l99 197q31 73 106 73q53 0 81 -31.5t28 -78.5q0 -34 -31 -86l-104 -170q-24 -38 -47.5 -54t-59.5 -16q-42 0 -67 27t-25 67z" />
<glyph unicode="&#x155;" horiz-adv-x="870" d="M66 950q0 57 36.5 86t102.5 29q57 0 108.5 -33t83.5 -86q103 129 283 129q75 0 129.5 -36t54.5 -101q0 -56 -35 -95.5t-96 -39.5q-14 0 -48 5t-69 5q-139 0 -176 -119v-569q0 -57 -40 -97t-97 -40q-58 0 -98.5 40t-40.5 97v629q0 11 -0.5 21t-3.5 19t-4.5 15t-7 13.5 t-6.5 10.5t-9 10.5t-9 8.5t-10 9t-10 9q-38 26 -38 80zM268 1309q0 20 21 71l98 197q31 74 107 74q53 0 80.5 -32t27.5 -79q0 -34 -31 -86l-104 -170q-24 -38 -47.5 -54t-59.5 -16q-41 0 -66.5 27.5t-25.5 67.5z" />
<glyph unicode="&#x156;" horiz-adv-x="1271" d="M160 123v1229q0 58 41 99.5t100 41.5h385q234 0 354.5 -108t120.5 -310v-80q0 -129 -61 -222.5t-174 -137.5q126 -218 237 -455q23 -58 7.5 -102t-55 -70t-85.5 -26q-86 0 -125 84q-126 274 -274 516h-189v-459q0 -59 -41 -100t-100 -41q-60 0 -100.5 41t-40.5 100z M442 838h230q93 0 150 40t57 117v80q0 75 -51 114.5t-148 39.5h-238v-391zM530 -256q0 54 37.5 92.5t89.5 38.5q59 0 95 -45t36 -115q0 -59 -17 -111t-42.5 -85.5t-54.5 -58t-53 -35.5t-39 -11q-45 0 -45 41q0 19 14.5 35.5t32.5 28.5t36 37t23 59q-48 5 -80.5 41.5 t-32.5 87.5z" />
<glyph unicode="&#x157;" horiz-adv-x="870" d="M66 950q0 57 36.5 86t102.5 29q57 0 108.5 -33t83.5 -86q103 129 283 129q75 0 129.5 -36t54.5 -101q0 -56 -35 -95.5t-96 -39.5q-14 0 -48 5t-69 5q-139 0 -176 -119v-569q0 -57 -40 -97t-97 -40q-58 0 -98.5 40t-40.5 97v629q0 11 -0.5 21t-3.5 19t-4.5 15t-7 13.5 t-6.5 10.5t-9 10.5t-9 8.5t-10 9t-10 9q-38 26 -38 80zM176 -256q0 54 37.5 92.5t89.5 38.5q59 0 95 -45t36 -115q0 -59 -17 -111t-42.5 -85.5t-55 -58t-53.5 -35.5t-39 -11q-45 0 -45 41q0 19 14.5 35.5t33 28.5t36.5 37t23 59q-48 5 -80.5 41.5t-32.5 87.5z" />
<glyph unicode="&#x158;" horiz-adv-x="1271" d="M160 123v1229q0 58 41 99.5t100 41.5h385q234 0 354.5 -108t120.5 -310v-80q0 -129 -61 -222.5t-174 -137.5q126 -218 237 -455q23 -58 7.5 -102t-55 -70t-85.5 -26q-86 0 -125 84q-126 274 -274 516h-189v-459q0 -59 -41 -100t-100 -41q-60 0 -100.5 41t-40.5 100z M293 1933q0 35 24 66q30 41 76 41q28 0 66 -23l172 -131l172 133q36 25 67 25q43 0 74 -39q25 -36 25 -68q0 -42 -41 -77l-219 -191q-41 -29 -78 -31q-42 0 -78 29l-219 188q-41 33 -41 78zM442 838h230q93 0 150 40t57 117v80q0 75 -51 114.5t-148 39.5h-238v-391z" />
<glyph unicode="&#x159;" horiz-adv-x="870" d="M66 950q0 57 36.5 86t102.5 29q57 0 108.5 -33t83.5 -86q103 129 283 129q75 0 129.5 -36t54.5 -101q0 -56 -35 -95.5t-96 -39.5q-14 0 -48 5t-69 5q-139 0 -176 -119v-569q0 -57 -40 -97t-97 -40q-58 0 -98.5 40t-40.5 97v629q0 11 -0.5 21t-3.5 19t-4.5 15t-7 13.5 t-6.5 10.5t-9 10.5t-9 8.5t-10 9t-10 9q-38 26 -38 80zM98 1522q0 33 25 65q30 41 76 41q29 0 65 -22l172 -131l172 133q35 24 68 24q43 0 74 -39q24 -34 24 -67q0 -43 -41 -78l-219 -191q-40 -28 -78 -30q-43 0 -78 28l-219 189q-41 33 -41 78z" />
<glyph unicode="&#x15a;" horiz-adv-x="1200" d="M88 170q0 53 34 92t89 39q24 0 75.5 -18.5t86.5 -26.5q77 -18 170 -18q297 0 297 196q0 67 -42.5 104.5t-160.5 69.5q-28 8 -109.5 27t-145.5 38.5t-106 43.5q-176 100 -176 323q0 148 69.5 256.5t183.5 161.5t257 53q194 0 334 -47q47 -17 71.5 -51t24.5 -76 q0 -54 -35.5 -94.5t-95.5 -40.5q-21 0 -65 15.5t-70 21.5q-61 14 -141 14q-120 0 -186 -46.5t-66 -129.5q0 -75 45 -110.5t156 -63.5q30 -8 97 -23t106 -25t88 -28t81 -39q168 -105 168 -323q0 -157 -73.5 -268t-196 -163t-283.5 -52q-230 0 -385 57q-47 17 -71.5 52 t-24.5 79zM430 1724q0 21 21 72l98 197q31 73 106 73q53 0 81 -31.5t28 -78.5q0 -34 -31 -86l-104 -170q-24 -38 -47.5 -54t-59.5 -16q-42 0 -67 27t-25 67z" />
<glyph unicode="&#x15b;" horiz-adv-x="948" d="M76 178q17 49 61 69.5t90 4.5q52 -20 97 -29.5t118 -9.5q77 0 120.5 27t43.5 73q0 30 -15 50.5t-46.5 33t-61 19.5t-80 17t-81.5 18q-53 13 -92 31.5t-76 51t-56.5 86t-19.5 125.5q0 106 53.5 182.5t139 113t190.5 36.5q157 0 287 -45q47 -17 67 -58t6 -87 q-14 -44 -55.5 -66.5t-87.5 -9.5q-118 41 -201 41q-68 0 -103.5 -25t-35.5 -63q0 -23 10.5 -40.5t24 -28t42 -20t49 -14t62 -13t64.5 -13.5q46 -10 81.5 -22t74.5 -35.5t64 -55t41.5 -82t16.5 -114.5q0 -88 -35.5 -155t-97 -106t-136 -58t-159.5 -19q-173 0 -297 43 q-43 14 -61.5 58t-5.5 89zM307 1309q0 20 21 71l98 197q31 74 106 74q53 0 81 -32t28 -79q0 -34 -31 -86l-104 -170q-24 -38 -47.5 -54t-59.5 -16q-41 0 -66.5 27.5t-25.5 67.5z" />
<glyph unicode="&#x15e;" horiz-adv-x="1200" d="M88 170q0 53 34 92t89 39q24 0 75.5 -18.5t86.5 -26.5q77 -18 170 -18q297 0 297 196q0 67 -42.5 104.5t-160.5 69.5q-28 8 -109.5 27t-145.5 38.5t-106 43.5q-176 100 -176 323q0 148 69.5 256.5t183.5 161.5t257 53q194 0 334 -47q47 -17 71.5 -51t24.5 -76 q0 -54 -35.5 -94.5t-95.5 -40.5q-21 0 -65 15.5t-70 21.5q-61 14 -141 14q-120 0 -186 -46.5t-66 -129.5q0 -75 45 -110.5t156 -63.5q30 -8 97 -23t106 -25t88 -28t81 -39q168 -105 168 -323q0 -215 -130.5 -338t-346.5 -141v-66q106 0 159.5 -45t53.5 -119q0 -78 -65 -124 t-181 -46q-151 0 -151 66q0 51 94 51q119 0 119 64q0 27 -21 39.5t-67 17.5q-44 3 -62 17.5t-14 49.5l8 91q-202 7 -334 57q-47 17 -71.5 52t-24.5 79z" />
<glyph unicode="&#x15f;" horiz-adv-x="948" d="M76 178q17 49 61 69.5t90 4.5q52 -20 97 -29.5t118 -9.5q77 0 120.5 27t43.5 73q0 30 -15 50.5t-46.5 33t-61 19.5t-80 17t-81.5 18q-53 13 -92 31.5t-76 51t-56.5 86t-19.5 125.5q0 106 53.5 182.5t139 113t190.5 36.5q157 0 287 -45q47 -17 67 -58t6 -87 q-14 -44 -55.5 -66.5t-87.5 -9.5q-118 41 -201 41q-68 0 -103.5 -25t-35.5 -63q0 -23 10.5 -40.5t24 -28t42 -20t49 -14t62 -13t64.5 -13.5q46 -10 81.5 -22t74.5 -35.5t64 -55t41.5 -82t16.5 -114.5q0 -79 -28.5 -141t-78.5 -101t-112.5 -62t-136.5 -30v-72 q106 0 159.5 -45t53.5 -119q0 -78 -65.5 -124t-180.5 -46q-151 0 -151 66q0 51 94 51q119 0 119 64q0 27 -21 39.5t-67 17.5q-44 3 -62 17.5t-14 49.5l8 99q-147 5 -242 41q-43 14 -61.5 58t-5.5 89z" />
<glyph unicode="&#x160;" horiz-adv-x="1200" d="M88 170q0 53 34 92t89 39q24 0 75.5 -18.5t86.5 -26.5q77 -18 170 -18q297 0 297 196q0 67 -42.5 104.5t-160.5 69.5q-28 8 -109.5 27t-145.5 38.5t-106 43.5q-176 100 -176 323q0 148 69.5 256.5t183.5 161.5t257 53q194 0 334 -47q47 -17 71.5 -51t24.5 -76 q0 -54 -35.5 -94.5t-95.5 -40.5q-21 0 -65 15.5t-70 21.5q-61 14 -141 14q-120 0 -186 -46.5t-66 -129.5q0 -75 45 -110.5t156 -63.5q30 -8 97 -23t106 -25t88 -28t81 -39q168 -105 168 -323q0 -157 -73.5 -268t-196 -163t-283.5 -52q-230 0 -385 57q-47 17 -71.5 52 t-24.5 79zM258 1933q0 34 25 66q30 41 75 41q28 0 66 -23l172 -131l172 133q36 25 68 25q42 0 73 -39q25 -36 25 -68q0 -42 -41 -77l-219 -191q-41 -29 -78 -31q-42 0 -78 29l-219 188q-41 33 -41 78z" />
<glyph unicode="&#x161;" horiz-adv-x="948" d="M76 178q17 49 61 69.5t90 4.5q52 -20 97 -29.5t118 -9.5q77 0 120.5 27t43.5 73q0 30 -15 50.5t-46.5 33t-61 19.5t-80 17t-81.5 18q-53 13 -92 31.5t-76 51t-56.5 86t-19.5 125.5q0 106 53.5 182.5t139 113t190.5 36.5q157 0 287 -45q47 -17 67 -58t6 -87 q-14 -44 -55.5 -66.5t-87.5 -9.5q-118 41 -201 41q-68 0 -103.5 -25t-35.5 -63q0 -23 10.5 -40.5t24 -28t42 -20t49 -14t62 -13t64.5 -13.5q46 -10 81.5 -22t74.5 -35.5t64 -55t41.5 -82t16.5 -114.5q0 -88 -35.5 -155t-97 -106t-136 -58t-159.5 -19q-173 0 -297 43 q-43 14 -61.5 58t-5.5 89zM131 1522q0 33 25 65q30 41 75 41q30 0 66 -22l172 -131l172 133q35 24 68 24q42 0 73 -39q25 -36 25 -67q0 -43 -41 -78l-219 -191q-40 -28 -78 -30q-43 0 -78 28l-219 189q-41 33 -41 78z" />
<glyph unicode="&#x162;" horiz-adv-x="1232" d="M27 1356q0 57 39.5 97t95.5 40h909q56 0 95.5 -40t39.5 -97t-39.5 -97t-95.5 -40h-313v-1096q0 -58 -41.5 -99.5t-100.5 -41.5q-58 0 -99.5 41t-41.5 100v1096h-313q-56 0 -95.5 40t-39.5 97zM487 -256q0 54 37.5 92.5t89.5 38.5q59 0 95 -45t36 -115q0 -59 -17 -111 t-42.5 -85.5t-54.5 -58t-53 -35.5t-39 -11q-45 0 -45 41q0 19 14.5 35.5t32.5 28.5t36 37t23 59q-48 5 -80.5 41.5t-32.5 87.5z" />
<glyph unicode="&#x163;" horiz-adv-x="780" d="M18 950q0 47 33.5 81t79.5 34h33v139q0 57 41 98t98 41t97 -41t40 -98v-139h158q47 0 81 -34t34 -81q0 -46 -34 -79t-81 -33h-158l2 -357q0 -131 33.5 -184t128.5 -53h39q50 0 85.5 -35t35.5 -86t-35.5 -87t-85.5 -36h-78q-401 0 -401 475v363h-33q-46 0 -79.5 33 t-33.5 79zM307 -256q0 54 37.5 92.5t89.5 38.5q59 0 95 -45t36 -115q0 -59 -17 -111t-42.5 -85.5t-55 -58t-53.5 -35.5t-39 -11q-45 0 -45 41q0 19 14.5 35.5t33 28.5t36.5 37t23 59q-48 5 -80.5 41.5t-32.5 87.5z" />
<glyph unicode="&#x164;" horiz-adv-x="1232" d="M27 1356q0 57 39.5 97t95.5 40h909q56 0 95.5 -40t39.5 -97t-39.5 -97t-95.5 -40h-313v-1096q0 -58 -41.5 -99.5t-100.5 -41.5q-58 0 -99.5 41t-41.5 100v1096h-313q-56 0 -95.5 40t-39.5 97zM276 1933q0 34 25 66q30 41 76 41q27 0 65 -23l172 -131l172 133q36 25 68 25 q43 0 74 -39q24 -34 24 -68q0 -42 -41 -77l-219 -191q-41 -29 -78 -31q-41 0 -77 29l-220 188q-41 33 -41 78z" />
<glyph unicode="&#x165;" horiz-adv-x="1140" d="M18 950q0 47 33.5 81t79.5 34h33v139q0 57 41 98t98 41t97 -41t40 -98v-139h158q47 0 81 -34t34 -81q0 -46 -34 -79t-81 -33h-158l2 -357q0 -131 33.5 -184t128.5 -53h39q50 0 85.5 -35t35.5 -86t-35.5 -87t-85.5 -36h-78q-401 0 -401 475v363h-33q-46 0 -79.5 33 t-33.5 79zM805 1354q0 54 37.5 92.5t89.5 38.5q59 0 95 -45t36 -115q0 -59 -17 -111t-42.5 -85.5t-55 -58t-53.5 -35.5t-39 -11q-45 0 -45 41q0 19 14.5 35.5t33 28.5t36.5 37t23 59q-48 5 -80.5 41.5t-32.5 87.5z" />
<glyph unicode="&#x16a;" d="M131 485v885q0 59 40.5 100t98.5 41q59 0 100.5 -41.5t41.5 -99.5v-872q0 -41 6.5 -77t23.5 -73t44.5 -62.5t73 -42t104.5 -16.5t104.5 16.5t72.5 42t44.5 62.5t23.5 73t6 77v872q0 57 42 99t100 42t99.5 -42t41.5 -99v-885q0 -106 -32.5 -195.5t-96 -159t-167.5 -109 t-238 -39.5t-237.5 39.5t-167 109t-96 159t-32.5 195.5zM365 1817q0 47 33.5 80.5t80.5 33.5h369q47 0 81 -33.5t34 -80.5t-34 -81t-81 -34h-369q-47 0 -80.5 34t-33.5 81z" />
<glyph unicode="&#x16b;" horiz-adv-x="1171" d="M139 371v567q0 57 40 98t97 41t98.5 -41t41.5 -98v-532q0 -79 30 -119.5t113 -40.5q109 0 170 88v604q0 57 41 98t98 41t97.5 -41t40.5 -98v-641q0 -25 3.5 -42.5t15.5 -32.5t17 -19.5t25 -20.5q39 -35 39 -82q0 -57 -37.5 -84.5t-101.5 -27.5q-72 0 -129 45 q-28 19 -52 59q-113 -104 -303 -104q-177 0 -260.5 102t-83.5 281zM287 1382q0 47 33.5 81t80.5 34h369q47 0 81 -34t34 -81t-34 -80.5t-81 -33.5h-369q-47 0 -80.5 33.5t-33.5 80.5z" />
<glyph unicode="&#x16e;" d="M131 485v885q0 59 40.5 100t98.5 41q59 0 100.5 -41.5t41.5 -99.5v-872q0 -41 6.5 -77t23.5 -73t44.5 -62.5t73 -42t104.5 -16.5t104.5 16.5t72.5 42t44.5 62.5t23.5 73t6 77v872q0 57 42 99t100 42t99.5 -42t41.5 -99v-885q0 -106 -32.5 -195.5t-96 -159t-167.5 -109 t-238 -39.5t-237.5 39.5t-167 109t-96 159t-32.5 195.5zM420 1837q0 101 71.5 172.5t172.5 71.5t172 -71.5t71 -172.5t-71 -172.5t-172 -71.5t-172.5 71.5t-71.5 172.5zM545 1837q0 -49 34.5 -84t84.5 -35q49 0 83.5 34.5t34.5 84.5t-34.5 84.5t-83.5 34.5q-50 0 -84.5 -35 t-34.5 -84z" />
<glyph unicode="&#x16f;" horiz-adv-x="1171" d="M139 371v567q0 57 40 98t97 41t98.5 -41t41.5 -98v-532q0 -79 30 -119.5t113 -40.5q109 0 170 88v604q0 57 41 98t98 41t97.5 -41t40.5 -98v-641q0 -25 3.5 -42.5t15.5 -32.5t17 -19.5t25 -20.5q39 -35 39 -82q0 -57 -37.5 -84.5t-101.5 -27.5q-72 0 -129 45 q-28 19 -52 59q-113 -104 -303 -104q-177 0 -260.5 102t-83.5 281zM342 1425q0 101 71.5 172.5t172.5 71.5t172 -71.5t71 -172.5t-71 -172t-172 -71t-172.5 71t-71.5 172zM467 1425q0 -49 34.5 -83.5t84.5 -34.5t84.5 34.5t34.5 83.5t-34.5 84t-84.5 35t-84.5 -35t-34.5 -84 z" />
<glyph unicode="&#x170;" d="M131 485v885q0 59 40.5 100t98.5 41q59 0 100.5 -41.5t41.5 -99.5v-872q0 -41 6.5 -77t23.5 -73t44.5 -62.5t73 -42t104.5 -16.5t104.5 16.5t72.5 42t44.5 62.5t23.5 73t6 77v872q0 57 42 99t100 42t99.5 -42t41.5 -99v-885q0 -106 -32.5 -195.5t-96 -159t-167.5 -109 t-238 -39.5t-237.5 39.5t-167 109t-96 159t-32.5 195.5zM356 1743q0 25 11 47l112 231q12 27 40 45.5t59 18.5q33 0 55 -14q61 -34 61 -93q0 -27 -16 -53l-135 -219q-35 -57 -88 -57q-18 0 -41 10q-58 27 -58 84zM784 1743q0 18 11 47l114 231q13 27 39.5 45.5t59.5 18.5 q30 0 55 -14q59 -33 59 -93q0 -32 -16 -53l-133 -219q-39 -57 -88 -57q-20 0 -43 10q-58 27 -58 84z" />
<glyph unicode="&#x171;" horiz-adv-x="1171" d="M139 371v567q0 57 40 98t97 41t98.5 -41t41.5 -98v-532q0 -79 30 -119.5t113 -40.5q109 0 170 88v604q0 57 41 98t98 41t97.5 -41t40.5 -98v-641q0 -25 3.5 -42.5t15.5 -32.5t17 -19.5t25 -20.5q39 -35 39 -82q0 -57 -37.5 -84.5t-101.5 -27.5q-72 0 -129 45 q-28 19 -52 59q-113 -104 -303 -104q-177 0 -260.5 102t-83.5 281zM272 1309q0 25 11 47l112 231q12 27 40 45.5t59 18.5t55 -15q61 -34 61 -92q0 -27 -16 -53l-135 -219q-36 -58 -88 -58q-15 0 -41 11q-58 27 -58 84zM700 1309q0 18 11 47l114 231q13 27 39.5 45.5 t59.5 18.5q28 0 55 -15q59 -33 59 -92q0 -32 -16 -53l-133 -219q-39 -58 -88 -58q-17 0 -43 11q-58 27 -58 84z" />
<glyph unicode="&#x172;" d="M131 485v885q0 59 40.5 100t98.5 41q59 0 100.5 -41.5t41.5 -99.5v-872q0 -41 6.5 -77t23.5 -73t44.5 -62.5t73 -42t104.5 -16.5t104.5 16.5t72.5 42t44.5 62.5t23.5 73t6 77v872q0 57 42 99t100 42t99.5 -42t41.5 -99v-885q0 -194 -105.5 -329t-310.5 -166 q-104 -74 -104 -148q0 -78 121 -78q48 0 73 -26t25 -66q0 -48 -37 -72t-98 -24q-60 0 -110.5 10t-94 32t-68 61.5t-24.5 93.5q0 55 31.5 111t91.5 102q-225 21 -341 158t-116 341z" />
<glyph unicode="&#x173;" horiz-adv-x="1171" d="M139 371v567q0 57 40 98t97 41t98.5 -41t41.5 -98v-532q0 -79 30 -119.5t113 -40.5q109 0 170 88v604q0 57 41 98t98 41t97.5 -41t40.5 -98v-641q0 -25 3.5 -42.5t15.5 -32.5t17 -19.5t25 -20.5q39 -35 39 -82q0 -96 -105 -110q-114 -77 -114 -156q0 -78 121 -78 q48 0 73 -26t25 -66q0 -48 -37 -72t-98 -24q-60 0 -110.5 10t-94 31.5t-68 61t-24.5 93.5q0 142 182 254q-9 6 -18 15q-28 19 -52 59q-113 -104 -303 -104q-177 0 -260.5 102t-83.5 281z" />
<glyph unicode="&#x174;" horiz-adv-x="1816" d="M35 1380q0 59 42.5 95t98.5 36q46 0 83 -28t48 -82q106 -514 221 -959q128 481 213 901q36 168 168 168q73 0 111 -43.5t55 -121.5q81 -403 211 -904q114 431 223 959q10 54 47.5 82t83.5 28q56 0 99 -36t43 -95q0 -9 -4 -37q-137 -634 -297 -1202q-22 -77 -69 -118 t-114 -41q-62 0 -111.5 40.5t-70.5 114.5q-89 315 -209 817q-86 -376 -207 -817q-21 -74 -70.5 -114.5t-111.5 -40.5q-137 0 -184 159q-161 582 -295 1202q-4 14 -4 37zM575 1749q0 43 41 78l220 186q39 31 77 31q37 -2 78 -31l219 -192q41 -33 41 -78q0 -35 -24 -66 q-31 -39 -74 -39q-32 0 -68 25l-172 131l-172 -131q-35 -21 -65 -21q-47 0 -76 39q-25 36 -25 68z" />
<glyph unicode="&#x175;" horiz-adv-x="1495" d="M43 930q-13 65 27 106t98 41q43 0 78 -25.5t45 -74.5q93 -417 155 -639q92 340 150 610q27 129 154 129q121 0 149 -129q74 -334 152 -610q81 299 153 639q10 49 45 74.5t78 25.5q58 0 98 -41t27 -106q-106 -478 -213 -815q-22 -65 -69 -96t-107 -31t-106 30.5t-64 92.5 q-89 303 -145 534q-68 -270 -146 -534q-18 -62 -64 -92.5t-108 -30.5q-59 0 -106 31.5t-68 95.5q-119 374 -213 815zM408 1337q0 43 41 78l219 187q38 30 77 30q38 -2 78 -30l219 -193q41 -33 41 -78q0 -34 -24 -65q-31 -39 -74 -39q-33 0 -67 24l-173 131l-172 -131 q-33 -20 -65 -20q-47 0 -76 39q-24 34 -24 67z" />
<glyph unicode="&#x176;" horiz-adv-x="1075" d="M0 1374q0 59 44.5 98t102.5 39q81 0 121 -84q92 -217 273 -563q172 334 274 566q38 81 119 81q55 0 98 -38t43 -95q0 -24 -14 -59q-149 -337 -383 -770v-426q0 -59 -41 -100t-100 -41q-60 0 -101 41t-41 100v426q-232 427 -381 766q-14 28 -14 59zM199 1749q0 43 41 78 l219 186q39 31 78 31q36 -2 77 -31l220 -192q40 -32 40 -78q0 -35 -24 -66q-31 -39 -74 -39q-31 0 -67 25l-172 131l-172 -131q-35 -21 -66 -21q-47 0 -76 39q-24 34 -24 68z" />
<glyph unicode="&#x177;" horiz-adv-x="968" d="M-10 -240q0 50 31 87.5t92 43.5q74 5 131.5 36.5t109.5 115.5q-211 518 -317 866q-22 72 22 120t109 48q40 0 73 -24.5t44 -69.5q118 -376 198 -598l191 600q13 46 48 69t77 23q69 0 112 -54t15 -130l-260 -741q-94 -262 -213.5 -387t-309.5 -140q-70 -6 -111.5 35.5 t-41.5 99.5zM147 1337q0 43 41 78l220 187q38 30 77 30q38 -2 78 -30l219 -193q41 -33 41 -78q0 -34 -24 -65q-31 -39 -74 -39q-33 0 -68 24l-172 131l-172 -131q-33 -20 -65 -20q-47 0 -76 39q-25 36 -25 67z" />
<glyph unicode="&#x178;" horiz-adv-x="1075" d="M0 1374q0 59 44.5 98t102.5 39q81 0 121 -84q92 -217 273 -563q172 334 274 566q38 81 119 81q55 0 98 -38t43 -95q0 -24 -14 -59q-149 -337 -383 -770v-426q0 -59 -41 -100t-100 -41q-60 0 -101 41t-41 100v426q-232 427 -381 766q-14 28 -14 59zM207 1798q0 59 39.5 99 t97.5 40t98.5 -40.5t40.5 -98.5t-40 -97.5t-99 -39.5q-58 0 -97.5 39.5t-39.5 97.5zM596 1798q0 59 39.5 99t97.5 40q59 0 99 -40.5t40 -98.5t-40 -97.5t-99 -39.5t-98 39.5t-39 97.5z" />
<glyph unicode="&#x179;" horiz-adv-x="1140" d="M53 135q0 64 43 131l611 959h-519q-54 0 -92.5 39t-38.5 94q0 56 38.5 95.5t92.5 39.5h766q61 0 96 -38t35 -97q0 -58 -43 -123l-616 -967h530q56 0 95 -39t39 -94q0 -57 -39 -96t-95 -39h-770q-58 0 -95.5 38.5t-37.5 96.5zM406 1724q0 24 20 72l98 197q31 73 107 73 q53 0 80.5 -31.5t27.5 -78.5q0 -35 -30 -86l-105 -170q-24 -38 -47 -54t-59 -16q-42 0 -67 27t-25 67z" />
<glyph unicode="&#x17a;" horiz-adv-x="909" d="M41 135q0 42 27 80l440 610h-318q-49 0 -83.5 34.5t-34.5 84.5q0 51 34 86t84 35h551q49 0 89 -30t40 -89q0 -60 -41 -115l-428 -591h349q50 0 85 -35t35 -86q0 -48 -35.5 -83.5t-84.5 -35.5h-586q-43 0 -83 37.5t-40 97.5zM346 1309q0 20 21 71l98 197q31 74 106 74 q53 0 81 -32t28 -79q0 -34 -31 -86l-104 -170q-24 -38 -47.5 -54t-59.5 -16q-41 0 -66.5 27.5t-25.5 67.5z" />
<glyph unicode="&#x17b;" horiz-adv-x="1140" d="M53 135q0 64 43 131l611 959h-519q-54 0 -92.5 39t-38.5 94q0 56 38.5 95.5t92.5 39.5h766q61 0 96 -38t35 -97q0 -58 -43 -123l-616 -967h530q56 0 95 -39t39 -94q0 -57 -39 -96t-95 -39h-770q-58 0 -95.5 38.5t-37.5 96.5zM414 1786q0 66 45 112t110 46q66 0 112 -46 t46 -112q0 -65 -46 -110.5t-112 -45.5q-64 0 -109.5 45.5t-45.5 110.5z" />
<glyph unicode="&#x17c;" horiz-adv-x="909" d="M41 135q0 42 27 80l440 610h-318q-49 0 -83.5 34.5t-34.5 84.5q0 51 34 86t84 35h551q49 0 89 -30t40 -89q0 -60 -41 -115l-428 -591h349q50 0 85 -35t35 -86q0 -48 -35.5 -83.5t-84.5 -35.5h-586q-43 0 -83 37.5t-40 97.5zM299 1368q0 66 45.5 112t110.5 46 q66 0 111.5 -46t45.5 -112q0 -65 -45.5 -110.5t-111.5 -45.5q-65 0 -110.5 46t-45.5 110z" />
<glyph unicode="&#x17d;" horiz-adv-x="1140" d="M53 135q0 64 43 131l611 959h-519q-54 0 -92.5 39t-38.5 94q0 56 38.5 95.5t92.5 39.5h766q61 0 96 -38t35 -97q0 -58 -43 -123l-616 -967h530q56 0 95 -39t39 -94q0 -57 -39 -96t-95 -39h-770q-58 0 -95.5 38.5t-37.5 96.5zM233 1933q0 34 25 66q30 41 76 41 q27 0 65 -23l172 -131l172 133q36 25 68 25q43 0 74 -39q24 -34 24 -68q0 -42 -41 -77l-219 -191q-41 -29 -78 -31q-41 0 -77 29l-220 188q-41 33 -41 78z" />
<glyph unicode="&#x17e;" horiz-adv-x="915" d="M41 135q0 42 27 80l440 610h-318q-49 0 -83.5 34.5t-34.5 84.5q0 51 34 86t84 35h551q49 0 89 -30t40 -89q0 -60 -41 -115l-428 -591h349q50 0 85 -35t35 -86q0 -48 -35.5 -83.5t-84.5 -35.5h-586q-43 0 -83 37.5t-40 97.5zM139 1522q0 33 25 65q30 41 76 41q29 0 65 -22 l172 -131l172 133q35 24 68 24q43 0 74 -39q24 -34 24 -67q0 -43 -41 -78l-219 -191q-40 -28 -78 -30q-43 0 -78 28l-219 189q-41 33 -41 78z" />
<glyph unicode="&#x18f;" d="M129 578v174q0 56 34 89t89 33h661v72q0 148 -63 228.5t-188 80.5q-117 0 -211 -41q-40 -17 -55 -22.5t-44 -13t-55 -7.5q-51 0 -85 35t-34 90q0 97 150 158q141 57 334 57q123 0 216.5 -29.5t153 -80.5t97 -126.5t52.5 -159.5t15 -187v-353q0 -130 -32.5 -237 t-97.5 -188t-170.5 -125.5t-244.5 -44.5q-140 0 -243 45t-163 128t-88 188.5t-28 236.5zM412 526q0 -299 245 -299q130 0 193 77.5t63 221.5v88h-501v-88z" />
<glyph unicode="&#x192;" horiz-adv-x="868" d="M-90 -258q0 50 35 85.5t84 35.5h12q55 0 84.5 26t38.5 86l149 859h-32q-46 0 -79.5 32.5t-33.5 77.5q0 46 33.5 78.5t79.5 32.5h71l21 123q11 59 38.5 113t72 99t110.5 72t145 27h35q52 0 86.5 -33.5t34.5 -87.5q0 -53 -34.5 -86t-86.5 -33h-18q-96 0 -111 -100l-16 -94 h76q46 0 78 -32.5t32 -78.5t-32 -78t-78 -32h-115l-154 -883q-26 -149 -120 -238.5t-255 -89.5h-32q-49 0 -84 34.5t-35 84.5z" />
<glyph unicode="&#x1cd;" horiz-adv-x="1183" d="M27 154q139 606 383 1212q59 147 180 147q127 0 186 -147q242 -593 381 -1212q18 -75 -27 -123.5t-112 -48.5q-48 0 -86 27.5t-49 82.5q-19 86 -56 217h-479q-38 -149 -53 -217q-13 -54 -50 -82t-83 -28q-64 0 -107.5 48.5t-27.5 123.5zM254 1956q0 33 25 65q30 41 75 41 q30 0 66 -22l172 -131l172 133q35 24 67 24q44 0 74 -38q25 -36 25 -68q0 -43 -41 -78l-219 -190q-41 -29 -78 -31q-42 0 -78 29l-219 188q-41 33 -41 78zM416 561h344q-71 241 -172 508q-101 -275 -172 -508z" />
<glyph unicode="&#x1ce;" horiz-adv-x="1091" d="M72 309v15q0 144 105.5 226.5t299.5 82.5h182v39q0 96 -33 141t-122 45q-75 0 -146 -27q-12 -4 -35.5 -13t-38.5 -13t-32 -4q-46 0 -76.5 30.5t-30.5 73.5q0 80 119 127q111 45 262 45q221 0 315.5 -103t94.5 -335v-342q0 -33 8 -55.5t16.5 -32.5t28.5 -27q39 -35 39 -82 q0 -57 -36.5 -84.5t-98.5 -27.5q-60 0 -109 28q-43 26 -61 58q-101 -86 -283 -86q-179 0 -273.5 85.5t-94.5 235.5zM207 1522q0 34 24 65q30 41 76 41q30 0 66 -22l172 -131l172 133q35 24 67 24q43 0 74 -39q25 -36 25 -67q0 -43 -41 -78l-219 -191q-40 -28 -78 -30 q-43 0 -78 28l-219 189q-41 33 -41 78zM346 303q0 -58 38.5 -89.5t115.5 -31.5q73 0 116 41.5t43 120.5v90h-149q-164 0 -164 -117v-14z" />
<glyph unicode="&#x1cf;" horiz-adv-x="600" d="M-37 1956q0 33 25 65q30 41 75 41q30 0 66 -22l172 -131l172 133q34 24 68 24q43 0 73 -38q25 -36 25 -68q0 -43 -41 -78l-219 -190q-41 -29 -78 -31q-42 0 -78 29l-219 188q-41 33 -41 78zM160 123v1247q0 58 41 99.5t100 41.5q58 0 99.5 -42t41.5 -99v-1247 q0 -59 -41 -100t-100 -41q-60 0 -100.5 41t-40.5 100z" />
<glyph unicode="&#x1d0;" horiz-adv-x="548" d="M-63 1522q0 34 24 65q30 41 76 41q29 0 65 -22l172 -131l172 133q35 24 68 24q43 0 74 -39q24 -34 24 -67q0 -43 -41 -78l-219 -191q-40 -28 -78 -30q-42 0 -77 28l-220 189q-40 32 -40 78zM135 125v813q0 57 40.5 98t96.5 41q58 0 99 -41t41 -98v-813q0 -57 -41 -97 t-99 -40q-56 0 -96.5 40t-40.5 97z" />
<glyph unicode="&#x1d1;" d="M131 535v423q0 88 16.5 166t56.5 150t99.5 123.5t152 82.5t208.5 31t208.5 -31t152.5 -82.5t99.5 -123.5t56.5 -150t17 -166v-423q0 -88 -17 -166t-56.5 -150.5t-99.5 -124.5t-152.5 -83t-208.5 -31t-208.5 31t-152 83t-99.5 124.5t-56.5 150.5t-16.5 166zM326 1956 q0 34 24 65q30 41 76 41q30 0 66 -22l172 -131l172 133q35 24 67 24q44 0 74 -38q24 -34 24 -68q0 -44 -40 -78l-220 -190q-41 -29 -77 -31q-42 0 -78 29l-219 188q-41 33 -41 78zM414 535q0 -144 55.5 -221.5t194.5 -77.5t195 77.5t56 221.5v423q0 68 -11.5 119t-39 92 t-77.5 62.5t-123 21.5q-72 0 -122 -21t-77.5 -62t-39 -92t-11.5 -120v-423z" />
<glyph unicode="&#x1d2;" horiz-adv-x="1089" d="M104 422v219q0 91 26.5 168.5t79 138t138.5 95t197 34.5t197 -34.5t138 -95t78.5 -138t26.5 -168.5v-219q0 -91 -26.5 -168.5t-78.5 -137.5t-138 -94t-197 -34t-197 34t-138.5 94t-79 137.5t-26.5 168.5zM207 1522q0 34 24 65q30 41 76 41q30 0 66 -22l172 -131l172 133 q35 24 67 24q43 0 74 -39q25 -36 25 -67q0 -43 -41 -78l-219 -191q-40 -28 -78 -30q-43 0 -78 28l-219 189q-41 33 -41 78zM383 424q0 -188 162 -188q164 0 164 188v215q0 188 -164 188q-162 0 -162 -188v-215z" />
<glyph unicode="&#x1d3;" d="M131 485v885q0 59 40.5 100t98.5 41q59 0 100.5 -41.5t41.5 -99.5v-872q0 -41 6.5 -77t23.5 -73t44.5 -62.5t73 -42t104.5 -16.5t104.5 16.5t72.5 42t44.5 62.5t23.5 73t6 77v872q0 57 42 99t100 42t99.5 -42t41.5 -99v-885q0 -106 -32.5 -195.5t-96 -159t-167.5 -109 t-238 -39.5t-237.5 39.5t-167 109t-96 159t-32.5 195.5zM326 1956q0 34 24 65q30 41 76 41q30 0 66 -22l172 -131l172 133q35 24 67 24q44 0 74 -38q24 -34 24 -68q0 -44 -40 -78l-220 -190q-41 -29 -77 -31q-42 0 -78 29l-219 188q-41 33 -41 78z" />
<glyph unicode="&#x1d4;" horiz-adv-x="1171" d="M139 371v567q0 57 40 98t97 41t98.5 -41t41.5 -98v-532q0 -79 30 -119.5t113 -40.5q109 0 170 88v604q0 57 41 98t98 41t97.5 -41t40.5 -98v-641q0 -25 3.5 -42.5t15.5 -32.5t17 -19.5t25 -20.5q39 -35 39 -82q0 -57 -37.5 -84.5t-101.5 -27.5q-72 0 -129 45 q-28 19 -52 59q-113 -104 -303 -104q-177 0 -260.5 102t-83.5 281zM248 1522q0 34 24 65q30 41 76 41q30 0 66 -22l172 -131l172 133q35 24 67 24q43 0 74 -39q25 -36 25 -67q0 -43 -41 -78l-219 -191q-40 -28 -78 -30q-43 0 -78 28l-219 189q-41 33 -41 78z" />
<glyph unicode="&#x1dd;" horiz-adv-x="1054" d="M90 432v105q0 42 27.5 70t66.5 28h490v20q0 199 -174 199q-83 0 -164 -29q-69 -26 -100 -26q-43 0 -73 30t-30 74q0 76 111 123q110 49 274 49q430 0 430 -450v-191q0 -73 -16 -138t-50.5 -122t-84 -98.5t-122 -65.5t-159.5 -24q-112 0 -196 35t-133.5 97.5t-73 141 t-23.5 172.5zM354 383q0 -182 158 -182q162 0 162 182v47h-320v-47z" />
<glyph unicode="&#x1f8;" horiz-adv-x="1376" d="M160 111v1271q0 54 37 91.5t100 37.5q94 0 137 -73l524 -871v815q0 53 37.5 91t91.5 38t92 -38t38 -91v-1271q0 -55 -38.5 -92t-97.5 -37q-93 0 -137 67l-526 875v-813q0 -54 -37.5 -91.5t-91.5 -37.5t-91.5 37.5t-37.5 91.5zM520 1974q0 47 28 79t81 32q75 0 106 -74 l99 -196q20 -48 20 -72q0 -39 -25 -66.5t-65 -27.5q-37 0 -61 15.5t-48 53.5l-102 170q-33 56 -33 86z" />
<glyph unicode="&#x1f9;" horiz-adv-x="1167" d="M66 950q0 58 37 86.5t100 28.5q67 0 131 -45q28 -24 45 -53q116 110 309 110q184 0 264 -101t80 -286v-565q0 -57 -40.5 -97t-98.5 -40q-57 0 -97 40t-40 97v532q0 74 -30.5 117t-113.5 43q-111 0 -172 -84v-608q0 -57 -40 -97t-97 -40q-58 0 -98.5 40t-40.5 97v629 q0 11 -0.5 21t-3.5 19t-4.5 15t-7 13.5t-6.5 10.5t-9 10.5t-9 8.5t-10 9t-10 9q-38 26 -38 80zM416 1540q0 47 27.5 79t80.5 32q76 0 107 -74l98 -197q21 -51 21 -71q0 -39 -25.5 -67t-65.5 -28q-37 0 -60.5 16t-47.5 54l-102 170q-33 56 -33 86z" />
<glyph unicode="&#x218;" horiz-adv-x="1200" d="M88 170q0 53 34 92t89 39q24 0 75.5 -18.5t86.5 -26.5q77 -18 170 -18q297 0 297 196q0 67 -42.5 104.5t-160.5 69.5q-28 8 -109.5 27t-145.5 38.5t-106 43.5q-176 100 -176 323q0 148 69.5 256.5t183.5 161.5t257 53q194 0 334 -47q47 -17 71.5 -51t24.5 -76 q0 -54 -35.5 -94.5t-95.5 -40.5q-21 0 -65 15.5t-70 21.5q-61 14 -141 14q-120 0 -186 -46.5t-66 -129.5q0 -75 45 -110.5t156 -63.5q30 -8 97 -23t106 -25t88 -28t81 -39q168 -105 168 -323q0 -157 -73.5 -268t-196 -163t-283.5 -52q-230 0 -385 57q-47 17 -71.5 52 t-24.5 79zM446 -256q0 54 37.5 92.5t89.5 38.5q59 0 95.5 -45t36.5 -115q0 -59 -17 -111t-42.5 -85.5t-55 -58t-53.5 -35.5t-39 -11q-45 0 -45 41q0 19 14.5 35.5t32.5 28.5t36 37t23 59q-48 5 -80.5 41.5t-32.5 87.5z" />
<glyph unicode="&#x219;" horiz-adv-x="948" d="M76 178q17 49 61 69.5t90 4.5q52 -20 97 -29.5t118 -9.5q77 0 120.5 27t43.5 73q0 30 -15 50.5t-46.5 33t-61 19.5t-80 17t-81.5 18q-53 13 -92 31.5t-76 51t-56.5 86t-19.5 125.5q0 106 53.5 182.5t139 113t190.5 36.5q157 0 287 -45q47 -17 67 -58t6 -87 q-14 -44 -55.5 -66.5t-87.5 -9.5q-118 41 -201 41q-68 0 -103.5 -25t-35.5 -63q0 -23 10.5 -40.5t24 -28t42 -20t49 -14t62 -13t64.5 -13.5q46 -10 81.5 -22t74.5 -35.5t64 -55t41.5 -82t16.5 -114.5q0 -88 -35.5 -155t-97 -106t-136 -58t-159.5 -19q-173 0 -297 43 q-43 14 -61.5 58t-5.5 89zM334 -256q0 54 37.5 92.5t89.5 38.5q59 0 95 -45t36 -115q0 -59 -17 -111t-42.5 -85.5t-55 -58t-53.5 -35.5t-39 -11q-45 0 -45 41q0 19 14.5 35.5t32.5 28.5t36 37t23 59q-47 5 -79.5 41.5t-32.5 87.5z" />
<glyph unicode="&#x21a;" horiz-adv-x="1232" d="M27 1356q0 57 39.5 97t95.5 40h909q56 0 95.5 -40t39.5 -97t-39.5 -97t-95.5 -40h-313v-1096q0 -58 -41.5 -99.5t-100.5 -41.5q-58 0 -99.5 41t-41.5 100v1096h-313q-56 0 -95.5 40t-39.5 97zM487 -256q0 54 37.5 92.5t89.5 38.5q59 0 95 -45t36 -115q0 -59 -17 -111 t-42.5 -85.5t-54.5 -58t-53 -35.5t-39 -11q-45 0 -45 41q0 19 14.5 35.5t32.5 28.5t36 37t23 59q-48 5 -80.5 41.5t-32.5 87.5z" />
<glyph unicode="&#x21b;" horiz-adv-x="780" d="M18 950q0 47 33.5 81t79.5 34h33v139q0 57 41 98t98 41t97 -41t40 -98v-139h158q47 0 81 -34t34 -81q0 -46 -34 -79t-81 -33h-158l2 -357q0 -131 33.5 -184t128.5 -53h39q50 0 85.5 -35t35.5 -86t-35.5 -87t-85.5 -36h-78q-401 0 -401 475v363h-33q-46 0 -79.5 33 t-33.5 79zM307 -256q0 54 37.5 92.5t89.5 38.5q59 0 95 -45t36 -115q0 -59 -17 -111t-42.5 -85.5t-55 -58t-53.5 -35.5t-39 -11q-45 0 -45 41q0 19 14.5 35.5t33 28.5t36.5 37t23 59q-48 5 -80.5 41.5t-32.5 87.5z" />
<glyph unicode="&#x259;" horiz-adv-x="1054" d="M90 432v105q0 42 27.5 70t66.5 28h490v20q0 199 -174 199q-83 0 -164 -29q-69 -26 -100 -26q-43 0 -73 30t-30 74q0 76 111 123q110 49 274 49q430 0 430 -450v-191q0 -73 -16 -138t-50.5 -122t-84 -98.5t-122 -65.5t-159.5 -24q-112 0 -196 35t-133.5 97.5t-73 141 t-23.5 172.5zM354 383q0 -182 158 -182q162 0 162 182v47h-320v-47z" />
<glyph unicode="&#x2c6;" horiz-adv-x="1085" d="M205 1337q0 43 41 78l219 187q37 30 78 30q38 -2 78 -30l219 -193q41 -33 41 -78q0 -33 -25 -65q-31 -39 -74 -39q-33 0 -67 24l-172 131l-172 -131q-33 -20 -66 -20q-47 0 -76 39q-24 34 -24 67z" />
<glyph unicode="&#x2c7;" horiz-adv-x="1085" d="M205 1522q0 34 24 65q30 41 76 41q30 0 66 -22l172 -131l172 133q34 24 67 24q43 0 74 -39q25 -36 25 -67q0 -43 -41 -78l-219 -191q-40 -28 -78 -30q-43 0 -78 28l-219 189q-41 33 -41 78z" />
<glyph unicode="&#x2d8;" horiz-adv-x="1085" d="M211.5 1508q8.5 33 38.5 57q31 26 75 20.5t70 -47.5q62 -108 146 -108q85 0 149 108q26 41 68 48t73 -17q33 -22 43 -58t-14 -79q-126 -205 -319 -205t-316 205q-22 43 -13.5 76z" />
<glyph unicode="&#x2d9;" horiz-adv-x="1085" d="M387 1368q0 66 45.5 112t110.5 46q66 0 111.5 -46t45.5 -112q0 -65 -45.5 -110.5t-111.5 -45.5q-65 0 -110.5 46t-45.5 110z" />
<glyph unicode="&#x2da;" horiz-adv-x="1085" d="M299 1425q0 101 71.5 172.5t172.5 71.5t172 -71.5t71 -172.5t-71 -172t-172 -71t-172.5 71t-71.5 172zM424 1425q0 -49 34.5 -83.5t84.5 -34.5t84.5 34.5t34.5 83.5t-35 84t-84 35t-84 -35t-35 -84z" />
<glyph unicode="&#x2db;" horiz-adv-x="1085" d="M322 -221q0 61 38.5 122t112.5 111h189q-127 -84 -127 -164q0 -77 120 -77q48 0 73.5 -26.5t25.5 -66.5q0 -48 -37.5 -72t-98.5 -24q-60 0 -110.5 10t-93.5 32t-67.5 61.5t-24.5 93.5z" />
<glyph unicode="&#x2dc;" horiz-adv-x="1085" d="M180 1401q-1 86 67.5 137t153.5 53q50 1 97.5 -21t88.5 -44t77 -21q32 0 52.5 16t41 32.5t51.5 17.5q38 1 67 -33.5t29 -81.5q1 -87 -67 -136.5t-154 -51.5q-50 -1 -97 20t-88 42t-77 20q-25 0 -45 -10.5t-30.5 -22.5t-29 -22.5t-41.5 -10.5q-39 0 -67.5 34t-28.5 83z " />
<glyph unicode="&#x2dd;" horiz-adv-x="1085" d="M160 1309q0 27 10 47l113 231q12 27 39.5 45.5t58.5 18.5t55 -15q62 -35 62 -92q0 -26 -17 -53l-135 -219q-36 -58 -88 -58q-15 0 -41 11q-57 26 -57 84zM588 1309q0 20 10 47l115 231q13 28 39.5 46t58.5 18q28 0 55 -15q60 -34 60 -92q0 -30 -17 -53l-133 -219 q-39 -58 -88 -58q-17 0 -43 11q-57 26 -57 84z" />
<glyph unicode="&#x384;" horiz-adv-x="1085" d="M401 1155q0 8 9 53l51 213q23 99 119 99q42 0 72 -28t30 -75q0 -37 -16 -80l-64 -184q-16 -47 -42 -69.5t-73 -22.5q-38 0 -62 26.5t-24 67.5z" />
<glyph unicode="&#x385;" horiz-adv-x="1085" d="M49 1401q0 60 38.5 99.5t94.5 39.5q61 0 100.5 -39.5t39.5 -99.5q0 -57 -39.5 -95t-100.5 -38q-56 0 -94.5 38t-38.5 95zM397 1231q0 23 6 53l54 213q22 98 116 98q44 0 74.5 -27.5t30.5 -74.5q0 -26 -16 -80l-64 -184q-16 -47 -42 -69.5t-73 -22.5q-38 0 -62 26.5 t-24 67.5zM764 1401q0 60 40 99.5t99 39.5t98 -39.5t39 -99.5q0 -57 -39 -95t-98 -38t-99 38t-40 95z" />
<glyph unicode="&#x386;" horiz-adv-x="1239" d="M2 1155q0 13 8 53l51 213q23 99 119 99q42 0 72.5 -28t30.5 -75q0 -34 -17 -80l-63 -184q-16 -47 -42 -69.5t-73 -22.5q-38 0 -62 26.5t-24 67.5zM84 154q139 606 383 1212q56 147 180 147q125 0 184 -147q240 -594 381 -1212q16 -75 -28.5 -123.5t-110.5 -48.5 q-48 0 -86 27.5t-49 82.5q-49 201 -53 217h-479q-44 -173 -54 -217q-13 -54 -50 -82t-83 -28q-64 0 -107.5 48.5t-27.5 123.5zM473 561h344q-71 233 -172 508q-101 -267 -172 -508z" />
<glyph unicode="&#x388;" horiz-adv-x="1357" d="M-27 1155q0 8 9 53l51 213q23 99 119 99q42 0 72 -28t30 -75q0 -37 -16 -80l-64 -184q-16 -47 -42 -69.5t-73 -22.5q-38 0 -62 26.5t-24 67.5zM358 135v1223q0 56 39.5 95.5t94.5 39.5h634q56 0 96 -40t40 -95t-40 -94t-96 -39h-487v-348h442q53 0 91 -39t38 -93 t-38 -91.5t-91 -37.5h-442v-348h514q55 0 94 -39t39 -94q0 -57 -38.5 -96t-94.5 -39h-661q-56 0 -95 39t-39 96z" />
<glyph unicode="&#x389;" horiz-adv-x="1609" d="M-27 1155q0 8 9 53l51 213q23 99 119 99q42 0 72 -28t30 -75q0 -37 -16 -80l-64 -184q-16 -47 -42 -69.5t-73 -22.5q-38 0 -62 26.5t-24 67.5zM358 123v1247q0 58 41.5 99.5t100.5 41.5q57 0 98 -42t41 -99v-512h530v512q0 58 41.5 99.5t100.5 41.5q57 0 98 -42t41 -99 v-1247q0 -58 -41 -99.5t-98 -41.5q-60 0 -101 41t-41 100v485h-530v-485q0 -58 -41 -99.5t-98 -41.5q-60 0 -101 41t-41 100z" />
<glyph unicode="&#x38a;" horiz-adv-x="798" d="M-27 1155q0 8 9 53l51 213q23 99 119 99q42 0 72 -28t30 -75q0 -37 -16 -80l-64 -184q-16 -47 -42 -69.5t-73 -22.5q-38 0 -62 26.5t-24 67.5zM358 123v1247q0 58 41.5 99.5t100.5 41.5q57 0 98 -42t41 -99v-1247q0 -58 -41 -99.5t-98 -41.5q-60 0 -101 41t-41 100z" />
<glyph unicode="&#x38c;" horiz-adv-x="1523" d="M-4 1155q0 13 8 53l51 213q23 99 119 99q42 0 72 -28t30 -75q0 -37 -16 -80l-63 -184q-16 -47 -42 -69.5t-73 -22.5q-38 0 -62 26.5t-24 67.5zM328 535v423q0 87 16.5 165t56 150t99 124t151.5 83t207 31t207.5 -31t152 -83t99.5 -124t57 -150t17 -165v-423 q0 -111 -28.5 -206.5t-88.5 -175.5t-166.5 -126.5t-249.5 -46.5q-115 0 -207 31t-151.5 83t-99 124.5t-56 150.5t-16.5 166zM608 535q0 -144 55.5 -221.5t194.5 -77.5t194.5 77.5t55.5 221.5v423q0 69 -11.5 119.5t-38.5 92t-77 62.5t-123 21q-72 0 -122 -21t-77.5 -62 t-39 -92t-11.5 -120v-423z" />
<glyph unicode="&#x38e;" horiz-adv-x="1423" d="M-10 1155q0 13 8 53l51 213q23 99 119 99q42 0 72 -28t30 -75q0 -37 -16 -80l-64 -184q-16 -47 -41.5 -69.5t-72.5 -22.5q-38 0 -62 26.5t-24 67.5zM352 1374q0 59 45 98t103 39q37 0 68.5 -21.5t49.5 -62.5q107 -246 273 -563q160 309 272 566q38 81 119 81q55 0 98 -38 t43 -95q0 -29 -12 -59q-166 -369 -383 -770v-426q0 -59 -41 -100t-100 -41q-60 0 -101 41t-41 100v426q-230 427 -378 766q-15 30 -15 59z" />
<glyph unicode="&#x38f;" horiz-adv-x="1579" d="M4 1155q0 13 8 53l51 213q23 99 119 99q42 0 72.5 -28t30.5 -75q0 -34 -17 -80l-63 -184q-16 -47 -42 -69.5t-73 -22.5q-38 0 -62 26.5t-24 67.5zM240 123q0 52 34.5 87.5t85.5 35.5h148q-92 79 -136 196t-44 254v262q0 87 19.5 166t62.5 150t107 123.5t158 83t210 30.5 t211 -30.5t158.5 -83t107 -123.5t63 -150t19.5 -166v-262q0 -136 -44.5 -253.5t-135.5 -196.5h145q51 0 87 -35.5t36 -87.5q0 -51 -36 -87t-87 -36h-346q-54 0 -90.5 30t-36.5 85q0 24 9 44.5t19 32t27 27.5q36 28 62 54t53.5 65.5t42 91.5t14.5 115v413q0 138 -67.5 216.5 t-210.5 78.5q-142 0 -208.5 -78.5t-66.5 -216.5v-413q0 -63 14 -115t41 -91.5t52 -65.5t61 -54q18 -16 27.5 -27t19 -32t9.5 -45q0 -55 -35.5 -85t-89.5 -30h-349q-51 0 -85.5 36t-34.5 87z" />
<glyph unicode="&#x390;" horiz-adv-x="557" d="M-215 1401q0 60 38.5 99.5t94.5 39.5q61 0 100 -39.5t39 -99.5q0 -57 -39 -95t-100 -38q-56 0 -94.5 38t-38.5 95zM133 1231q0 23 6 53l54 213q22 98 116 98q44 0 74.5 -27.5t30.5 -74.5q0 -23 -17 -80l-63 -184q-16 -47 -42 -69.5t-73 -22.5q-38 0 -62 26.5t-24 67.5z M135 117v815q0 56 43 96.5t101 40.5t99.5 -40.5t41.5 -96.5v-815q0 -56 -41.5 -96.5t-99.5 -40.5t-101 40.5t-43 96.5zM500 1401q0 60 40 99.5t99 39.5t98 -39.5t39 -99.5q0 -57 -39 -95t-98 -38t-99 38t-40 95z" />
<glyph unicode="&#x391;" horiz-adv-x="1181" d="M27 154q139 606 383 1212q56 147 180 147q125 0 184 -147q240 -594 381 -1212q16 -75 -28.5 -123.5t-110.5 -48.5q-48 0 -86 27.5t-49 82.5q-31 130 -54 217h-479q-38 -149 -53 -217q-13 -54 -50 -82t-83 -28q-64 0 -107.5 48.5t-27.5 123.5zM416 561h344 q-71 233 -172 508q-101 -267 -172 -508z" />
<glyph unicode="&#x392;" horiz-adv-x="1310" d="M160 141v1211q0 58 41 99.5t100 41.5h387q120 0 210.5 -31.5t142 -85.5t76 -118t24.5 -138v-57q0 -101 -46.5 -178t-136.5 -117q115 -37 176.5 -127t61.5 -199v-57q0 -83 -25 -150.5t-77.5 -121.5t-143 -83.5t-213.5 -29.5h-436q-60 0 -100.5 41t-40.5 100zM440 260h293 q94 0 138 44.5t44 117.5v41q0 72 -52.5 116t-145.5 44h-277v-363zM440 870h193q227 0 227 158v51q0 69 -46 110.5t-132 41.5h-242v-361z" />
<glyph unicode="&#x393;" horiz-adv-x="1073" d="M160 123v1235q0 56 39 95.5t94 39.5h620q55 0 94.5 -39.5t39.5 -95.5q0 -55 -39 -94t-95 -39h-473v-1102q0 -58 -41 -99.5t-98 -41.5q-60 0 -100.5 41t-40.5 100z" />
<glyph unicode="&#x395;" horiz-adv-x="1157" d="M160 135v1223q0 56 39 95.5t94 39.5h635q56 0 95.5 -39.5t39.5 -95.5q0 -55 -39.5 -94t-95.5 -39h-488v-348h443q53 0 91 -39t38 -93t-38 -91.5t-91 -37.5h-443v-348h514q56 0 94.5 -39t38.5 -94q0 -57 -38.5 -96t-94.5 -39h-661q-56 0 -94.5 39t-38.5 96z" />
<glyph unicode="&#x396;" horiz-adv-x="1136" d="M53 135q0 64 43 131l611 959h-519q-54 0 -92.5 39t-38.5 94q0 56 38.5 95.5t92.5 39.5h764q60 0 94.5 -38t34.5 -97q0 -48 -43 -123l-614 -967h530q54 0 92.5 -39t38.5 -94q0 -57 -38.5 -96t-92.5 -39h-768q-58 0 -95.5 38.5t-37.5 96.5z" />
<glyph unicode="&#x397;" horiz-adv-x="1409" d="M160 123v1247q0 58 41 99.5t100 41.5q57 0 98 -42t41 -99v-512h531v512q0 58 41 99.5t100 41.5q57 0 98 -42t41 -99v-1247q0 -58 -41 -99.5t-98 -41.5q-60 0 -100.5 41t-40.5 100v485h-531v-485q0 -58 -41 -99.5t-98 -41.5q-60 0 -100.5 41t-40.5 100z" />
<glyph unicode="&#x398;" horiz-adv-x="1325" d="M131 535v423q0 87 16.5 165t56.5 150t99.5 124t151.5 83t207 31t207 -31t152 -83t99.5 -124t56.5 -150t17 -165v-423q0 -88 -17 -166t-56.5 -150.5t-99.5 -124.5t-152 -83t-207 -31t-207 31t-151.5 83t-99.5 124.5t-56.5 150.5t-16.5 166zM412 535q0 -144 55.5 -221.5 t194.5 -77.5q72 0 121.5 21.5t77 63t39 93t11.5 121.5v423q0 69 -11.5 119.5t-38.5 92t-76.5 62.5t-122.5 21q-72 0 -122 -21t-77.5 -62t-39 -92t-11.5 -120v-423zM463 743q0 40 27 68.5t65 28.5h213q38 0 66 -28.5t28 -68.5q0 -37 -28 -64.5t-66 -27.5h-213q-38 0 -65 27.5 t-27 64.5z" />
<glyph unicode="&#x399;" horiz-adv-x="598" d="M160 123v1247q0 58 41 99.5t100 41.5q57 0 98 -42t41 -99v-1247q0 -58 -41 -99.5t-98 -41.5q-60 0 -100.5 41t-40.5 100z" />
<glyph unicode="&#x39a;" horiz-adv-x="1222" d="M160 123v1247q0 58 41 99.5t100 41.5q57 0 98 -42t41 -99v-491l461 581q42 51 107 51q47 0 90 -32q42 -37 47 -95.5t-31 -99.5l-350 -407q218 -313 412 -691q39 -80 -10 -142t-124 -62q-81 0 -120 79q-181 347 -351 596l-131 -151v-383q0 -58 -41 -99.5t-98 -41.5 q-60 0 -100.5 41t-40.5 100z" />
<glyph unicode="&#x39b;" horiz-adv-x="1181" d="M27 154q139 606 383 1212q56 147 180 147q125 0 184 -147q240 -594 381 -1212q16 -75 -28.5 -123.5t-110.5 -48.5q-48 0 -85 27.5t-50 82.5q-127 526 -293 977q-180 -481 -293 -977q-11 -54 -49 -82t-84 -28q-64 0 -107.5 48.5t-27.5 123.5z" />
<glyph unicode="&#x39c;" horiz-adv-x="1644" d="M160 111v1269q0 57 38 94t95 37q52 0 82.5 -19.5t52.5 -64.5l395 -804l400 813q37 75 131 75q55 0 93 -38.5t38 -92.5v-1267q0 -55 -37.5 -93t-91.5 -38t-91.5 38t-37.5 93v778l-279 -580q-20 -40 -54 -62t-73 -22q-40 0 -74.5 21t-52.5 61l-278 582v-780 q0 -54 -36.5 -91.5t-90.5 -37.5t-91.5 37.5t-37.5 91.5z" />
<glyph unicode="&#x39d;" horiz-adv-x="1372" d="M160 111v1271q0 54 37 91.5t100 37.5q92 0 135 -73l522 -871v815q0 53 38.5 91t92.5 38t91.5 -38t37.5 -91v-1271q0 -55 -38 -92t-99 -37q-94 0 -135 67l-526 875v-813q0 -54 -36.5 -91.5t-90.5 -37.5t-91.5 37.5t-37.5 91.5z" />
<glyph unicode="&#x39e;" horiz-adv-x="1124" d="M70 133q0 57 38.5 96t94.5 39h721q54 0 92.5 -39t38.5 -96q0 -55 -38.5 -94t-92.5 -39h-721q-55 0 -94 39t-39 94zM70 1356q0 57 39 97t94 40h721q54 0 92.5 -40t38.5 -97q0 -54 -38.5 -92.5t-92.5 -38.5h-721q-55 0 -94 38.5t-39 92.5zM117 745q0 57 38.5 96.5 t94.5 39.5h624q56 0 95 -39.5t39 -96.5q0 -56 -39.5 -95.5t-94.5 -39.5h-624q-55 0 -94 39.5t-39 95.5z" />
<glyph unicode="&#x39f;" horiz-adv-x="1325" d="M131 535v423q0 87 16.5 165t56.5 150t99.5 124t151.5 83t207 31t207 -31t152 -83t99.5 -124t56.5 -150t17 -165v-423q0 -88 -17 -166t-56.5 -150.5t-99.5 -124.5t-152 -83t-207 -31t-207 31t-151.5 83t-99.5 124.5t-56.5 150.5t-16.5 166zM412 535q0 -144 55.5 -221.5 t194.5 -77.5q72 0 121.5 21.5t77 63t39 93t11.5 121.5v423q0 69 -11.5 119.5t-38.5 92t-76.5 62.5t-122.5 21q-72 0 -122 -21t-77.5 -62t-39 -92t-11.5 -120v-423z" />
<glyph unicode="&#x3a0;" horiz-adv-x="1366" d="M160 123v1235q0 56 39 95.5t94 39.5h780q55 0 94 -39.5t39 -95.5v-1235q0 -59 -41 -100t-100 -41q-57 0 -98 41.5t-41 99.5v1102h-486v-1102q0 -58 -41 -99.5t-98 -41.5q-60 0 -100.5 41t-40.5 100z" />
<glyph unicode="&#x3a1;" horiz-adv-x="1228" d="M160 123v1229q0 58 41 99.5t100 41.5h385q103 0 184.5 -24.5t133.5 -65t86.5 -96.5t48.5 -114t14 -122v-104q0 -188 -121 -301t-334 -113h-258v-430q0 -58 -41 -99.5t-98 -41.5q-60 0 -100.5 41t-40.5 100zM440 811h248q97 0 140.5 45.5t43.5 114.5v94q0 162 -210 162 h-222v-416z" />
<glyph unicode="&#x3a3;" horiz-adv-x="1171" d="M53 1362q2 56 41.5 93.5t98.5 37.5h753q55 0 94 -38t39 -93q0 -56 -39 -93.5t-94 -37.5h-469l367 -389q43 -43 43 -97q0 -53 -43 -96l-357 -381h484q54 0 92.5 -39t38.5 -94q0 -56 -38.5 -95.5t-92.5 -39.5h-774q-59 0 -98.5 37.5t-41.5 93.5q-2 65 54 125l458 489 l-463 492q-56 56 -53 125z" />
<glyph unicode="&#x3a4;" horiz-adv-x="1230" d="M27 1356q0 57 39.5 97t95.5 40h905q57 0 97 -40t40 -97t-40 -97t-97 -40h-313v-1096q0 -59 -41 -100t-99 -41t-99.5 41t-41.5 100v1096h-311q-56 0 -95.5 40t-39.5 97z" />
<glyph unicode="&#x3a5;" horiz-adv-x="1071" d="M0 1374q0 59 44.5 98t102.5 39q37 0 69 -21.5t50 -62.5q107 -246 273 -563q160 309 272 566q38 81 119 81q55 0 98 -38t43 -95q0 -29 -12 -59q-166 -369 -383 -770v-426q0 -59 -41 -100t-100 -41q-60 0 -101 41t-41 100v426q-235 437 -379 766q-14 28 -14 59z" />
<glyph unicode="&#x3a6;" horiz-adv-x="1638" d="M106 711v69q0 93 35 167t88.5 120t133.5 80.5t152 51.5t163 30v141q0 57 41.5 99t99.5 42t100 -42t42 -99v-141q63 -9 116 -20t113.5 -29.5t107.5 -41.5t92.5 -57.5t75.5 -76.5t48 -99t18 -125v-69q0 -68 -18 -125t-48 -99t-75.5 -76.5t-92.5 -57.5t-107.5 -41.5 t-113.5 -29.5t-116 -20v-139q0 -58 -41.5 -99.5t-100.5 -41.5t-100 41t-41 100v139q-91 13 -163 30t-152 51.5t-133.5 80.5t-88.5 120t-35 167zM385 717q0 -49 21.5 -85.5t64 -60.5t90.5 -39t117 -28v483q-68 -12 -116.5 -26.5t-91 -39t-64 -61t-21.5 -86.5v-57zM961 504 q54 10 94.5 21t79.5 28.5t63.5 39t39.5 53.5t15 71v57q0 50 -21.5 86.5t-63.5 61t-90.5 39t-116.5 26.5v-483z" />
<glyph unicode="&#x3a7;" horiz-adv-x="1138" d="M6 117q0 35 21 73q122 212 379 588q-215 314 -328 531q-19 36 -19 67q0 56 44 95.5t102 39.5q71 0 110 -73q103 -192 252 -418q148 221 252 416q43 75 115 75q57 0 101 -40t44 -97q0 -32 -18 -69q-137 -252 -328 -531q266 -397 377 -586q20 -39 20 -73q0 -55 -43.5 -94 t-99.5 -39q-72 0 -110 69q-136 235 -306 484q-184 -270 -307 -482q-40 -71 -112 -71q-57 0 -101.5 39t-44.5 96z" />
<glyph unicode="&#x3a8;" horiz-adv-x="1658" d="M119 1100v270q0 57 41.5 99t99.5 42t98.5 -41.5t40.5 -99.5v-252q0 -49 2 -83t8.5 -76.5t18.5 -72t33 -61t51.5 -53t74.5 -39t101 -26.5v663q0 57 41.5 99t99.5 42t100 -42t42 -99v-663q57 9 101 26.5t74.5 39t51.5 53t33 61t18.5 72t8.5 76.5t2 83v252q0 57 41 99t98 42 q58 0 99.5 -42t41.5 -99v-270q0 -105 -14 -190t-52.5 -168t-101 -142.5t-164 -101.5t-237.5 -56v-319q0 -58 -41.5 -99.5t-100.5 -41.5t-100 41t-41 100v319q-136 14 -237.5 56t-164 101.5t-101 142.5t-52.5 168t-14 190z" />
<glyph unicode="&#x3aa;" horiz-adv-x="598" d="M-33 1798q0 59 39.5 99t97.5 40q59 0 99.5 -40.5t40.5 -98.5t-40.5 -97.5t-99.5 -39.5q-58 0 -97.5 39.5t-39.5 97.5zM160 123v1247q0 58 41 99.5t100 41.5q57 0 98 -42t41 -99v-1247q0 -58 -41 -99.5t-98 -41.5q-60 0 -100.5 41t-40.5 100zM356 1798q0 59 40 99t98 40 t98.5 -40.5t40.5 -98.5t-40 -97.5t-99 -39.5t-98.5 39.5t-39.5 97.5z" />
<glyph unicode="&#x3ab;" horiz-adv-x="1071" d="M0 1374q0 59 44.5 98t102.5 39q37 0 69 -21.5t50 -62.5q107 -246 273 -563q160 309 272 566q38 81 119 81q55 0 98 -38t43 -95q0 -29 -12 -59q-166 -369 -383 -770v-426q0 -59 -41 -100t-100 -41q-60 0 -101 41t-41 100v426q-235 437 -379 766q-14 28 -14 59zM205 1798 q0 59 39.5 99t97.5 40t98.5 -40.5t40.5 -98.5t-40 -97.5t-99 -39.5q-58 0 -97.5 39.5t-39.5 97.5zM594 1798q0 59 39.5 99t97.5 40q59 0 99 -40.5t40 -98.5t-40 -97.5t-99 -39.5t-98 39.5t-39 97.5z" />
<glyph unicode="&#x3ac;" horiz-adv-x="1273" d="M104 401v234q0 91 25 168.5t74 136.5t127.5 93t179.5 34q59 0 106.5 -13.5t82 -40t58 -55t46.5 -67.5q1 4 7.5 24.5t8.5 27.5t8 21.5t12.5 25.5t14.5 22q44 55 104 55q58 0 101.5 -41t42.5 -98q0 -43 -29 -82q-37 -49 -64 -118t-57 -175q41 -217 61 -270q22 -58 50 -58 q11 0 49 15q40 16 47 16q39 0 59.5 -28t20.5 -62q0 -33 -19.5 -70t-56.5 -65q-67 -51 -162 -51q-90 0 -143 71q-35 41 -57 144q-98 -215 -316 -215q-99 0 -173.5 31.5t-119.5 89t-66.5 132.5t-21.5 168zM381 414q0 -189 131 -189q33 0 61.5 26.5t51.5 77t39.5 102 t35.5 124.5q-15 59 -31 103.5t-36.5 83t-47.5 59t-59 20.5q-72 0 -108.5 -50.5t-36.5 -137.5v-219zM430 1231q0 13 8 53l51 213q22 98 119 98q42 0 72.5 -27.5t30.5 -74.5q0 -34 -17 -80l-63 -184q-16 -47 -42 -69.5t-73 -22.5q-38 0 -62 26.5t-24 67.5z" />
<glyph unicode="&#x3ad;" horiz-adv-x="929" d="M104 301v27q0 124 113 198q-102 70 -102 195v29q0 155 91 237t263 82q149 0 285 -61q77 -35 77 -109q0 -29 -16 -55q-22 -38 -60.5 -53t-92.5 4q-103 41 -193 41q-113 0 -113 -95v-28q0 -30 23 -52t63 -22h164q47 0 81 -34t34 -81t-33.5 -79.5t-81.5 -32.5h-162 q-45 0 -68.5 -22t-23.5 -54v-27q0 -42 27.5 -69t89.5 -27q101 0 203 41q60 20 103 0.5t63 -64.5q8 -28 8 -47q-4 -69 -80 -104q-136 -59 -297 -59q-178 0 -271.5 81.5t-93.5 239.5zM371 1231q0 13 8 53l51 213q22 98 119 98q42 0 72 -27.5t30 -74.5q0 -37 -16 -80l-64 -184 q-16 -47 -41.5 -69.5t-72.5 -22.5q-38 0 -62 26.5t-24 67.5z" />
<glyph unicode="&#x3ae;" horiz-adv-x="1165" d="M66 942q0 58 37 86.5t100 28.5q72 0 129 -45q27 -21 47 -54q114 111 307 111q183 0 262.5 -101t79.5 -286l2 -928q0 -57 -41 -97t-100 -40q-57 0 -96 40t-39 97v895q0 74 -30.5 117t-113.5 43q-111 0 -172 -84v-608q0 -57 -40 -97t-97 -40t-97 40t-40 97v631 q0 32 -10.5 55.5t-18 30.5t-31.5 28q-38 30 -38 80zM553 1231q0 13 8 53l51 213q22 98 119 98q42 0 72.5 -27.5t30.5 -74.5q0 -34 -17 -80l-63 -184q-16 -47 -42 -69.5t-73 -22.5q-38 0 -62 26.5t-24 67.5z" />
<glyph unicode="&#x3af;" horiz-adv-x="557" d="M135 117v815q0 56 43 96.5t101 40.5t99.5 -40.5t41.5 -96.5v-815q0 -56 -41.5 -96.5t-99.5 -40.5t-101 40.5t-43 96.5zM145 1231q0 8 9 53l51 213q22 98 119 98q42 0 72 -27.5t30 -74.5q0 -37 -16 -80l-64 -184q-16 -47 -42 -69.5t-73 -22.5q-38 0 -62 26.5t-24 67.5z " />
<glyph unicode="&#x3b0;" horiz-adv-x="1198" d="M104 954q0 50 34 83.5t83 33.5h258q30 0 54.5 -24t29 -63t-27.5 -89q-54 -67 -54 -258v-205q0 -94 43 -148.5t129 -54.5q85 0 130.5 56.5t45.5 150.5v74q0 62 -9 119t-27.5 110t-29 77.5t-32.5 70.5q-32 69 10.5 125t106.5 59q91 3 129 -78q117 -240 117 -487v-72 q0 -93 -26.5 -173t-79 -143.5t-138.5 -99.5t-197 -36q-90 0 -163.5 24t-124.5 65.5t-85.5 99t-50.5 123.5t-16 140v146q0 150 74 260h-66q-49 0 -83 33.5t-34 80.5zM113 1401q0 60 38.5 99.5t94.5 39.5q61 0 100 -39.5t39 -99.5q0 -57 -39 -95t-100 -38q-56 0 -94.5 38 t-38.5 95zM461 1231q0 23 6 53l53 213q22 98 117 98q44 0 74 -27.5t30 -74.5q0 -26 -16 -80l-63 -184q-16 -47 -42 -69.5t-73 -22.5q-38 0 -62 26.5t-24 67.5zM827 1401q0 60 40.5 99.5t99.5 39.5t98 -39.5t39 -99.5q0 -57 -39 -95t-98 -38t-99.5 38t-40.5 95z" />
<glyph unicode="&#x3b1;" horiz-adv-x="1273" d="M104 401v234q0 91 25 168.5t74 136.5t127.5 93t179.5 34q59 0 106.5 -13.5t82 -40t58 -55t46.5 -67.5q1 4 7.5 24.5t8.5 27.5t8 21.5t12.5 25.5t14.5 22q44 55 104 55q58 0 101.5 -41t42.5 -98q0 -43 -29 -82q-37 -49 -64 -118t-57 -175q41 -217 61 -270q22 -58 50 -58 q11 0 49 15q40 16 47 16q39 0 59.5 -28t20.5 -62q0 -33 -19.5 -70t-56.5 -65q-67 -51 -162 -51q-90 0 -143 71q-35 41 -57 144q-98 -215 -316 -215q-99 0 -173.5 31.5t-119.5 89t-66.5 132.5t-21.5 168zM381 414q0 -189 131 -189q33 0 61.5 26.5t51.5 77t39.5 102 t35.5 124.5q-15 59 -31 103.5t-36.5 83t-47.5 59t-59 20.5q-72 0 -108.5 -50.5t-36.5 -137.5v-219z" />
<glyph unicode="&#x3b2;" horiz-adv-x="1239" d="M135 -244v1209q0 255 130.5 388.5t352.5 133.5q192 0 308 -107t116 -276q0 -243 -221 -318q314 -78 314 -387q0 -84 -28 -153.5t-76 -117t-113 -80.5t-138 -48.5t-151 -15.5q-111 0 -209 20v-248q0 -57 -41.5 -98t-99.5 -41q-59 0 -101.5 41t-42.5 98zM420 233 q86 -24 160 -24q128 0 202 52.5t74 166.5q0 64 -23 112t-61.5 74t-81.5 38t-90 12h-33q-47 0 -76.5 29.5t-29.5 74.5t29.5 74.5t76.5 29.5h35q67 0 119.5 46.5t52.5 146.5q0 83 -50.5 126.5t-115.5 43.5q-102 0 -145 -69t-43 -201v-732z" />
<glyph unicode="&#x3b3;" horiz-adv-x="1034" d="M37 911q-23 65 20.5 111.5t108.5 46.5q41 0 74 -22t47 -66q98 -306 223 -637q89 230 231 637q16 44 50 66t73 22q68 0 112 -48t19 -118q-126 -371 -346 -866v-283q0 -57 -41 -97t-98 -40q-56 0 -96.5 40t-40.5 97v264q-226 550 -336 893z" />
<glyph unicode="&#x3b4;" horiz-adv-x="1202" d="M106 496q0 137 62.5 246.5t168.5 169t234 59.5q55 0 84 -19q-74 103 -148 172t-177 127q-74 39 -74 117q0 56 43.5 87.5t106.5 31.5h501q46 0 79.5 -32.5t33.5 -76.5t-33.5 -75t-79.5 -31h-186q191 -170 282 -351.5t91 -424.5q0 -127 -39.5 -227t-108 -162t-157 -94.5 t-191.5 -32.5q-219 0 -355.5 142.5t-136.5 373.5zM377 483q0 -120 56 -197t165 -77q104 0 164.5 77.5t60.5 237.5q0 90 -14 164q-82 57 -193 57q-94 0 -166.5 -74t-72.5 -188z" />
<glyph unicode="&#x3b5;" horiz-adv-x="929" d="M104 301v27q0 124 113 198q-102 70 -102 195v29q0 155 91 237t263 82q149 0 285 -61q77 -35 77 -109q0 -29 -16 -55q-22 -38 -60.5 -53t-92.5 4q-103 41 -193 41q-113 0 -113 -95v-28q0 -30 23 -52t63 -22h164q47 0 81 -34t34 -81t-33.5 -79.5t-81.5 -32.5h-162 q-45 0 -68.5 -22t-23.5 -54v-27q0 -42 27.5 -69t89.5 -27q101 0 203 41q60 20 103 0.5t63 -64.5q8 -28 8 -47q-4 -69 -80 -104q-136 -59 -297 -59q-178 0 -271.5 81.5t-93.5 239.5z" />
<glyph unicode="&#x3b6;" horiz-adv-x="1052" d="M106 469q0 72 19.5 146t48.5 135.5t75 127t86.5 113t97.5 102.5t93 86.5t86 73.5h-342q-49 0 -83.5 34.5t-34.5 82.5t34.5 82.5t83.5 34.5h578q47 0 83 -35t36 -82q0 -13 -2.5 -24.5t-8 -21.5t-9.5 -17.5t-13 -16t-13 -12.5t-13 -12t-11 -9q-514 -446 -514 -751 q0 -63 20.5 -108t63.5 -74t95.5 -46.5t129.5 -29.5q81 -14 133.5 -31.5t94.5 -48t61.5 -78t19.5 -115.5q0 -81 -35.5 -166.5t-91.5 -146.5q-43 -43 -99.5 -44t-90.5 32q-38 30 -42 75t38 93q65 69 65 129q0 46 -52 68.5t-165 39.5q-41 7 -75.5 15.5t-79.5 25t-80.5 37 t-71.5 52.5t-60.5 71t-39.5 94t-15 119z" />
<glyph unicode="&#x3b7;" horiz-adv-x="1165" d="M66 942q0 58 37 86.5t100 28.5q72 0 129 -45q27 -21 47 -54q114 111 307 111q183 0 262.5 -101t79.5 -286l2 -928q0 -57 -41 -97t-100 -40q-57 0 -96 40t-39 97v895q0 74 -30.5 117t-113.5 43q-111 0 -172 -84v-608q0 -57 -40 -97t-97 -40t-97 40t-40 97v631 q0 32 -10.5 55.5t-18 30.5t-31.5 28q-38 30 -38 80z" />
<glyph unicode="&#x3b8;" horiz-adv-x="1114" d="M104 416v631q0 91 27.5 168.5t81 138t142 95t202.5 34.5q115 0 203.5 -34.5t142 -95t80.5 -138t27 -168.5v-631q0 -92 -27 -169.5t-81 -138t-142 -94.5t-203 -34q-114 0 -202 34t-142 94.5t-81.5 138t-27.5 169.5zM381 416q0 -189 176 -189t176 189v202h-352v-202z M381 842h352v200q0 191 -176 191t-176 -191v-200z" />
<glyph unicode="&#x3b9;" horiz-adv-x="557" d="M135 117v815q0 56 43 96.5t101 40.5t99.5 -40.5t41.5 -96.5v-815q0 -56 -41.5 -96.5t-99.5 -40.5t-101 40.5t-43 96.5z" />
<glyph unicode="&#x3ba;" horiz-adv-x="1079" d="M135 117v813q0 57 40.5 97t96.5 40q57 0 98.5 -40t41.5 -97v-264l198 206q113 110 187 150q71 45 159 45q67 0 116.5 -33.5t49.5 -99.5q0 -52 -34 -87.5t-84 -35.5q-15 0 -29 4t-21 4q-43 0 -172 -123l-55 -53q173 -256 270 -479q13 -29 13 -55q0 -56 -43.5 -92.5 t-100.5 -36.5q-88 0 -123 83q-83 194 -215 396l-116 -111v-231q0 -57 -41.5 -97t-98.5 -40q-56 0 -96.5 40t-40.5 97z" />
<glyph unicode="&#x3bb;" horiz-adv-x="989" d="M37 145q52 164 143.5 410t181.5 461q-21 48 -72 148.5t-69 158.5q-14 54 14.5 96t88.5 51q71 12 131 -57q72 -85 199 -435l18 -48l276 -766q29 -78 -14.5 -131t-116.5 -53q-42 0 -77.5 22.5t-51.5 69.5l-196 587q-124 -338 -199 -587q-13 -44 -47 -68t-76 -24 q-67 0 -111.5 47t-21.5 118z" />
<glyph unicode="&#x3bd;" horiz-adv-x="1036" d="M37 905q-23 69 20 115.5t109 46.5q41 0 74 -21.5t47 -66.5q88 -287 233 -678q75 116 141 242.5t66 179.5q0 43 -12.5 69.5t-48.5 53.5q-52 48 -50 102q0 45 36 87t98 42q41 0 81 -28q158 -122 158 -320q0 -181 -289 -618q-50 -77 -87 -104t-103 -27q-67 0 -111 28 t-77 109q-168 420 -285 788z" />
<glyph unicode="&#x3be;" horiz-adv-x="1046" d="M109 1362q0 48 34.5 81.5t85.5 33.5h592q47 0 82 -34t35 -81q0 -49 -34.5 -83t-82.5 -34h-114q-43 0 -82.5 -11t-74 -33.5t-55 -63.5t-20.5 -95q0 -94 61.5 -143t143.5 -49h123q51 0 85 -33.5t34 -81.5q0 -50 -34 -83.5t-85 -33.5h-230q-27 0 -56.5 -8.5t-60.5 -27 t-51 -54t-20 -82.5q0 -27 6.5 -49.5t21 -40.5t29 -32t40 -25t43 -18.5t49 -15.5t47.5 -11.5t48.5 -9.5t43.5 -8q152 -27 221.5 -83.5t69.5 -185.5q0 -88 -34.5 -170.5t-92.5 -142.5q-29 -31 -65.5 -41.5t-67.5 -2.5t-56 28q-38 31 -42 77.5t38 94.5q64 68 64 129 q0 43 -43.5 64.5t-151.5 39.5q-151 25 -222 55q-220 92 -220 340q0 119 64.5 197t166.5 117q-141 91 -141 268q0 135 100 225h-72q-51 0 -85.5 33.5t-34.5 83.5z" />
<glyph unicode="&#x3bf;" horiz-adv-x="1114" d="M104 416v217q0 92 27.5 169.5t81.5 138t142 94.5t202 34q115 0 203 -34t142 -94.5t81 -138t27 -169.5v-217q0 -92 -27 -169.5t-81 -138t-142 -94.5t-203 -34q-114 0 -202 34t-142 94.5t-81.5 138t-27.5 169.5zM381 416q0 -189 176 -189t176 189v215q0 188 -176 188 t-176 -188v-215z" />
<glyph unicode="&#x3c0;" horiz-adv-x="1243" d="M61 940q0 50 34.5 84.5t84.5 34.5h891q51 0 86 -34.5t35 -84.5q0 -51 -35 -86t-86 -35h-41v-526q0 -15 1.5 -27t6 -22.5t7 -16.5t10.5 -15t10.5 -11.5t13.5 -12t13 -10.5q38 -34 38 -82q0 -57 -37.5 -84.5t-101.5 -27.5q-71 0 -129 43q-108 83 -108 241v551h-254v-551 q0 -155 -111 -241q-55 -43 -129 -43q-63 0 -101 27.5t-38 84.5q0 45 41 82q23 19 31.5 27.5t18 31.5t9.5 56v526h-41q-50 0 -84.5 35t-34.5 86z" />
<glyph unicode="&#x3c1;" horiz-adv-x="1097" d="M113 -246v856q0 231 119.5 345t330.5 114q430 0 430 -442v-162q0 -238 -89.5 -361.5t-297.5 -123.5q-124 0 -219 61v-287q0 -58 -37.5 -97.5t-95.5 -39.5q-59 0 -100 40t-41 97zM387 276q69 -63 160 -63q90 0 130 50t40 149v239q0 187 -160 187q-78 0 -124 -50t-46 -153 v-359z" />
<glyph unicode="&#x3c2;" horiz-adv-x="1036" d="M104 516q0 114 34.5 208.5t89.5 155t126 102t140.5 59.5t136.5 18q165 0 293 -58q53 -24 65.5 -72.5t-14.5 -88.5q-20 -32 -54.5 -43.5t-80.5 4.5q-100 37 -181 37q-54 0 -104 -19t-91.5 -55.5t-66 -97.5t-24.5 -138q0 -129 70 -193.5t245 -96.5q151 -25 221 -83t70 -188 q0 -83 -35 -169t-88 -144q-28 -30 -62.5 -40.5t-65 -3t-54.5 27.5q-36 32 -40 78t36 94q61 65 61 129q0 47 -48 68.5t-161 41.5q-95 16 -168 48.5t-131 87t-88.5 138t-30.5 193.5z" />
<glyph unicode="&#x3c3;" horiz-adv-x="1163" d="M104 416v219q0 91 26.5 168.5t79 138t138.5 95t197 34.5h483q47 0 82 -35t35 -82t-35 -81.5t-82 -34.5h-117q74 -107 74 -260v-162q0 -91 -26.5 -168.5t-78.5 -137.5t-138 -94t-197 -34t-197 34t-138.5 94t-79 137.5t-26.5 168.5zM373 418q0 -191 172 -191t172 191v213 q0 190 -172 190t-172 -190v-213z" />
<glyph unicode="&#x3c4;" horiz-adv-x="1009" d="M12 856q0 63 39 111q68 92 203 92h623q50 0 84 -34t34 -83q0 -47 -34.5 -81t-83.5 -34h-220v-534q0 -33 10.5 -56.5t18.5 -31t33 -27.5q39 -39 39 -82q0 -57 -38 -84.5t-102 -27.5q-74 0 -129 43q-108 83 -108 241v559h-107q-28 0 -48 -9t-26.5 -15.5t-23.5 -26.5 q-27 -35 -67 -35q-49 0 -73 31.5t-24 83.5z" />
<glyph unicode="&#x3c5;" horiz-adv-x="1198" d="M104 954q0 50 34 83.5t83 33.5h258q30 0 54.5 -24t29 -63t-27.5 -89q-54 -67 -54 -258v-205q0 -94 43 -148.5t129 -54.5q85 0 130.5 56.5t45.5 150.5v74q0 62 -9 119t-27.5 110t-29 77.5t-32.5 70.5q-32 69 10.5 125t106.5 59q91 3 129 -78q117 -240 117 -487v-72 q0 -93 -26.5 -173t-79 -143.5t-138.5 -99.5t-197 -36q-90 0 -163.5 24t-124.5 65.5t-85.5 99t-50.5 123.5t-16 140v146q0 150 74 260h-66q-49 0 -83 33.5t-34 80.5z" />
<glyph unicode="&#x3c6;" horiz-adv-x="1599" d="M104 492v32q0 73 17 134t45.5 106t71.5 81t89.5 60t104 41.5t110.5 27.5t115 17v172q0 57 42 98.5t102 41.5q58 0 99.5 -41.5t41.5 -98.5v-172q62 -7 115.5 -17t111 -27.5t104 -41.5t89 -60t71 -81t45.5 -106t17 -134v-32q0 -101 -32.5 -179.5t-84 -128t-127 -84 t-148 -51t-161.5 -26.5v-277q0 -57 -41.5 -98t-99.5 -41q-60 0 -102 41t-42 98v277q-88 10 -160.5 26.5t-148 51t-127 84t-84.5 128t-33 179.5zM381 492q0 -98 71 -150t205 -70v471q-134 -20 -205 -71.5t-71 -147.5v-32zM942 272q135 18 206 70t71 150v32q0 97 -70.5 148 t-206.5 71v-471z" />
<glyph unicode="&#x3c7;" horiz-adv-x="952" d="M-10 -296q-18 55 10 106q190 344 307 565q-130 248 -262 483q-29 51 -10.5 105t71.5 81q52 27 109.5 10t83.5 -69q74 -150 178 -352q71 144 178 352q26 52 82.5 69t110.5 -10q53 -26 71 -80.5t-10 -105.5q-23 -41 -120.5 -217t-143.5 -264q101 -196 309 -567 q27 -51 9 -106t-72 -81q-53 -26 -109 -7.5t-82 69.5q-42 79 -116 224.5t-107 209.5q-42 -80 -118.5 -230t-104.5 -204q-26 -51 -82.5 -69.5t-110.5 7.5q-53 26 -71 81z" />
<glyph unicode="&#x3c8;" horiz-adv-x="1619" d="M135 463v459q0 57 42.5 97t101.5 40t100 -40t41 -97v-467q0 -116 57.5 -172.5t190.5 -57.5v697q0 57 41.5 97t101.5 40q59 0 100 -40t41 -97v-697q134 1 191 57.5t57 172.5v467q0 57 41 97t100 40q61 0 102.5 -40t41.5 -97v-459q0 -110 -30.5 -196t-93.5 -150t-166.5 -98 t-242.5 -35v-238q0 -57 -41.5 -98t-99.5 -41q-60 0 -101.5 41t-41.5 98v238q-139 1 -242 35t-166.5 98t-94 150t-30.5 196z" />
<glyph unicode="&#x3c9;" horiz-adv-x="1579" d="M104 504q0 244 138 495q39 70 110 70t115 -56.5t6 -127.5q-106 -192 -106 -381q0 -144 41 -213.5t110 -69.5q85 0 113 62t28 198v277q0 60 38.5 92.5t93.5 32.5q52 0 90.5 -33t38.5 -92v-277q0 -53 3 -90.5t11.5 -71.5t24 -54t40.5 -32t60 -12q69 0 111 70t42 213 q0 81 -20 162t-38.5 122.5t-47.5 96.5q-25 51 -12 92t50 66.5t81 25.5q71 0 110 -70q138 -241 138 -495q0 -70 -10 -137t-38 -139t-70.5 -125.5t-115 -88t-164.5 -34.5q-209 0 -287 149q-78 -149 -288 -149q-76 0 -139 23.5t-105 65t-72.5 93t-47.5 112.5t-24.5 117 t-7.5 113z" />
<glyph unicode="&#x3ca;" horiz-adv-x="557" d="M-51 1384q0 59 38.5 98.5t96.5 39.5q57 0 97 -40t40 -98q0 -57 -40 -96t-97 -39q-58 0 -96.5 39t-38.5 96zM135 119v813q0 57 42.5 97t101.5 40t100 -40t41 -97v-813q0 -57 -41 -97t-100 -40t-101.5 40t-42.5 97zM338 1384q0 58 39 98t96 40q58 0 97.5 -39.5t39.5 -98.5 q0 -57 -39.5 -96t-97.5 -39q-57 0 -96 39t-39 96z" />
<glyph unicode="&#x3cb;" horiz-adv-x="1198" d="M104 954q0 50 34 83.5t83 33.5h258q30 0 54.5 -24t29 -63t-27.5 -89q-54 -67 -54 -258v-205q0 -94 43 -148.5t129 -54.5q85 0 130.5 56.5t45.5 150.5v74q0 62 -9 119t-27.5 110t-29 77.5t-32.5 70.5q-32 69 10.5 125t106.5 59q91 3 129 -78q117 -240 117 -487v-72 q0 -93 -26.5 -173t-79 -143.5t-138.5 -99.5t-197 -36q-90 0 -163.5 24t-124.5 65.5t-85.5 99t-50.5 123.5t-16 140v146q0 150 74 260h-66q-49 0 -83 33.5t-34 80.5zM270 1382q0 59 40 99.5t98 40.5t98.5 -40.5t40.5 -99.5q0 -58 -40 -97.5t-99 -39.5t-98.5 39.5t-39.5 97.5z M659 1382q0 59 40 99.5t98 40.5t98.5 -40.5t40.5 -99.5q0 -58 -40 -97.5t-99 -39.5t-98.5 39.5t-39.5 97.5z" />
<glyph unicode="&#x3cc;" horiz-adv-x="1114" d="M104 416v217q0 92 27.5 169.5t81.5 138t142 94.5t202 34q115 0 203 -34t142 -94.5t81 -138t27 -169.5v-217q0 -92 -27 -169.5t-81 -138t-142 -94.5t-203 -34q-114 0 -202 34t-142 94.5t-81.5 138t-27.5 169.5zM381 416q0 -189 176 -189t176 189v215q0 188 -176 188 t-176 -188v-215zM414 1231q0 13 8 53l51 213q22 98 119 98q42 0 72 -27.5t30 -74.5q0 -37 -16 -80l-64 -184q-16 -47 -41.5 -69.5t-72.5 -22.5q-38 0 -62 26.5t-24 67.5z" />
<glyph unicode="&#x3cd;" horiz-adv-x="1198" d="M104 954q0 50 34 83.5t83 33.5h258q30 0 54.5 -24t29 -63t-27.5 -89q-54 -67 -54 -258v-205q0 -94 43 -148.5t129 -54.5q85 0 130.5 56.5t45.5 150.5v74q0 62 -9 119t-27.5 110t-29 77.5t-32.5 70.5q-32 69 10.5 125t106.5 59q91 3 129 -78q117 -240 117 -487v-72 q0 -93 -26.5 -173t-79 -143.5t-138.5 -99.5t-197 -36q-90 0 -163.5 24t-124.5 65.5t-85.5 99t-50.5 123.5t-16 140v146q0 150 74 260h-66q-49 0 -83 33.5t-34 80.5zM518 1231q0 13 8 53l52 213q22 98 118 98q42 0 72.5 -27.5t30.5 -74.5q0 -34 -17 -80l-63 -184 q-16 -47 -42 -69.5t-73 -22.5q-38 0 -62 26.5t-24 67.5z" />
<glyph unicode="&#x3ce;" horiz-adv-x="1579" d="M104 504q0 244 138 495q39 70 110 70t115 -56.5t6 -127.5q-106 -192 -106 -381q0 -144 41 -213.5t110 -69.5q85 0 113 62t28 198v277q0 60 38.5 92.5t93.5 32.5q52 0 90.5 -33t38.5 -92v-277q0 -53 3 -90.5t11.5 -71.5t24 -54t40.5 -32t60 -12q69 0 111 70t42 213 q0 81 -20 162t-38.5 122.5t-47.5 96.5q-25 51 -12 92t50 66.5t81 25.5q71 0 110 -70q138 -241 138 -495q0 -70 -10 -137t-38 -139t-70.5 -125.5t-115 -88t-164.5 -34.5q-209 0 -287 149q-78 -149 -288 -149q-76 0 -139 23.5t-105 65t-72.5 93t-47.5 112.5t-24.5 117 t-7.5 113zM618 1231q0 8 9 53l51 213q22 98 119 98q42 0 72 -27.5t30 -74.5q0 -37 -16 -80l-64 -184q-16 -47 -41.5 -69.5t-72.5 -22.5q-38 0 -62.5 26.5t-24.5 67.5z" />
<glyph unicode="&#x401;" horiz-adv-x="1171" d="M160 135v1223q0 56 39 95.5t94 39.5h637q57 0 96 -39.5t39 -95.5t-39 -94.5t-96 -38.5h-488v-348h443q54 0 92.5 -39t38.5 -93t-38.5 -91.5t-92.5 -37.5h-443v-348h516q56 0 95 -39t39 -94q0 -57 -39 -96t-95 -39h-665q-56 0 -94.5 39t-38.5 96zM260 1798q0 59 39.5 99 t97.5 40q59 0 99.5 -40.5t40.5 -98.5t-40.5 -97.5t-99.5 -39.5t-98 39.5t-39 97.5zM649 1798q0 59 39.5 99t97.5 40q59 0 99.5 -40.5t40.5 -98.5t-40.5 -97.5t-99.5 -39.5q-58 0 -97.5 39.5t-39.5 97.5z" />
<glyph unicode="&#x402;" horiz-adv-x="1478" d="M27 1356q0 58 40 97.5t97 39.5h799q56 0 95.5 -39.5t39.5 -97.5t-39.5 -96.5t-95.5 -38.5h-261v-260q114 67 263 67q203 0 290.5 -103t87.5 -300v-414q0 -267 -86 -393q-41 -62 -102 -99.5t-135 -37.5q-68 0 -108 36t-40 90q0 12 1.5 23t6 20.5t7.5 17t11.5 16.5t13 14 t16 13.5t15.5 12t18 13t18 12.5q40 29 61 76.5t21 132.5v440q0 36 -7 64t-25 54t-54 40t-88 14q-50 0 -100 -21.5t-85 -58.5v-569q0 -57 -41 -98t-100 -41q-58 0 -99.5 41t-41.5 98v1100h-256q-58 0 -97.5 38.5t-39.5 96.5z" />
<glyph unicode="&#x403;" horiz-adv-x="1110" d="M160 123v1235q0 56 39 95.5t94 39.5h657q55 0 94 -39.5t39 -95.5t-38.5 -94.5t-94.5 -38.5h-510v-1102q0 -58 -41 -98.5t-100 -40.5t-99 40t-40 99zM512 1722q0 24 20 72l99 197q31 73 106 73q53 0 81 -31.5t28 -78.5q0 -34 -31 -86l-104 -170q-24 -38 -47.5 -54 t-59.5 -16q-42 0 -67 27t-25 67z" />
<glyph unicode="&#x404;" horiz-adv-x="1181" d="M131 635v229q0 166 30.5 284.5t112.5 211.5q71 80 175 116.5t253 36.5q209 0 326 -86q70 -49 70 -118q0 -50 -34.5 -85.5t-96.5 -35.5q-12 0 -26 3.5t-24.5 8t-30.5 13t-34 14.5q-84 35 -160 35q-128 0 -198 -70q-80 -80 -80 -236v-61h387q55 0 92 -36t37 -93t-37 -93 t-92 -36h-387v-82q0 -167 80 -250q69 -69 194 -69q106 0 184 43q5 2 19.5 9t19.5 9.5t16.5 7t18.5 6t17 3t20 1.5q53 0 87 -34t34 -88q0 -74 -76 -125q-58 -39 -154 -62.5t-176 -23.5q-328 0 -467 206q-57 80 -78.5 189t-21.5 258z" />
<glyph unicode="&#x405;" horiz-adv-x="1200" d="M88 170q0 53 34 92t89 39q24 0 75.5 -18.5t86.5 -26.5q77 -18 170 -18q297 0 297 196q0 67 -42.5 104.5t-160.5 69.5q-28 8 -109.5 27t-145.5 38.5t-106 43.5q-176 100 -176 323q0 148 69.5 256.5t183.5 161.5t257 53q194 0 334 -47q47 -17 71.5 -51t24.5 -76 q0 -54 -35.5 -94.5t-95.5 -40.5q-21 0 -65 15.5t-70 21.5q-61 14 -141 14q-120 0 -186 -46.5t-66 -129.5q0 -75 45 -110.5t156 -63.5q30 -8 97 -23t106 -25t88 -28t81 -39q168 -105 168 -323q0 -157 -73.5 -268t-196 -163t-283.5 -52q-230 0 -385 57q-47 17 -71.5 52 t-24.5 79z" />
<glyph unicode="&#x406;" horiz-adv-x="600" d="M160 123v1247q0 58 41 99.5t100 41.5q58 0 99.5 -42t41.5 -99v-1247q0 -59 -41 -100t-100 -41q-60 0 -100.5 41t-40.5 100z" />
<glyph unicode="&#x407;" horiz-adv-x="600" d="M-33 1798q0 59 39.5 99t97.5 40q59 0 99.5 -40.5t40.5 -98.5t-40.5 -97.5t-99.5 -39.5q-58 0 -97.5 39.5t-39.5 97.5zM160 123v1247q0 58 41 99.5t100 41.5q57 0 98 -42t41 -99v-1247q0 -58 -41 -99.5t-98 -41.5q-60 0 -100.5 41t-40.5 100zM356 1798q0 59 40 99t98 40 t98.5 -40.5t40.5 -98.5t-40 -97.5t-99 -39.5t-98.5 39.5t-39.5 97.5z" />
<glyph unicode="&#x408;" horiz-adv-x="952" d="M6 123q0 59 34 97t95 38q25 0 64 -8q31 -2 94 -2q137 0 190.5 68t53.5 235v819q0 58 41 99.5t100 41.5q57 0 99 -42t42 -99v-819q0 -569 -526 -569q-95 0 -172 12q-57 9 -86 45t-29 84z" />
<glyph unicode="&#x409;" horiz-adv-x="2138" d="M33 121q0 38 23.5 76.5t57.5 90.5t52 109q47 151 47 492v471q0 54 40 93.5t97 39.5h780q57 0 96.5 -38.5t39.5 -94.5v-461h280q105 0 189 -22t150 -67.5t102 -123t36 -182.5v-107q0 -219 -151 -319q-115 -78 -309 -78h-441q-59 0 -99 40.5t-40 100.5v1084h-485v-336 q0 -190 -29.5 -396t-97.5 -343q-84 -168 -199 -168q-56 0 -97.5 40.5t-41.5 98.5zM1266 260h293q95 0 139.5 48t44.5 126v45q0 77 -53.5 123.5t-149.5 46.5h-274v-389z" />
<glyph unicode="&#x40a;" horiz-adv-x="2109" d="M160 125v1247q0 59 40.5 100t100.5 41q58 0 98.5 -41t40.5 -100v-473h533v473q0 58 41 99.5t98 41.5q60 0 102.5 -41.5t42.5 -99.5v-473h281q223 0 349 -98.5t126 -296.5v-107q0 -85 -24.5 -154.5t-76.5 -125t-143.5 -86.5t-214.5 -31h-442q-58 0 -98.5 41t-40.5 100v508 h-533v-524q0 -60 -40 -100.5t-99 -40.5q-60 0 -100.5 40.5t-40.5 100.5zM1257 260h291q96 0 140.5 48t44.5 126v45q0 77 -53 123.5t-148 46.5h-275v-389z" />
<glyph unicode="&#x40b;" horiz-adv-x="1478" d="M27 1356q0 58 40 97.5t97 39.5h799q56 0 95.5 -39.5t39.5 -97.5t-39.5 -96.5t-95.5 -38.5h-261v-260q114 67 263 67q104 0 178 -28.5t117.5 -84t63 -128.5t19.5 -169v-497q0 -58 -40.5 -98.5t-96.5 -40.5q-59 0 -100 40.5t-41 98.5v465q0 36 -8 66t-26.5 58t-55 44 t-88.5 16q-50 0 -100 -21.5t-85 -58.5v-569q0 -57 -41 -98t-100 -41q-58 0 -99.5 41t-41.5 98v1100h-256q-58 0 -97.5 38.5t-39.5 96.5z" />
<glyph unicode="&#x40c;" horiz-adv-x="1280" d="M160 123v1247q0 59 40.5 100t98.5 41q57 0 99 -41.5t42 -99.5v-493h203l340 561q39 73 121 73q62 0 102.5 -40t40.5 -101q0 -36 -20 -74l-346 -551q198 -287 348 -548q20 -33 20 -74q0 -61 -39.5 -101t-103.5 -40q-88 0 -125 73q-189 341 -336 561h-205v-493 q0 -57 -42 -99t-99 -42q-58 0 -98.5 41.5t-40.5 99.5zM580 1720q0 24 20 72l98 197q31 73 107 73q53 0 80.5 -31.5t27.5 -78.5q0 -35 -30 -86l-105 -170q-24 -38 -47 -54t-59 -16q-42 0 -67 27t-25 67z" />
<glyph unicode="&#x40e;" horiz-adv-x="1093" d="M4 1372q0 58 41 98.5t100 40.5q90 0 127 -90l301 -725q51 125 132 365q73 218 112 350q34 100 135 100q67 0 102.5 -35.5t35.5 -95.5q0 -30 -13 -77q-113 -342 -172 -500q-62 -173 -186 -459q-30 -67 -58.5 -117.5t-67.5 -98.5t-82.5 -78.5t-101.5 -49t-126 -18.5h-56 q-58 0 -98.5 36.5t-40.5 96.5q0 59 39 97t96 38h29q60 0 101.5 29t84.5 96l-415 921q-19 43 -19 76zM230 1952q8 33 38 57q31 26 75.5 20.5t70.5 -47.5q62 -108 145 -108q86 0 150 108q26 41 68 48t73 -17q33 -22 43 -58t-14 -79q-126 -205 -320 -205q-192 0 -315 205 q-22 43 -14 76z" />
<glyph unicode="&#x40f;" horiz-adv-x="1415" d="M160 135v1237q0 57 41 98t98 41q58 0 99.5 -41t41.5 -98v-1102h533v1102q0 57 41 98t98 41q61 0 102 -40.5t41 -98.5v-1237q0 -56 -39 -95.5t-94 -39.5h-274v-258q0 -57 -41.5 -99t-99.5 -42t-99 42t-41 99v258h-274q-56 0 -94.5 39.5t-38.5 95.5z" />
<glyph unicode="&#x410;" horiz-adv-x="1183" d="M27 154q139 606 383 1212q59 147 180 147q127 0 186 -147q242 -593 381 -1212q18 -75 -27 -123.5t-112 -48.5q-48 0 -86 27.5t-49 82.5q-19 86 -56 217h-479q-38 -149 -53 -217q-13 -54 -50 -82t-83 -28q-64 0 -107.5 48.5t-27.5 123.5zM416 561h344q-71 241 -172 508 q-101 -275 -172 -508z" />
<glyph unicode="&#x411;" horiz-adv-x="1312" d="M160 141v1217q0 56 38.5 95.5t94.5 39.5h684q57 0 96 -39.5t39 -95.5t-39 -94.5t-96 -38.5h-537v-326h285q222 0 348.5 -99t126.5 -296v-107q0 -85 -25 -155t-77.5 -125.5t-143 -86t-213.5 -30.5h-440q-59 0 -100 40.5t-41 100.5zM440 260h295q95 0 140 47.5t45 126.5v43 q0 76 -53.5 123t-147.5 47h-279v-387z" />
<glyph unicode="&#x412;" horiz-adv-x="1312" d="M160 141v1211q0 58 41 99.5t100 41.5h387q121 0 212 -31.5t142.5 -85.5t76 -118t24.5 -138v-57q0 -101 -45.5 -178t-136.5 -117q115 -37 177 -127.5t62 -198.5v-57q0 -83 -25 -150.5t-77.5 -121.5t-143.5 -83.5t-215 -29.5h-438q-60 0 -100.5 41t-40.5 100zM442 260h291 q95 0 141 45t46 117v41q0 72 -53.5 116t-147.5 44h-277v-363zM442 870h191q227 0 227 158v51q0 70 -45.5 111t-130.5 41h-242v-361z" />
<glyph unicode="&#x413;" horiz-adv-x="1110" d="M160 123v1235q0 56 39 95.5t94 39.5h657q55 0 94 -39.5t39 -95.5t-38.5 -94.5t-94.5 -38.5h-510v-1102q0 -58 -41 -98.5t-100 -40.5t-99 40t-40 99z" />
<glyph unicode="&#x414;" horiz-adv-x="1630" d="M12 145q0 52 38.5 87.5t86.5 35.5h109q68 83 90 233.5t22 385.5v469q0 56 41 95.5t97 39.5h741q57 0 96 -39t39 -96v-1088h121q53 0 89 -35.5t36 -87.5v-415q0 -54 -38.5 -92.5t-92.5 -38.5t-92.5 38.5t-38.5 92.5v270h-1080v-270q0 -54 -38.5 -92.5t-92.5 -38.5 q-55 0 -94 38.5t-39 92.5v415zM559 268h531v955h-447v-336q0 -426 -84 -619z" />
<glyph unicode="&#x415;" horiz-adv-x="1161" d="M160 135v1223q0 56 39 95.5t94 39.5h637q57 0 96 -39.5t39 -95.5t-39 -94.5t-96 -38.5h-488v-348h443q54 0 92.5 -39t38.5 -93t-38.5 -91.5t-92.5 -37.5h-443v-348h516q56 0 95 -39t39 -94q0 -57 -39 -96t-95 -39h-665q-56 0 -94.5 39t-38.5 96z" />
<glyph unicode="&#x416;" horiz-adv-x="1955" d="M31 123q0 41 20 74q150 261 348 548l-346 551q-20 38 -20 74q0 61 40.5 101t102.5 40q82 0 121 -73l340 -561h203v493q0 58 41 99.5t98 41.5q59 0 100 -41.5t41 -99.5v-493h203l340 561q42 73 123 73q62 0 102.5 -40t40.5 -101q0 -36 -20 -74l-346 -551 q180 -261 348 -548q20 -33 20 -74q0 -61 -40 -101t-105 -40q-86 0 -123 73q-177 319 -336 561h-207v-493q0 -57 -41.5 -99t-99.5 -42q-57 0 -98 42t-41 99v493h-205q-147 -220 -336 -561q-37 -73 -125 -73q-64 0 -103.5 40t-39.5 101z" />
<glyph unicode="&#x417;" horiz-adv-x="1083" d="M59 197q0 52 34.5 87t82.5 35q5 0 10.5 -0.5t11.5 -2.5t10 -3t11.5 -5t11 -5.5t13 -7t12.5 -7.5t14.5 -9t14.5 -9q67 -45 170 -45q107 0 168 59.5t61 159.5q0 201 -235 201h-115q-50 0 -83.5 34t-33.5 85q0 50 34 84.5t83 34.5h119q104 0 170.5 43t66.5 141 q0 84 -46 139.5t-148 55.5q-103 0 -181 -48q-5 -4 -18 -12.5t-18.5 -12t-17 -9.5t-19 -8.5t-19 -4.5t-22.5 -2q-44 0 -77.5 30.5t-33.5 86.5q0 74 70 127q121 102 348 102q94 0 170.5 -25.5t125.5 -66t82.5 -94t47.5 -106.5t14 -107q0 -252 -221 -338q242 -85 242 -364 q0 -83 -31.5 -158t-91.5 -136t-158 -97.5t-221 -36.5q-246 0 -358 112q-50 50 -50 103z" />
<glyph unicode="&#x418;" horiz-adv-x="1449" d="M160 123v1247q0 59 40.5 100t98.5 41q59 0 100 -41.5t41 -99.5v-749l568 632v117q0 58 42 99.5t99 41.5q59 0 100 -41.5t41 -99.5v-1247q0 -57 -41.5 -99t-99.5 -42q-57 0 -99 42t-42 99v751l-568 -634v-117q0 -57 -41.5 -99t-99.5 -42t-98.5 41.5t-40.5 99.5z" />
<glyph unicode="&#x419;" horiz-adv-x="1449" d="M160 123v1247q0 59 40.5 100t98.5 41q59 0 100 -41.5t41 -99.5v-749l568 632v117q0 58 42 99.5t99 41.5q59 0 100 -41.5t41 -99.5v-1247q0 -57 -41.5 -99t-99.5 -42q-57 0 -99 42t-42 99v751l-568 -634v-117q0 -57 -41.5 -99t-99.5 -42t-98.5 41.5t-40.5 99.5zM401 1929 q0 47 39 78q27 21 64 21q53 0 82 -50q64 -106 147 -106t150 106q29 50 82 50q31 0 59 -19q45 -27 45 -80q0 -28 -16 -55q-126 -205 -320 -205q-191 0 -317 205q-15 30 -15 55z" />
<glyph unicode="&#x41a;" horiz-adv-x="1280" d="M160 123v1247q0 59 40.5 100t98.5 41q57 0 99 -41.5t42 -99.5v-493h203l340 561q39 73 121 73q62 0 102.5 -40t40.5 -101q0 -36 -20 -74l-346 -551q198 -287 348 -548q20 -33 20 -74q0 -61 -39.5 -101t-103.5 -40q-88 0 -125 73q-189 341 -336 561h-205v-493 q0 -57 -42 -99t-99 -42q-58 0 -98.5 41.5t-40.5 99.5z" />
<glyph unicode="&#x41b;" horiz-adv-x="1421" d="M33 119q0 38 23.5 76.5t57.5 90.5t52 109q27 87 37 201t10 291v471q0 54 40 93.5t97 39.5h778q58 0 97 -39t39 -94v-1235q0 -61 -39 -101t-101 -40q-63 0 -102 40t-39 101v1100h-485v-336q0 -190 -29.5 -395.5t-97.5 -341.5q-82 -168 -199 -168q-56 0 -97.5 40.5 t-41.5 96.5z" />
<glyph unicode="&#x41c;" horiz-adv-x="1650" d="M160 113v1267q0 58 38.5 94.5t94.5 36.5q53 0 84 -19t53 -65l397 -804l400 813q20 44 52 59.5t79 15.5q56 0 94.5 -38.5t38.5 -92.5v-1267q0 -55 -38.5 -93t-94.5 -38q-54 0 -91.5 38.5t-37.5 92.5v778l-277 -580q-44 -84 -129 -84q-84 0 -127 84l-276 578v-776 q0 -54 -38 -92.5t-93 -38.5q-54 0 -91.5 38.5t-37.5 92.5z" />
<glyph unicode="&#x41d;" horiz-adv-x="1413" d="M160 121v1247q0 60 40 100.5t99 40.5t100 -40.5t41 -100.5v-510h533v510q0 60 40.5 100.5t98.5 40.5q59 0 100 -40.5t41 -100.5v-1247q0 -57 -41.5 -98t-99.5 -41q-57 0 -98 41t-41 98v485h-533v-485q0 -57 -41.5 -98t-99.5 -41t-98.5 41t-40.5 98z" />
<glyph unicode="&#x41e;" d="M131 535v423q0 88 16.5 166t56.5 150t99.5 123.5t152 82.5t208.5 31t208.5 -31t152.5 -82.5t99.5 -123.5t56.5 -150t17 -166v-423q0 -88 -17 -166t-56.5 -150.5t-99.5 -124.5t-152.5 -83t-208.5 -31t-208.5 31t-152 83t-99.5 124.5t-56.5 150.5t-16.5 166zM414 535 q0 -144 55.5 -221.5t194.5 -77.5t195 77.5t56 221.5v423q0 68 -11.5 119t-39 92t-77.5 62.5t-123 21.5q-72 0 -122 -21t-77.5 -62t-39 -92t-11.5 -120v-423z" />
<glyph unicode="&#x41f;" horiz-adv-x="1417" d="M160 121v1237q0 56 39 95.5t94 39.5h827q58 0 97.5 -39.5t39.5 -95.5v-1237q0 -58 -41.5 -98.5t-99.5 -40.5q-59 0 -100 40.5t-41 98.5v1102h-533v-1102q0 -58 -41 -98.5t-100 -40.5q-60 0 -100.5 40t-40.5 99z" />
<glyph unicode="&#x420;" horiz-adv-x="1232" d="M160 123v1229q0 58 41 99.5t100 41.5h387q103 0 184.5 -24.5t133.5 -65t86.5 -96.5t48.5 -114t14 -122v-104q0 -188 -120 -301t-335 -113h-258v-430q0 -59 -41 -100t-100 -41q-60 0 -100.5 41t-40.5 100zM442 811h248q97 0 140.5 45.5t43.5 114.5v94q0 162 -210 162h-222 v-416z" />
<glyph unicode="&#x421;" horiz-adv-x="1146" d="M131 633v227q0 144 30.5 259.5t94.5 204.5t172.5 137t255.5 48q88 0 174.5 -24t138.5 -68q60 -46 60 -108q0 -47 -34.5 -85t-94.5 -38q-35 -2 -88 31q-58 40 -156 40q-137 0 -202.5 -95.5t-65.5 -309.5v-217q0 -217 62.5 -308t193.5 -91q107 0 176 49q61 28 90 28 q48 0 82.5 -33.5t34.5 -84.5q0 -62 -56 -109q-57 -51 -150 -77.5t-177 -26.5q-143 0 -248 46.5t-168.5 134t-94 204t-30.5 266.5z" />
<glyph unicode="&#x422;" horiz-adv-x="1232" d="M27 1356q0 57 40 97t97 40h907q57 0 96 -40t39 -97t-39 -96t-96 -39h-313v-1100q0 -57 -41.5 -98t-98.5 -41q-58 0 -99.5 41t-41.5 98v1100h-313q-57 0 -97 39t-40 96z" />
<glyph unicode="&#x423;" horiz-adv-x="1093" d="M4 1372q0 58 41 98.5t100 40.5q90 0 127 -90l301 -725q51 125 132 365q73 218 112 350q34 100 135 100q67 0 102.5 -35.5t35.5 -95.5q0 -30 -13 -77q-113 -342 -172 -500q-62 -173 -186 -459q-30 -67 -58.5 -117.5t-67.5 -98.5t-82.5 -78.5t-101.5 -49t-126 -18.5h-56 q-58 0 -98.5 36.5t-40.5 96.5q0 59 39 97t96 38h29q60 0 101.5 29t84.5 96l-415 921q-19 43 -19 76z" />
<glyph unicode="&#x424;" horiz-adv-x="1615" d="M117 721v55q0 86 18.5 164.5t61 150t105 123.5t156.5 82.5t210 30.5v43q0 58 41 99.5t98 41.5q60 0 100.5 -41t40.5 -100v-43q117 0 211 -30.5t156.5 -82.5t104.5 -123.5t60.5 -150t18.5 -164.5v-55q0 -87 -18.5 -166t-60.5 -150.5t-104.5 -124t-156.5 -83.5t-211 -31 v-43q0 -58 -41 -99.5t-100 -41.5q-57 0 -98 42t-41 99v43q-116 0 -210 31t-156.5 83.5t-105 124t-61 150.5t-18.5 166zM397 721q0 -140 65 -220.5t206 -80.5v653q-142 0 -206.5 -79.5t-64.5 -217.5v-55zM948 420q271 0 271 301v55q0 297 -271 297v-653z" />
<glyph unicode="&#x425;" horiz-adv-x="1140" d="M6 117q0 35 21 76q24 41 48.5 82t56 89.5t50.5 78.5t58.5 88.5t52.5 77.5t60 88t55 81q-203 298 -328 531q-21 37 -21 69q0 55 44 94t102 39q70 0 112 -73q93 -172 252 -418q148 223 254 418q39 73 113 73q58 0 102.5 -40t44.5 -97q0 -36 -20 -67q-135 -251 -328 -533 q256 -376 379 -586q21 -40 21 -73q0 -55 -44 -94t-100 -39q-71 0 -112 69q-88 155 -306 484q-167 -241 -307 -482q-40 -71 -114 -71q-57 0 -101.5 39t-44.5 96z" />
<glyph unicode="&#x426;" horiz-adv-x="1521" d="M160 135v1235q0 59 40.5 100t98.5 41q57 0 99 -41.5t42 -99.5v-1104h535v1104q0 59 40 100t97 41q60 0 101.5 -41t41.5 -100v-1104h113q53 0 89 -34.5t36 -86.5v-415q0 -54 -38.5 -92.5t-92.5 -38.5t-92.5 38.5t-38.5 92.5v270h-938q-55 0 -94 39.5t-39 95.5z" />
<glyph unicode="&#x427;" horiz-adv-x="1351" d="M117 989v381q0 57 42 99t99 42q60 0 101.5 -41.5t41.5 -99.5v-356q0 -236 244 -236q119 0 264 56v536q0 57 42 99t100 42q59 0 101 -41.5t42 -99.5v-1247q0 -60 -41.5 -100.5t-101.5 -40.5q-59 0 -100.5 40.5t-41.5 100.5v459q-166 -58 -327 -58q-100 0 -182.5 26.5 t-147 80.5t-100 145t-35.5 213z" />
<glyph unicode="&#x428;" horiz-adv-x="2031" d="M160 133v1237q0 58 41.5 98.5t101.5 40.5q57 0 97 -40.5t40 -98.5v-1102h434v1102q0 58 42 98.5t102 40.5q58 0 99.5 -40.5t41.5 -98.5v-1102h430v1102q0 58 41.5 98.5t100.5 40.5t101 -40.5t42 -98.5v-1237q0 -54 -40 -93.5t-95 -39.5h-1446q-55 0 -94 39.5t-39 93.5z " />
<glyph unicode="&#x429;" horiz-adv-x="2140" d="M160 133v1237q0 59 40.5 99t100.5 40q59 0 99 -40.5t40 -98.5v-1102h434v1102q0 58 42 98.5t102 40.5q57 0 98 -40.5t41 -98.5v-1102h432v1102q0 58 41.5 98.5t98.5 40.5q60 0 102.5 -40.5t42.5 -98.5v-1102h113q51 0 87.5 -35.5t36.5 -87.5v-415q0 -54 -39 -92.5 t-94 -38.5q-54 0 -92.5 38.5t-38.5 92.5v270h-1554q-55 0 -94 39.5t-39 93.5z" />
<glyph unicode="&#x42a;" horiz-adv-x="1576" d="M23 1356q0 57 39 96t96 39h405q60 0 101 -41t41 -100v-453h282q223 0 349 -98.5t126 -296.5v-107q0 -86 -24.5 -155t-76.5 -124t-142.5 -85.5t-214.5 -30.5h-441q-58 0 -99.5 40t-41.5 99v1084h-264q-56 0 -95.5 39.5t-39.5 93.5zM705 260h292q96 0 140.5 47t44.5 125v43 q0 77 -53 124.5t-146 47.5h-278v-387z" />
<glyph unicode="&#x42b;" horiz-adv-x="1851" d="M160 141v1231q0 58 40 98.5t99 40.5q58 0 99.5 -41t41.5 -98v-477h281q223 0 350 -97.5t127 -295.5v-105q0 -86 -25 -156t-77.5 -125t-143.5 -85.5t-215 -30.5h-438q-60 0 -99.5 40.5t-39.5 100.5zM440 258h293q93 0 139 48t46 124v45q0 78 -53 125t-148 47h-277v-389z M1413 125v1247q0 57 40.5 98t98.5 41t100 -41t42 -98v-1247q0 -58 -41.5 -98.5t-100.5 -40.5q-58 0 -98.5 40t-40.5 99z" />
<glyph unicode="&#x42c;" horiz-adv-x="1310" d="M160 141v1229q0 59 39.5 99t99.5 40q59 0 100 -40.5t41 -98.5v-475h281q223 0 350 -97.5t127 -295.5v-105q0 -86 -25 -156t-77.5 -125t-143.5 -85.5t-215 -30.5h-438q-60 0 -99.5 40.5t-39.5 100.5zM440 258h293q93 0 139 48t46 124v45q0 78 -53 125t-148 47h-277v-389z " />
<glyph unicode="&#x42d;" horiz-adv-x="1204" d="M100 193q0 54 34 88t87 34q6 0 12 -0.5t13 -2t11.5 -2.5t12 -4t10.5 -4t12.5 -5t11.5 -5l13 -6.5l13 -6.5q78 -43 186 -43q124 0 193 69q79 82 79 250v82h-387q-55 0 -92 36t-37 93t37 93t92 36h387v61q0 159 -77 236q-73 70 -199 70q-80 0 -160 -35q-17 -6 -42.5 -18 t-40.5 -16.5t-31 -4.5q-63 0 -98.5 36t-35.5 85q0 68 72 118q117 86 326 86q148 0 251.5 -36.5t174.5 -116.5q83 -94 114 -212.5t31 -283.5v-229q0 -147 -22 -256.5t-78 -190.5q-142 -206 -469 -206q-79 0 -175 23.5t-153 62.5q-76 51 -76 125z" />
<glyph unicode="&#x42e;" horiz-adv-x="1984" d="M160 127v1247q0 59 40.5 100.5t100.5 41.5q57 0 99 -42t42 -100v-512h344v101q0 87 17 164.5t57 149t100 123.5t152.5 82.5t208.5 30.5q115 0 207 -30.5t152 -82.5t99.5 -123.5t56.5 -149t17 -164.5v-422q0 -88 -17 -166t-56.5 -150.5t-99.5 -124.5t-152 -83t-207 -31 q-116 0 -208.5 31t-152.5 82.5t-100 124t-57 151t-17 166.5v71h-344v-485q0 -59 -41.5 -100t-99.5 -41q-60 0 -100.5 40.5t-40.5 100.5zM1069 541q0 -144 56.5 -222.5t195.5 -78.5q71 0 121 21.5t77.5 63.5t39.5 94t12 122v422q0 68 -11.5 119.5t-39 93t-77.5 63t-122 21.5 q-73 0 -123 -21.5t-78 -63t-39.5 -93t-11.5 -119.5v-422z" />
<glyph unicode="&#x42f;" horiz-adv-x="1273" d="M94 119q0 31 15 61q120 257 239 455q-86 32 -147 100q-90 107 -90 260v82q0 202 120 309t357 107h383q60 0 101.5 -41.5t41.5 -101.5v-1229q0 -57 -41.5 -98t-101.5 -41q-57 0 -98.5 41t-41.5 98v459h-190q-144 -233 -274 -512q-37 -86 -123 -86q-59 0 -104.5 39 t-45.5 98zM395 995q0 -81 64 -123q50 -34 141 -34h231v391h-239q-97 0 -147 -39.5t-50 -112.5v-82z" />
<glyph unicode="&#x430;" horiz-adv-x="1091" d="M72 307v15q0 146 105 227.5t300 81.5h182v39q0 96 -33 141t-122 45q-104 0 -185 -45q-32 -16 -61 -16q-48 0 -80.5 34t-32.5 78q0 58 56 94q118 74 325 74q221 0 315.5 -103t94.5 -335v-342q0 -33 8 -55.5t16.5 -32.5t28.5 -27q39 -31 39 -82q0 -112 -139 -112 q-65 0 -125 43q-22 15 -41 45q-101 -88 -283 -88q-179 0 -273.5 85.5t-94.5 235.5zM346 301q0 -58 38.5 -89.5t115.5 -31.5q73 0 116 41.5t43 122.5v88h-149q-164 0 -164 -117v-14z" />
<glyph unicode="&#x431;" horiz-adv-x="1091" d="M104 420v377q0 100 16.5 178t43.5 131.5t74 97.5t95.5 73t119.5 62q3 2 23.5 11.5t27.5 12.5t25 13t26 16.5t21 17.5t18.5 20.5t10.5 22.5t5 26v47q0 56 40.5 96.5t97.5 40.5q58 0 97.5 -40.5t39.5 -96.5v-47q0 -47 -9.5 -87t-22 -69.5t-38.5 -57t-46 -44.5t-58 -38 t-61 -31.5t-68.5 -31t-67.5 -30.5q-42 -19 -57 -43q37 24 90 24q111 0 197 -33.5t138 -93.5t78.5 -137.5t26.5 -169.5v-217q0 -92 -26.5 -170t-78.5 -138.5t-138 -95t-197 -34.5q-112 0 -198.5 34.5t-139 95t-79 138.5t-26.5 170zM385 420q0 -102 45 -150q41 -41 117 -41 q80 0 121 50t41 141v213q0 96 -41 143t-121 47q-79 0 -121 -45q-41 -47 -41 -145v-213z" />
<glyph unicode="&#x432;" horiz-adv-x="1052" d="M135 137v793q0 57 40.5 97t98.5 40h283q93 0 162.5 -23.5t110 -65t60 -91.5t19.5 -109v-33q0 -141 -104 -192q72 -34 106.5 -94.5t34.5 -124.5v-37q0 -132 -84.5 -214.5t-259.5 -82.5h-328q-58 0 -98.5 40.5t-40.5 96.5zM412 223h170q46 0 69 22.5t23 61.5v35 q0 42 -27.5 66t-75.5 24h-159v-209zM412 641h123q102 0 102 78v43q0 36 -21.5 58t-66.5 22h-137v-201z" />
<glyph unicode="&#x433;" horiz-adv-x="919" d="M135 121v809q0 57 40.5 97t96.5 40h502q48 0 83.5 -34.5t35.5 -84.5t-35.5 -84.5t-83.5 -34.5h-362v-708q0 -57 -41 -97t-99 -40q-56 0 -96.5 40t-40.5 97z" />
<glyph unicode="&#x434;" horiz-adv-x="1363" d="M88 129q0 55 30 83t75 28h75q68 148 68 460v242q0 53 39 89t94 36h520q55 0 93 -36t38 -89v-702h99q47 0 81.5 -32.5t34.5 -78.5v-342q0 -49 -35.5 -85t-85.5 -36q-52 0 -87 35.5t-35 85.5v213h-760v-213q0 -50 -35.5 -85.5t-87.5 -35.5q-49 0 -85 36t-36 85v342z M541 240h309v589h-246v-129q0 -307 -63 -460z" />
<glyph unicode="&#x435;" horiz-adv-x="1054" d="M104 436v191q0 93 26 173t77.5 142.5t136 98.5t193.5 36q113 0 197.5 -35t133.5 -97.5t73 -141t24 -172.5v-84q0 -42 -28 -70t-67 -28h-489v-41q0 -195 170 -195q72 0 122 10.5t107 34.5q41 17 81 -4t54 -66q10 -46 -5.5 -82t-53.5 -55q-151 -63 -319 -63q-93 0 -167 24 t-123.5 64.5t-82 98t-46.5 122.5t-14 139zM381 653h317v27q0 90 -37 136t-118 46t-121.5 -47t-40.5 -135v-27z" />
<glyph unicode="&#x436;" horiz-adv-x="1449" d="M33 113q0 33 18 71q84 151 217 344l-215 336q-20 40 -20 72q0 56 40.5 95.5t96.5 39.5q80 0 119 -74l215 -350h82v285q0 57 41 97t98 40t98 -40t41 -97v-285h80l215 350q43 74 119 74q57 0 97 -39t40 -96q0 -39 -20 -72l-213 -336q123 -178 215 -344q20 -36 20 -71 q0 -56 -39.5 -94.5t-97.5 -38.5q-81 0 -121 75q-110 196 -211 348h-84v-286q0 -56 -41 -96.5t-98 -40.5t-98 40.5t-41 96.5v286h-84q-89 -134 -213 -348q-37 -75 -121 -75q-57 0 -96 38.5t-39 94.5z" />
<glyph unicode="&#x437;" horiz-adv-x="841" d="M55 150q0 44 30.5 74t74.5 30q8 0 15 -1t17 -5.5t14 -6.5t18.5 -10t17.5 -10q57 -31 116 -31q67 0 104.5 34.5t37.5 94.5q0 116 -133 123h-88q-41 0 -71 28.5t-30 70.5t30 70t71 28h81q66 0 106 27t40 82q0 50 -27.5 82t-91.5 32q-63 0 -117 -33q-6 -3 -17.5 -9.5 t-18 -9.5t-17 -7.5t-20.5 -6t-21 -1.5q-41 0 -70.5 27t-29.5 75q0 55 59 100q95 76 260 76q88 0 156 -28t105.5 -73t56 -94.5t18.5 -99.5q0 -165 -133 -229q147 -69 147 -254q0 -130 -98.5 -221.5t-279.5 -91.5q-184 0 -269 79q-43 40 -43 89z" />
<glyph unicode="&#x438;" horiz-adv-x="1198" d="M139 123v813q0 59 40.5 98t101.5 39t99 -39t38 -98v-420l362 369v51q0 59 40.5 98t101.5 39q62 0 99.5 -38.5t37.5 -98.5v-813q0 -59 -39 -99t-100 -40q-60 0 -100 40t-40 99v416l-362 -367v-49q0 -60 -39.5 -99.5t-102.5 -39.5t-100 39.5t-37 99.5z" />
<glyph unicode="&#x439;" horiz-adv-x="1198" d="M139 123v813q0 59 40.5 98t101.5 39t99 -39t38 -98v-420l362 369v51q0 59 40.5 98t101.5 39q62 0 99.5 -38.5t37.5 -98.5v-813q0 -59 -39 -99t-100 -40q-60 0 -100 40t-40 99v416l-362 -367v-49q0 -60 -39.5 -99.5t-102.5 -39.5t-100 39.5t-37 99.5zM267 1508q8 33 38 57 q31 26 75.5 20.5t70.5 -47.5q62 -108 145 -108q85 0 149 108q26 41 68.5 48t73.5 -17q33 -22 42.5 -58t-14.5 -79q-126 -205 -319 -205q-192 0 -315 205q-22 43 -14 76z" />
<glyph unicode="&#x43a;" horiz-adv-x="999" d="M135 119v813q0 58 41 97.5t100 39.5q56 0 97 -39.5t41 -97.5v-283h82l213 348q42 76 120 76q56 0 97 -39.5t41 -95.5q0 -34 -23 -72l-213 -336q108 -156 217 -344q19 -32 19 -71q0 -57 -39.5 -95t-96.5 -38q-79 0 -120 73q-99 179 -213 351h-84v-287q0 -57 -41 -97 t-97 -40q-59 0 -100 40t-41 97z" />
<glyph unicode="&#x43b;" horiz-adv-x="1181" d="M31 117q0 37 22.5 74t54.5 87t48 105q22 65 29.5 151.5t7.5 227.5v178q0 54 38.5 90.5t92.5 36.5h585q55 0 94 -37t39 -90v-825q0 -57 -39 -97.5t-100 -40.5q-63 0 -101 40t-38 98v714h-293v-129q0 -164 -26.5 -313t-77.5 -252q-79 -155 -197 -155q-59 0 -99 39.5 t-40 97.5z" />
<glyph unicode="&#x43c;" horiz-adv-x="1298" d="M139 102v844q0 51 38 88t89 37q35 0 65.5 -19.5t45.5 -50.5l274 -552l275 552q14 31 43 50.5t65 19.5q53 0 89 -36.5t36 -88.5v-844q0 -52 -36 -88.5t-89 -36.5q-51 0 -87 37t-36 88v394l-157 -326q-15 -31 -43.5 -49.5t-61.5 -18.5q-66 0 -102 68l-156 326v-394 q0 -51 -37 -88t-88 -37t-89 37t-38 88z" />
<glyph unicode="&#x43d;" horiz-adv-x="1134" d="M139 121v813q0 56 42 96.5t100 40.5q55 0 96 -40.5t41 -96.5v-260h299v260q0 56 40.5 96.5t96.5 40.5q58 0 99.5 -40.5t41.5 -96.5v-813q0 -58 -41 -97.5t-100 -39.5q-56 0 -96.5 39.5t-40.5 97.5v311h-299v-311q0 -58 -40.5 -97.5t-96.5 -39.5q-59 0 -100.5 39.5 t-41.5 97.5z" />
<glyph unicode="&#x43e;" horiz-adv-x="1089" d="M104 422v219q0 91 26.5 168.5t79 138t138.5 95t197 34.5t197 -34.5t138 -95t78.5 -138t26.5 -168.5v-219q0 -91 -26.5 -168.5t-78.5 -137.5t-138 -94t-197 -34t-197 34t-138.5 94t-79 137.5t-26.5 168.5zM383 424q0 -188 162 -188q164 0 164 188v215q0 188 -164 188 q-162 0 -162 -188v-215z" />
<glyph unicode="&#x43f;" horiz-adv-x="1130" d="M139 115v825q0 54 38.5 90.5t92.5 36.5h588q55 0 94 -37t39 -90v-825q0 -56 -40 -97t-97 -41t-97 41t-40 97v714h-299v-714q0 -56 -42 -97t-100 -41q-55 0 -96 41t-41 97z" />
<glyph unicode="&#x440;" horiz-adv-x="1128" d="M66 963q0 58 37 86t100 28q72 0 129 -45q24 -20 37 -39q52 39 122 61.5t138 22.5q393 0 393 -438v-166q0 -239 -86.5 -362t-290.5 -123q-125 0 -211 61v-287q0 -57 -41 -97t-98 -40q-58 0 -97.5 40t-39.5 97v1004q0 33 -8 56t-17 33.5t-29 27.5q-38 26 -38 80zM434 285 q30 -31 71 -48.5t79 -17.5q86 0 125 51t39 150v239q0 94 -39.5 139.5t-128.5 45.5q-74 0 -146 -56v-503z" />
<glyph unicode="&#x441;" horiz-adv-x="917" d="M104 453v143q0 100 27.5 186.5t80.5 152.5t136 104t187 38q166 0 268 -59q87 -51 53 -141q-17 -44 -58 -61.5t-81 1.5q-74 33 -156 33q-85 0 -131.5 -58.5t-46.5 -164.5v-191q0 -105 42.5 -164t125.5 -59q90 0 166 35q40 19 82 0.5t57 -62.5q27 -93 -57 -141 q-109 -57 -264 -57q-111 0 -195.5 35t-135 98.5t-75.5 146.5t-25 185z" />
<glyph unicode="&#x442;" horiz-adv-x="909" d="M10 952q0 47 33 81t82 34h659q46 0 80.5 -34.5t34.5 -80.5t-34.5 -80t-80.5 -34h-190v-723q0 -56 -41.5 -97t-99.5 -41q-55 0 -96.5 41.5t-41.5 96.5v723h-190q-49 0 -82 33.5t-33 80.5z" />
<glyph unicode="&#x443;" horiz-adv-x="1011" d="M33 -240q0 50 31 87.5t92 43.5q74 5 131.5 36.5t109.5 115.5q-211 518 -317 866q-6 21 -6 43q0 56 41.5 90.5t97.5 34.5q39 0 71.5 -24.5t45.5 -69.5q100 -332 198 -598l189 600q13 46 48 69t79 23q54 0 94.5 -37t40.5 -94q0 -30 -10 -53l-260 -741q-30 -86 -61 -155 t-79 -141.5t-102.5 -120.5t-131 -79t-165.5 -31q-62 0 -99.5 40t-37.5 95z" />
<glyph unicode="&#x444;" horiz-adv-x="1480" d="M88 432v201q0 73 14 136t47 120.5t84.5 98.5t131 65t180.5 24q17 0 57 -4v133q0 57 40.5 97t98.5 40q57 0 97.5 -40t40.5 -97v-133q40 4 57 4q101 0 180.5 -24t131 -65t84.5 -98.5t47 -120.5t14 -136v-201q0 -72 -14 -135t-47 -120.5t-84.5 -98t-131 -64.5t-180.5 -24 q-37 0 -57 4v-232q0 -57 -40.5 -97t-97.5 -40q-58 0 -98.5 40t-40.5 97v232q-36 -4 -57 -4q-101 0 -180.5 24t-131 64.5t-84.5 98t-47 120.5t-14 135zM367 453q0 -50 9 -88.5t30 -70t60 -48.5t95 -17q25 0 41 2v603q-24 4 -41 4q-108 0 -151 -61t-43 -167v-157zM879 231 q16 -2 41 -2q108 0 152 60t44 164v157q0 106 -44 167t-152 61q-17 0 -41 -4v-603z" />
<glyph unicode="&#x445;" horiz-adv-x="927" d="M33 109q0 27 16 59q71 146 248 369q-53 69 -84.5 112t-72 107t-68.5 123q-13 30 -13 61q0 58 44 95.5t102 37.5q87 0 129 -80q43 -100 133 -231q93 129 145 235q35 76 115 76q53 0 94 -35.5t41 -87.5q0 -28 -12 -55q-60 -137 -221 -346q90 -111 149.5 -195t102.5 -172 q16 -37 16 -63q0 -57 -45.5 -96t-101.5 -39q-86 0 -125 79q-46 91 -166 267q-114 -151 -174 -271q-38 -75 -115 -75q-54 0 -95.5 36t-41.5 89z" />
<glyph unicode="&#x446;" horiz-adv-x="1243" d="M135 125v811q0 59 41.5 98t102.5 39t98 -39t37 -98v-696h309v696q0 59 38.5 98t100.5 39t100.5 -39t38.5 -98v-696h99q47 0 80.5 -32.5t33.5 -78.5v-342q0 -50 -34.5 -85.5t-85.5 -35.5t-86 35.5t-35 85.5v213h-703q-55 0 -95 36.5t-40 88.5z" />
<glyph unicode="&#x447;" horiz-adv-x="1132" d="M123 680v256q0 58 40 97.5t99 39.5q57 0 97 -39.5t40 -97.5v-215q0 -77 38 -112.5t114 -35.5q83 0 166 33v330q0 58 40 97.5t99 39.5q58 0 97.5 -39.5t39.5 -97.5v-815q0 -57 -39.5 -97t-97.5 -40t-98.5 40t-40.5 97v252q-139 -41 -242 -41q-172 0 -262 91.5t-90 256.5z " />
<glyph unicode="&#x448;" horiz-adv-x="1687" d="M139 129v807q0 58 40 97.5t97 39.5q58 0 99 -39.5t41 -97.5v-694h291v694q0 58 39.5 97.5t97.5 39.5q59 0 99 -39.5t40 -97.5v-694h291v694q0 58 39 97.5t98 39.5t99 -39.5t40 -97.5v-807q0 -53 -39 -89t-94 -36h-1147q-55 0 -93 36t-38 89z" />
<glyph unicode="&#x449;" horiz-adv-x="1787" d="M135 125v809q0 59 41 98t100 39q57 0 97.5 -39t40.5 -98v-694h291v694q0 59 39.5 98t97.5 39t98.5 -39t40.5 -98v-694h291v694q0 60 39 98.5t98 38.5q58 0 97.5 -39t39.5 -98v-694h96q47 0 82 -32.5t35 -78.5v-342q0 -51 -35.5 -86t-85.5 -35q-52 0 -86 35t-34 86v213 h-1252q-61 0 -96 35.5t-35 89.5z" />
<glyph unicode="&#x44a;" horiz-adv-x="1228" d="M23 948q0 49 35 84t83 35h318q55 0 93 -36t38 -89v-268h162q80 0 146 -17.5t117.5 -53t80 -94t28.5 -136.5v-72q0 -135 -89 -218t-271 -83h-313q-55 0 -96.5 37.5t-41.5 93.5v698h-172q-48 0 -83 35t-35 84zM590 240h170q50 0 70 20.5t20 58.5v37q0 36 -25 57t-75 21 h-160v-194z" />
<glyph unicode="&#x44b;" horiz-adv-x="1521" d="M139 129v803q0 58 40 97.5t97 39.5q59 0 98.5 -39.5t39.5 -97.5v-260h161q108 0 189.5 -29.5t132.5 -98.5t51 -173v-72q0 -134 -88.5 -216.5t-271.5 -82.5h-316q-55 0 -94 36.5t-39 92.5zM414 240h170q51 0 70.5 20t19.5 57v39q0 76 -101 76h-159v-192zM1106 117v815 q0 58 40 97.5t99 39.5q56 0 96.5 -39.5t40.5 -97.5v-815q0 -57 -40.5 -97t-96.5 -40q-58 0 -98.5 40t-40.5 97z" />
<glyph unicode="&#x44c;" horiz-adv-x="1050" d="M135 129v803q0 58 40 97.5t99 39.5q57 0 96.5 -39.5t39.5 -97.5v-260h163q108 0 189.5 -29.5t132.5 -98.5t51 -173v-72q0 -134 -89 -216.5t-273 -82.5h-314q-55 0 -95 36.5t-40 92.5zM410 240h172q51 0 70.5 20t19.5 57v39q0 76 -103 76h-159v-192z" />
<glyph unicode="&#x44d;" horiz-adv-x="997" d="M84 186q10 44 50 64.5t83 5.5q59 -26 107.5 -37.5t121.5 -11.5q84 0 126 50.5t42 145.5v39h-215q-43 0 -72.5 30t-29.5 71q0 44 29.5 74t72.5 30h215v27q0 182 -159 182q-49 0 -93.5 -9t-71.5 -19t-71 -29q-42 -15 -82.5 5t-50.5 64q-13 45 3 82t56 54q141 65 314 65 q108 0 192 -35.5t135.5 -98t78 -142t26.5 -172.5v-191q0 -93 -23 -171t-71.5 -141.5t-134 -99.5t-201.5 -36q-177 0 -320 69q-40 17 -55.5 54t-1.5 81z" />
<glyph unicode="&#x44e;" horiz-adv-x="1634" d="M135 123v813q0 57 41 98t98 41t98.5 -41t41.5 -98v-260h237q0 11 4 35q22 172 135.5 268t299.5 96q111 0 197 -34.5t138 -95t78.5 -138t26.5 -168.5v-219q0 -91 -26.5 -168.5t-78.5 -137.5t-138 -94t-197 -34q-208 0 -324.5 111t-116.5 292v49h-235v-315q0 -57 -41.5 -97 t-98.5 -40t-98 40t-41 97zM926 422q0 -189 164 -189q161 0 161 189v215q0 188 -161 188q-164 0 -164 -188v-215z" />
<glyph unicode="&#x44f;" horiz-adv-x="1024" d="M98 111q0 24 17 73q46 97 145 256q-151 67 -151 279v51q0 59 19.5 110t59.5 94t111.5 68t165.5 25h283q57 0 97 -41t40 -98v-807q0 -57 -40 -97t-97 -40q-58 0 -98 40t-40 97v287h-88q-21 -36 -46.5 -85.5t-42 -84.5t-43.5 -93.5t-36 -78.5q-28 -82 -125 -82 q-54 0 -92.5 35t-38.5 92zM379 702q0 -35 26 -60.5t80 -25.5h125v224h-131q-52 0 -76 -25.5t-24 -60.5v-52z" />
<glyph unicode="&#x451;" horiz-adv-x="1091" d="M104 436v191q0 73 16 139t50.5 123t84.5 98.5t122.5 65.5t159.5 24q112 0 196.5 -35t134 -97.5t73.5 -141t24 -172.5v-84q0 -42 -28 -70t-67 -28h-489v-41q0 -95 43.5 -147t130.5 -52q79 0 156 22q12 4 37 14.5t40 14.5t33 4q46 0 72.5 -29.5t26.5 -76.5q0 -78 -119 -129 q-113 -41 -264 -41q-93 0 -167 24t-123.5 64.5t-82 98t-46.5 122.5t-14 139zM199 1382q0 59 39.5 99.5t97.5 40.5t98.5 -40.5t40.5 -99.5q0 -58 -40 -97.5t-99 -39.5q-58 0 -97.5 39.5t-39.5 97.5zM381 653h317v27q0 90 -37 136t-118 46t-121.5 -47t-40.5 -135v-27z M588 1382q0 59 39.5 99.5t97.5 40.5t98.5 -40.5t40.5 -99.5q0 -58 -40 -97.5t-99 -39.5t-98 39.5t-39 97.5z" />
<glyph unicode="&#x452;" horiz-adv-x="1179" d="M14 1184q0 47 33.5 79.5t79.5 32.5h35v60q0 58 39 97.5t98 39.5q57 0 97 -39.5t40 -97.5v-60h158q47 0 80 -32.5t33 -79.5t-33 -81t-80 -34h-158v-143q105 65 248 65q192 0 276 -100t84 -289v-432q0 -244 -79 -371q-42 -64 -102.5 -104.5t-133.5 -40.5q-65 0 -105 36 t-40 87q0 21 5.5 38.5t18.5 33t23 24.5t31 25.5t30 23.5q38 29 57 74.5t19 128.5v446q0 160 -160 160q-45 0 -91.5 -19.5t-80.5 -52.5v-540q0 -57 -40 -97t-97 -40q-58 0 -97.5 40t-39.5 97v950h-35q-46 0 -79.5 34t-33.5 81z" />
<glyph unicode="&#x453;" horiz-adv-x="1028" d="M135 121v809q0 57 40.5 97t96.5 40h502q48 0 83.5 -34.5t35.5 -84.5t-35.5 -84.5t-83.5 -34.5h-362v-708q0 -57 -41 -97t-99 -40q-56 0 -96.5 40t-40.5 97zM399 1309q0 20 21 71l98 197q31 74 107 74q53 0 80.5 -32t27.5 -79q0 -34 -31 -86l-104 -170q-24 -38 -47 -54 t-59 -16q-42 0 -67.5 27.5t-25.5 67.5z" />
<glyph unicode="&#x454;" horiz-adv-x="980" d="M104 432v193q0 92 26 171.5t77 142t136 98.5t194 36q166 0 313 -69q41 -15 57 -51t2 -81q-12 -46 -51 -67t-82 -6q-46 20 -71.5 30t-70 19.5t-91.5 9.5q-162 0 -162 -182v-27h213q43 0 73.5 -30.5t30.5 -71.5q0 -43 -30 -74t-74 -31h-213v-41q0 -93 42 -143.5t128 -50.5 q68 0 115 12t114 39q41 15 80 -6.5t51 -65.5q13 -44 -2.5 -79t-54.5 -54q-147 -69 -319 -69q-115 0 -200.5 36t-134.5 99.5t-72.5 141.5t-23.5 171z" />
<glyph unicode="&#x455;" horiz-adv-x="985" d="M106 178q14 49 59 69.5t91 4.5q55 -21 99 -30t118 -9q77 0 120.5 27t43.5 73q0 30 -15 50.5t-46.5 33t-61.5 19.5t-80.5 17t-81.5 18q-53 13 -92.5 31.5t-76 51t-55.5 86t-19 125.5q0 157 109.5 244.5t273.5 87.5q156 0 286 -45q46 -17 67 -58t7 -87q-15 -45 -57.5 -67 t-87.5 -9q-118 41 -201 41q-68 0 -103.5 -25t-35.5 -63q0 -23 10.5 -40.5t24 -28t42 -20t49.5 -14t61.5 -13t63.5 -13.5q47 -10 83 -22t75.5 -35.5t64.5 -55t41.5 -81.5t16.5 -115q0 -88 -36 -155t-97.5 -106t-136.5 -58t-160 -19q-170 0 -297 43q-43 15 -61.5 59t-4.5 88z " />
<glyph unicode="&#x456;" horiz-adv-x="548" d="M117 1368q0 66 45 112t110 46q66 0 112 -46t46 -112q0 -65 -46 -110.5t-112 -45.5q-64 0 -109.5 45.5t-45.5 110.5zM135 125v813q0 57 40.5 98t96.5 41q58 0 99 -41t41 -98v-813q0 -57 -41 -97t-99 -40q-56 0 -96.5 40t-40.5 97z" />
<glyph unicode="&#x457;" horiz-adv-x="548" d="M-55 1382q0 59 39.5 99.5t97.5 40.5t98.5 -40.5t40.5 -99.5q0 -58 -40 -97.5t-99 -39.5q-58 0 -97.5 39.5t-39.5 97.5zM135 125v813q0 57 40.5 98t96.5 41q58 0 99 -41t41 -98v-813q0 -57 -41 -97t-99 -40q-56 0 -96.5 40t-40.5 97zM334 1382q0 59 39.5 99.5t97.5 40.5 t98.5 -40.5t40.5 -99.5q0 -58 -40 -97.5t-99 -39.5t-98 39.5t-39 97.5z" />
<glyph unicode="&#x458;" horiz-adv-x="528" d="M-133 -260q0 47 30.5 77t84.5 36q80 8 116.5 53t36.5 147v883q0 58 40 98.5t97 40.5q61 0 100.5 -41.5t39.5 -97.5v-864q0 -218 -107 -332.5t-323 -114.5q-54 0 -84.5 33t-30.5 82zM117 1366q0 66 45 112t110 46q66 0 112 -46t46 -112q0 -64 -46 -109t-112 -45 q-65 0 -110 45t-45 109z" />
<glyph unicode="&#x459;" horiz-adv-x="1681" d="M31 117q0 37 22.5 74t54.5 87t48 105q22 65 29.5 151.5t7.5 227.5v178q0 54 38.5 90.5t94.5 36.5h583q54 0 92.5 -36.5t38.5 -90.5v-266h162q168 0 271.5 -73.5t103.5 -223.5v-74q0 -136 -90.5 -219.5t-274.5 -83.5h-309q-57 0 -98 38t-41 95v696h-293v-129 q0 -164 -26.5 -313t-77.5 -252q-79 -155 -197 -155q-59 0 -99 39.5t-40 97.5zM1040 242h170q50 0 70 21t20 59v36q0 34 -25 55t-75 21h-160v-192z" />
<glyph unicode="&#x45a;" horiz-adv-x="1628" d="M135 121v811q0 57 41 99t96 42q58 0 98 -41.5t40 -99.5v-260h303v260q0 58 39.5 99.5t97.5 41.5t98.5 -41.5t40.5 -99.5v-260h160q168 0 271.5 -73.5t103.5 -223.5v-74q0 -136 -90 -219.5t-275 -83.5h-309q-57 0 -97 41t-40 96v299h-303v-313q0 -59 -40 -99t-98 -40 q-56 0 -96.5 40.5t-40.5 98.5zM989 240h168q50 0 70 20.5t20 58.5v37q0 35 -24.5 56.5t-75.5 21.5h-158v-194z" />
<glyph unicode="&#x45b;" horiz-adv-x="1169" d="M16 1184q0 46 33 79t80 33h33v62q0 56 40.5 96.5t98.5 40.5q57 0 97 -40.5t40 -96.5v-62h158q46 0 79.5 -33t33.5 -79t-33.5 -80.5t-79.5 -34.5h-158v-145q98 67 246 67q186 0 274 -98q86 -96 86 -291v-481q0 -59 -39.5 -99t-97.5 -40q-59 0 -99 40t-40 99v450 q0 92 -47 129q-41 33 -113 33q-43 0 -89.5 -20t-80.5 -54v-538q0 -58 -40 -98.5t-97 -40.5q-59 0 -99 40t-40 99v948h-33q-47 0 -80 34.5t-33 80.5z" />
<glyph unicode="&#x45c;" horiz-adv-x="999" d="M135 119v813q0 58 41 97.5t100 39.5q56 0 97 -39.5t41 -97.5v-283h82l213 348q42 76 120 76q56 0 97 -39.5t41 -95.5q0 -34 -23 -72l-213 -336q108 -156 217 -344q19 -32 19 -71q0 -57 -39.5 -95t-96.5 -38q-79 0 -120 73q-99 179 -213 351h-84v-287q0 -57 -41 -97 t-97 -40q-59 0 -100 40t-41 97zM434 1309q0 20 21 71l98 197q31 74 106 74q53 0 81 -32t28 -79q0 -34 -31 -86l-104 -170q-24 -38 -47.5 -54t-59.5 -16q-41 0 -66.5 27.5t-25.5 67.5z" />
<glyph unicode="&#x45e;" horiz-adv-x="1011" d="M33 -240q0 50 31 87.5t92 43.5q74 5 131.5 36.5t109.5 115.5q-211 518 -317 866q-6 21 -6 43q0 56 41.5 90.5t97.5 34.5q39 0 71.5 -24.5t45.5 -69.5q100 -332 198 -598l189 600q13 46 48 69t79 23q54 0 94.5 -37t40.5 -94q0 -30 -10 -53l-260 -741q-30 -86 -61 -155 t-79 -141.5t-102.5 -120.5t-131 -79t-165.5 -31q-62 0 -99.5 40t-37.5 95zM203 1487q0 48 41 78q26 20 63 20q54 0 82 -47q64 -108 146 -108q25 0 45 6t48.5 31.5t55.5 70.5q33 47 84 47q36 0 57 -16q45 -30 45 -82q0 -28 -16 -55q-126 -205 -319 -205t-316 205 q-16 32 -16 55z" />
<glyph unicode="&#x45f;" horiz-adv-x="1130" d="M139 127v807q0 61 35 100t102 39t103.5 -39.5t36.5 -99.5v-692h299v692q0 61 35 100t102 39q68 0 104.5 -39.5t36.5 -99.5v-807q0 -58 -37.5 -92.5t-93.5 -34.5h-160v-135q0 -59 -35.5 -98t-101.5 -39t-101.5 39t-35.5 98v135h-158q-56 0 -93.5 34.5t-37.5 92.5z" />
</font>
</defs>
</svg>
