<?xml version="1.0" standalone="no"?>
<!DOCTYPE svg PUBLIC "-//W3C//DTD SVG 1.1//EN" "http://www.w3.org/Graphics/SVG/1.1/DTD/svg11.dtd" >
<svg xmlns="http://www.w3.org/2000/svg">
<metadata></metadata>
<defs>
<font id="op_chevin_prothin_italic" horiz-adv-x="389" >
<font-face units-per-em="2048" ascent="1536" descent="-512" />
<missing-glyph horiz-adv-x="577" />
<glyph unicode="fi" horiz-adv-x="835" d="M113 29q0 12 6 39l166 854h-76q-17 0 -28 11t-11 28q0 18 12.5 30.5t30.5 12.5h88l39 202q26 137 104.5 207t198.5 70h55q17 0 28 -11t11 -28q0 -18 -12.5 -30.5t-30.5 -12.5h-51q-183 0 -223 -209l-37 -188h152q17 0 27.5 -11t10.5 -28q0 -18 -12.5 -30.5t-30.5 -12.5 h-163l-172 -893q-8 -41 -41 -41q-18 0 -29.5 10.5t-11.5 30.5zM547 29q0 12 6 39l176 907q3 19 15 30t28 11q18 0 29.5 -10.5t11.5 -28.5q0 -7 -4 -27l-180 -921q-8 -41 -41 -41q-18 0 -29.5 10.5t-11.5 30.5zM782 1366q0 28 19 47t47 19t46.5 -19t18.5 -47t-18.5 -45.5 t-46.5 -17.5t-47 18t-19 45z" />
<glyph unicode="fl" horiz-adv-x="825" d="M113 29q0 12 6 39l166 854h-76q-17 0 -28 11t-11 28q0 18 12.5 30.5t30.5 12.5h88l39 202q26 137 104.5 207t198.5 70h55q17 0 28 -11t11 -28q0 -18 -12.5 -30.5t-30.5 -12.5h-51q-183 0 -223 -209l-37 -188h152q17 0 27.5 -11t10.5 -28q0 -18 -12.5 -30.5t-30.5 -12.5 h-163l-172 -893q-8 -41 -41 -41q-18 0 -29.5 10.5t-11.5 30.5zM557.5 94.5q-4.5 38.5 11.5 138.5l234 1209q3 19 15 30t28 11q18 0 29.5 -10.5t11.5 -28.5q0 -7 -4 -27l-238 -1222q-10 -57 -3 -84.5t38 -47.5q34 -20 27 -47q-7 -28 -45 -28q-40 0 -78 41q-22 27 -26.5 65.5z " />
<glyph unicode=" "  horiz-adv-x="577" />
<glyph unicode="&#x09;" horiz-adv-x="577" />
<glyph unicode="&#xa0;" horiz-adv-x="577" />
<glyph unicode="!" horiz-adv-x="501" d="M123 63q0 34 25.5 58t60.5 24q34 0 58 -24t24 -58q0 -35 -24 -60.5t-58 -25.5q-35 0 -60.5 25.5t-25.5 60.5zM236 414l192 1042q3 24 18.5 40.5t40.5 16.5q26 0 37 -18.5t6 -42.5l-213 -1046q-10 -44 -49 -44q-19 0 -27.5 14.5t-4.5 37.5z" />
<glyph unicode="&#x22;" horiz-adv-x="595" d="M283 1171q0 9 4 37l37 248q8 57 57 57q21 0 33 -13.5t12 -31.5q0 -22 -6 -43l-58 -249q-9 -43 -45 -43q-34 0 -34 38zM567 1171q0 9 4 37l37 248q3 24 17.5 40.5t40.5 16.5q21 0 33 -13.5t12 -31.5q0 -22 -6 -43l-58 -249q-9 -43 -45 -43q-35 0 -35 38z" />
<glyph unicode="#" horiz-adv-x="1519" d="M100 455q0 18 12.5 29.5t32.5 11.5h301l164 493h-272q-41 0 -41 39q0 20 12 31.5t31 11.5h299l135 406q12 36 45 36q37 0 37 -40q0 -11 -6 -29l-125 -373h434l135 406q12 36 45 36q37 0 37 -40q0 -11 -6 -29l-125 -373h283q39 0 39 -39q0 -19 -12.5 -31t-32.5 -12h-303 l-166 -493h278q18 0 28.5 -10.5t10.5 -26.5q0 -19 -12 -32t-29 -13h-303l-131 -396q-12 -36 -45 -36q-37 0 -37 41q0 10 6 28l121 363h-434l-131 -396q-12 -36 -45 -36q-37 0 -37 41q0 10 6 28l121 363h-279q-20 0 -30.5 11.5t-10.5 29.5zM532 496h435l163 493h-432z" />
<glyph unicode="$" horiz-adv-x="1095" d="M74 86q0 18 12.5 31.5t30.5 13.5q8 0 20.5 -4.5t36.5 -14.5t41 -16q101 -37 219 -37q232 0 362 92t130 246q0 33 -6 62.5t-15.5 52.5t-27 45t-33 37.5t-41.5 32t-45.5 27t-51 24t-52.5 21.5t-56 21t-55 21q-53 20 -92.5 39.5t-81.5 51t-68.5 68.5t-43.5 92t-17 122 q0 115 64.5 203t167.5 135.5t230 56.5l33 168q3 18 15 28.5t26 10.5q17 0 28 -10t11 -27q0 -8 -4 -28l-29 -140q146 -6 269 -61q24 -12 24 -35q0 -20 -11.5 -33.5t-31.5 -13.5q-8 0 -18.5 4t-27.5 11t-30 12q-107 35 -198 35q-189 0 -310.5 -89t-121.5 -227 q0 -56 17.5 -101.5t43 -76t70.5 -58.5t81.5 -44t94.5 -37q149 -54 208 -90q147 -88 167 -249q4 -29 4 -61q0 -189 -144 -297.5t-381 -119.5l-30 -175q-3 -17 -15.5 -26.5t-27.5 -9.5q-16 0 -27.5 9t-11.5 27q0 15 6 39l25 133q-168 5 -308 72q-24 12 -24 37z" />
<glyph unicode="%" horiz-adv-x="1110" d="M192 14.5q-4 17.5 5 30.5l825 1446q9 15 25.5 19.5t31.5 -3.5q14 -9 18.5 -25.5t-3.5 -31.5l-828 -1446q-8 -14 -24 -18.5t-31 4.5q-15 7 -19 24.5zM289 1110q-4 51 10 102l18 88q51 213 254 213q55 0 94 -23.5t55 -61t20 -84.5t-9 -95l-24 -110q-23 -98 -79.5 -155.5 t-166.5 -57.5q-57 0 -97 25.5t-55.5 66.5t-19.5 92zM371 1196q-21 -93 6.5 -146t85.5 -53q79 0 116 41t54 119l24 111q19 79 -6.5 126.5t-83.5 47.5q-81 0 -120 -42t-56 -118zM554 168q-4 51 9 102l21 88q47 211 254 211q55 0 93.5 -23t54.5 -60.5t20 -84t-9 -94.5l-26 -110 q-23 -99 -79 -156t-165 -57q-57 0 -97 25.5t-56 66.5t-20 92zM637 254q-21 -93 6.5 -146t85.5 -53q79 0 114.5 40.5t55.5 119.5l25 111q18 77 -8 124.5t-82 47.5q-81 0 -120.5 -41.5t-56.5 -116.5z" />
<glyph unicode="&#x26;" horiz-adv-x="1251" d="M106 365q0 68 26.5 132.5t63.5 111t98 96.5t106.5 79.5t113.5 69.5q-76 126 -100.5 193.5t-24.5 144.5q0 95 52.5 169.5t134 113t172.5 38.5q89 0 167 -38q52 -25 83.5 -58t31.5 -63q0 -37 -41 -37q-14 0 -29.5 11t-38.5 31.5t-44 33.5q-61 37 -140 37 q-97 0 -179.5 -69.5t-82.5 -168.5q0 -62 24 -125t81 -156l372 -614q117 156 164 401q6 35 41 35q18 0 30.5 -11t12.5 -30q0 -40 -26 -127q-38 -118 -75.5 -194.5t-99.5 -151.5l97 -160q14 -24 14 -39q0 -17 -12.5 -28.5t-30.5 -11.5q-25 0 -43 30l-86 144 q-185 -172 -442 -172q-97 0 -172.5 30t-122.5 82.5t-71 121t-24 149.5zM197 365q0 -136 74.5 -217.5t224.5 -81.5q236 0 397 161l-336 557q-360 -192 -360 -419z" />
<glyph unicode="'" horiz-adv-x="311" d="M283 1171q0 9 4 37l37 248q8 57 57 57q21 0 33 -13.5t12 -31.5q0 -22 -6 -43l-58 -249q-9 -43 -45 -43q-34 0 -34 38z" />
<glyph unicode="(" horiz-adv-x="512" d="M143 455q-21 709 398 1204q6 7 14.5 11.5t22.5 4t26 -11.5q11 -9 13 -24t-11 -35q-395 -474 -377 -1141q12 -371 144 -768q8 -23 -0.5 -42.5t-20.5 -23.5q-45 -14 -57 29q-139 397 -152 797z" />
<glyph unicode=")" horiz-adv-x="512" d="M17 -346.5q-2 15.5 10 33.5q394 473 376 1142q-10 366 -143 768q-8 22 0 41.5t21 24.5q19 6 35 -1.5t22 -27.5q138 -398 151 -796q21 -711 -397 -1205q-8 -12 -24.5 -15.5t-38.5 11.5q-10 9 -12 24.5z" />
<glyph unicode="*" horiz-adv-x="974" d="M281 1233q7 24 26 32t39 -1l277 -101l-11 295q-2 22 12 37.5t40 15.5q25 0 38 -15.5t11 -37.5l-11 -295l279 101q18 9 37.5 1t28.5 -32q7 -25 -3.5 -42t-31.5 -24l-285 -80l182 -233q13 -14 11.5 -36t-21.5 -36q-22 -14 -41.5 -9.5t-30.5 22.5l-163 245l-166 -245 q-11 -18 -30.5 -22.5t-41.5 9.5q-20 14 -21.5 36t11.5 36l182 233l-285 80q-21 7 -30.5 24t-1.5 42z" />
<glyph unicode="+" horiz-adv-x="1062" d="M178 549q0 18 12.5 30.5t30.5 12.5h324l63 328q3 19 15 30t28 11q18 0 29.5 -10.5t11.5 -28.5q0 -7 -4 -27l-59 -303h313q17 0 28 -11t11 -28q0 -18 -12.5 -30.5t-30.5 -12.5h-326l-63 -328q-8 -41 -41 -41q-18 0 -29.5 10.5t-11.5 30.5q0 12 6 39l55 289h-311 q-17 0 -28 11t-11 28z" />
<glyph unicode="," horiz-adv-x="436" d="M59 -162q1 14 14.5 27t29 24t30.5 34t19 54q-35 5 -56.5 32.5t-17.5 64.5q3 36 30.5 57.5t63.5 18.5q40 -6 59 -40.5t13 -86.5q-11 -102 -65.5 -159.5t-96.5 -51.5q-11 0 -17.5 8t-5.5 18z" />
<glyph unicode="-" horiz-adv-x="1028" d="M238 598q0 18 12.5 30.5t30.5 12.5h559q17 0 28 -11t11 -28q0 -18 -12.5 -30.5t-30.5 -12.5h-560q-17 0 -27.5 11t-10.5 28z" />
<glyph unicode="." horiz-adv-x="442" d="M76 61q0 35 24.5 59.5t59.5 24.5t59.5 -24.5t24.5 -59.5t-24.5 -59.5t-59.5 -24.5t-59.5 24.5t-24.5 59.5z" />
<glyph unicode="/" horiz-adv-x="546" d="M-109 -113q0 11 11 33l782 1692q16 37 43 37q20 0 31.5 -12.5t11.5 -32.5q0 -13 -10 -33l-783 -1692q-16 -37 -43 -37q-20 0 -31.5 12.5t-11.5 32.5z" />
<glyph unicode="0" horiz-adv-x="1146" d="M158 412q0 93 24 211l78 383q18 92 44 165t67.5 138.5t96.5 109t133 69t175 25.5q98 0 171 -32.5t116.5 -91.5t64.5 -135t21 -169q0 -91 -25 -213l-77 -383q-18 -92 -43.5 -165t-66.5 -138.5t-95.5 -109t-131 -69t-171.5 -25.5q-103 0 -178.5 34t-118.5 94.5t-63.5 135.5 t-20.5 166zM246 414q0 -160 71 -255t203 -96q68 0 124 12t97 32.5t74.5 55t56 70.5t42 89.5t31.5 103t26 117.5l71 354q19 105 19 186q0 164 -72.5 256.5t-216.5 92.5q-68 0 -124 -15t-96 -38t-73 -62t-53.5 -75.5t-39 -91t-28.5 -96.5t-22 -102l-72 -354q-18 -99 -18 -184z " />
<glyph unicode="1" horiz-adv-x="1146" d="M115 39q0 18 12.5 30.5t30.5 12.5h389l250 1298l-469 -303q-22 -14 -39 -14q-16 0 -27.5 10.5t-11.5 28.5q0 26 24 41l543 350q27 18 43 18q39 0 39 -38q0 -7 -4 -31l-262 -1360h235q17 0 28 -11t11 -28q0 -18 -12.5 -30.5t-30.5 -12.5h-710q-17 0 -28 11t-11 28z" />
<glyph unicode="2" horiz-adv-x="1146" d="M139 35q0 78 55 193t175 223q71 65 246 187.5t257 203.5q148 148 148 284q0 148 -78.5 226t-208.5 78q-121 0 -221 -54q-23 -11 -46 -26.5t-36.5 -23t-26.5 -7.5q-19 0 -30 12.5t-11 30.5q0 23 19 37q163 114 352 114q165 0 269 -101.5t104 -285.5q0 -39 -9 -77t-21 -70 t-36.5 -67.5t-44 -61t-54.5 -59t-57 -53t-64 -51t-62.5 -46t-64 -45.5t-58.5 -41q-203 -145 -287 -242.5t-119 -230.5h670q19 0 31 -12q10 -10 10 -27q0 -18 -13 -30.5t-34 -12.5h-709q-45 0 -45 35z" />
<glyph unicode="3" horiz-adv-x="1146" d="M104 154q0 18 13.5 30.5t32.5 12.5q12 0 23.5 -8.5t30.5 -27t36 -30.5q89 -65 241 -65q105 0 188.5 30.5t134 83t77 116.5t26.5 136q0 63 -19.5 113.5t-51.5 83t-77 54.5t-94 31t-104 9h-55q-20 0 -31.5 13t-11.5 30q0 18 12 30.5t33 12.5h94q48 0 98.5 13t99 40.5 t86.5 65.5t61.5 94t23.5 121q0 55 -17 104.5t-51.5 91.5t-94 66.5t-136.5 24.5q-137 0 -230 -56q-10 -6 -27 -17t-25 -16t-19 -9.5t-21 -4.5q-39 0 -39 39q0 36 76 82q116 65 270 65q105 0 184.5 -32t125 -86.5t68 -118t22.5 -133.5q0 -139 -79 -234.5t-196 -144.5 q211 -83 211 -332q0 -90 -34 -171t-97.5 -143.5t-163 -99t-221.5 -36.5q-188 0 -301 84q-72 52 -72 88z" />
<glyph unicode="4" horiz-adv-x="1146" d="M129 369q0 14 12 32l699 1092q14 20 37 20q20 0 31.5 -12t11.5 -31q0 -10 -7 -24l-663 -1034h485l74 379q3 19 16 29.5t29 10.5q18 0 29.5 -10t11.5 -28q0 -7 -4 -31l-68 -350h152q17 0 28 -11t11 -26q0 -18 -12.5 -30.5t-30.5 -12.5h-162l-59 -309q-3 -19 -16 -30 t-29 -11q-18 0 -29.5 10.5t-11.5 30.5q0 13 6 40l51 269h-553q-17 0 -28 10t-11 27z" />
<glyph unicode="5" horiz-adv-x="1146" d="M150 111q0 19 11.5 32t28.5 13q12 0 22.5 -5.5t28 -18.5t29.5 -21q69 -43 191 -43q111 0 200.5 38t145 102t84.5 143.5t29 166.5q0 299 -275 299q-56 0 -105.5 -16.5t-78 -35.5t-59 -35.5t-52.5 -16.5q-39 0 -39 41q0 12 6 39l148 659q4 20 17.5 31.5t29.5 11.5h555 q17 0 28 -11t11 -28q0 -18 -12.5 -30.5t-30.5 -12.5h-520l-133 -596q105 78 241 78q165 0 260 -91t95 -286q0 -103 -35 -198t-101 -171t-172 -121.5t-237 -45.5q-141 0 -238 51q-73 41 -73 78z" />
<glyph unicode="6" horiz-adv-x="1146" d="M160 526q6 117 50 236t111 219.5t157.5 197t182 171.5t191.5 141q11 8 29 8q17 -2 29 -14t12 -29q-4 -24 -23 -37q-183 -119 -341 -278.5t-241 -339.5q169 106 338 98q167 -8 269 -127t90 -326q-7 -145 -73 -253t-173 -161.5t-238 -47.5q-177 9 -280 152t-90 390z M246 522q-11 -219 71.5 -334.5t217.5 -121.5q164 -8 274 96.5t119 290.5q10 172 -69 264t-208 98q-191 9 -379 -139q-23 -81 -26 -154z" />
<glyph unicode="7" horiz-adv-x="1146" d="M301 20q0 16 8 27l797 1366h-729q-18 0 -29 8q-12 10 -12 29t13 32t34 13h799q41 0 41 -39q0 -16 -15 -39l-825 -1413q-11 -22 -39 -22q-20 0 -31.5 10.5t-11.5 27.5z" />
<glyph unicode="8" horiz-adv-x="1146" d="M125 344q0 69 26 130t61.5 101.5t91 79t95 57.5t94.5 43.5t70 32.5q-4 2 -29 17.5t-33.5 21t-33 22.5t-35.5 27.5t-32 30.5t-31 36.5t-25 41t-21.5 48.5t-12 54.5t-5.5 63.5q0 155 125 258.5t307 103.5q76 0 142 -20.5t119 -61t83.5 -109.5t30.5 -159q0 -43 -11.5 -82.5 t-28.5 -69.5t-45 -59t-52.5 -48t-59.5 -40t-57 -32t-55.5 -26.5t-44.5 -21.5q5 -3 49 -27.5t67 -39t64 -50t63 -69.5t40 -88t18 -115q0 -183 -140 -298t-378 -115q-182 0 -299 103t-117 259zM209 344q0 -115 90 -198t242 -83q108 0 192.5 27t136.5 74t78.5 105.5t26.5 125.5 q0 32 -5.5 61t-20 54.5t-26.5 45t-38 41.5t-40 34.5t-48.5 32t-47 27t-50.5 27t-46 23.5q-44 -17 -66.5 -26.5t-66.5 -28.5t-68.5 -32.5t-62 -36t-59.5 -41.5t-48 -46.5t-40 -54.5t-23.5 -61t-9.5 -70zM389 1151q0 -28 6 -54t13 -46.5t23.5 -43t26.5 -36t34.5 -33t34 -27.5 t39 -25t35 -20t36.5 -19l31 -16q10 5 43.5 19t55.5 23.5t58 28.5t61 36t54 42.5t46.5 51.5t29.5 60t12 71q0 131 -79.5 200t-211.5 69q-153 0 -250.5 -85.5t-97.5 -195.5z" />
<glyph unicode="9" horiz-adv-x="1146" d="M307 1022q5 146 68.5 255t169 164.5t237.5 51.5q177 -6 282.5 -148t98.5 -389q-4 -117 -46.5 -236.5t-107.5 -221t-154 -199.5t-179 -174.5t-189 -144.5q-12 -9 -28 -9q-18 2 -29.5 13.5t-11.5 29.5q0 24 22 37q180 123 335 285.5t235 343.5q-164 -109 -338 -105 q-166 6 -269 123t-96 324zM393 1018q-7 -173 73.5 -263.5t209.5 -95.5q191 -6 377 146q21 77 24 153q7 219 -78 333.5t-221 119.5q-162 6 -270.5 -101t-114.5 -292z" />
<glyph unicode=":" horiz-adv-x="442" d="M76 63q0 34 25.5 58t60.5 24q34 0 58 -24t24 -58q0 -35 -24 -60.5t-58 -25.5q-35 0 -60.5 25.5t-25.5 60.5zM250 930q0 34 25.5 58t60.5 24q34 0 58 -24t24 -58q0 -35 -24 -60.5t-58 -25.5q-35 0 -60.5 25.5t-25.5 60.5z" />
<glyph unicode=";" horiz-adv-x="442" d="M59 -162q1 14 14.5 27.5t29 24.5t30.5 34t19 53q-35 5 -56.5 32.5t-17.5 64.5q4 35 31.5 57t62.5 19q41 -6 60.5 -40.5t13.5 -86.5q-12 -102 -66.5 -159.5t-97.5 -53.5q-11 2 -17.5 10t-5.5 18zM250 930q0 34 25.5 58t60.5 24q34 0 58 -24t24 -58q0 -35 -24 -60.5 t-58 -25.5q-35 0 -60.5 25.5t-25.5 60.5z" />
<glyph unicode="&#x3c;" horiz-adv-x="1085" d="M168 563q3 26 29 37l823 397q17 8 33 3.5t22 -19.5t-1.5 -31.5t-24.5 -23.5l-770 -371l624 -371q40 -22 21 -55q-10 -14 -27.5 -15.5t-30.5 7.5l-678 401q-26 17 -20 41z" />
<glyph unicode="=" horiz-adv-x="1085" d="M188 385q0 18 12.5 30.5t30.5 12.5h705q17 0 28 -11t11 -28q0 -18 -12.5 -30.5t-30.5 -12.5h-705q-17 0 -28 11t-11 28zM252 711q0 18 12.5 30.5t30.5 12.5h704q17 0 28 -11t11 -28q0 -18 -12.5 -30.5t-30.5 -12.5h-704q-17 0 -28 11t-11 28z" />
<glyph unicode="&#x3e;" horiz-adv-x="1085" d="M152 135q-6 15 1.5 31.5t24.5 23.5l770 373l-624 371q-16 9 -22.5 21.5t1.5 31.5q19 31 57 10l678 -403q26 -17 23 -41q-6 -23 -31 -37l-823 -395q-17 -8 -33 -3.5t-22 17.5z" />
<glyph unicode="?" horiz-adv-x="993" d="M317 1354q0 41 105 94q125 61 270 61q66 0 125.5 -21.5t108 -63t77.5 -111t29 -156.5q0 -42 -8.5 -80t-21 -68.5t-37 -63t-44.5 -55t-57.5 -53.5t-62 -50t-70.5 -52q-60 -44 -98.5 -81.5t-62 -76t-35.5 -72t-23 -83.5q-4 -17 -16.5 -26t-26.5 -9q-21 0 -33 14.5t-8 38.5 q21 110 75 189t177 170q75 56 116.5 91t80 79t54 88.5t15.5 99.5q0 131 -74 200.5t-182 69.5q-139 0 -244 -71l-14 -10.5t-14 -10l-12 -7.5t-12 -7t-10.5 -5t-12 -4t-11.5 -1q-43 0 -43 43zM332 63q0 34 25.5 58t60.5 24q34 0 58 -24t24 -58q0 -35 -24 -60.5t-58 -25.5 q-35 0 -60.5 25.5t-25.5 60.5z" />
<glyph unicode="@" horiz-adv-x="1648" d="M184 618q0 114 28.5 225t88 212t144 177.5t204.5 121.5t260 45q151 0 272 -35.5t199.5 -94t131 -139t74.5 -166t22 -178.5q0 -122 -46 -229.5t-130.5 -174.5t-186.5 -67q-151 0 -192 156q-109 -152 -277 -152q-54 0 -96 22.5t-66.5 60t-36.5 83t-12 95.5q0 73 25 150 t70.5 144t119 109.5t160.5 42.5q117 0 227 -39q38 -12 29 -57l-43 -191q-27 -122 -27 -182q0 -158 119 -158q112 0 194.5 112.5t82.5 274.5q0 80 -18 152t-62.5 142.5t-112 121.5t-175.5 82t-245 31q-124 0 -230 -40t-180.5 -108t-127 -157.5t-78 -189t-25.5 -202.5 q0 -98 19 -183.5t63 -163t111 -132t169 -87t230 -32.5q86 0 213 25q13 2 28 6t24.5 6t15.5 2q18 0 29.5 -13.5t11.5 -31.5q0 -33 -35 -41q-144 -36 -287 -36q-144 0 -260 37.5t-192.5 100.5t-128 151.5t-73.5 185.5t-22 206zM649 580q0 -82 33.5 -128t93.5 -46 q111 0 185 82.5t100 199.5l47 230q-83 26 -168 26t-153.5 -56t-103 -138.5t-34.5 -169.5z" />
<glyph unicode="A" horiz-adv-x="1120" d="M-8 37q110 271 307 662.5t401 756.5q30 53 64 53q20 0 30 -10.5t17 -42.5q161 -727 219 -1423q1 -5 1 -9q0 -19 -11 -30q-13 -14 -33 -14q-38 0 -41 38q-7 91 -39 365h-667q-72 -153 -168 -371q-14 -32 -47 -32q-22 0 -32 16q-5 9 -5 20q0 10 4 21zM281 469h616 q-59 448 -156 891q-257 -459 -460 -891z" />
<glyph unicode="B" horiz-adv-x="1239" d="M129 41q0 13 8 53l262 1358q10 43 47 43h340q110 -1 193 -27.5t131 -73t71 -103.5t23 -124q0 -39 -6 -82l-10 -57q-38 -194 -250 -266q199 -70 199 -279q0 -15 -4 -55l-9 -57q-53 -371 -516 -371h-438q-18 0 -29.5 10.5t-11.5 30.5zM223 84h385q387 0 432 301l9 55 q2 14 2 43q0 234 -365 234h-340zM362 799h324q169 0 281 61t137 193l8 43q6 30 6 71q0 48 -15 88.5t-50.5 77.5t-103.5 58.5t-163 21.5h-307z" />
<glyph unicode="C" horiz-adv-x="1099" d="M190 424q0 89 19 197l55 305q26 142 71.5 247t117 182.5t175.5 116.5t242 39q116 0 215 -47q45 -22 61.5 -37.5t16.5 -31.5q0 -18 -13.5 -31.5t-31.5 -13.5q-8 0 -15 3t-12.5 7.5t-17 12t-24.5 13.5q-86 44 -179 44q-108 0 -192.5 -31t-138.5 -79t-94 -122t-61.5 -145 t-37.5 -162l-51 -287q-19 -108 -19 -182q0 -359 345 -359q125 0 253 72q19 11 40.5 26.5t33 22t23.5 6.5q19 0 31 -13.5t12 -31.5q0 -12 -9.5 -23.5t-20 -19t-38.5 -24.5q-157 -96 -325 -96q-118 0 -204 34.5t-134.5 97t-70.5 139.5t-22 171z" />
<glyph unicode="D" horiz-adv-x="1265" d="M129 41q0 13 8 53l262 1358q10 43 47 43h345q108 0 190.5 -30.5t132 -79t81 -116t43 -132.5t11.5 -138q0 -81 -20 -198l-47 -244q-109 -557 -633 -557h-379q-18 0 -29.5 10.5t-11.5 30.5zM223 82h326q111 0 200 29.5t146 75.5t99.5 114.5t65 134t38.5 146.5l49 254 q16 75 16 163q0 410 -372 410h-312z" />
<glyph unicode="E" horiz-adv-x="1073" d="M129 41q0 13 8 53l262 1358q10 43 47 43h701q19 0 31 -11t12 -30t-13.5 -30t-35.5 -11h-662l-121 -627h594q18 0 30.5 -10t12.5 -28q0 -19 -13.5 -31t-35.5 -12h-602l-121 -623h682q16 0 28.5 -10.5t12.5 -28.5t-13 -30.5t-34 -12.5h-729q-18 0 -29.5 10.5t-11.5 30.5z " />
<glyph unicode="F" horiz-adv-x="1021" d="M129 23q0 16 6 40l268 1387q3 19 16.5 31t29.5 12h681q17 0 30.5 -10.5t13.5 -28.5q0 -19 -13 -31t-35 -12h-643l-121 -625h533q17 0 30 -9.5t13 -26.5q0 -19 -13 -32t-36 -13h-543l-131 -682q-8 -41 -45 -41q-18 0 -29.5 10.5t-11.5 30.5z" />
<glyph unicode="G" horiz-adv-x="1208" d="M190 408q0 85 23 213l57 305q55 289 192 437t388 148q198 0 315 -137q11 -14 11 -28q0 -18 -13.5 -30.5t-32.5 -12.5q-13 0 -23 8t-28 27.5t-43 35.5q-80 56 -186 56q-212 0 -328 -126.5t-168 -394.5l-57 -305q-18 -105 -18 -203q0 -168 82 -253t231 -85q169 0 282 111.5 t158 333.5l27 133h-330q-16 0 -28.5 10.5t-12.5 28.5t13 30.5t34 12.5h377q41 0 41 -39q0 -15 -8 -51l-29 -141q-51 -247 -187.5 -378.5t-342.5 -131.5q-198 0 -297 111t-99 315z" />
<glyph unicode="H" horiz-adv-x="1312" d="M129 23q0 13 6 40l273 1407q3 19 16 30t29 11q18 0 29.5 -10t11.5 -28q0 -1 -5 -31l-129 -668h775l135 696q3 19 16 30t29 11q18 0 29.5 -10t11.5 -28q0 -7 -4 -31l-275 -1419q-3 -19 -16 -30t-29 -11q-18 0 -29.5 10.5t-11.5 30.5q0 13 6 40l121 629h-774l-129 -669 q-3 -19 -16 -30t-29 -11q-18 0 -29.5 10.5t-11.5 30.5z" />
<glyph unicode="I" horiz-adv-x="450" d="M129 23q0 13 6 40l273 1407q3 19 16 30t29 11q18 0 29.5 -10t11.5 -28q0 -1 -5 -31l-274 -1419q-3 -19 -16 -30t-29 -11q-18 0 -29.5 10.5t-11.5 30.5z" />
<glyph unicode="J" horiz-adv-x="841" d="M-31 37q0 16 11.5 29.5t29.5 13.5q5 0 22.5 -3.5t50 -7t73.5 -3.5q211 0 322 102.5t157 337.5l186 964q8 41 45 41q18 0 29.5 -10t11.5 -28q0 -7 -4 -31l-184 -953q-52 -263 -185 -386t-378 -123q-88 0 -154 14q-33 9 -33 43z" />
<glyph unicode="K" horiz-adv-x="1089" d="M129 23q0 13 6 40l273 1407q3 19 16 30t29 11q18 0 29.5 -10t11.5 -28q0 -1 -5 -31l-153 -791l842 844q16 16 34 16q16 0 28.5 -10.5t12.5 -27.5q0 -19 -14 -33l-610 -604q212 -408 356 -797q9 -24 -5.5 -40.5t-37.5 -16.5q-28 0 -39 28q-137 375 -338 762l-254 -252 l-96 -497q-3 -19 -16 -30t-29 -11q-18 0 -29.5 10.5t-11.5 30.5z" />
<glyph unicode="L" horiz-adv-x="1007" d="M129 41q0 14 6 41l271 1388q3 19 16 30t29 11q18 0 29.5 -10t11.5 -28q0 -1 -5 -31l-264 -1360h680q17 0 29 -10t12 -29q0 -18 -13 -30.5t-34 -12.5h-727q-18 0 -29.5 10.5t-11.5 30.5z" />
<glyph unicode="M" horiz-adv-x="1546" d="M129 23q0 13 6 40l273 1407q7 43 47 43q38 0 47 -40l282 -1098l713 1112q16 26 49 26q43 0 43 -40q0 -7 -4 -31l-274 -1419q-3 -19 -16 -30t-29 -11q-18 0 -29.5 10.5t-11.5 30.5q0 13 6 40l242 1246l-666 -1033q-17 -24 -41 -24q-31 0 -37 29l-266 1030l-248 -1288 q-3 -19 -16 -30t-29 -11q-18 0 -29.5 10.5t-11.5 30.5z" />
<glyph unicode="N" horiz-adv-x="1339" d="M129 18q0 5 4 25l275 1427q4 22 18 32.5t31 10.5q19 0 28.5 -8t18.5 -30l538 -1321l254 1316q3 20 15.5 31.5t29.5 11.5q18 0 29.5 -10t11.5 -28q0 -8 -6 -35l-272 -1417q-8 -41 -49 -41q-31 0 -45 34l-541 1321l-254 -1314q-3 -19 -16 -30t-29 -11q-41 0 -41 36z" />
<glyph unicode="O" horiz-adv-x="1232" d="M190 436q0 90 21 213l37 207q52 300 155 449q143 208 428 208q82 0 148 -24.5t109.5 -66.5t73 -100.5t42.5 -125t13 -141.5q0 -77 -19 -185l-45 -254q-48 -257 -123 -385q-144 -249 -455 -249q-104 0 -180 35t-120 98.5t-64.5 143t-20.5 177.5zM279 434q0 -170 73 -269 t221 -99q275 0 398 231q66 125 100 342l43 258q12 68 12 166q0 162 -75 264.5t-217 102.5q-249 0 -375 -191q-85 -128 -129 -401l-35 -215q-16 -109 -16 -189z" />
<glyph unicode="P" horiz-adv-x="1169" d="M129 23q0 13 6 40l268 1387q3 19 16.5 31t29.5 12h393q100 0 175 -28.5t119.5 -79.5t66.5 -115t22 -140q0 -51 -13 -118l-8 -41q-32 -166 -158 -255t-323 -89h-391l-117 -604q-3 -19 -16 -30t-29 -11q-18 0 -29.5 10.5t-11.5 30.5zM348 709h375q168 0 269 73t128 205 l8 41q11 64 11 102q0 125 -72.5 203t-224.5 78h-359z" />
<glyph unicode="Q" horiz-adv-x="1232" d="M190 436q0 90 21 213l37 207q52 300 155 449q143 208 428 208q82 0 148 -24.5t109.5 -66.5t73 -100.5t42.5 -125t13 -141.5q0 -77 -19 -185l-45 -254q-48 -257 -123 -385q-28 -48 -67 -94l104 -114q20 -23 20 -41t-11.5 -30.5t-31.5 -12.5q-18 0 -38 20l-105 121 q-129 -98 -326 -98q-104 0 -180 35t-120 98.5t-64.5 143t-20.5 177.5zM279 434q0 -170 73 -269t221 -99q166 0 271 79l-78 91q-14 17 -14 32t12 27t29 12q16 0 32 -16l80 -90q41 48 66 96q66 125 100 342l43 258q12 68 12 166q0 162 -75 264.5t-217 102.5q-249 0 -375 -191 q-85 -128 -129 -401l-35 -215q-16 -109 -16 -189z" />
<glyph unicode="R" horiz-adv-x="1210" d="M129 23q0 13 6 40l268 1387q3 19 16.5 31t29.5 12h382q101 0 177 -28.5t120 -79t65 -112t21 -134.5q0 -57 -12 -115l-8 -39q-31 -150 -136.5 -232t-262.5 -100q124 -301 227 -616q7 -23 -7 -39t-36 -16q-31 0 -39 30q-103 313 -238 637h-366l-121 -626q-3 -19 -16 -30 t-29 -11q-18 0 -29.5 10.5t-11.5 30.5zM352 731h357q165 0 269.5 69t131.5 204l8 38q8 44 8 97q0 56 -15.5 103t-48.5 86t-92 61t-139 22h-348z" />
<glyph unicode="S" horiz-adv-x="1107" d="M92 86q0 18 12.5 31.5t30.5 13.5q8 0 20.5 -4.5t36.5 -14.5t41 -16q101 -37 220 -37q232 0 361.5 92t129.5 246q0 33 -6 62.5t-15.5 52.5t-27 45t-33 37.5t-41.5 32t-45.5 27t-51 24t-52.5 21.5t-56 21t-55 21q-53 20 -92.5 39.5t-81.5 51t-68.5 68.5t-43.5 92t-17 122 q0 93 43 169.5t115.5 125.5t165 75.5t194.5 26.5q162 0 293 -61q25 -12 25 -35q0 -20 -11.5 -33.5t-31.5 -13.5q-8 0 -18.5 4t-27.5 11t-30 12q-107 35 -199 35q-189 0 -310.5 -89t-121.5 -227q0 -56 17.5 -101.5t43 -76t70.5 -58.5t81.5 -44t94.5 -37q149 -54 208 -90 q147 -88 167 -249q4 -29 4 -61q0 -134 -75.5 -230t-204.5 -143t-297 -47q-182 0 -336 72q-25 13 -25 37z" />
<glyph unicode="T" horiz-adv-x="1110" d="M246 1448q0 21 13 33t36 12h962q16 0 28.5 -10.5t12.5 -28.5q0 -45 -47 -45h-436l-270 -1386q-6 -41 -45 -41q-41 0 -41 36q0 7 4 27l264 1364h-436q-19 0 -32 10.5t-13 28.5z" />
<glyph unicode="U" horiz-adv-x="1277" d="M193 412q0 76 22 206l164 852q3 19 16 30t29 11q18 0 29.5 -10t11.5 -28q0 -7 -4 -31l-162 -838q-18 -95 -18 -186v-9q0 -169 73 -255q75 -88 240 -88q76 0 139 15.5t110.5 42t86.5 68t65.5 86t49 104.5t37 116t28.5 127l162 845q3 19 16 30t29 11q18 0 29.5 -10 t11.5 -28q0 -7 -4 -31l-160 -834q-14 -73 -29 -131.5t-40.5 -125.5t-56 -118t-76.5 -100t-101.5 -80.5t-131 -51t-165.5 -19.5q-208 0 -306 115q-95 112 -95 303v12z" />
<glyph unicode="V" horiz-adv-x="1120" d="M254 1466q-1 21 12 34t31 13q16 0 29 -10.5t14 -29.5q59 -631 178 -1346q439 794 711 1360q12 26 41 26q22 0 33 -19q6 -10 6 -21t-6 -23q-314 -648 -746 -1421q-24 -47 -61 -47q-40 0 -50 59q-121 688 -192 1425z" />
<glyph unicode="W" horiz-adv-x="1710" d="M264 1471q0 19 11 30q12 12 32 12q16 0 29 -11.5t14 -31.5q22 -695 78 -1337q324 683 584 1307q19 44 33 58.5t38 14.5q26 0 37 -18.5t13 -58.5q16 -629 71 -1301q308 656 600 1350q12 28 37 28q23 0 38 -18q9 -11 9 -24q0 -9 -4 -19q-257 -617 -633 -1415 q-14 -30 -29.5 -42.5t-39.5 -12.5q-28 0 -38.5 19t-15.5 69q-52 616 -75 1253q-226 -536 -578 -1282q-26 -59 -69 -59q-50 0 -54 61q-88 959 -88 1428z" />
<glyph unicode="X" horiz-adv-x="1058" d="M-36 4q-4 8 -4 17q0 14 11 30q47 62 101.5 130t95.5 119t105.5 128.5t96 116t104.5 126t97 115.5q-215 480 -290 666q-10 25 2 43t34 18q32 0 43 -28q83 -204 269 -627q324 392 501 637q12 18 33 18q24 0 36 -22q5 -9 5 -19q0 -14 -10 -28q-172 -237 -530 -666 q232 -515 319 -737q10 -25 -4 -42t-37 -17q-27 0 -39 26q-112 284 -297 699q-403 -487 -573 -709q-11 -16 -33 -16q-26 0 -36 22z" />
<glyph unicode="Y" horiz-adv-x="958" d="M225 1460q-2 7 -2 14q0 14 9 24q14 15 36 15q32 0 41 -34q85 -388 228 -838q256 361 563 850q14 22 35 22q23 0 35 -20q6 -9 6 -20q0 -12 -7 -25q-272 -447 -606 -916l-98 -509q-3 -19 -16 -30t-29 -11q-18 0 -29.5 10.5t-11.5 30.5q0 13 6 40l92 478q-153 477 -252 919z " />
<glyph unicode="Z" horiz-adv-x="946" d="M-25 37q0 7 3 14.5t5 11.5t11 15.5t12 15.5l1012 1317h-729q-21 0 -31 10q-12 12 -12 27q0 19 13 32t36 13h803q20 0 32 -12q11 -14 11 -27q0 -18 -29 -55l-1012 -1317h731q21 0 33 -12q10 -12 10 -27q0 -18 -13.5 -30.5t-35.5 -12.5h-809q-18 0 -30 12q-11 9 -11 25z " />
<glyph unicode="[" horiz-adv-x="444" d="M-20 -336q0 7 8 53l372 1925q4 20 17.5 32t28.5 12h159q19 0 31 -12t12 -29q0 -20 -13.5 -31.5t-35.5 -11.5h-121l-364 -1895h110q18 0 29.5 -10.5t11.5 -28.5q0 -19 -13 -32t-36 -13h-158q-16 0 -27 11t-11 30z" />
<glyph unicode="\" horiz-adv-x="593" d="M240 1593q-2 18 9.5 32t29.5 15q18 2 32 -8.5t15 -27.5l204 -1684q3 -18 -7.5 -32t-28.5 -15q-18 -3 -32 8t-16 29z" />
<glyph unicode="]" horiz-adv-x="444" d="M-29 -336q0 20 13.5 31.5t35.5 11.5h121l365 1895h-111q-18 0 -29.5 10t-11.5 28q0 20 13 33t36 13h158q16 0 27.5 -11t11.5 -30q0 -8 -8 -54l-373 -1925q-4 -20 -17 -31.5t-28 -11.5h-160q-19 0 -31 12t-12 29z" />
<glyph unicode="^" horiz-adv-x="978" d="M221.5 902q-2.5 19 9.5 34l433 545q21 30 49 30q29 0 39 -30l223 -549q7 -15 3 -33t-17 -27q-12 -6 -25 -6q-25 0 -33 23l-205 504l-401 -508q-13 -19 -37 -19q-13 0 -22 6q-14 11 -16.5 30z" />
<glyph unicode="_" horiz-adv-x="901" d="M-154 -270q0 19 13.5 32t36.5 13h892q18 0 31 -13q12 -12 12 -26q0 -19 -14 -32t-35 -13h-895q-20 0 -30 12q-11 11 -11 27z" />
<glyph unicode="`" horiz-adv-x="1083" d="M612 1599q0 16 13 28.5t32 12.5q26 0 41 -26l189 -328q8 -13 8 -29q0 -15 -11 -25.5t-28 -10.5q-16 0 -24.5 5t-18.5 23l-190 316q-11 18 -11 34z" />
<glyph unicode="a" horiz-adv-x="993" d="M127 311q0 54 16 148l25 143q37 208 135 309q102 105 275 105q153 0 262 -90l10 49q3 19 15 30t28 11q18 0 29.5 -10.5t11.5 -28.5q0 -7 -4 -27l-148 -755q-6 -34 -6 -57q0 -16 3 -28q7 -28 38 -47q34 -20 27 -47q-7 -28 -45 -28q-40 0 -78 41q-20 20 -25 53 q-145 -94 -270 -94q-148 0 -223.5 86.5t-75.5 236.5zM211 315q0 -117 55.5 -182t161.5 -65q123 0 270 110q3 27 9 55l116 603q-99 102 -243 102t-226 -92q-72 -82 -106 -273l-29 -163q-8 -44 -8 -95z" />
<glyph unicode="b" horiz-adv-x="991" d="M35 23q0 13 9.5 23.5t17.5 15.5t30 16q31 16 44 43.5t24 89.5l237 1231q9 41 43 41q18 0 29.5 -10.5t11.5 -28.5q0 -7 -4 -27l-94 -483q129 82 258 82q154 0 225.5 -77.5t71.5 -215.5q0 -67 -12 -135l-37 -207q-70 -393 -430 -393q-136 0 -248 98q-23 -43 -61.5 -70.5 t-71.5 -27.5q-43 0 -43 35zM236 174q98 -106 223 -106q153 0 236.5 81.5t113.5 245.5l39 219q8 52 8 103q0 108 -49.5 163.5t-165.5 55.5q-134 0 -279 -107z" />
<glyph unicode="c" horiz-adv-x="821" d="M133 340q0 48 6 94l23 139q14 92 49 170.5t89.5 140.5t134 97t175.5 35q109 0 183 -27q77 -29 77 -67q0 -20 -12.5 -29.5t-28.5 -9.5q-15 0 -44.5 13.5t-45.5 18.5q-63 19 -129 19q-150 0 -245.5 -102.5t-122.5 -270.5l-21 -139q-6 -38 -6 -74q0 -132 67 -205t199 -73 q84 0 140 16q25 7 59 22t47 15q14 0 24.5 -8.5t10.5 -22.5q0 -47 -103 -78q-86 -26 -178 -26q-170 0 -259 93t-89 259z" />
<glyph unicode="d" horiz-adv-x="1007" d="M141 313q0 46 17 146l24 143q12 67 29 121t49 111t74.5 95t108.5 62.5t149 24.5q145 0 260 -109l104 535q8 41 41 41q18 0 29.5 -10.5t11.5 -30.5q0 -12 -6 -39l-231 -1194q-8 -41 -8 -72q0 -27 10.5 -44t23 -23.5t23 -17t10.5 -25.5q0 -39 -45 -39q-39 0 -67 28 q-25 25 -35 66q-143 -94 -273 -94q-147 0 -223 89.5t-76 235.5zM225 315q0 -117 55.5 -182t161.5 -65q129 0 269 106l123 639q-104 125 -240 125q-69 0 -122.5 -21.5t-87.5 -54t-59.5 -83.5t-38.5 -97.5t-24 -108.5l-29 -163q-8 -44 -8 -95z" />
<glyph unicode="e" horiz-adv-x="952" d="M141 340q0 38 9 96l26 168q14 87 46 159t83.5 130t130.5 90.5t178 32.5q82 0 141.5 -25.5t93.5 -71.5t50 -102.5t16 -126.5q0 -67 -8 -119l-10 -57q-7 -37 -45 -37h-612l-9 -47q-8 -50 -8 -94q0 -121 63.5 -194.5t180.5 -73.5q111 0 201 32q15 5 31 12t25.5 11t16.5 4 q37 0 37 -41q0 -16 -17.5 -28.5t-62.5 -30.5q-103 -39 -231 -39q-110 0 -185 48t-108 125t-33 179zM252 555h569l4 29q9 56 9 106q0 250 -220 250q-155 0 -242.5 -94.5t-113.5 -255.5z" />
<glyph unicode="f" horiz-adv-x="532" d="M113 29q0 12 6 39l166 854h-76q-17 0 -28 11t-11 28q0 18 12.5 30.5t30.5 12.5h88l39 202q26 137 104.5 207t198.5 70h102q17 0 28 -11t11 -28q0 -18 -12.5 -30.5t-30.5 -12.5h-98q-183 0 -223 -209l-37 -188h199q17 0 28 -11t11 -28q0 -18 -12.5 -30.5t-30.5 -12.5h-211 l-172 -893q-8 -41 -41 -41q-18 0 -29.5 10.5t-11.5 30.5z" />
<glyph unicode="g" horiz-adv-x="974" d="M59 -285q0 19 12 30t31 11q10 0 21 -4t29 -12.5t32 -13.5q69 -25 150 -25q82 0 145 28t105.5 80.5t69 117.5t42.5 149l4 24q-127 -80 -249 -80q-145 0 -222 90t-77 236q0 52 16 146l20 110q12 67 28.5 121t48 111t74 95t109 62.5t150.5 24.5q148 0 260 -98l12 57 q9 41 43 41q18 0 29.5 -10.5t11.5 -28.5q0 -7 -4 -27l-174 -893q-19 -96 -50.5 -170t-84 -136t-134.5 -95t-190 -33q-100 0 -184 31q-74 26 -74 61zM236 348q0 -117 55.5 -182.5t161.5 -65.5q129 0 268 101l121 626q-105 111 -242 111q-69 0 -123 -21.5t-88 -54t-59.5 -83.5 t-39 -97.5t-24.5 -108.5l-22 -131q-8 -44 -8 -94z" />
<glyph unicode="h" horiz-adv-x="1011" d="M100 29q0 12 6 39l267 1374q3 19 15 30t28 11q18 0 29.5 -10.5t11.5 -28.5q0 -7 -4 -27l-101 -520q146 119 312 119q140 0 207 -74t67 -203q0 -67 -16 -145l-109 -565q-8 -41 -41 -41q-18 0 -29.5 10.5t-11.5 30.5q0 12 6 39l105 536q14 72 14 129q0 205 -197 205 q-168 0 -329 -154l-148 -755q-8 -41 -41 -41q-18 0 -29.5 10.5t-11.5 30.5z" />
<glyph unicode="i" d="M100 29q0 12 6 39l177 907q3 19 15 30t28 11q18 0 29.5 -10.5t11.5 -28.5q0 -2 -5 -27l-180 -921q-8 -41 -41 -41q-18 0 -29.5 10.5t-11.5 30.5zM336 1366q0 28 18.5 47t46.5 19t47 -19t19 -47q0 -27 -19 -45t-47 -18t-46.5 17.5t-18.5 45.5z" />
<glyph unicode="j" d="M-217 -342q0 21 15.5 31t35.5 10q105 0 164 55t88 205l197 1016q3 19 15 30t28 11q18 0 29.5 -10.5t11.5 -28.5q0 -2 -5 -27l-196 -1005q-34 -177 -114.5 -252.5t-217.5 -75.5q-51 0 -51 41zM336 1366q0 28 18.5 47t46.5 19t47 -19t19 -47q0 -27 -19 -45t-47 -18 t-46.5 17.5t-18.5 45.5z" />
<glyph unicode="k" horiz-adv-x="872" d="M100 29q0 12 6 39l267 1374q3 19 15 30t28 11q18 0 29.5 -10.5t11.5 -28.5q0 -7 -4 -27l-185 -948l580 530q17 17 37 17q15 0 25 -10t10 -25q0 -18 -29 -43l-369 -336q141 -278 238 -539q10 -27 10 -38q0 -17 -11.5 -27t-27.5 -10q-30 0 -39 26q-119 313 -231 535 l-215 -195l-64 -325q-8 -41 -41 -41q-18 0 -29.5 10.5t-11.5 30.5z" />
<glyph unicode="l" horiz-adv-x="397" d="M130 94q-1 8 -1 20q0 41 12 119l234 1209q3 19 15 30t28 11q18 0 29.5 -10.5t11.5 -28.5q0 -7 -4 -27l-238 -1222q-6 -34 -5 -57q0 -16 2 -28q7 -28 38 -47q34 -20 27 -47q-7 -28 -46 -28t-77 41q-22 27 -26 65z" />
<glyph unicode="m" horiz-adv-x="1587" d="M100 29q0 12 6 39l140 714q8 41 8 72q0 27 -10.5 44.5t-23.5 23.5t-23.5 17t-10.5 26q0 39 45 39t74 -37q25 -32 31 -82q145 131 311 131q201 0 252 -168q161 168 348 168q136 0 201 -74t65 -203q0 -51 -16 -145l-111 -565q-8 -41 -40 -41q-18 0 -29.5 10.5t-11.5 30.5 q0 12 6 39l106 542q15 77 15 129q0 199 -189 199q-177 0 -330 -178q0 -78 -18 -166l-111 -565q-8 -41 -41 -41q-18 0 -29.5 10.5t-11.5 30.5q0 7 7 39l106 542q16 82 16 129q0 199 -188 199q-85 0 -169 -45.5t-146 -116.5l-146 -747q-8 -41 -41 -41q-18 0 -29.5 10.5 t-11.5 30.5z" />
<glyph unicode="n" horiz-adv-x="1009" d="M100 29q0 12 6 39l140 714q8 41 8 72q0 27 -10.5 44.5t-23.5 23.5t-23.5 17t-10.5 26q0 39 45 39t74 -37q26 -33 31 -82q155 131 328 131q140 0 207 -74t67 -203q0 -67 -16 -145l-109 -565q-8 -41 -41 -41q-18 0 -29.5 10.5t-11.5 30.5q0 12 6 39l105 536q14 72 14 129 q0 205 -197 205q-172 0 -331 -156l-146 -753q-8 -41 -41 -41q-18 0 -29.5 10.5t-11.5 30.5z" />
<glyph unicode="o" horiz-adv-x="985" d="M141 311q0 57 13 127l39 209q15 78 44.5 141t79 116t127.5 82.5t179 29.5q83 0 145 -26.5t96.5 -73.5t51 -103t16.5 -123q0 -50 -10 -108l-43 -222q-72 -372 -428 -372q-160 0 -235 89.5t-75 233.5zM223 311q0 -243 228 -243q157 0 237 81t109 226l43 221q10 52 10 94 q0 111 -55.5 178.5t-171.5 67.5q-290 0 -349 -305l-41 -209q-10 -62 -10 -111z" />
<glyph unicode="p" horiz-adv-x="968" d="M31 -334q0 12 6 39l209 1077q8 41 8 72q0 27 -10.5 44.5t-23.5 23.5t-23.5 17t-10.5 26q0 39 45 39t74 -37q24 -30 29 -64q73 54 138.5 83.5t143.5 29.5q152 0 225.5 -80.5t73.5 -216.5q0 -75 -22 -180l-33 -160q-13 -66 -32 -119t-52.5 -105.5t-78.5 -88t-112.5 -57 t-152.5 -21.5q-140 0 -242 75l-77 -397q-8 -41 -41 -41q-18 0 -29.5 10.5t-11.5 30.5zM207 152q96 -86 225 -86q70 0 125.5 19t92 49t64 76t42.5 92t26 104l37 196q10 51 10 117q0 217 -213 217q-134 0 -284 -131z" />
<glyph unicode="q" horiz-adv-x="999" d="M141 311q0 48 17 148l26 143q12 67 28.5 121t48 111t74 95t109 62.5t150.5 24.5q162 0 272 -98q23 44 60 71t73 27q45 0 45 -35q0 -5 -1.5 -10t-3 -8.5t-5.5 -7.5t-6.5 -6t-9 -6t-9 -5.5t-11.5 -6l-11 -5.5q-31 -16 -43.5 -43t-23.5 -90l-218 -1127q-8 -41 -40 -41 q-18 0 -29.5 10.5t-11.5 30.5q0 12 6 39l69 365q-131 -82 -256 -82q-147 0 -223 87t-76 236zM225 315q0 -117 55.5 -182t161.5 -65q127 0 275 106l127 657q-50 53 -116 80t-132 27q-69 0 -123.5 -21.5t-88.5 -54t-59.5 -83.5t-38.5 -97.5t-24 -108.5l-29 -163q-8 -44 -8 -95 z" />
<glyph unicode="r" horiz-adv-x="696" d="M100 29q0 12 6 39l140 714q8 41 8 72q0 27 -10.5 44.5t-23.5 23.5t-23.5 17t-10.5 26q0 39 45 39t74 -37q31 -40 31 -93q119 142 309 142q152 0 152 -60q0 -38 -45 -38q-8 0 -42 8t-83 8q-216 0 -312 -221l-133 -684q-8 -41 -41 -41q-18 0 -29.5 10.5t-11.5 30.5z" />
<glyph unicode="s" horiz-adv-x="823" d="M43 72q0 18 11 30.5t28 12.5q9 0 36.5 -12t63.5 -21q62 -16 135 -16q161 0 247.5 57t86.5 149q0 42 -16 73.5t-56.5 57t-66 37t-86.5 34.5q-15 6 -23 9q-54 21 -90 40t-73.5 50t-56.5 75.5t-19 101.5q0 85 56.5 147t139.5 90.5t179 28.5q77 0 139 -15q64 -14 83 -27 t19 -34q0 -18 -11.5 -29.5t-29.5 -11.5q-8 0 -33 10.5t-55 16.5q-49 12 -108 12q-134 0 -215.5 -55.5t-81.5 -134.5q0 -33 13 -61t31 -46.5t51 -37t58.5 -29.5t68.5 -28q9 -3 13 -5q47 -18 75.5 -31t66 -37t58.5 -49.5t36.5 -64t15.5 -85.5q0 -94 -56.5 -160t-147 -96 t-205.5 -30q-90 0 -162 16q-66 14 -92.5 29t-26.5 39z" />
<glyph unicode="t" horiz-adv-x="563" d="M172 221q0 62 25 191l98 510h-74q-17 0 -28 11t-11 28q0 18 12.5 30.5t30.5 12.5h86l56 282q9 41 43 41q18 0 29.5 -10.5t11.5 -28.5q0 -1 -5 -26l-51 -258h209q17 0 28 -11t11 -28q0 -18 -12.5 -30.5t-30.5 -12.5h-221l-100 -519q-23 -126 -23 -182q0 -72 36 -105.5 t128 -33.5h51q17 0 28 -11t11 -28q0 -18 -12.5 -30.5t-30.5 -12.5h-49q-133 0 -189.5 56t-56.5 165z" />
<glyph unicode="u" horiz-adv-x="1009" d="M141 264q0 63 17 146l108 565q8 41 41 41q18 0 29.5 -10.5t11.5 -30.5q0 -12 -6 -39l-104 -537q-15 -77 -15 -129q0 -204 197 -204q174 0 332 155l145 754q8 41 41 41q18 0 29.5 -10.5t11.5 -30.5q0 -12 -6 -39l-142 -727q-8 -41 -8 -72q0 -27 10.5 -44t23.5 -23.5 t23.5 -17t10.5 -25.5q0 -39 -45 -39q-48 0 -78 45q-25 45 -25 86q-155 -131 -327 -131q-141 0 -208 73.5t-67 202.5z" />
<glyph unicode="v" horiz-adv-x="849" d="M172 975q0 41 41 41q37 0 41 -39q37 -334 129 -862q238 419 473 874q14 27 41 27q18 0 27.5 -10.5t9.5 -26.5q0 -15 -10 -35q-299 -570 -502 -915q-23 -41 -60 -41q-24 0 -34 15.5t-15 45.5q-100 553 -137 881q-4 36 -4 45z" />
<glyph unicode="w" horiz-adv-x="1353" d="M178 965q-1 23 9 37t28 14q22 0 31.5 -11t11.5 -34q41 -465 86 -838q228 446 416 850q16 33 51 33q38 0 41 -45q22 -348 88 -838l416 854q14 29 39 29t33 -18q3 -7 3 -17q0 -14 -8 -31q-231 -491 -450 -917q-13 -25 -25 -35t-33 -10q-20 0 -29 14t-14 49q-55 373 -86 813 q-204 -434 -415 -841q-17 -35 -49 -35q-23 0 -33.5 17t-16.5 61q-42 316 -94 899z" />
<glyph unicode="x" horiz-adv-x="833" d="M-11 9q-4 8 -4 17q0 14 9 29q37 56 91.5 123t91.5 108.5t113 122.5t101 109q-149 275 -196 432q-7 26 6 46t35 20q29 0 38 -29q61 -193 179 -401q190 200 335 407q17 23 43 23q22 0 32 -19q4 -7 4 -15q0 -14 -11 -32q-111 -160 -367 -432q6 -11 34.5 -60.5t38 -67t33 -61 t35.5 -69t29.5 -64t30 -72.5t23.5 -69q9 -28 -3 -47.5t-38 -19.5q-27 0 -35 24q-25 74 -64.5 161t-65 135t-79.5 147q-238 -253 -365 -443q-16 -24 -43 -24q-21 0 -31 21z" />
<glyph unicode="y" horiz-adv-x="868" d="M-104 -336q0 21 14.5 32t36.5 11q106 0 194.5 59.5t186.5 208.5q-118 595 -166 988q-3 24 9 38.5t32 14.5q36 0 41 -37q44 -350 147 -899l479 907q16 29 43 29q25 0 33 -22q3 -7 3 -15q0 -16 -11 -37l-426 -807q-145 -275 -274 -392.5t-297 -117.5q-21 0 -33 10.5 t-12 28.5z" />
<glyph unicode="z" horiz-adv-x="790" d="M-4 39q0 15 16 35l744 848h-545q-17 0 -28 11t-11 28q0 18 12.5 30.5t30.5 12.5h631q17 0 28 -10t11 -25q0 -21 -27 -51l-731 -836h586q17 0 28 -11t11 -28q0 -18 -12.5 -30.5t-30.5 -12.5h-674q-17 0 -28 11t-11 28z" />
<glyph unicode="{" horiz-adv-x="507" d="M82 -156q3 77 30 166t58 156.5t58 151.5t30 153q5 141 -86 141q-20 0 -32 13t-9 32q7 41 51 41q27 0 55.5 12.5t58 40t50 81.5t23.5 126l4 347q6 174 88 277.5t207 103.5q28 0 39.5 -9.5t11.5 -31.5q0 -41 -53 -41q-34 0 -67 -14.5t-65.5 -46.5t-54 -94t-24.5 -146 l-4 -342q-8 -221 -168 -310l-2 -6q64 -53 61 -168q-3 -79 -30.5 -168.5t-58.5 -157t-57.5 -151t-29.5 -152.5q-3 -78 19 -110.5t77 -32.5q26 0 38.5 -11t10.5 -32q-3 -39 -49 -39q-188 0 -180 221z" />
<glyph unicode="|" horiz-adv-x="393" d="M27 -340q0 10 6 45l375 1937q9 44 49 44q16 0 26.5 -10t10.5 -29q0 -5 -7 -45l-374 -1938q-9 -43 -50 -43q-36 0 -36 39z" />
<glyph unicode="}" horiz-adv-x="507" d="M-88 -338q0 41 53 41q34 0 67 14.5t65.5 46.5t54 94t24.5 146l4 342q8 220 168 309l2 7q-64 53 -61 167q3 79 30.5 168.5t58.5 157t57.5 151t29.5 152.5q3 78 -19 111t-77 33q-53 0 -50 43q3 38 50 38q188 0 180 -221q-3 -77 -30 -166t-58 -156t-58 -151t-30 -153 q-5 -142 86 -142q20 0 32 -13t9 -32q-7 -41 -51 -41q-27 0 -55.5 -12.5t-58 -40t-50 -81.5t-23.5 -126l-4 -346q-6 -174 -88 -277.5t-207 -103.5q-28 0 -39.5 9.5t-11.5 31.5z" />
<glyph unicode="~" horiz-adv-x="942" d="M180 545q0 35 57.5 65.5t131.5 30.5q54 0 106.5 -21t99.5 -42t89 -21q35 0 61 8.5t37.5 19t24.5 19t26 8.5q20 0 32.5 -13.5t12.5 -31.5q0 -36 -56.5 -67t-131.5 -31q-55 0 -107 21t-98.5 42t-89.5 21q-44 0 -72.5 -13.5t-45.5 -26.5t-32 -13q-20 0 -32.5 13t-12.5 32z " />
<glyph unicode="&#xa1;" horiz-adv-x="481" d="M41 -457l213 1047q10 43 49 43q19 0 28 -14t5 -37l-193 -1043q-3 -24 -18.5 -40.5t-40.5 -16.5q-26 0 -37 18.5t-6 42.5zM281 932q0 35 23.5 60.5t57.5 25.5q35 0 61 -25.5t26 -60.5q0 -34 -26 -58t-61 -24q-34 0 -57.5 24t-23.5 58z" />
<glyph unicode="&#xa2;" horiz-adv-x="825" d="M137 340q0 48 6 94l23 139q14 91 48 168.5t87.5 139t131 97.5t171.5 38l27 131q3 18 15 28.5t26 10.5q17 0 28 -10t11 -27q0 -9 -4 -29l-23 -108q54 -3 113 -23q77 -29 77 -67q0 -20 -12 -29.5t-28 -9.5q-15 0 -45 13.5t-46 18.5q-63 19 -129 19q-150 0 -245.5 -102.5 t-122.5 -270.5l-21 -139q-6 -38 -6 -74q0 -132 67 -205t199 -73q84 0 140 16q25 7 59 22t47 15q14 0 24.5 -8.5t10.5 -22.5q0 -47 -102 -78q-86 -26 -175 -26l-24 -133q-3 -18 -15.5 -27.5t-27.5 -9.5q-16 0 -27.5 9.5t-11.5 27.5q0 15 6 39l19 100q-133 20 -202 109.5 t-69 236.5z" />
<glyph unicode="&#xa3;" horiz-adv-x="1146" d="M111 39q0 18 12.5 30.5t30.5 12.5h30q103 70 162.5 170t59.5 209q0 89 -15 188h-88q-17 0 -28 11t-11 28q0 18 12.5 30.5t30.5 12.5h70q-25 154 -25 252q0 109 40.5 205.5t112 166.5t174.5 111t222 41q99 0 166 -12q94 -16 94 -57q0 -18 -11.5 -29.5t-31.5 -11.5 q-10 0 -22.5 2t-33.5 6.5t-40 7.5q-58 8 -121 8q-136 0 -242.5 -58.5t-163.5 -158t-57 -221.5q0 -102 25 -252h403q17 0 28 -11t11 -28q0 -18 -12.5 -30.5t-30.5 -12.5h-385q15 -99 15 -188q0 -112 -49 -209t-132 -170h650q17 0 27.5 -11t10.5 -28q0 -18 -12.5 -30.5 t-30.5 -12.5h-806q-17 0 -28 11t-11 28z" />
<glyph unicode="&#xa4;" horiz-adv-x="1402" d="M104 238.5q0 16.5 11 29.5l184 185q-127 150 -127 342q0 197 129 342l-186 186q-11 13 -11 29.5t13 29.5q12 12 28.5 11.5t28.5 -11.5l184 -186q148 129 344 129q194 0 342 -129l185 186q13 11 29.5 11t29.5 -13q12 -12 12 -28.5t-12 -28.5l-186 -186q131 -144 131 -342 q0 -196 -129 -344l184 -183q12 -12 12 -28.5t-12 -28.5q-13 -13 -30 -13.5t-29 11.5l-185 184q-145 -129 -342 -129q-196 0 -344 129l-184 -184q-12 -12 -28.5 -12t-28.5 12q-13 13 -13 29.5zM254 795q0 -186 131 -317.5t317 -131.5t316.5 131.5t130.5 317.5t-130.5 316 t-316.5 130t-317 -130t-131 -316z" />
<glyph unicode="&#xa5;" horiz-adv-x="1146" d="M190 438q0 18 12.5 30.5t30.5 12.5h312l12 60q-38 117 -47 149h-252q-17 0 -28 11t-11 28q0 18 12.5 30.5t30.5 12.5h223q-109 367 -180 688q-6 24 7.5 38.5t35.5 14.5q32 0 41 -34q87 -398 227 -838q265 373 564 850q14 22 34 22q23 0 36 -20t-1 -45 q-223 -364 -440 -676h203q17 0 28 -11t11 -28q0 -18 -12.5 -30.5t-30.5 -12.5h-254l-111 -158l-10 -51h321q17 0 28 -11t11 -28q0 -18 -12.5 -30.5t-30.5 -12.5h-334l-71 -376q-3 -19 -16 -30t-29 -11q-18 0 -29.5 10.5t-11.5 30.5q0 13 6 40l63 336h-299q-17 0 -28 11 t-11 28z" />
<glyph unicode="&#xa6;" horiz-adv-x="393" d="M27 -340q0 10 6 45l149 772q9 43 49 43q16 0 26.5 -10t10.5 -29q0 -11 -6 -45l-149 -772q-9 -43 -50 -43q-36 0 -36 39zM252 825q0 10 6 45l150 772q9 44 49 44q16 0 26.5 -10t10.5 -29q0 -5 -7 -45l-149 -773q-9 -43 -49 -43q-16 0 -26.5 10t-10.5 29z" />
<glyph unicode="&#xa7;" horiz-adv-x="1114" d="M129 -276q0 19 11 32t28 13q9 0 26.5 -9t38.5 -16q80 -27 199 -27q155 0 254.5 85.5t99.5 211.5q0 50 -19.5 89t-60 69.5t-78 49.5t-98.5 44q-142 59 -188 86q-136 79 -155 201q-3 21 -3 45q0 111 56 188.5t159 149.5q-53 69 -53 166q0 164 126 270.5t310 106.5 q175 0 283 -54q22 -11 22 -34q0 -18 -11 -30.5t-29 -12.5q-7 0 -13.5 2t-20.5 8.5t-30 11.5q-82 27 -201 27q-155 0 -254.5 -85t-99.5 -210q0 -40 14.5 -74.5t36.5 -59t59 -48t68.5 -38.5t79.5 -34q143 -59 190 -86q135 -80 153 -202q3 -20 3 -42q0 -78 -31.5 -143.5 t-73.5 -106.5t-110 -90q53 -69 53 -164q0 -165 -127 -272t-311 -107q-169 0 -280 54q-23 11 -23 35zM266 598q0 -60 34 -105t92 -75.5t120 -55.5t133.5 -59t116.5 -70q97 69 141.5 132.5t44.5 152.5q0 60 -33.5 104.5t-91.5 75t-119.5 55.5t-133.5 58.5t-117 69.5 q-97 -70 -142 -133t-45 -150z" />
<glyph unicode="&#xa8;" horiz-adv-x="1083" d="M328 1360q0 28 18.5 46.5t46.5 18.5t47 -18.5t19 -46.5t-19 -46t-47 -18t-46.5 18t-18.5 46zM606 1360q0 28 19 46.5t47 18.5t46.5 -18.5t18.5 -46.5t-18.5 -46t-46.5 -18t-47 18t-19 46z" />
<glyph unicode="&#xa9;" horiz-adv-x="1812" d="M227 745q0 155 60.5 296.5t163 244t244 163t296.5 60.5t296 -60.5t243 -163t162.5 -244t60.5 -296.5t-60.5 -296.5t-162.5 -243.5t-243 -162.5t-296 -60.5t-296.5 60.5t-244 162.5t-163 243.5t-60.5 296.5zM313 745q0 -184 90.5 -340.5t247 -247.5t340.5 -91 q183 0 339 91t246.5 247.5t90.5 340.5q0 138 -53.5 264t-144 217t-216 145t-262.5 54q-138 0 -263.5 -54t-216.5 -145t-144.5 -217t-53.5 -264zM662 686v117q0 160 86 268.5t241 108.5q117 0 209 -41q25 -16 25 -39q0 -19 -12 -32t-31 -13q-10 0 -19 6q-70 33 -172 33 q-113 0 -177 -79.5t-64 -211.5v-117q0 -129 57.5 -209t183.5 -80q101 0 172 35q12 4 21 4q18 0 29.5 -13.5t11.5 -31.5q0 -26 -25 -37q-88 -43 -209 -43q-83 0 -147 29.5t-102.5 82t-58 119t-19.5 144.5z" />
<glyph unicode="&#xaa;" horiz-adv-x="829" d="M203 885q0 30 14 121l21 118q29 171 110 256q83 86 227 86q127 0 218 -73l8 41q6 32 37 32q14 0 23 -8.5t9 -23.5q0 -2 -1 -9t-1 -12l-123 -625q-9 -47 -2.5 -70t31.5 -38q29 -20 23 -39q-8 -25 -37 -25q-36 0 -66 35q-14 14 -20 45q-115 -80 -223 -80q-122 0 -185 72.5 t-63 196.5zM272 887q0 -97 46.5 -151t134.5 -54q101 0 221 92q6 39 8 45l96 500q-87 84 -200 84q-119 0 -187 -78q-57 -64 -88 -225l-22 -135q-9 -41 -9 -78z" />
<glyph unicode="&#xab;" horiz-adv-x="1120" d="M113 555q5 20 24 35l463 409q15 13 34 10.5t30 -16.5q9 -14 5 -31.5t-18 -31.5l-436 -387l299 -393q10 -13 9.5 -32.5t-13.5 -29.5q-14 -11 -32 -9t-27 15l-324 420q-16 26 -14 41zM575 555q2 18 23 35l465 409q14 13 33 10.5t28 -16.5q10 -14 6 -31.5t-18 -31.5 l-436 -387l301 -393q10 -13 9.5 -32.5t-13.5 -29.5q-15 -11 -34 -9t-28 15l-321 420q-18 30 -15 41z" />
<glyph unicode="&#xac;" horiz-adv-x="1003" d="M168 776q0 19 13 32t36 13h731q21 0 31.5 -14t5.5 -35l-49 -258q-3 -18 -15 -28.5t-28 -10.5q-21 0 -31.5 14t-5.5 33l41 217h-686q-19 0 -31 10t-12 27z" />
<glyph unicode="&#xad;" horiz-adv-x="966" d="M164 600q0 17 12 29t29 12h557q17 0 29 -12t12 -29t-12 -29t-29 -12h-557q-17 0 -29 12t-12 29z" />
<glyph unicode="&#xae;" horiz-adv-x="1812" d="M227 745q0 155 60.5 296.5t163 244t244 163t296.5 60.5t296 -60.5t243 -163t162.5 -244t60.5 -296.5t-60.5 -296.5t-162.5 -243.5t-243 -162.5t-296 -60.5t-296.5 60.5t-244 162.5t-163 243.5t-60.5 296.5zM313 745q0 -184 90.5 -340.5t247 -247.5t340.5 -91 q183 0 339 91t246.5 247.5t90.5 340.5q0 138 -53.5 264t-144 217t-216 145t-262.5 54q-138 0 -263.5 -54t-216.5 -145t-144.5 -217t-53.5 -264zM723 362v766q0 19 12 31t31 12h231q137 0 204 -63.5t67 -151.5v-49q0 -72 -48 -131t-141 -78l174 -317q7 -11 7 -19 q0 -21 -13 -33t-33 -12q-24 0 -34 23l-195 350h-176v-328q0 -19 -12 -31t-31 -12t-31 12t-12 31zM809 768h188q53 0 91.5 14t57.5 36.5t27.5 44.5t8.5 44v49q0 23 -7.5 45t-26 45.5t-57.5 37.5t-94 14h-188v-330z" />
<glyph unicode="&#xaf;" horiz-adv-x="1083" d="M500 1395q0 17 12 29t29 12h417q17 0 29 -12t12 -29t-12 -29t-29 -12h-417q-17 0 -29 12t-12 29z" />
<glyph unicode="&#xb0;" horiz-adv-x="784" d="M248 1196q0 130 92 221.5t223 91.5t223.5 -91.5t92.5 -221.5t-92.5 -220.5t-223.5 -90.5t-223 90.5t-92 220.5zM330 1196q0 -97 68 -165t165 -68t165.5 68t68.5 165t-68.5 165.5t-165.5 68.5t-165 -68.5t-68 -165.5z" />
<glyph unicode="&#xb1;" horiz-adv-x="1017" d="M70 39q0 18 12.5 30.5t30.5 12.5h721q17 0 27.5 -11t10.5 -28q0 -18 -12.5 -30.5t-30.5 -12.5h-720q-17 0 -28 11t-11 28zM213 772q0 18 12.5 30.5t30.5 12.5h324l63 328q3 19 15 30t28 11q18 0 29.5 -10.5t11.5 -28.5q0 -7 -4 -27l-59 -303h313q17 0 28 -11t11 -28 q0 -18 -12.5 -30.5t-30.5 -12.5h-326l-63 -327q-8 -41 -41 -41q-18 0 -29.5 10.5t-11.5 30.5q0 11 6 38l55 289h-311q-17 0 -28 11t-11 28z" />
<glyph unicode="&#xb2;" horiz-adv-x="919" d="M305 612q0 48 31.5 117.5t99.5 136.5q28 28 144 113q48 34 78.5 58.5t69 62.5t58 77.5t19.5 79.5q0 82 -42.5 125t-111.5 43q-70 0 -121 -28q-11 -6 -25.5 -15.5t-24 -14.5t-17.5 -5q-14 0 -23.5 10.5t-9.5 24.5q0 31 43 53q72 45 178 45q97 0 159 -62.5t62 -175.5 q0 -82 -58.5 -160t-213.5 -188q-105 -75 -153 -133.5t-68 -126.5h366q14 0 23.5 -8.5t9.5 -22.5q0 -17 -11 -27.5t-30 -10.5h-397q-35 0 -35 32z" />
<glyph unicode="&#xb3;" horiz-adv-x="919" d="M305 682q0 15 10 24t25 9q6 0 13.5 -3.5t12 -6.5t13 -10.5t12.5 -10.5q56 -45 141 -45q104 0 166 59q64 61 64 146q0 89 -55.5 127.5t-139.5 38.5h-24q-17 0 -26 9.5t-9 22.5q0 14 9.5 24.5t25.5 10.5h53q80 0 139.5 50t59.5 137q0 69 -39 114q-46 49 -123 49 q-60 0 -105 -20q-16 -6 -33 -16.5t-27.5 -16.5t-18.5 -6q-29 0 -29 29q0 31 51 57q69 41 164 41q100 0 160 -57q69 -66 69 -174q0 -153 -149 -222q114 -54 114 -198q0 -113 -75 -191q-84 -84 -222 -84q-108 0 -176 47q-51 36 -51 66z" />
<glyph unicode="&#xb4;" horiz-adv-x="1083" d="M625 1257q0 16 8 29l188 328q14 26 43 26q20 0 31.5 -12.5t11.5 -28.5q0 -17 -10 -34l-190 -316q-17 -28 -45 -28q-17 0 -27 10.5t-10 25.5z" />
<glyph unicode="&#xb5;" horiz-adv-x="997" d="M-10 -393q0 10 6 37l258 1331q8 41 41 41q18 0 29.5 -10.5t11.5 -30.5q0 -12 -6 -39l-105 -537q-14 -72 -14 -129q0 -204 197 -204q173 0 331 155l146 754q8 41 41 41q18 0 29.5 -10.5t11.5 -30.5q0 -12 -6 -39l-142 -727q-8 -41 -8 -72q0 -27 10.5 -44t23.5 -23.5 t23.5 -17t10.5 -25.5q0 -39 -45 -39q-48 0 -78 45q-25 45 -25 86q-155 -131 -328 -131q-171 0 -237 112l-96 -493q-4 -21 -15.5 -31t-23.5 -10q-18 0 -29.5 10.5t-11.5 30.5z" />
<glyph unicode="&#xb6;" horiz-adv-x="1173" d="M227 1087q0 113 57.5 208.5t151 148.5t199.5 53h645q17 0 27 -10.5t10 -26.5q0 -18 -11.5 -29.5t-29.5 -11.5h-123l-330 -1710q-3 -19 -16 -30t-29 -11q-18 0 -29.5 10.5t-11.5 30.5q0 14 6 41l322 1669h-270l-330 -1710q-3 -19 -16 -30t-29 -11q-18 0 -29.5 10.5 t-11.5 30.5q0 14 6 41l186 969q-151 9 -247.5 112t-96.5 256z" />
<glyph unicode="&#xb7;" horiz-adv-x="419" d="M178 602q0 32 23 55t55 23q31 0 53.5 -23t22.5 -55q0 -31 -22.5 -53.5t-53.5 -22.5q-32 0 -55 22.5t-23 53.5z" />
<glyph unicode="&#xb8;" horiz-adv-x="1083" d="M281 -375q0 17 23 24t79 7q82 0 128 31t46 77q0 51 -34.5 71.5t-106.5 25.5q-33 3 -44.5 9.5t-11.5 23.5q0 8 5 43l10 69h67l-10 -82q217 0 217 -160q0 -77 -72 -127.5t-182 -50.5q-63 0 -88.5 7.5t-25.5 31.5z" />
<glyph unicode="&#xb9;" horiz-adv-x="919" d="M299 616q0 17 10.5 27t26.5 10h223l141 736l-258 -166q-20 -13 -32 -13q-14 0 -23.5 9t-9.5 24q0 19 22 35l320 209q21 12 39 12q26 0 26 -31q0 -12 -4 -32l-151 -783h127q12 0 22 -9t10 -21q0 -18 -11 -28.5t-27 -10.5h-418q-12 0 -22.5 9.5t-10.5 22.5z" />
<glyph unicode="&#xba;" horiz-adv-x="866" d="M250 885q0 46 10 104l33 172q12 64 36.5 116.5t65.5 96t105 68t147 24.5q70 0 121 -22t79.5 -60.5t42 -84.5t13.5 -101q0 -32 -8 -90l-35 -184q-61 -308 -354 -308q-132 0 -194 75t-62 194zM317 885q0 -203 189 -203q129 0 195 67t90 187l36 184q9 56 9 78 q0 91 -46.5 147t-142.5 56q-238 0 -287 -252l-34 -174q-9 -70 -9 -90z" />
<glyph unicode="&#xbb;" horiz-adv-x="1120" d="M77.5 126q3.5 18 18.5 30l436 387l-301 395q-10 13 -9 31.5t14 29.5q15 11 33.5 9t27.5 -15l321 -422q19 -25 15 -39q-2 -17 -23 -34l-465 -412q-14 -12 -33 -9t-28 17q-10 14 -6.5 32zM539.5 126q3.5 18 17.5 30l436 387l-299 395q-10 13 -9.5 31.5t13.5 29.5 q14 11 32.5 9t27.5 -15l321 -422q19 -19 17 -39q-4 -18 -25 -34l-463 -412q-15 -12 -33.5 -9t-29.5 17q-9 14 -5.5 32z" />
<glyph unicode="&#xbc;" horiz-adv-x="919" d="M74 -225q0 13 14 37l371 577q13 19 30 19q31 0 31 -31q0 -14 -10 -29l-348 -543h241l37 193q3 16 12.5 26.5t22.5 10.5t22 -9.5t9 -21.5q0 -14 -2 -24l-35 -175h94q13 0 23 -8t10 -20q0 -14 -11 -24.5t-26 -10.5h-102l-29 -156q-3 -17 -12.5 -26t-22.5 -9q-28 0 -28 35 q0 13 4 33l22 123h-285q-13 0 -22.5 8.5t-9.5 24.5zM131 524q0 13 10.5 23t22.5 10h676q13 0 21.5 -8.5t8.5 -22.5q0 -13 -10 -22.5t-22 -9.5h-676q-14 0 -22.5 8.5t-8.5 21.5zM317 686q0 17 9.5 26t25.5 9h205l131 680l-239 -154q-15 -10 -29 -10q-13 0 -22 8t-9 21 q0 17 21 32l297 193q18 12 34 12q10 0 17.5 -7t7.5 -21q0 -11 -4 -31l-139 -723h116q12 0 21.5 -8.5t9.5 -20.5q0 -17 -10.5 -26t-26.5 -9h-385q-12 0 -21.5 8.5t-9.5 20.5z" />
<glyph unicode="&#xbd;" horiz-adv-x="919" d="M125 -403q0 45 30.5 109.5t96.5 125.5q43 39 139 105q46 32 75 55t66 58t55.5 71.5t18.5 73.5q0 76 -40 115.5t-107 39.5q-65 0 -115 -26q-11 -6 -25.5 -15t-23.5 -13.5t-16 -4.5q-15 0 -24 9.5t-9 23.5q0 27 43 49q67 41 170 41q94 0 153.5 -57.5t59.5 -161.5 q0 -76 -56.5 -149.5t-205.5 -174.5q-102 -69 -148.5 -123t-66.5 -117h354q14 0 23.5 -7.5t9.5 -20.5q0 -15 -11 -25t-28 -10h-385q-33 0 -33 29zM131 524q0 13 10.5 23t22.5 10h676q13 0 21.5 -8.5t8.5 -22.5q0 -13 -10 -22.5t-22 -9.5h-676q-14 0 -22.5 8.5t-8.5 21.5z M317 686q0 17 9.5 26t25.5 9h205l131 680l-239 -154q-15 -10 -29 -10q-13 0 -22 8t-9 21q0 17 21 32l297 193q18 12 34 12q10 0 17.5 -7t7.5 -21q0 -11 -4 -31l-139 -723h116q12 0 21.5 -8.5t9.5 -20.5q0 -17 -10.5 -26t-26.5 -9h-385q-12 0 -21.5 8.5t-9.5 20.5z" />
<glyph unicode="&#xbe;" horiz-adv-x="919" d="M74 -225q0 18 18 43l367 571q13 19 30 19q31 0 31 -31q0 -14 -10 -29l-348 -543h241l37 193q3 16 12.5 26.5t22.5 10.5t22 -9.5t9 -21.5q0 -14 -2 -24l-35 -175h94q13 0 23 -8t10 -20q0 -14 -11 -24.5t-26 -10.5h-102l-29 -156q-3 -17 -12.5 -26t-22.5 -9q-28 0 -28 35 q0 13 4 33l22 123h-285q-13 0 -22.5 8.5t-9.5 24.5zM131 518q0 13 10.5 23t22.5 10h676q13 0 21.5 -8.5t8.5 -22.5q0 -13 -10 -23t-22 -10h-676q-14 0 -22.5 8.5t-8.5 22.5zM348 743q0 14 9 22.5t24 8.5q7 0 14 -3.5t19 -13.5t14 -12q50 -40 131 -40q95 0 154 53 q59 59 59 135q0 83 -51 118.5t-129 35.5h-23q-32 0 -32 30q0 33 32 33h49q73 0 128 46t55 126q0 66 -35 107q-42 45 -115 45q-56 0 -96 -19q-15 -6 -31 -15t-26 -14.5t-17 -5.5q-26 0 -26 27q0 28 47 51q65 39 151 39q95 0 148 -53q65 -59 65 -162q0 -139 -139 -205 q107 -51 107 -184q0 -103 -70 -176q-78 -78 -205 -78q-100 0 -164 43q-47 35 -47 61z" />
<glyph unicode="&#xbf;" horiz-adv-x="925" d="M63 -164q0 49 9.5 91t32.5 80.5t44.5 67t63.5 64.5t70 58t82 61q60 44 98.5 81.5t62 76t35.5 72t23 83.5q4 17 16.5 26t26.5 9q21 0 33 -14.5t8 -38.5q-21 -110 -74.5 -188.5t-177.5 -169.5q-75 -55 -116.5 -90.5t-80 -79.5t-54 -89t-15.5 -100q0 -131 74 -200.5 t182 -69.5q136 0 243 72l14 10.5t14 10l12 7.5t12 7t10.5 5t12 4t11.5 1q43 0 43 -43q0 -42 -104 -95q-125 -61 -271 -61q-66 0 -125.5 21.5t-108 63t-77.5 111t-29 156.5zM596 930q0 35 24 60.5t58 25.5q35 0 60.5 -25.5t25.5 -60.5q0 -34 -25.5 -58t-60.5 -24 q-34 0 -58 24t-24 58z" />
<glyph unicode="&#xc0;" horiz-adv-x="1120" d="M-8 37q110 271 307 662.5t401 756.5q30 53 64 53q20 0 30 -10.5t17 -42.5q161 -727 219 -1423q3 -25 -10 -39t-33 -14q-38 0 -41 38q-7 91 -39 365h-667q-72 -153 -168 -371q-14 -32 -47 -32q-22 0 -32 16.5t-1 40.5zM281 469h616q-59 448 -156 891q-257 -459 -460 -891z M637 2005q0 16 13 28.5t32 12.5q26 0 41 -27l188 -327q9 -15 9 -29q0 -15 -11 -26t-28 -11q-16 0 -24.5 5.5t-18.5 23.5l-191 315q-10 17 -10 35z" />
<glyph unicode="&#xc1;" horiz-adv-x="1120" d="M-8 37q110 271 307 662.5t401 756.5q30 53 64 53q20 0 30 -10.5t17 -42.5q161 -727 219 -1423q3 -25 -10 -39t-33 -14q-38 0 -41 38q-7 91 -39 365h-667q-72 -153 -168 -371q-14 -32 -47 -32q-22 0 -32 16.5t-1 40.5zM281 469h616q-59 448 -156 891q-257 -459 -460 -891z M629 1665q0 16 8 29l188 327q15 27 43 27q20 0 31.5 -12.5t11.5 -28.5q0 -18 -10 -35l-190 -315q-17 -29 -45 -29q-17 0 -27 10.5t-10 26.5z" />
<glyph unicode="&#xc2;" horiz-adv-x="1120" d="M-8 37q110 271 307 662.5t401 756.5q30 53 64 53q20 0 30 -10.5t17 -42.5q161 -727 219 -1423q3 -25 -10 -39t-33 -14q-38 0 -41 38q-7 91 -39 365h-667q-72 -153 -168 -371q-14 -32 -47 -32q-22 0 -32 16.5t-1 40.5zM281 469h616q-59 448 -156 891q-257 -459 -460 -891z M453 1706q0 15 16 31l303 293q14 14 35 14t31 -14l256 -293q10 -13 10 -27q0 -16 -11 -28.5t-30 -12.5q-17 0 -29 12l-233 254l-279 -256q-12 -12 -28 -12t-28.5 11t-12.5 28z" />
<glyph unicode="&#xc3;" horiz-adv-x="1120" d="M-8 37q110 271 307 662.5t401 756.5q30 53 64 53q20 0 30 -10.5t17 -42.5q161 -727 219 -1423q3 -25 -10 -39t-33 -14q-38 0 -41 38q-7 91 -39 365h-667q-72 -153 -168 -371q-14 -32 -47 -32q-22 0 -32 16.5t-1 40.5zM281 469h616q-59 448 -156 891q-257 -459 -460 -891z M481 1796q-2 36 50 67.5t120 32.5q50 1 98 -19t92 -39.5t83 -18.5q32 0 55 8.5t33 19t22.5 19t24.5 8.5q18 0 29.5 -12.5t11.5 -30.5q2 -36 -50.5 -68t-119.5 -32q-51 -1 -99 19t-91.5 39.5t-82.5 18.5q-40 0 -65 -14t-40 -27.5t-30 -13.5q-18 0 -29.5 12.5t-11.5 30.5z" />
<glyph unicode="&#xc4;" horiz-adv-x="1120" d="M-8 37q110 271 307 662.5t401 756.5q30 53 64 53q20 0 30 -10.5t17 -42.5q161 -727 219 -1423q3 -25 -10 -39t-33 -14q-38 0 -41 38q-7 91 -39 365h-667q-72 -153 -168 -371q-14 -32 -47 -32q-22 0 -32 16.5t-1 40.5zM281 469h616q-59 448 -156 891q-257 -459 -460 -891z M580 1784q0 28 18.5 46.5t46.5 18.5t47 -18.5t19 -46.5t-19 -46t-47 -18t-46.5 18t-18.5 46zM858 1784q0 28 19 46.5t47 18.5t46.5 -18.5t18.5 -46.5t-18.5 -46t-46.5 -18t-47 18t-19 46z" />
<glyph unicode="&#xc5;" horiz-adv-x="1120" d="M-8 37q110 271 307 662.5t401 756.5q30 53 64 53q20 0 30 -10.5t17 -42.5q161 -727 219 -1423q3 -25 -10 -39t-33 -14q-38 0 -41 38q-7 91 -39 365h-667q-72 -153 -168 -371q-14 -32 -47 -32q-22 0 -32 16.5t-1 40.5zM281 469h616q-59 448 -156 891q-257 -459 -460 -891z M555 1774q0 98 69 166.5t167 68.5t167.5 -68.5t69.5 -166.5q0 -100 -69 -169t-168 -69q-98 0 -167 69t-69 169zM623 1774q0 -70 50 -119t118 -49t117.5 49t49.5 119t-49.5 117.5t-117.5 47.5t-118 -47.5t-50 -117.5z" />
<glyph unicode="&#xc6;" horiz-adv-x="1718" d="M-14 37q0 17 18 43q413 595 1020 1380q26 35 63 35h705q19 0 31 -11t12 -30t-13.5 -30t-35.5 -11h-612l-121 -627h544q18 0 30.5 -10t12.5 -28q0 -19 -13.5 -31t-35.5 -12h-553l-120 -623h632q16 0 28.5 -10.5t12.5 -28.5t-13 -30.5t-34 -12.5h-680q-18 0 -29.5 10.5 t-11.5 30.5q0 13 8 53l56 291h-568q-29 -41 -81.5 -114t-95.5 -133t-79 -113q-17 -25 -40 -25q-18 0 -27.5 10.5t-9.5 26.5zM381 471h522l180 926q-323 -405 -702 -926z" />
<glyph unicode="&#xc7;" horiz-adv-x="1099" d="M190 424q0 89 19 197l55 305q26 142 71.5 247t117 182.5t175.5 116.5t242 39q116 0 215 -47q45 -22 61.5 -37.5t16.5 -31.5q0 -18 -13.5 -31.5t-31.5 -13.5q-8 0 -15 3t-12.5 7.5t-17 12t-24.5 13.5q-86 44 -179 44q-108 0 -192.5 -31t-138.5 -79t-94 -122t-61.5 -145 t-37.5 -162l-51 -287q-19 -108 -19 -182q0 -359 345 -359q125 0 253 72q19 11 40.5 26.5t33 22t23.5 6.5q19 0 31 -13.5t12 -31.5q0 -12 -9.5 -23.5t-20 -19t-38.5 -24.5q-157 -96 -325 -96h-3l-8 -66q217 0 217 -160q0 -77 -72 -127.5t-182 -50.5q-62 0 -88 7.5t-26 31.5 q0 17 23 24t79 7q82 0 128 31t46 77q0 51 -34.5 71.5t-106.5 25.5q-33 3 -44 9t-11 23q0 15 4 43l8 58q-99 10 -170.5 48t-112.5 99t-59.5 132.5t-18.5 158.5z" />
<glyph unicode="&#xc8;" horiz-adv-x="1073" d="M129 41q0 13 8 53l262 1358q10 43 47 43h701q19 0 31 -11t12 -30t-13.5 -30t-35.5 -11h-662l-121 -627h594q18 0 30.5 -10t12.5 -28q0 -19 -13.5 -31t-35.5 -12h-602l-121 -623h682q16 0 28.5 -10.5t12.5 -28.5t-13 -30.5t-34 -12.5h-729q-18 0 -29.5 10.5t-11.5 30.5z M637 2005q0 16 13 28.5t32 12.5q26 0 41 -27l188 -327q9 -15 9 -29q0 -15 -11 -26t-28 -11q-16 0 -24.5 5.5t-18.5 23.5l-191 315q-10 17 -10 35z" />
<glyph unicode="&#xc9;" horiz-adv-x="1073" d="M129 41q0 13 8 53l262 1358q10 43 47 43h701q19 0 31 -11t12 -30t-13.5 -30t-35.5 -11h-662l-121 -627h594q18 0 30.5 -10t12.5 -28q0 -19 -13.5 -31t-35.5 -12h-602l-121 -623h682q16 0 28.5 -10.5t12.5 -28.5t-13 -30.5t-34 -12.5h-729q-18 0 -29.5 10.5t-11.5 30.5z M743 1665q0 14 9 29l188 327q15 27 43 27q20 0 31.5 -12.5t11.5 -28.5q0 -18 -10 -35l-191 -315q-17 -29 -45 -29q-17 0 -27 10.5t-10 26.5z" />
<glyph unicode="&#xca;" horiz-adv-x="1073" d="M129 41q0 13 8 53l262 1358q10 43 47 43h701q19 0 31 -11t12 -30t-13.5 -30t-35.5 -11h-662l-121 -627h594q18 0 30.5 -10t12.5 -28q0 -19 -13.5 -31t-35.5 -12h-602l-121 -623h682q16 0 28.5 -10.5t12.5 -28.5t-13 -30.5t-34 -12.5h-729q-18 0 -29.5 10.5t-11.5 30.5z M489 1706q0 14 17 31l303 293q14 14 35 14q20 0 30 -14l256 -293q11 -15 11 -27q0 -16 -11 -28.5t-30 -12.5q-17 0 -29 12l-233 254l-279 -256q-12 -12 -29 -12q-16 0 -28.5 11t-12.5 28z" />
<glyph unicode="&#xcb;" horiz-adv-x="1073" d="M129 41q0 13 8 53l262 1358q10 43 47 43h701q19 0 31 -11t12 -30t-13.5 -30t-35.5 -11h-662l-121 -627h594q18 0 30.5 -10t12.5 -28q0 -19 -13.5 -31t-35.5 -12h-602l-121 -623h682q16 0 28.5 -10.5t12.5 -28.5t-13 -30.5t-34 -12.5h-729q-18 0 -29.5 10.5t-11.5 30.5z M614 1784q0 28 19 46.5t47 18.5t46.5 -18.5t18.5 -46.5t-18.5 -46t-46.5 -18t-47 18t-19 46zM893 1784q0 28 18.5 46.5t46.5 18.5t47 -18.5t19 -46.5t-19 -46t-47 -18t-46.5 18t-18.5 46z" />
<glyph unicode="&#xcc;" horiz-adv-x="450" d="M129 23q0 13 6 40l273 1407q3 19 16 30t29 11q18 0 29.5 -10t11.5 -28q0 -1 -5 -31l-274 -1419q-3 -19 -16 -30t-29 -11q-18 0 -29.5 10.5t-11.5 30.5zM381 2005q0 16 13 28.5t32 12.5q26 0 41 -27l188 -327q9 -15 9 -29q0 -15 -11 -26t-28 -11q-16 0 -24.5 5.5 t-18.5 23.5l-191 315q-10 17 -10 35z" />
<glyph unicode="&#xcd;" horiz-adv-x="450" d="M129 23q0 13 6 40l273 1407q3 19 16 30t29 11q18 0 29.5 -10t11.5 -28q0 -1 -5 -31l-274 -1419q-3 -19 -16 -30t-29 -11q-18 0 -29.5 10.5t-11.5 30.5zM362 1665q0 14 9 29l188 327q15 27 43 27q20 0 31.5 -12.5t11.5 -28.5q0 -18 -10 -35l-191 -315q-17 -29 -45 -29 q-17 0 -27 10.5t-10 26.5z" />
<glyph unicode="&#xce;" horiz-adv-x="450" d="M129 23q0 13 6 40l273 1407q3 19 16 30t29 11q18 0 29.5 -10t11.5 -28q0 -1 -5 -31l-274 -1419q-3 -19 -16 -30t-29 -11q-18 0 -29.5 10.5t-11.5 30.5zM176 1706q0 14 17 31l303 293q14 14 34 14t31 -14l256 -293q10 -13 10 -27q0 -16 -11 -28.5t-30 -12.5q-16 0 -28 12 l-234 254l-278 -256q-12 -12 -29 -12q-16 0 -28.5 11t-12.5 28z" />
<glyph unicode="&#xcf;" horiz-adv-x="450" d="M129 23q0 13 6 40l273 1407q3 19 16 30t29 11q18 0 29.5 -10t11.5 -28q0 -1 -5 -31l-274 -1419q-3 -19 -16 -30t-29 -11q-18 0 -29.5 10.5t-11.5 30.5zM270 1784q0 28 19 46.5t47 18.5t46.5 -18.5t18.5 -46.5t-18.5 -46t-46.5 -18t-47 18t-19 46zM549 1784 q0 28 18.5 46.5t46.5 18.5t47 -18.5t19 -46.5t-19 -46t-47 -18t-46.5 18t-18.5 46z" />
<glyph unicode="&#xd0;" horiz-adv-x="1296" d="M55 731q0 18 12.5 30.5t30.5 12.5h201l131 678q10 43 47 43h344q90 0 163 -21t122 -58.5t84 -84.5t54 -105t27.5 -112.5t8.5 -114.5q0 -81 -20 -198l-48 -244q-109 -557 -632 -557h-379q-18 0 -29.5 10.5t-11.5 30.5q0 13 8 53l115 598h-189q-17 0 -28 11t-11 28zM254 82 h326q111 0 199.5 29.5t145.5 75.5t99.5 114.5t65 134t38.5 146.5l50 254q16 75 16 163q0 410 -373 410h-311l-123 -635h225q17 0 28 -11t11 -28q0 -18 -12.5 -30.5t-30.5 -12.5h-237z" />
<glyph unicode="&#xd1;" horiz-adv-x="1339" d="M129 18q0 5 4 25l275 1427q4 22 18 32.5t31 10.5q19 0 28.5 -8t18.5 -30l538 -1321l254 1316q3 20 15.5 31.5t29.5 11.5q18 0 29.5 -10t11.5 -28q0 -8 -6 -35l-272 -1417q-8 -41 -49 -41q-31 0 -45 34l-541 1321l-254 -1314q-3 -19 -16 -30t-29 -11q-41 0 -41 36z M657 1796q-2 36 50 67.5t120 32.5q50 1 98 -19t92 -39.5t83 -18.5q32 0 55 8.5t33 19t22.5 19t24.5 8.5q18 0 29.5 -12.5t11.5 -30.5q2 -36 -50.5 -68t-119.5 -32q-51 -1 -99 19t-91 39.5t-82 18.5q-40 0 -65.5 -14t-40.5 -27.5t-30 -13.5q-18 0 -29.5 12.5t-11.5 30.5z" />
<glyph unicode="&#xd2;" horiz-adv-x="1232" d="M190 436q0 90 21 213l37 207q52 300 155 449q143 208 428 208q82 0 148 -24.5t109.5 -66.5t73 -100.5t42.5 -125t13 -141.5q0 -77 -19 -185l-45 -254q-48 -257 -123 -385q-144 -249 -455 -249q-104 0 -180 35t-120 98.5t-64.5 143t-20.5 177.5zM279 434q0 -170 73 -269 t221 -99q275 0 398 231q66 125 100 342l43 258q12 68 12 166q0 162 -75 264.5t-217 102.5q-249 0 -375 -191q-85 -128 -129 -401l-35 -215q-16 -109 -16 -189zM774 2005q0 16 13 28.5t32 12.5q26 0 41 -27l189 -327q8 -13 8 -29q0 -15 -11 -26t-28 -11q-16 0 -24.5 5.5 t-18.5 23.5l-191 315q-10 17 -10 35z" />
<glyph unicode="&#xd3;" horiz-adv-x="1232" d="M190 436q0 90 21 213l37 207q52 300 155 449q143 208 428 208q82 0 148 -24.5t109.5 -66.5t73 -100.5t42.5 -125t13 -141.5q0 -77 -19 -185l-45 -254q-48 -257 -123 -385q-144 -249 -455 -249q-104 0 -180 35t-120 98.5t-64.5 143t-20.5 177.5zM279 434q0 -170 73 -269 t221 -99q275 0 398 231q66 125 100 342l43 258q12 68 12 166q0 162 -75 264.5t-217 102.5q-249 0 -375 -191q-85 -128 -129 -401l-35 -215q-16 -109 -16 -189zM735 1665q0 16 8 29l189 327q15 27 43 27q20 0 31.5 -12.5t11.5 -28.5q0 -18 -10 -35l-191 -315q-17 -29 -45 -29 q-17 0 -27 10.5t-10 26.5z" />
<glyph unicode="&#xd4;" horiz-adv-x="1232" d="M190 436q0 90 21 213l37 207q52 300 155 449q143 208 428 208q82 0 148 -24.5t109.5 -66.5t73 -100.5t42.5 -125t13 -141.5q0 -77 -19 -185l-45 -254q-48 -257 -123 -385q-144 -249 -455 -249q-104 0 -180 35t-120 98.5t-64.5 143t-20.5 177.5zM279 434q0 -170 73 -269 t221 -99q275 0 398 231q66 125 100 342l43 258q12 68 12 166q0 162 -75 264.5t-217 102.5q-249 0 -375 -191q-85 -128 -129 -401l-35 -215q-16 -109 -16 -189zM551 1706q0 15 16 31l303 293q14 14 35 14t31 -14l256 -293q10 -13 10 -27q0 -16 -11 -28.5t-30 -12.5 q-16 0 -28 12l-234 254l-278 -256q-12 -12 -29 -12q-16 0 -28.5 11t-12.5 28z" />
<glyph unicode="&#xd5;" horiz-adv-x="1232" d="M190 436q0 90 21 213l37 207q52 300 155 449q143 208 428 208q82 0 148 -24.5t109.5 -66.5t73 -100.5t42.5 -125t13 -141.5q0 -77 -19 -185l-45 -254q-48 -257 -123 -385q-144 -249 -455 -249q-104 0 -180 35t-120 98.5t-64.5 143t-20.5 177.5zM279 434q0 -170 73 -269 t221 -99q275 0 398 231q66 125 100 342l43 258q12 68 12 166q0 162 -75 264.5t-217 102.5q-249 0 -375 -191q-85 -128 -129 -401l-35 -215q-16 -109 -16 -189zM582 1796q-2 36 50 67.5t120 32.5q50 1 98 -19t91.5 -39.5t82.5 -18.5q32 0 55 8.5t33 19t22.5 19t24.5 8.5 q18 0 29.5 -12.5t11.5 -30.5q2 -36 -50.5 -68t-119.5 -32q-51 -1 -99 19t-91 39.5t-82 18.5q-40 0 -65 -14t-40 -27.5t-30 -13.5q-18 0 -29.5 12.5t-11.5 30.5z" />
<glyph unicode="&#xd6;" horiz-adv-x="1232" d="M190 436q0 90 21 213l37 207q52 300 155 449q143 208 428 208q82 0 148 -24.5t109.5 -66.5t73 -100.5t42.5 -125t13 -141.5q0 -77 -19 -185l-45 -254q-48 -257 -123 -385q-144 -249 -455 -249q-104 0 -180 35t-120 98.5t-64.5 143t-20.5 177.5zM279 434q0 -170 73 -269 t221 -99q275 0 398 231q66 125 100 342l43 258q12 68 12 166q0 162 -75 264.5t-217 102.5q-249 0 -375 -191q-85 -128 -129 -401l-35 -215q-16 -109 -16 -189zM672 1784q0 28 18.5 46.5t46.5 18.5t47 -18.5t19 -46.5t-19 -46t-47 -18t-46.5 18t-18.5 46zM950 1784 q0 28 19 46.5t47 18.5t46.5 -18.5t18.5 -46.5t-18.5 -46t-46.5 -18t-47 18t-19 46z" />
<glyph unicode="&#xd7;" horiz-adv-x="813" d="M111 295q0 17 14 31l264 227l-166 229q-11 14 -8 31q6 16 16 23q17 12 34.5 9t27.5 -20l160 -217l256 226q15 13 33 11.5t30 -16.5q8 -8 8 -24q0 -18 -14 -29l-266 -233l164 -224q11 -19 6 -32q-2 -10 -15 -23q-39 -25 -63 10l-156 215l-254 -223q-15 -12 -33 -11.5 t-30 15.5q-8 12 -8 25z" />
<glyph unicode="&#xd8;" horiz-adv-x="1232" d="M190 436q0 90 21 213l37 207q52 300 155 449q143 208 428 208q128 0 216 -59l47 90q9 17 25.5 22.5t31.5 -3.5t20.5 -26t-2.5 -32l-57 -108q105 -122 105 -342q0 -77 -19 -185l-45 -254q-48 -257 -123 -385q-144 -249 -455 -249q-108 0 -186 38l-39 -75q-8 -15 -25 -21 t-32 2q-15 7 -21 26t2 32l43 84q-127 116 -127 368zM279 434q0 -186 83 -282l642 1222q-72 56 -170 56q-249 0 -375 -191q-85 -128 -129 -401l-35 -215q-16 -109 -16 -189zM430 98q62 -32 143 -32q275 0 398 231q66 125 100 342l43 258q12 68 12 166q0 146 -61 244z" />
<glyph unicode="&#xd9;" horiz-adv-x="1277" d="M193 412q0 76 22 206l164 852q3 19 16 30t29 11q18 0 29.5 -10t11.5 -28q0 -7 -4 -31l-162 -838q-18 -95 -18 -186q-2 -176 73 -264t240 -88q76 0 139 15.5t110.5 42t86.5 68t65.5 86t49 104.5t37 116t28.5 127l162 845q3 19 16 30t29 11q18 0 29.5 -10t11.5 -28 q0 -7 -4 -31l-160 -834q-14 -73 -29 -131.5t-40.5 -125.5t-56 -118t-76.5 -100t-101.5 -80.5t-131 -51t-165.5 -19.5q-209 0 -306.5 115t-94.5 315zM748 2005q0 16 13 28.5t32 12.5q26 0 41 -27l188 -327q8 -13 8 -29q0 -15 -11 -26t-28 -11q-16 0 -24.5 5.5t-18.5 23.5 l-190 315q-10 17 -10 35z" />
<glyph unicode="&#xda;" horiz-adv-x="1277" d="M193 412q0 76 22 206l164 852q3 19 16 30t29 11q18 0 29.5 -10t11.5 -28q0 -7 -4 -31l-162 -838q-18 -95 -18 -186q-2 -176 73 -264t240 -88q76 0 139 15.5t110.5 42t86.5 68t65.5 86t49 104.5t37 116t28.5 127l162 845q3 19 16 30t29 11q18 0 29.5 -10t11.5 -28 q0 -7 -4 -31l-160 -834q-14 -73 -29 -131.5t-40.5 -125.5t-56 -118t-76.5 -100t-101.5 -80.5t-131 -51t-165.5 -19.5q-209 0 -306.5 115t-94.5 315zM805 1665q0 16 8 29l188 327q15 27 43 27q20 0 31.5 -12.5t11.5 -28.5q0 -18 -10 -35l-190 -315q-17 -29 -45 -29 q-17 0 -27 10.5t-10 26.5z" />
<glyph unicode="&#xdb;" horiz-adv-x="1277" d="M193 412q0 76 22 206l164 852q3 19 16 30t29 11q18 0 29.5 -10t11.5 -28q0 -7 -4 -31l-162 -838q-18 -95 -18 -186q-2 -176 73 -264t240 -88q76 0 139 15.5t110.5 42t86.5 68t65.5 86t49 104.5t37 116t28.5 127l162 845q3 19 16 30t29 11q18 0 29.5 -10t11.5 -28 q0 -7 -4 -31l-160 -834q-14 -73 -29 -131.5t-40.5 -125.5t-56 -118t-76.5 -100t-101.5 -80.5t-131 -51t-165.5 -19.5q-209 0 -306.5 115t-94.5 315zM573 1706q0 14 17 31l303 293q14 14 35 14q20 0 30 -14l256 -293q11 -15 11 -27q0 -16 -11 -28.5t-30 -12.5q-17 0 -29 12 l-233 254l-279 -256q-12 -12 -29 -12q-16 0 -28.5 11t-12.5 28z" />
<glyph unicode="&#xdc;" horiz-adv-x="1277" d="M193 412q0 76 22 206l164 852q3 19 16 30t29 11q18 0 29.5 -10t11.5 -28q0 -7 -4 -31l-162 -838q-18 -95 -18 -186q-2 -176 73 -264t240 -88q76 0 139 15.5t110.5 42t86.5 68t65.5 86t49 104.5t37 116t28.5 127l162 845q3 19 16 30t29 11q18 0 29.5 -10t11.5 -28 q0 -7 -4 -31l-160 -834q-14 -73 -29 -131.5t-40.5 -125.5t-56 -118t-76.5 -100t-101.5 -80.5t-131 -51t-165.5 -19.5q-209 0 -306.5 115t-94.5 315zM702 1784q0 28 19 46.5t47 18.5t47 -18.5t19 -46.5t-19 -46t-47 -18t-47 18t-19 46zM981 1784q0 28 19 46.5t47 18.5 t46.5 -18.5t18.5 -46.5t-18.5 -46t-46.5 -18t-47 18t-19 46z" />
<glyph unicode="&#xdd;" horiz-adv-x="958" d="M225 1460q-6 24 7.5 38.5t35.5 14.5q32 0 41 -34q85 -388 228 -838q256 361 563 850q14 22 35 22q23 0 35.5 -20t-1.5 -45q-272 -447 -606 -916l-98 -509q-3 -19 -16 -30t-29 -11q-18 0 -29.5 10.5t-11.5 30.5q0 13 6 40l92 478q-153 477 -252 919zM604 1665q0 16 8 29 l189 327q15 27 43 27q20 0 31.5 -12.5t11.5 -28.5q0 -18 -10 -35l-191 -315q-17 -29 -45 -29q-17 0 -27 10.5t-10 26.5z" />
<glyph unicode="&#xde;" horiz-adv-x="1153" d="M129 23q0 13 6 40l273 1407q3 19 16 30t29 11q18 0 29.5 -10t11.5 -28q0 -1 -5 -31l-51 -264h342q100 0 175 -28.5t119.5 -79.5t66.5 -115t22 -140q0 -57 -12 -119l-8 -41q-32 -166 -158 -255t-323 -89h-392l-55 -288q-3 -19 -16 -30t-29 -11q-18 0 -29.5 10.5 t-11.5 30.5zM287 393h375q168 0 269 73.5t128 205.5l8 41q10 58 10 102q0 125 -72.5 203t-224.5 78h-358z" />
<glyph unicode="&#xdf;" horiz-adv-x="1116" d="M76 -92q0 12 6 39l203 1042q53 269 160.5 384.5t285.5 115.5q128 0 209.5 -65t81.5 -195q0 -68 -29 -120t-75 -83t-102 -54t-112 -40t-102 -34t-75 -43.5t-29 -61.5q0 -32 27.5 -58.5t71 -47t96 -41.5t105.5 -48t96.5 -61t71 -86t27.5 -117q0 -168 -116.5 -257 t-323.5 -89q-146 0 -258 41q-50 18 -45 55q2 16 16 27.5t35 11.5q14 0 44 -14t85 -28.5t131 -14.5q170 0 260 66.5t90 184.5q0 59 -27.5 105t-71 75.5t-96 54.5t-105.5 47t-96.5 46t-71 59t-27.5 80q0 53 29 91.5t75 61t102 40.5t112 37t102 43.5t75 66.5t29 99 q0 97 -56.5 143.5t-156.5 46.5q-139 0 -226 -101.5t-132 -330.5l-211 -1073q-8 -41 -41 -41q-18 0 -29.5 10.5t-11.5 30.5z" />
<glyph unicode="&#xe0;" horiz-adv-x="1007" d="M141 311q0 48 17 148l24 143q37 208 135 309q102 105 275 105q153 0 262 -90l10 49q3 19 15 30t28 11q18 0 29.5 -10.5t11.5 -28.5q0 -7 -4 -27l-147 -755q-11 -57 -4 -84.5t38 -47.5q34 -20 27 -47q-7 -28 -45 -28q-40 0 -78 41q-18 18 -24 53q-145 -94 -271 -94 q-148 0 -223.5 86.5t-75.5 236.5zM225 315q0 -117 55.5 -182t161.5 -65q124 0 271 110q5 40 8 55l117 603q-99 102 -244 102q-143 0 -225 -92q-73 -84 -107 -273l-29 -163q-8 -44 -8 -95zM518 1599q0 16 13 28.5t32 12.5q26 0 41 -26l189 -328q8 -13 8 -29q0 -15 -11 -25.5 t-28 -10.5q-16 0 -24.5 5t-18.5 23l-191 316q-10 17 -10 34z" />
<glyph unicode="&#xe1;" horiz-adv-x="1007" d="M141 311q0 48 17 148l24 143q37 208 135 309q102 105 275 105q153 0 262 -90l10 49q3 19 15 30t28 11q18 0 29.5 -10.5t11.5 -28.5q0 -7 -4 -27l-147 -755q-11 -57 -4 -84.5t38 -47.5q34 -20 27 -47q-7 -28 -45 -28q-40 0 -78 41q-18 18 -24 53q-145 -94 -271 -94 q-148 0 -223.5 86.5t-75.5 236.5zM225 315q0 -117 55.5 -182t161.5 -65q124 0 271 110q5 40 8 55l117 603q-99 102 -244 102q-143 0 -225 -92q-73 -84 -107 -273l-29 -163q-8 -44 -8 -95zM537 1257q0 16 8 29l188 328q14 26 43 26q20 0 31.5 -12.5t11.5 -28.5q0 -17 -10 -34 l-191 -316q-17 -28 -45 -28q-17 0 -26.5 10t-9.5 26z" />
<glyph unicode="&#xe2;" horiz-adv-x="1007" d="M141 311q0 48 17 148l24 143q37 208 135 309q102 105 275 105q153 0 262 -90l10 49q3 19 15 30t28 11q18 0 29.5 -10.5t11.5 -28.5q0 -7 -4 -27l-147 -755q-11 -57 -4 -84.5t38 -47.5q34 -20 27 -47q-7 -28 -45 -28q-40 0 -78 41q-18 18 -24 53q-145 -94 -271 -94 q-148 0 -223.5 86.5t-75.5 236.5zM225 315q0 -117 55.5 -182t161.5 -65q124 0 271 110q5 40 8 55l117 603q-99 102 -244 102q-143 0 -225 -92q-73 -84 -107 -273l-29 -163q-8 -44 -8 -95zM328 1298q0 15 16 31l303 293q14 14 35 14q20 0 31 -14l256 -293q10 -13 10 -26 q0 -16 -11 -28.5t-30 -12.5q-17 0 -29 12l-233 254l-279 -256q-12 -12 -28 -12t-28.5 10.5t-12.5 27.5z" />
<glyph unicode="&#xe3;" horiz-adv-x="1007" d="M141 311q0 48 17 148l24 143q37 208 135 309q102 105 275 105q153 0 262 -90l10 49q3 19 15 30t28 11q18 0 29.5 -10.5t11.5 -28.5q0 -7 -4 -27l-147 -755q-11 -57 -4 -84.5t38 -47.5q34 -20 27 -47q-7 -28 -45 -28q-40 0 -78 41q-18 18 -24 53q-145 -94 -271 -94 q-148 0 -223.5 86.5t-75.5 236.5zM225 315q0 -117 55.5 -182t161.5 -65q124 0 271 110q5 40 8 55l117 603q-99 102 -244 102q-143 0 -225 -92q-73 -84 -107 -273l-29 -163q-8 -44 -8 -95zM342 1389q-2 36 50 67.5t120 32.5q50 1 98 -19t91.5 -40t82.5 -19q32 0 55.5 8.5 t33.5 19t22.5 19t24.5 8.5q18 0 29.5 -12.5t11.5 -30.5q2 -36 -50.5 -68t-119.5 -32q-51 -1 -99 19t-91.5 40t-82.5 19q-31 0 -54 -8.5t-33.5 -19t-23 -19t-24.5 -8.5q-18 0 -29.5 12.5t-11.5 30.5z" />
<glyph unicode="&#xe4;" horiz-adv-x="1007" d="M141 311q0 48 17 148l24 143q37 208 135 309q102 105 275 105q153 0 262 -90l10 49q3 19 15 30t28 11q18 0 29.5 -10.5t11.5 -28.5q0 -7 -4 -27l-147 -755q-11 -57 -4 -84.5t38 -47.5q34 -20 27 -47q-7 -28 -45 -28q-40 0 -78 41q-18 18 -24 53q-145 -94 -271 -94 q-148 0 -223.5 86.5t-75.5 236.5zM225 315q0 -117 55.5 -182t161.5 -65q124 0 271 110q5 40 8 55l117 603q-99 102 -244 102q-143 0 -225 -92q-73 -84 -107 -273l-29 -163q-8 -44 -8 -95zM424 1360q0 28 18.5 46.5t46.5 18.5t47 -18.5t19 -46.5t-19 -46t-47 -18t-46.5 18 t-18.5 46zM702 1360q0 28 19 46.5t47 18.5t47 -18.5t19 -46.5t-19 -46t-47 -18t-47 18t-19 46z" />
<glyph unicode="&#xe5;" horiz-adv-x="1007" d="M141 311q0 48 17 148l24 143q37 208 135 309q102 105 275 105q153 0 262 -90l10 49q3 19 15 30t28 11q18 0 29.5 -10.5t11.5 -28.5q0 -7 -4 -27l-147 -755q-11 -57 -4 -84.5t38 -47.5q34 -20 27 -47q-7 -28 -45 -28q-40 0 -78 41q-18 18 -24 53q-145 -94 -271 -94 q-148 0 -223.5 86.5t-75.5 236.5zM225 315q0 -117 55.5 -182t161.5 -65q124 0 271 110q5 40 8 55l117 603q-99 102 -244 102q-143 0 -225 -92q-73 -84 -107 -273l-29 -163q-8 -44 -8 -95zM426 1403q0 98 69 166.5t167 68.5t167.5 -68.5t69.5 -166.5q0 -99 -69.5 -168.5 t-167.5 -69.5t-167 69t-69 169zM494 1403q0 -70 50 -119t118 -49t117.5 49t49.5 119t-49.5 118t-117.5 48t-118 -48t-50 -118z" />
<glyph unicode="&#xe6;" horiz-adv-x="1570" d="M141 311q0 48 17 148l24 143q37 208 135 309q102 105 275 105q153 0 262 -90l10 49q3 19 15 30t28 11q18 0 29.5 -10.5t11.5 -28.5q0 -7 -4 -27l-10 -47q116 113 299 113q82 0 141.5 -25.5t93.5 -71.5t50 -102.5t16 -126.5q0 -67 -8 -119l-10 -57q-7 -37 -46 -37h-612 l-8 -47q-8 -50 -8 -94q0 -121 63 -194.5t180 -73.5q111 0 201 32q15 5 31 12t26 11t17 4q37 0 37 -41q0 -16 -17.5 -28.5t-62.5 -30.5q-103 -39 -232 -39q-218 0 -294 178l-27 -137q-8 -41 -41 -41q-18 0 -29.5 10.5t-11.5 30.5q0 12 6 39q-135 -80 -248 -80 q-148 0 -223.5 86.5t-75.5 236.5zM225 315q0 -117 55.5 -182t161.5 -65q119 0 267 108l129 660q-99 102 -244 102q-143 0 -225 -92q-73 -84 -107 -273l-29 -163q-8 -44 -8 -95zM870 555h570l4 29q8 49 8 106q0 250 -219 250q-155 0 -242.5 -94.5t-113.5 -255.5z" />
<glyph unicode="&#xe7;" horiz-adv-x="829" d="M141 340q0 48 6 94l23 139q14 92 49 170.5t89.5 140.5t134 97t175.5 35q109 0 183 -27q78 -29 78 -67q0 -20 -12.5 -29.5t-28.5 -9.5q-15 0 -44.5 13.5t-45.5 18.5q-63 19 -130 19q-150 0 -245.5 -102.5t-122.5 -270.5l-21 -139q-6 -38 -6 -74q0 -132 67 -205t199 -73 q84 0 140 16q25 7 59 22t47 15q14 0 24.5 -8.5t10.5 -22.5q0 -47 -102 -78q-77 -23 -160 -26l-8 -72q217 0 217 -160q0 -77 -72 -127.5t-182 -50.5q-63 0 -89 7.5t-26 31.5q0 17 23.5 24t79.5 7q82 0 128 31t46 77q0 51 -35 71.5t-107 25.5q-33 3 -44 9t-11 23q0 15 4 43 l8 62q-147 12 -223 103.5t-76 246.5z" />
<glyph unicode="&#xe8;" horiz-adv-x="952" d="M141 340q0 38 9 96l26 168q14 87 46 159t83.5 130t130.5 90.5t178 32.5q82 0 141.5 -25.5t93.5 -71.5t50 -102.5t16 -126.5q0 -67 -8 -119l-10 -57q-7 -37 -45 -37h-612l-9 -47q-8 -50 -8 -94q0 -121 63.5 -194.5t180.5 -73.5q111 0 201 32q15 5 31 12t25.5 11t16.5 4 q37 0 37 -41q0 -16 -17.5 -28.5t-62.5 -30.5q-103 -39 -231 -39q-110 0 -185 48t-108 125t-33 179zM252 555h569l4 29q9 56 9 106q0 250 -220 250q-155 0 -242.5 -94.5t-113.5 -255.5zM504 1599q0 16 13 28.5t32 12.5q26 0 41 -26l188 -328q8 -13 8 -29q0 -15 -10.5 -25.5 t-27.5 -10.5q-16 0 -24.5 5t-18.5 23l-191 316q-10 17 -10 34z" />
<glyph unicode="&#xe9;" horiz-adv-x="952" d="M141 340q0 38 9 96l26 168q14 87 46 159t83.5 130t130.5 90.5t178 32.5q82 0 141.5 -25.5t93.5 -71.5t50 -102.5t16 -126.5q0 -67 -8 -119l-10 -57q-7 -37 -45 -37h-612l-9 -47q-8 -50 -8 -94q0 -121 63.5 -194.5t180.5 -73.5q111 0 201 32q15 5 31 12t25.5 11t16.5 4 q37 0 37 -41q0 -16 -17.5 -28.5t-62.5 -30.5q-103 -39 -231 -39q-110 0 -185 48t-108 125t-33 179zM252 555h569l4 29q9 56 9 106q0 250 -220 250q-155 0 -242.5 -94.5t-113.5 -255.5zM532 1257q0 14 9 29l188 328q14 26 43 26q20 0 31.5 -12.5t11.5 -28.5q0 -17 -10 -34 l-191 -316q-17 -28 -45 -28q-17 0 -27 10.5t-10 25.5z" />
<glyph unicode="&#xea;" horiz-adv-x="952" d="M141 340q0 38 9 96l26 168q14 87 46 159t83.5 130t130.5 90.5t178 32.5q82 0 141.5 -25.5t93.5 -71.5t50 -102.5t16 -126.5q0 -67 -8 -119l-10 -57q-7 -37 -45 -37h-612l-9 -47q-8 -50 -8 -94q0 -121 63.5 -194.5t180.5 -73.5q111 0 201 32q15 5 31 12t25.5 11t16.5 4 q37 0 37 -41q0 -16 -17.5 -28.5t-62.5 -30.5q-103 -39 -231 -39q-110 0 -185 48t-108 125t-33 179zM252 555h569l4 29q9 56 9 106q0 250 -220 250q-155 0 -242.5 -94.5t-113.5 -255.5zM344 1298q0 15 16 31l304 293q14 14 34 14t31 -14l256 -293q10 -13 10 -26 q0 -16 -11 -28.5t-30 -12.5q-16 0 -28 12l-234 254l-278 -256q-12 -12 -29 -12q-16 0 -28.5 10.5t-12.5 27.5z" />
<glyph unicode="&#xeb;" horiz-adv-x="952" d="M141 340q0 38 9 96l26 168q14 87 46 159t83.5 130t130.5 90.5t178 32.5q82 0 141.5 -25.5t93.5 -71.5t50 -102.5t16 -126.5q0 -67 -8 -119l-10 -57q-7 -37 -45 -37h-612l-9 -47q-8 -50 -8 -94q0 -121 63.5 -194.5t180.5 -73.5q111 0 201 32q15 5 31 12t25.5 11t16.5 4 q37 0 37 -41q0 -16 -17.5 -28.5t-62.5 -30.5q-103 -39 -231 -39q-110 0 -185 48t-108 125t-33 179zM252 555h569l4 29q9 56 9 106q0 250 -220 250q-155 0 -242.5 -94.5t-113.5 -255.5zM446 1360q0 28 19 46.5t47 18.5t47 -18.5t19 -46.5t-19 -46t-47 -18t-47 18t-19 46z M725 1360q0 28 19 46.5t47 18.5t46.5 -18.5t18.5 -46.5t-18.5 -46t-46.5 -18t-47 18t-19 46z" />
<glyph unicode="&#xec;" d="M100 29q0 12 6 39l177 907q3 19 15 30t28 11q18 0 29.5 -10.5t11.5 -28.5q0 -2 -5 -27l-180 -921q-8 -41 -41 -41q-18 0 -29.5 10.5t-11.5 30.5zM274 1599q0 16 13 28.5t32 12.5q26 0 41 -26l189 -328q8 -13 8 -29q0 -15 -11 -25.5t-28 -10.5q-16 0 -24.5 5t-18.5 23 l-190 316q-11 18 -11 34z" />
<glyph unicode="&#xed;" d="M100 29q0 12 6 39l177 907q3 19 15 30t28 11q18 0 29.5 -10.5t11.5 -28.5q0 -2 -5 -27l-180 -921q-8 -41 -41 -41q-18 0 -29.5 10.5t-11.5 30.5zM330 1257q0 16 8 29l188 328q14 26 43 26q20 0 31.5 -12.5t11.5 -28.5q0 -17 -10 -34l-190 -316q-17 -28 -45 -28 q-17 0 -27 10.5t-10 25.5z" />
<glyph unicode="&#xee;" d="M25 1298q0 15 16 31l303 293q14 14 35 14t31 -14l256 -293q10 -13 10 -26q0 -16 -11 -28.5t-30 -12.5q-17 0 -29 12l-233 254l-279 -256q-12 -12 -28 -12t-28.5 10.5t-12.5 27.5zM100 29q0 12 6 39l177 907q3 19 15 30t28 11q18 0 29.5 -10.5t11.5 -28.5q0 -2 -5 -27 l-180 -921q-8 -41 -41 -41q-18 0 -29.5 10.5t-11.5 30.5z" />
<glyph unicode="&#xef;" d="M100 29q0 12 6 39l177 907q3 19 15 30t28 11q18 0 29.5 -10.5t11.5 -28.5q0 -2 -5 -27l-180 -921q-8 -41 -41 -41q-18 0 -29.5 10.5t-11.5 30.5zM154 1360q0 28 18.5 46.5t46.5 18.5t47 -18.5t19 -46.5t-19 -46t-47 -18t-46.5 18t-18.5 46zM432 1360q0 28 19 46.5 t47 18.5t46.5 -18.5t18.5 -46.5t-18.5 -46t-46.5 -18t-47 18t-19 46z" />
<glyph unicode="&#xf0;" horiz-adv-x="1067" d="M117 418q0 200 139 332q72 68 166 104.5t188 36.5q161 0 295 -84q-59 238 -223 450l-250 -172q-20 -14 -39 -14q-13 0 -24 9.5t-11 25.5q0 22 21 37l252 174q-36 40 -99 100q-2 2 -7.5 7t-8 8t-6 7.5t-5 9.5t-1.5 11q0 15 12 27t29 12q16 0 28 -8t37 -31q46 -44 90 -96 l177 121q21 14 38 14q14 0 24.5 -9.5t10.5 -25.5q0 -24 -20 -37l-178 -122q122 -160 194 -353t72 -405q0 -245 -117 -395q-66 -84 -160 -127t-200 -43q-193 0 -308 118q-116 119 -116 318zM199 418q0 -162 90 -258q91 -97 252 -97q88 0 166 36.5t133 109.5q96 127 96 338 q0 47 -8 137q-62 61 -145.5 93t-172.5 32q-77 0 -154.5 -30t-136.5 -85q-120 -113 -120 -276z" />
<glyph unicode="&#xf1;" horiz-adv-x="1009" d="M100 29q0 12 6 39l140 714q8 41 8 72q0 27 -10.5 44.5t-23.5 23.5t-23.5 17t-10.5 26q0 39 45 39t74 -37q26 -33 31 -82q155 131 328 131q140 0 207 -74t67 -203q0 -67 -16 -145l-109 -565q-8 -41 -41 -41q-18 0 -29.5 10.5t-11.5 30.5q0 12 6 39l105 536q14 72 14 129 q0 205 -197 205q-172 0 -331 -156l-146 -753q-8 -41 -41 -41q-18 0 -29.5 10.5t-11.5 30.5zM356 1389q-2 36 50 67.5t120 32.5q50 1 98 -19t92 -40t83 -19q32 0 55 8.5t33 19t22.5 19t24.5 8.5q18 0 29.5 -12.5t11.5 -30.5q2 -36 -50.5 -68t-119.5 -32q-51 -1 -99 19 t-91.5 40t-82.5 19q-31 0 -54 -8.5t-33.5 -19t-23 -19t-24.5 -8.5q-18 0 -29.5 12.5t-11.5 30.5z" />
<glyph unicode="&#xf2;" horiz-adv-x="985" d="M141 311q0 57 13 127l39 209q15 78 44.5 141t79 116t127.5 82.5t179 29.5q83 0 145 -26.5t96.5 -73.5t51 -103t16.5 -123q0 -50 -10 -108l-43 -222q-72 -372 -428 -372q-160 0 -235 89.5t-75 233.5zM223 311q0 -243 228 -243q157 0 237 81t109 226l43 221q10 52 10 94 q0 111 -55.5 178.5t-171.5 67.5q-290 0 -349 -305l-41 -209q-10 -62 -10 -111zM545 1599q0 16 13 28.5t32 12.5q26 0 41 -26l188 -328q8 -13 8 -29q0 -15 -11 -25.5t-28 -10.5q-16 0 -24.5 5t-18.5 23l-190 316q-10 17 -10 34z" />
<glyph unicode="&#xf3;" horiz-adv-x="985" d="M141 311q0 57 13 127l39 209q15 78 44.5 141t79 116t127.5 82.5t179 29.5q83 0 145 -26.5t96.5 -73.5t51 -103t16.5 -123q0 -50 -10 -108l-43 -222q-72 -372 -428 -372q-160 0 -235 89.5t-75 233.5zM223 311q0 -243 228 -243q157 0 237 81t109 226l43 221q10 52 10 94 q0 111 -55.5 178.5t-171.5 67.5q-290 0 -349 -305l-41 -209q-10 -62 -10 -111zM573 1257q0 14 9 29l188 328q14 26 43 26q20 0 31.5 -12.5t11.5 -28.5q0 -17 -10 -34l-191 -316q-17 -28 -45 -28q-17 0 -27 10.5t-10 25.5z" />
<glyph unicode="&#xf4;" horiz-adv-x="985" d="M141 311q0 57 13 127l39 209q15 78 44.5 141t79 116t127.5 82.5t179 29.5q83 0 145 -26.5t96.5 -73.5t51 -103t16.5 -123q0 -50 -10 -108l-43 -222q-72 -372 -428 -372q-160 0 -235 89.5t-75 233.5zM223 311q0 -243 228 -243q157 0 237 81t109 226l43 221q10 52 10 94 q0 111 -55.5 178.5t-171.5 67.5q-290 0 -349 -305l-41 -209q-10 -62 -10 -111zM350 1298q0 14 17 31l303 293q14 14 35 14q19 0 30 -14l256 -293q10 -13 10 -26q0 -16 -10.5 -28.5t-29.5 -12.5q-17 0 -29 12l-234 254l-278 -256q-12 -12 -29 -12q-16 0 -28.5 10.5 t-12.5 27.5z" />
<glyph unicode="&#xf5;" horiz-adv-x="985" d="M141 311q0 57 13 127l39 209q15 78 44.5 141t79 116t127.5 82.5t179 29.5q83 0 145 -26.5t96.5 -73.5t51 -103t16.5 -123q0 -50 -10 -108l-43 -222q-72 -372 -428 -372q-160 0 -235 89.5t-75 233.5zM223 311q0 -243 228 -243q157 0 237 81t109 226l43 221q10 52 10 94 q0 111 -55.5 178.5t-171.5 67.5q-290 0 -349 -305l-41 -209q-10 -62 -10 -111zM344 1389q-2 36 50 67.5t120 32.5q50 1 98 -19t91.5 -40t82.5 -19q32 0 55.5 8.5t33.5 19t22.5 19t24.5 8.5q18 0 29.5 -12.5t11.5 -30.5q2 -36 -50.5 -68t-119.5 -32q-51 -1 -99 19t-91.5 40 t-82.5 19q-31 0 -54 -8.5t-33.5 -19t-23 -19t-24.5 -8.5q-18 0 -29.5 12.5t-11.5 30.5z" />
<glyph unicode="&#xf6;" horiz-adv-x="985" d="M141 311q0 57 13 127l39 209q15 78 44.5 141t79 116t127.5 82.5t179 29.5q83 0 145 -26.5t96.5 -73.5t51 -103t16.5 -123q0 -50 -10 -108l-43 -222q-72 -372 -428 -372q-160 0 -235 89.5t-75 233.5zM223 311q0 -243 228 -243q157 0 237 81t109 226l43 221q10 52 10 94 q0 111 -55.5 178.5t-171.5 67.5q-290 0 -349 -305l-41 -209q-10 -62 -10 -111zM444 1360q0 28 19 46.5t47 18.5t46.5 -18.5t18.5 -46.5t-18.5 -46t-46.5 -18t-47 18t-19 46zM723 1360q0 28 18.5 46.5t46.5 18.5t47 -18.5t19 -46.5t-19 -46t-47 -18t-46.5 18t-18.5 46z" />
<glyph unicode="&#xf7;" horiz-adv-x="1097" d="M238 543q0 18 12.5 30.5t30.5 12.5h626q15 0 26 -11t11 -28t-12.5 -29t-28.5 -12h-627q-17 0 -27.5 11t-10.5 26zM451 221q0 31 22 53.5t53 22.5q32 0 55 -22.5t23 -53.5q0 -32 -23 -55t-55 -23q-31 0 -53 23t-22 55zM580 872q0 31 21.5 53.5t53.5 22.5t55 -22.5 t23 -53.5q0 -32 -23 -54.5t-55 -22.5t-53.5 22.5t-21.5 54.5z" />
<glyph unicode="&#xf8;" horiz-adv-x="985" d="M141 311q0 57 13 127l39 209q15 78 44.5 141t79 116t127.5 82.5t179 29.5q55 0 122 -19l33 66q9 17 26 22.5t34 -2.5q15 -7 20.5 -24.5t-2.5 -32.5l-35 -70q111 -82 111 -266q0 -50 -10 -108l-43 -222q-72 -372 -428 -372q-61 0 -111 12l-31 -61q-8 -14 -24 -19t-33 2 t-23 23.5t2 31.5l29 60q-119 79 -119 274zM223 311q0 -141 76 -200l410 813q-37 12 -86 12q-290 0 -349 -305l-41 -209q-10 -62 -10 -111zM379 76q27 -8 72 -8q157 0 237 81t109 226l43 221q10 52 10 94q0 126 -68 191z" />
<glyph unicode="&#xf9;" horiz-adv-x="1009" d="M141 264q0 63 17 146l108 565q8 41 41 41q18 0 29.5 -10.5t11.5 -30.5q0 -12 -6 -39l-104 -537q-15 -77 -15 -129q0 -204 197 -204q174 0 332 155l145 754q8 41 41 41q18 0 29.5 -10.5t11.5 -30.5q0 -12 -6 -39l-142 -727q-8 -41 -8 -72q0 -27 10.5 -44t23.5 -23.5 t23.5 -17t10.5 -25.5q0 -39 -45 -39q-48 0 -78 45q-25 45 -25 86q-155 -131 -327 -131q-141 0 -208 73.5t-67 202.5zM528 1599q0 16 13 28.5t32 12.5q26 0 41 -26l189 -328q8 -13 8 -29q0 -15 -11 -25.5t-28 -10.5q-16 0 -24.5 5t-18.5 23l-190 316q-11 18 -11 34z" />
<glyph unicode="&#xfa;" horiz-adv-x="1009" d="M141 264q0 63 17 146l108 565q8 41 41 41q18 0 29.5 -10.5t11.5 -30.5q0 -12 -6 -39l-104 -537q-15 -77 -15 -129q0 -204 197 -204q174 0 332 155l145 754q8 41 41 41q18 0 29.5 -10.5t11.5 -30.5q0 -12 -6 -39l-142 -727q-8 -41 -8 -72q0 -27 10.5 -44t23.5 -23.5 t23.5 -17t10.5 -25.5q0 -39 -45 -39q-48 0 -78 45q-25 45 -25 86q-155 -131 -327 -131q-141 0 -208 73.5t-67 202.5zM565 1257q0 16 8 29l189 328q14 26 43 26q20 0 31.5 -12.5t11.5 -28.5q0 -17 -10 -34l-191 -316q-17 -28 -45 -28q-17 0 -27 10.5t-10 25.5z" />
<glyph unicode="&#xfb;" horiz-adv-x="1009" d="M141 264q0 63 17 146l108 565q8 41 41 41q18 0 29.5 -10.5t11.5 -30.5q0 -12 -6 -39l-104 -537q-15 -77 -15 -129q0 -204 197 -204q174 0 332 155l145 754q8 41 41 41q18 0 29.5 -10.5t11.5 -30.5q0 -12 -6 -39l-142 -727q-8 -41 -8 -72q0 -27 10.5 -44t23.5 -23.5 t23.5 -17t10.5 -25.5q0 -39 -45 -39q-48 0 -78 45q-25 45 -25 86q-155 -131 -327 -131q-141 0 -208 73.5t-67 202.5zM344 1298q0 15 16 31l304 293q14 14 34 14t31 -14l256 -293q10 -13 10 -26q0 -16 -11 -28.5t-30 -12.5q-16 0 -28 12l-234 254l-278 -256q-12 -12 -29 -12 q-16 0 -28.5 10.5t-12.5 27.5z" />
<glyph unicode="&#xfc;" horiz-adv-x="1009" d="M141 264q0 63 17 146l108 565q8 41 41 41q18 0 29.5 -10.5t11.5 -30.5q0 -12 -6 -39l-104 -537q-15 -77 -15 -129q0 -204 197 -204q174 0 332 155l145 754q8 41 41 41q18 0 29.5 -10.5t11.5 -30.5q0 -12 -6 -39l-142 -727q-8 -41 -8 -72q0 -27 10.5 -44t23.5 -23.5 t23.5 -17t10.5 -25.5q0 -39 -45 -39q-48 0 -78 45q-25 45 -25 86q-155 -131 -327 -131q-141 0 -208 73.5t-67 202.5zM459 1360q0 28 18.5 46.5t46.5 18.5t47 -18.5t19 -46.5t-19 -46t-47 -18t-46.5 18t-18.5 46zM737 1360q0 28 19 46.5t47 18.5t46.5 -18.5t18.5 -46.5 t-18.5 -46t-46.5 -18t-47 18t-19 46z" />
<glyph unicode="&#xfd;" horiz-adv-x="868" d="M-104 -336q0 21 14.5 32t36.5 11q106 0 194.5 59.5t186.5 208.5q-118 595 -166 988q-3 24 9 38.5t32 14.5q36 0 41 -37q44 -350 147 -899l479 907q16 29 43 29q25 0 33.5 -21.5t-8.5 -52.5l-426 -807q-145 -275 -274 -392.5t-297 -117.5q-21 0 -33 10.5t-12 28.5z M494 1257q0 16 8 29l188 328q14 26 43 26q20 0 31.5 -12.5t11.5 -28.5q0 -17 -10 -34l-191 -316q-17 -28 -45 -28q-17 0 -26.5 10t-9.5 26z" />
<glyph unicode="&#xfe;" horiz-adv-x="968" d="M29 -340q0 12 6 39l344 1776q3 19 15 30t28 11q18 0 29.5 -10.5t11.5 -28.5q0 -7 -4 -27l-105 -530q138 96 262 96q152 0 225.5 -80.5t73.5 -216.5q0 -75 -22 -180l-33 -160q-13 -66 -32 -119t-52.5 -105.5t-78.5 -88t-112.5 -57t-152.5 -21.5q-138 0 -244 78l-77 -406 q-8 -41 -41 -41q-18 0 -29.5 10.5t-11.5 30.5zM207 152q96 -86 225 -86q70 0 125.5 19t92 49t64 76t42.5 92t26 104l37 196q10 51 10 117q0 217 -213 217q-130 0 -282 -129z" />
<glyph unicode="&#xff;" horiz-adv-x="868" d="M-104 -336q0 21 14.5 32t36.5 11q106 0 194.5 59.5t186.5 208.5q-118 595 -166 988q-3 24 9 38.5t32 14.5q36 0 41 -37q44 -350 147 -899l479 907q16 29 43 29q25 0 33.5 -21.5t-8.5 -52.5l-426 -807q-145 -275 -274 -392.5t-297 -117.5q-21 0 -33 10.5t-12 28.5z M371 1360q0 28 18.5 46.5t46.5 18.5t47 -18.5t19 -46.5t-19 -46t-47 -18t-46.5 18t-18.5 46zM649 1360q0 28 19 46.5t47 18.5t46.5 -18.5t18.5 -46.5t-18.5 -46t-46.5 -18t-47 18t-19 46z" />
<glyph unicode="&#x100;" horiz-adv-x="1120" d="M-8 37q110 271 307 662.5t401 756.5q30 53 64 53q20 0 30 -10.5t17 -42.5q161 -727 219 -1423q3 -25 -10 -39t-33 -14q-38 0 -41 38q-7 91 -39 365h-667q-72 -153 -168 -371q-14 -32 -47 -32q-22 0 -32 16.5t-1 40.5zM281 469h616q-59 448 -156 891q-257 -459 -460 -891z M537 1890q0 17 12 29t29 12h417q17 0 29 -12t12 -29t-12 -29t-29 -12h-417q-17 0 -29 12t-12 29z" />
<glyph unicode="&#x101;" horiz-adv-x="1007" d="M141 311q0 48 17 148l24 143q37 208 135 309q102 105 275 105q153 0 262 -90l10 49q3 19 15 30t28 11q18 0 29.5 -10.5t11.5 -28.5q0 -7 -4 -27l-147 -755q-11 -57 -4 -84.5t38 -47.5q34 -20 27 -47q-7 -28 -45 -28q-40 0 -78 41q-18 18 -24 53q-145 -94 -271 -94 q-148 0 -223.5 86.5t-75.5 236.5zM225 315q0 -117 55.5 -182t161.5 -65q124 0 271 110q5 40 8 55l117 603q-99 102 -244 102q-143 0 -225 -92q-73 -84 -107 -273l-29 -163q-8 -44 -8 -95zM422 1395q0 17 12 29t29 12h418q17 0 29 -12t12 -29t-12 -29t-29 -12h-418 q-17 0 -29 12t-12 29z" />
<glyph unicode="&#x102;" horiz-adv-x="1120" d="M-8 37q110 271 307 662.5t401 756.5q30 53 64 53q20 0 30 -10.5t17 -42.5q161 -727 219 -1423q3 -25 -10 -39t-33 -14q-38 0 -41 38q-7 91 -39 365h-667q-72 -153 -168 -371q-14 -32 -47 -32q-22 0 -32 16.5t-1 40.5zM281 469h616q-59 448 -156 891q-257 -459 -460 -891z M522 1982q5 14 19 21q37 21 57 -14q82 -150 207 -150t207 150q10 18 28 21t31 -7q13 -8 16.5 -22.5t-4.5 -32.5q-107 -191 -278 -191q-172 0 -279 191q-9 20 -4 34z" />
<glyph unicode="&#x103;" horiz-adv-x="1007" d="M141 311q0 48 17 148l24 143q37 208 135 309q102 105 275 105q153 0 262 -90l10 49q3 19 15 30t28 11q18 0 29.5 -10.5t11.5 -28.5q0 -7 -4 -27l-147 -755q-11 -57 -4 -84.5t38 -47.5q34 -20 27 -47q-7 -28 -45 -28q-40 0 -78 41q-18 18 -24 53q-145 -94 -271 -94 q-148 0 -223.5 86.5t-75.5 236.5zM225 315q0 -117 55.5 -182t161.5 -65q124 0 271 110q5 40 8 55l117 603q-99 102 -244 102q-143 0 -225 -92q-73 -84 -107 -273l-29 -163q-8 -44 -8 -95zM410 1485.5q5 14.5 18 21.5q37 21 57 -14q82 -150 207 -150t207 150q10 18 28 21 t31 -7q31 -20 13 -55q-106 -190 -279 -190q-172 0 -278 190q-9 19 -4 33.5z" />
<glyph unicode="&#x104;" horiz-adv-x="1120" d="M-8 37q110 271 307 662.5t401 756.5q30 53 64 53q20 0 30 -10.5t17 -42.5q161 -727 219 -1423q3 -35 -22 -49q-71 -55 -111.5 -103t-40.5 -96q0 -100 162 -100q19 0 29 -10t10 -23q0 -37 -47 -37q-43 0 -82 8t-75 25.5t-57.5 50t-21.5 76.5q0 65 45 118t127 115v10 q-7 91 -39 365h-667q-72 -153 -168 -371q-14 -32 -47 -32q-22 0 -32 16.5t-1 40.5zM281 469h616q-59 448 -156 891q-257 -459 -460 -891z" />
<glyph unicode="&#x105;" horiz-adv-x="1007" d="M141 311q0 48 17 148l24 143q37 208 135 309q102 105 275 105q153 0 262 -90l10 49q3 19 15 30t28 11q18 0 29.5 -10.5t11.5 -28.5q0 -7 -4 -27l-147 -755q-11 -57 -4 -84.5t38 -47.5q34 -20 27 -47q-6 -15 -14 -20q-74 -58 -115 -106t-41 -97q0 -100 162 -100 q19 0 29 -10t10 -23q0 -37 -47 -37q-43 0 -82 8t-75 25.5t-57.5 50t-21.5 76.5q0 63 41.5 115t116.5 106q-17 10 -29 25q-18 18 -24 53q-145 -94 -271 -94q-148 0 -223.5 86.5t-75.5 236.5zM225 315q0 -117 55.5 -182t161.5 -65q124 0 271 110q5 40 8 55l117 603 q-99 102 -244 102q-143 0 -225 -92q-73 -84 -107 -273l-29 -163q-8 -44 -8 -95z" />
<glyph unicode="&#x106;" horiz-adv-x="1099" d="M190 424q0 89 19 197l55 305q26 142 71.5 247t117 182.5t175.5 116.5t242 39q116 0 215 -47q45 -22 61.5 -37.5t16.5 -31.5q0 -18 -13.5 -31.5t-31.5 -13.5q-8 0 -15 3t-12.5 7.5t-17 12t-24.5 13.5q-86 44 -179 44q-108 0 -192.5 -31t-138.5 -79t-94 -122t-61.5 -145 t-37.5 -162l-51 -287q-19 -108 -19 -182q0 -359 345 -359q125 0 253 72q19 11 40.5 26.5t33 22t23.5 6.5q19 0 31 -13.5t12 -31.5q0 -12 -9.5 -23.5t-20 -19t-38.5 -24.5q-157 -96 -325 -96q-118 0 -204 34.5t-134.5 97t-70.5 139.5t-22 171zM713 1663q0 16 8 29l188 327 q15 27 43 27q20 0 31.5 -12.5t11.5 -28.5q0 -18 -10 -35l-190 -315q-17 -29 -45 -29q-17 0 -27 10.5t-10 26.5z" />
<glyph unicode="&#x107;" horiz-adv-x="829" d="M141 340q0 48 6 94l23 139q14 92 49 170.5t89.5 140.5t134 97t175.5 35q109 0 183 -27q78 -29 78 -67q0 -20 -12.5 -29.5t-28.5 -9.5q-15 0 -44.5 13.5t-45.5 18.5q-63 19 -130 19q-150 0 -245.5 -102.5t-122.5 -270.5l-21 -139q-6 -38 -6 -74q0 -132 67 -205t199 -73 q84 0 140 16q25 7 59 22t47 15q14 0 24.5 -8.5t10.5 -22.5q0 -47 -102 -78q-86 -26 -179 -26q-170 0 -259 93t-89 259zM588 1257q0 16 8 29l188 328q14 26 43 26q20 0 31.5 -12.5t11.5 -28.5q0 -17 -10 -34l-190 -316q-17 -28 -45 -28q-17 0 -27 10.5t-10 25.5z" />
<glyph unicode="&#x10c;" horiz-adv-x="1101" d="M190 424q0 89 19 197l55 305q26 142 71.5 247t117 182.5t175.5 116.5t242 39q116 0 215 -47q45 -22 61.5 -37.5t16.5 -31.5q0 -18 -13.5 -31.5t-31.5 -13.5q-8 0 -15 3t-12.5 7.5t-17 12t-24.5 13.5q-86 44 -179 44q-108 0 -192.5 -31t-138.5 -79t-94 -122t-61.5 -145 t-37.5 -162l-51 -287q-19 -108 -19 -182q0 -359 345 -359q125 0 253 72q19 11 40.5 26.5t33 22t23.5 6.5q19 0 31 -13.5t12 -31.5q0 -12 -9.5 -23.5t-20 -19t-38.5 -24.5q-157 -96 -325 -96q-118 0 -204 34.5t-134.5 97t-70.5 139.5t-22 171zM559 2001q0 16 11 28.5t30 12.5 q17 0 29 -12l233 -254l279 256q12 12 28 12t28.5 -11t12.5 -28q0 -15 -16 -31l-303 -293q-14 -14 -35 -14q-20 0 -31 14l-256 293q-10 13 -10 27z" />
<glyph unicode="&#x10d;" horiz-adv-x="829" d="M141 340q0 48 6 94l23 139q14 92 49 170.5t89.5 140.5t134 97t175.5 35q109 0 183 -27q78 -29 78 -67q0 -20 -12.5 -29.5t-28.5 -9.5q-15 0 -44.5 13.5t-45.5 18.5q-63 19 -130 19q-150 0 -245.5 -102.5t-122.5 -270.5l-21 -139q-6 -38 -6 -74q0 -132 67 -205t199 -73 q84 0 140 16q25 7 59 22t47 15q14 0 24.5 -8.5t10.5 -22.5q0 -47 -102 -78q-86 -26 -179 -26q-170 0 -259 93t-89 259zM317 1593q0 16 11 28.5t30 12.5q17 0 29 -12l234 -254l278 256q12 12 29 12q16 0 28.5 -11t12.5 -28q0 -13 -17 -30l-303 -293q-14 -14 -35 -14 q-20 0 -30 14l-256 293q-11 15 -11 26z" />
<glyph unicode="&#x10e;" horiz-adv-x="1265" d="M129 41q0 13 8 53l262 1358q10 43 47 43h345q108 0 190.5 -30.5t132 -79t81 -116t43 -132.5t11.5 -138q0 -81 -20 -198l-47 -244q-109 -557 -633 -557h-379q-18 0 -29.5 10.5t-11.5 30.5zM223 82h326q111 0 200 29.5t146 75.5t99.5 114.5t65 134t38.5 146.5l49 254 q16 75 16 163q0 410 -372 410h-312zM502 2001q0 16 11 28.5t30 12.5q16 0 28 -12l234 -254l278 256q12 12 29 12q16 0 28.5 -11t12.5 -28q0 -15 -16 -31l-303 -293q-14 -14 -35 -14t-31 14l-256 293q-10 13 -10 27z" />
<glyph unicode="&#x10f;" horiz-adv-x="1224" d="M141 313q0 46 17 146l24 143q12 67 29 121t49 111t74.5 95t108.5 62.5t149 24.5q145 0 260 -109l104 535q8 41 41 41q18 0 29.5 -10.5t11.5 -30.5q0 -12 -6 -39l-231 -1194q-8 -41 -8 -72q0 -27 10.5 -44t23 -23.5t23 -17t10.5 -25.5q0 -39 -45 -39q-39 0 -67 28 q-25 25 -35 66q-143 -94 -273 -94q-147 0 -223 89.5t-76 235.5zM225 315q0 -117 55.5 -182t161.5 -65q129 0 269 106l123 639q-104 125 -240 125q-69 0 -122.5 -21.5t-87.5 -54t-59.5 -83.5t-38.5 -97.5t-24 -108.5l-29 -163q-8 -44 -8 -95zM1194 1219q2 13 13.5 25t25 21.5 t26 29.5t15.5 48q-31 3 -49 28t-15 59q3 32 27 50t57 15q36 -3 52.5 -34.5t11.5 -78.5q-9 -90 -58.5 -141t-87.5 -45q-9 1 -14.5 8t-3.5 15z" />
<glyph unicode="&#x110;" horiz-adv-x="1296" d="M55 731q0 18 12.5 30.5t30.5 12.5h201l131 678q10 43 47 43h344q90 0 163 -21t122 -58.5t84 -84.5t54 -105t27.5 -112.5t8.5 -114.5q0 -81 -20 -198l-48 -244q-109 -557 -632 -557h-379q-18 0 -29.5 10.5t-11.5 30.5q0 13 8 53l115 598h-189q-17 0 -28 11t-11 28zM254 82 h326q111 0 199.5 29.5t145.5 75.5t99.5 114.5t65 134t38.5 146.5l50 254q16 75 16 163q0 410 -373 410h-311l-123 -635h225q17 0 28 -11t11 -28q0 -18 -12.5 -30.5t-30.5 -12.5h-237z" />
<glyph unicode="&#x111;" horiz-adv-x="1024" d="M141 313q0 46 17 146l24 143q12 67 29 121t49 111t74.5 95t108.5 62.5t149 24.5q145 0 260 -109l57 297h-215q-15 0 -25 10t-10 25q0 17 11.5 28t27.5 11h226l32 164q8 41 41 41q18 0 29.5 -10.5t11.5 -30.5q0 -12 -6 -39l-24 -125h186q15 0 25 -10.5t10 -24.5 q0 -17 -11.5 -28t-27.5 -11h-197l-192 -995q-8 -41 -8 -72q0 -27 10.5 -44t23 -23.5t23 -17t10.5 -25.5q0 -39 -45 -39q-39 0 -67 28q-25 25 -35 66q-143 -94 -273 -94q-147 0 -223 89.5t-76 235.5zM225 315q0 -117 55.5 -182t161.5 -65q129 0 269 106l123 639 q-104 125 -240 125q-69 0 -122.5 -21.5t-87.5 -54t-59.5 -83.5t-38.5 -97.5t-24 -108.5l-29 -163q-8 -44 -8 -95z" />
<glyph unicode="&#x112;" horiz-adv-x="1073" d="M129 41q0 13 8 53l262 1358q10 43 47 43h701q19 0 31 -11t12 -30t-13.5 -30t-35.5 -11h-662l-121 -627h594q18 0 30.5 -10t12.5 -28q0 -19 -13.5 -31t-35.5 -12h-602l-121 -623h682q16 0 28.5 -10.5t12.5 -28.5t-13 -30.5t-34 -12.5h-729q-18 0 -29.5 10.5t-11.5 30.5z M580 1890q0 17 12 29t29 12h417q17 0 29 -12t12 -29t-12 -29t-29 -12h-417q-17 0 -29 12t-12 29z" />
<glyph unicode="&#x113;" horiz-adv-x="952" d="M141 340q0 38 9 96l26 168q14 87 46 159t83.5 130t130.5 90.5t178 32.5q82 0 141.5 -25.5t93.5 -71.5t50 -102.5t16 -126.5q0 -67 -8 -119l-10 -57q-7 -37 -45 -37h-612l-9 -47q-8 -50 -8 -94q0 -121 63.5 -194.5t180.5 -73.5q111 0 201 32q15 5 31 12t25.5 11t16.5 4 q37 0 37 -41q0 -16 -17.5 -28.5t-62.5 -30.5q-103 -39 -231 -39q-110 0 -185 48t-108 125t-33 179zM252 555h569l4 29q9 56 9 106q0 250 -220 250q-155 0 -242.5 -94.5t-113.5 -255.5zM436 1395q0 17 12 29t29 12h418q17 0 29 -12t12 -29t-12 -29t-29 -12h-418q-17 0 -29 12 t-12 29z" />
<glyph unicode="&#x116;" horiz-adv-x="1073" d="M129 41q0 13 8 53l262 1358q10 43 47 43h701q19 0 31 -11t12 -30t-13.5 -30t-35.5 -11h-662l-121 -627h594q18 0 30.5 -10t12.5 -28q0 -19 -13.5 -31t-35.5 -12h-602l-121 -623h682q16 0 28.5 -10.5t12.5 -28.5t-13 -30.5t-34 -12.5h-729q-18 0 -29.5 10.5t-11.5 30.5z M764 1780q0 28 18.5 46.5t46.5 18.5t47 -18.5t19 -46.5t-19 -46t-47 -18t-46.5 18t-18.5 46z" />
<glyph unicode="&#x117;" horiz-adv-x="952" d="M141 340q0 38 9 96l26 168q14 87 46 159t83.5 130t130.5 90.5t178 32.5q82 0 141.5 -25.5t93.5 -71.5t50 -102.5t16 -126.5q0 -67 -8 -119l-10 -57q-7 -37 -45 -37h-612l-9 -47q-8 -50 -8 -94q0 -121 63.5 -194.5t180.5 -73.5q111 0 201 32q15 5 31 12t25.5 11t16.5 4 q37 0 37 -41q0 -16 -17.5 -28.5t-62.5 -30.5q-103 -39 -231 -39q-110 0 -185 48t-108 125t-33 179zM252 555h569l4 29q9 56 9 106q0 250 -220 250q-155 0 -242.5 -94.5t-113.5 -255.5zM598 1366q0 28 19 47t47 19t46.5 -19t18.5 -47t-18.5 -45.5t-46.5 -17.5t-47 18t-19 45z " />
<glyph unicode="&#x118;" horiz-adv-x="1073" d="M129 41q0 13 8 53l262 1358q10 43 47 43h701q19 0 31 -11t12 -30t-13.5 -30t-35.5 -11h-662l-121 -627h594q18 0 30.5 -10t12.5 -28q0 -19 -13.5 -31t-35.5 -12h-602l-121 -623h682q16 0 28.5 -10.5t12.5 -28.5q0 -29 -28 -41q-158 -120 -158 -203q0 -100 162 -100 q19 0 29 -10t10 -23q0 -37 -48 -37q-59 0 -109 13.5t-88 51t-38 95.5t36.5 107.5t108.5 103.5h-653q-18 0 -29.5 10.5t-11.5 30.5z" />
<glyph unicode="&#x119;" horiz-adv-x="952" d="M141 340q0 38 9 96l26 168q14 87 46 159t83.5 130t130.5 90.5t178 32.5q82 0 141.5 -25.5t93.5 -71.5t50 -102.5t16 -126.5q0 -67 -8 -119l-10 -57q-7 -37 -45 -37h-612l-9 -47q-8 -50 -8 -94q0 -121 63.5 -194.5t180.5 -73.5q111 0 201 32q15 5 31 12t25.5 11t16.5 4 q37 0 37 -41q0 -16 -14 -27h8q-76 -60 -118 -107.5t-42 -96.5q0 -101 162 -101q19 0 29 -10t10 -23q0 -36 -47 -36q-59 0 -109 13t-88.5 50.5t-38.5 95.5q0 82 82 158q-86 -14 -145 -14q-110 0 -185 48t-108 125t-33 179zM252 555h569l4 29q9 56 9 106q0 250 -220 250 q-155 0 -242.5 -94.5t-113.5 -255.5z" />
<glyph unicode="&#x11a;" horiz-adv-x="1073" d="M129 41q0 13 8 53l262 1358q10 43 47 43h701q19 0 31 -11t12 -30t-13.5 -30t-35.5 -11h-662l-121 -627h594q18 0 30.5 -10t12.5 -28q0 -19 -13.5 -31t-35.5 -12h-602l-121 -623h682q16 0 28.5 -10.5t12.5 -28.5t-13 -30.5t-34 -12.5h-729q-18 0 -29.5 10.5t-11.5 30.5z M545 2001q0 16 11 28.5t30 12.5q16 0 28 -12l234 -254l278 256q12 12 29 12q16 0 28.5 -11t12.5 -28q0 -15 -16 -31l-303 -293q-14 -14 -35 -14q-20 0 -31 14l-256 293q-10 13 -10 27z" />
<glyph unicode="&#x11b;" horiz-adv-x="952" d="M141 340q0 38 9 96l26 168q14 87 46 159t83.5 130t130.5 90.5t178 32.5q82 0 141.5 -25.5t93.5 -71.5t50 -102.5t16 -126.5q0 -67 -8 -119l-10 -57q-7 -37 -45 -37h-612l-9 -47q-8 -50 -8 -94q0 -121 63.5 -194.5t180.5 -73.5q111 0 201 32q15 5 31 12t25.5 11t16.5 4 q37 0 37 -41q0 -16 -17.5 -28.5t-62.5 -30.5q-103 -39 -231 -39q-110 0 -185 48t-108 125t-33 179zM252 555h569l4 29q9 56 9 106q0 250 -220 250q-155 0 -242.5 -94.5t-113.5 -255.5zM354 1593q0 16 11 28.5t30 12.5q17 0 29 -12l233 -254l279 256q12 12 29 12 q16 0 28.5 -11t12.5 -28q0 -13 -17 -30l-303 -293q-14 -14 -35 -14q-19 0 -30 14l-256 293q-11 15 -11 26z" />
<glyph unicode="&#x11e;" horiz-adv-x="1208" d="M190 408q0 85 23 213l57 305q55 289 192 437t388 148q198 0 315 -137q11 -14 11 -28q0 -18 -13.5 -30.5t-32.5 -12.5q-13 0 -23 8t-28 27.5t-43 35.5q-80 56 -186 56q-212 0 -328 -126.5t-168 -394.5l-57 -305q-18 -105 -18 -203q0 -168 82 -253t231 -85q169 0 282 111.5 t158 333.5l27 133h-330q-16 0 -28.5 10.5t-12.5 28.5t13 30.5t34 12.5h377q41 0 41 -39q0 -15 -8 -51l-29 -141q-51 -247 -187.5 -378.5t-342.5 -131.5q-198 0 -297 111t-99 315zM580 1981.5q5 14.5 18 21.5q37 21 57 -14q82 -150 207 -150t207 150q10 18 28 21t31 -7 q31 -20 13 -55q-107 -191 -279 -191q-171 0 -278 191q-9 19 -4 33.5z" />
<glyph unicode="&#x11f;" horiz-adv-x="974" d="M59 -285q0 19 12 30t31 11q10 0 21 -4t29 -12.5t32 -13.5q69 -25 150 -25q82 0 145 28t105.5 80.5t69 117.5t42.5 149l4 24q-127 -80 -249 -80q-145 0 -222 90t-77 236q0 52 16 146l20 110q12 67 28.5 121t48 111t74 95t109 62.5t150.5 24.5q148 0 260 -98l12 57 q9 41 43 41q18 0 29.5 -10.5t11.5 -28.5q0 -7 -4 -27l-174 -893q-19 -96 -50.5 -170t-84 -136t-134.5 -95t-190 -33q-100 0 -184 31q-74 26 -74 61zM236 348q0 -117 55.5 -182.5t161.5 -65.5q129 0 268 101l121 626q-105 111 -242 111q-69 0 -123 -21.5t-88 -54t-59.5 -83.5 t-39 -97.5t-24.5 -108.5l-22 -131q-8 -44 -8 -94zM358 1486q5 14 19 21q37 21 57 -14q82 -150 207 -150t207 150q10 18 28 21t31 -7q31 -20 13 -55q-106 -190 -279 -190t-279 190q-9 20 -4 34z" />
<glyph unicode="&#x122;" horiz-adv-x="1208" d="M190 408q0 85 23 213l57 305q55 289 192 437t388 148q198 0 315 -137q11 -14 11 -28q0 -18 -13.5 -30.5t-32.5 -12.5q-13 0 -23 8t-28 27.5t-43 35.5q-80 56 -186 56q-212 0 -328 -126.5t-168 -394.5l-57 -305q-18 -105 -18 -203q0 -168 82 -253t231 -85q169 0 282 111.5 t158 333.5l27 133h-330q-16 0 -28.5 10.5t-12.5 28.5t13 30.5t34 12.5h377q41 0 41 -39q0 -15 -8 -51l-29 -141q-51 -247 -187.5 -378.5t-342.5 -131.5q-198 0 -297 111t-99 315zM449 -397q2 16 20 30.5t36.5 37t22.5 57.5q-31 3 -48.5 27.5t-14.5 58.5q3 32 27 50t57 15 q36 -3 52 -33.5t11 -78.5q-9 -90 -58 -141.5t-87 -45.5q-9 1 -14.5 8t-3.5 15z" />
<glyph unicode="&#x123;" horiz-adv-x="974" d="M59 -285q0 19 12 30t31 11q10 0 21 -4t29 -12.5t32 -13.5q69 -25 150 -25q82 0 145 28t105.5 80.5t69 117.5t42.5 149l4 24q-127 -80 -249 -80q-145 0 -222 90t-77 236q0 52 16 146l20 110q12 67 28.5 121t48 111t74 95t109 62.5t150.5 24.5q148 0 260 -98l12 57 q9 41 43 41q18 0 29.5 -10.5t11.5 -28.5q0 -7 -4 -27l-174 -893q-19 -96 -50.5 -170t-84 -136t-134.5 -95t-190 -33q-100 0 -184 31q-74 26 -74 61zM236 348q0 -117 55.5 -182.5t161.5 -65.5q129 0 268 101l121 626q-105 111 -242 111q-69 0 -123 -21.5t-88 -54t-59.5 -83.5 t-39 -97.5t-24.5 -108.5l-22 -131q-8 -44 -8 -94zM541 1354q0 87 40 141.5t76 54.5q9 0 16 -6t7 -14q0 -14 -16 -30.5t-32.5 -40t-17.5 -56.5q31 0 52.5 -22.5t21.5 -53.5t-21.5 -52.5t-52.5 -21.5q-33 0 -53 28.5t-20 72.5z" />
<glyph unicode="&#x12a;" horiz-adv-x="450" d="M129 23q0 13 6 40l273 1407q3 19 16 30t29 11q18 0 29.5 -10t11.5 -28q0 -1 -5 -31l-274 -1419q-3 -19 -16 -30t-29 -11q-18 0 -29.5 10.5t-11.5 30.5zM266 1890q0 17 12 29t29 12h418q17 0 29 -12t12 -29t-12 -29t-29 -12h-418q-17 0 -29 12t-12 29z" />
<glyph unicode="&#x12b;" d="M100 29q0 12 6 39l177 907q3 19 15 30t28 11q18 0 29.5 -10.5t11.5 -28.5q0 -2 -5 -27l-180 -921q-8 -41 -41 -41q-18 0 -29.5 10.5t-11.5 30.5zM131 1395q0 17 12 29t29 12h418q17 0 29 -12t12 -29t-12 -29t-29 -12h-418q-17 0 -29 12t-12 29z" />
<glyph unicode="&#x12e;" horiz-adv-x="446" d="M-47 -225q0 66 46 119.5t130 115.5v13q0 13 6 40l273 1407q3 19 16 30t29 11q18 0 29.5 -10t11.5 -28q0 -1 -5 -31l-274 -1419q-6 -27 -29 -37q-71 -57 -111 -105t-40 -96q0 -100 162 -100q19 0 29 -10t10 -23q0 -37 -48 -37q-59 0 -109 13.5t-88 51t-38 95.5z" />
<glyph unicode="&#x12f;" d="M-70 -213q0 65 45 119.5t125 111.5v11q0 12 6 39l177 907q3 19 15 30t28 11q18 0 29.5 -10.5t11.5 -28.5q0 -2 -5 -27l-180 -921q-3 -18 -12 -27h2l-2 -2q-12 -12 -29 -12q-34 0 -41 30l9 7l61 -23v-2q-158 -120 -158 -203q0 -100 162 -100q19 0 29 -10t10 -23 q0 -37 -47 -37q-43 0 -82 8t-75 25.5t-57.5 50t-21.5 76.5zM336 1366q0 28 18.5 47t46.5 19t47 -19t19 -47q0 -27 -19 -45t-47 -18t-46.5 17.5t-18.5 45.5z" />
<glyph unicode="&#x130;" horiz-adv-x="450" d="M129 23q0 13 6 40l273 1407q3 19 16 30t29 11q18 0 29.5 -10t11.5 -28q0 -1 -5 -31l-274 -1419q-3 -19 -16 -30t-29 -11q-18 0 -29.5 10.5t-11.5 30.5zM451 1780q0 28 18.5 46.5t46.5 18.5t47 -18.5t19 -46.5t-19 -46t-47 -18t-46.5 18t-18.5 46z" />
<glyph unicode="&#x131;" d="M100 29q0 12 6 39l177 907q3 19 15 30t28 11q18 0 29.5 -10.5t11.5 -28.5q0 -2 -5 -27l-180 -921q-8 -41 -41 -41q-18 0 -29.5 10.5t-11.5 30.5z" />
<glyph unicode="&#x136;" horiz-adv-x="1089" d="M129 23q0 13 6 40l273 1407q3 19 16 30t29 11q18 0 29.5 -10t11.5 -28q0 -1 -5 -31l-153 -791l842 844q16 16 34 16q16 0 28.5 -10.5t12.5 -27.5q0 -19 -14 -33l-610 -604q212 -408 356 -797q9 -24 -5.5 -40.5t-37.5 -16.5q-28 0 -39 28q-137 375 -338 762l-254 -252 l-96 -497q-3 -19 -16 -30t-29 -11q-18 0 -29.5 10.5t-11.5 30.5zM444 -397q2 16 20 30.5t37 37t23 57.5q-31 3 -48.5 27.5t-14.5 58.5q3 32 27 50t57 15q36 -3 52 -33.5t11 -78.5q-9 -90 -58 -141.5t-87 -45.5q-9 1 -15 8t-4 15z" />
<glyph unicode="&#x137;" horiz-adv-x="872" d="M100 29q0 12 6 39l267 1374q3 19 15 30t28 11q18 0 29.5 -10.5t11.5 -28.5q0 -7 -4 -27l-185 -948l580 530q17 17 37 17q15 0 25 -10t10 -25q0 -18 -29 -43l-369 -336q141 -278 238 -539q10 -27 10 -38q0 -17 -11.5 -27t-27.5 -10q-30 0 -39 26q-119 313 -231 535 l-215 -195l-64 -325q-8 -41 -41 -41q-18 0 -29.5 10.5t-11.5 30.5zM326 -397q2 16 20 30.5t37 37t23 57.5q-31 3 -49 27.5t-15 58.5q3 32 27 50t57 15q36 -3 52 -33.5t11 -78.5q-9 -90 -58 -141.5t-87 -45.5q-9 1 -14.5 8t-3.5 15z" />
<glyph unicode="&#x139;" horiz-adv-x="1030" d="M129 41q0 14 6 41l271 1388q3 19 16 30t29 11q18 0 29.5 -10t11.5 -28q0 -1 -5 -31l-264 -1360h680q17 0 29 -10t12 -29q0 -18 -13 -30.5t-34 -12.5h-727q-18 0 -29.5 10.5t-11.5 30.5zM446 1663q0 14 9 29l188 327q15 27 43 27q20 0 31.5 -12.5t11.5 -28.5 q0 -18 -10 -35l-191 -315q-17 -29 -45 -29q-17 0 -27 10.5t-10 26.5z" />
<glyph unicode="&#x13a;" horiz-adv-x="413" d="M129.5 94.5q-4.5 38.5 11.5 138.5l234 1209q3 19 15 30t28 11q18 0 29.5 -10.5t11.5 -28.5q0 -7 -4 -27l-238 -1222q-10 -57 -3 -84.5t38 -47.5q34 -20 27 -47q-7 -28 -46 -28t-77 41q-22 27 -26.5 65.5zM436 1663q0 16 8 29l189 327q15 27 43 27q20 0 31.5 -12.5 t11.5 -28.5q0 -18 -10 -35l-191 -315q-17 -29 -45 -29q-17 0 -27 10.5t-10 26.5z" />
<glyph unicode="&#x13b;" horiz-adv-x="1030" d="M129 41q0 14 6 41l271 1388q3 19 16 30t29 11q18 0 29.5 -10t11.5 -28q0 -1 -5 -31l-264 -1360h680q17 0 29 -10t12 -29q0 -18 -13 -30.5t-34 -12.5h-727q-18 0 -29.5 10.5t-11.5 30.5zM436 -397q2 16 20 30.5t37 37t23 57.5q-31 3 -48.5 27.5t-14.5 58.5q3 32 27 50 t57 15q36 -3 52 -33.5t11 -78.5q-9 -90 -58 -141.5t-87 -45.5q-9 1 -15 8t-4 15z" />
<glyph unicode="&#x13c;" horiz-adv-x="413" d="M53 -397q2 16 20 30.5t37 37t23 57.5q-31 3 -48.5 27.5t-14.5 58.5q3 32 27 50t57 15q36 -3 52 -33.5t11 -78.5q-9 -90 -58 -141.5t-87 -45.5q-9 1 -15 8t-4 15zM129.5 94.5q-4.5 38.5 11.5 138.5l234 1209q3 19 15 30t28 11q18 0 29.5 -10.5t11.5 -28.5q0 -7 -4 -27 l-238 -1222q-10 -57 -3 -84.5t38 -47.5q34 -20 27 -47q-7 -28 -46 -28t-77 41q-22 27 -26.5 65.5z" />
<glyph unicode="&#x13d;" horiz-adv-x="1030" d="M129 41q0 14 6 41l271 1388q3 19 16 30t29 11q18 0 29.5 -10t11.5 -28q0 -1 -5 -31l-264 -1360h680q17 0 29 -10t12 -29q0 -18 -13 -30.5t-34 -12.5h-727q-18 0 -29.5 10.5t-11.5 30.5zM684 1235q2 16 20 30.5t37 37t23 57.5q-31 3 -49 27.5t-15 58.5q3 32 27 50t57 15 q36 -3 52.5 -34t11.5 -78q-9 -90 -58.5 -141.5t-87.5 -45.5q-9 1 -14.5 8t-3.5 15z" />
<glyph unicode="&#x13e;" horiz-adv-x="612" d="M129.5 94.5q-4.5 38.5 11.5 138.5l234 1209q3 19 15 30t28 11q18 0 29.5 -10.5t11.5 -28.5q0 -7 -4 -27l-238 -1222q-10 -57 -3 -84.5t38 -47.5q34 -20 27 -47q-7 -28 -46 -28t-77 41q-22 27 -26.5 65.5zM614 1206q2 16 20 30.5t37 37t23 57.5q-31 3 -48.5 27.5 t-14.5 58.5q3 32 27 50.5t57 15.5q36 -3 52 -34t11 -79q-9 -90 -58 -141t-87 -45q-9 2 -14.5 8.5t-4.5 13.5z" />
<glyph unicode="&#x141;" horiz-adv-x="1101" d="M88 592q0 25 29 41l217 125l139 712q3 19 16 30t29 11q18 0 29.5 -10t11.5 -28q0 -7 -4 -31l-123 -627l262 150q17 10 35 10q14 0 23.5 -10t9.5 -27q0 -23 -29 -39l-319 -184l-123 -633h680q17 0 29 -10t12 -29q0 -18 -13 -30.5t-34 -12.5h-727q-18 0 -29.5 10.5 t-11.5 30.5q0 14 6 41l110 575l-157 -92q-20 -10 -33 -10q-14 0 -24.5 10t-10.5 27z" />
<glyph unicode="&#x142;" horiz-adv-x="620" d="M74 592q0 25 28 41l220 127l133 682q3 19 15 30t28 11q18 0 29.5 -10.5t11.5 -28.5q0 -7 -4 -27l-119 -604l264 152q17 10 35 10q14 0 23.5 -10t9.5 -27q0 -23 -29 -39l-322 -186l-100 -518q-10 -57 -3 -84.5t38 -47.5q33 -20 26 -47q-7 -28 -45 -28q-39 0 -77 41 q-22 27 -26.5 65.5t11.5 138.5l82 424l-162 -92q-20 -10 -32 -10q-14 0 -24.5 10t-10.5 27z" />
<glyph unicode="&#x143;" horiz-adv-x="1339" d="M129 18q0 5 4 25l275 1427q4 22 18 32.5t31 10.5q19 0 28.5 -8t18.5 -30l538 -1321l254 1316q3 20 15.5 31.5t29.5 11.5q18 0 29.5 -10t11.5 -28q0 -8 -6 -35l-272 -1417q-8 -41 -49 -41q-31 0 -45 34l-541 1321l-254 -1314q-3 -19 -16 -30t-29 -11q-41 0 -41 36z M827 1663q0 14 9 29l188 327q15 27 43 27q20 0 31.5 -12.5t11.5 -28.5q0 -18 -10 -35l-191 -315q-17 -29 -45 -29q-17 0 -27 10.5t-10 26.5z" />
<glyph unicode="&#x144;" horiz-adv-x="1040" d="M100 29q0 12 6 39l140 714q8 41 8 72q0 27 -10.5 44.5t-23.5 23.5t-23.5 17t-10.5 26q0 39 45 39t74 -37q26 -33 31 -82q155 131 328 131q140 0 207 -74t67 -203q0 -67 -16 -145l-109 -565q-8 -41 -41 -41q-18 0 -29.5 10.5t-11.5 30.5q0 12 6 39l105 536q14 72 14 129 q0 205 -197 205q-172 0 -331 -156l-146 -753q-8 -41 -41 -41q-18 0 -29.5 10.5t-11.5 30.5zM608 1257q0 16 8 29l189 328q14 26 43 26q20 0 31.5 -12.5t11.5 -28.5q0 -17 -10 -34l-191 -316q-17 -28 -45 -28q-17 0 -27 10.5t-10 25.5z" />
<glyph unicode="&#x145;" horiz-adv-x="1339" d="M129 18q0 5 4 25l275 1427q4 22 18 32.5t31 10.5q19 0 28.5 -8t18.5 -30l538 -1321l254 1316q3 20 15.5 31.5t29.5 11.5q18 0 29.5 -10t11.5 -28q0 -8 -6 -35l-272 -1417q-8 -41 -49 -41q-31 0 -45 34l-541 1321l-254 -1314q-3 -19 -16 -30t-29 -11q-41 0 -41 36z M496 -397q2 16 20 30.5t36.5 37t22.5 57.5q-31 3 -48.5 27.5t-14.5 58.5q3 32 27 50t57 15q36 -3 52 -33.5t11 -78.5q-9 -90 -58 -141.5t-87 -45.5q-9 1 -14.5 8t-3.5 15z" />
<glyph unicode="&#x146;" horiz-adv-x="1040" d="M100 29q0 12 6 39l140 714q8 41 8 72q0 27 -10.5 44.5t-23.5 23.5t-23.5 17t-10.5 26q0 39 45 39t74 -37q26 -33 31 -82q155 131 328 131q140 0 207 -74t67 -203q0 -67 -16 -145l-109 -565q-8 -41 -41 -41q-18 0 -29.5 10.5t-11.5 30.5q0 12 6 39l105 536q14 72 14 129 q0 205 -197 205q-172 0 -331 -156l-146 -753q-8 -41 -41 -41q-18 0 -29.5 10.5t-11.5 30.5zM336 -397q2 16 20 30.5t37 37t23 57.5q-31 3 -49 27.5t-15 58.5q3 32 27 50t57 15q36 -3 52.5 -34t11.5 -78q-9 -90 -58.5 -141.5t-87.5 -45.5q-9 1 -14.5 8t-3.5 15z" />
<glyph unicode="&#x147;" horiz-adv-x="1339" d="M129 18q0 5 4 25l275 1427q4 22 18 32.5t31 10.5q19 0 28.5 -8t18.5 -30l538 -1321l254 1316q3 20 15.5 31.5t29.5 11.5q18 0 29.5 -10t11.5 -28q0 -8 -6 -35l-272 -1417q-8 -41 -49 -41q-31 0 -45 34l-541 1321l-254 -1314q-3 -19 -16 -30t-29 -11q-41 0 -41 36z M676 2001q0 16 11 28.5t30 12.5q16 0 28 -12l234 -254l278 256q12 12 29 12q16 0 28.5 -11t12.5 -28q0 -15 -16 -31l-303 -293q-14 -14 -35 -14t-31 14l-256 293q-10 13 -10 27z" />
<glyph unicode="&#x148;" horiz-adv-x="1040" d="M100 29q0 12 6 39l140 714q8 41 8 72q0 27 -10.5 44.5t-23.5 23.5t-23.5 17t-10.5 26q0 39 45 39t74 -37q26 -33 31 -82q155 131 328 131q140 0 207 -74t67 -203q0 -67 -16 -145l-109 -565q-8 -41 -41 -41q-18 0 -29.5 10.5t-11.5 30.5q0 12 6 39l105 536q14 72 14 129 q0 205 -197 205q-172 0 -331 -156l-146 -753q-8 -41 -41 -41q-18 0 -29.5 10.5t-11.5 30.5zM403 1593q0 16 11 28.5t30 12.5q17 0 29 -12l234 -254l278 256q12 12 29 12q16 0 28.5 -11t12.5 -28q0 -13 -17 -30l-303 -293q-14 -14 -35 -14q-20 0 -30 14l-256 293 q-11 15 -11 26z" />
<glyph unicode="&#x14c;" horiz-adv-x="1232" d="M190 436q0 90 21 213l37 207q52 300 155 449q143 208 428 208q82 0 148 -24.5t109.5 -66.5t73 -100.5t42.5 -125t13 -141.5q0 -77 -19 -185l-45 -254q-48 -257 -123 -385q-144 -249 -455 -249q-104 0 -180 35t-120 98.5t-64.5 143t-20.5 177.5zM279 434q0 -170 73 -269 t221 -99q275 0 398 231q66 125 100 342l43 258q12 68 12 166q0 162 -75 264.5t-217 102.5q-249 0 -375 -191q-85 -128 -129 -401l-35 -215q-16 -109 -16 -189zM657 1890q0 17 12 29t29 12h418q17 0 29 -12t12 -29t-12 -29t-29 -12h-418q-17 0 -29 12t-12 29z" />
<glyph unicode="&#x14d;" horiz-adv-x="1013" d="M141 311q0 57 13 127l39 209q15 78 44.5 141t79 116t127.5 82.5t179 29.5q83 0 145 -26.5t96.5 -73.5t51 -103t16.5 -123q0 -50 -10 -108l-43 -222q-72 -372 -428 -372q-160 0 -235 89.5t-75 233.5zM223 311q0 -243 228 -243q157 0 237 81t109 226l43 221q10 52 10 94 q0 111 -55.5 178.5t-171.5 67.5q-290 0 -349 -305l-41 -209q-10 -62 -10 -111zM453 1395q0 17 12 29t29 12h417q17 0 29 -12t12 -29t-12 -29t-29 -12h-417q-17 0 -29 12t-12 29z" />
<glyph unicode="&#x150;" horiz-adv-x="1232" d="M190 436q0 90 21 213l37 207q52 300 155 449q143 208 428 208q82 0 148 -24.5t109.5 -66.5t73 -100.5t42.5 -125t13 -141.5q0 -77 -19 -185l-45 -254q-48 -257 -123 -385q-144 -249 -455 -249q-104 0 -180 35t-120 98.5t-64.5 143t-20.5 177.5zM279 434q0 -170 73 -269 t221 -99q275 0 398 231q66 125 100 342l43 258q12 68 12 166q0 162 -75 264.5t-217 102.5q-249 0 -375 -191q-85 -128 -129 -401l-35 -215q-16 -109 -16 -189zM631 1753q0 16 8 29l188 327q15 27 43 27q20 0 31.5 -12.5t11.5 -28.5q0 -18 -10 -35l-190 -315q-17 -29 -45 -29 q-17 0 -27 10.5t-10 26.5zM1004 1753q0 16 8 29l188 327q15 27 43 27q20 0 31.5 -12.5t11.5 -28.5q0 -18 -10 -35l-191 -315q-17 -29 -45 -29q-17 0 -26.5 10.5t-9.5 26.5z" />
<glyph unicode="&#x151;" horiz-adv-x="1013" d="M141 311q0 57 13 127l39 209q15 78 44.5 141t79 116t127.5 82.5t179 29.5q83 0 145 -26.5t96.5 -73.5t51 -103t16.5 -123q0 -50 -10 -108l-43 -222q-72 -372 -428 -372q-160 0 -235 89.5t-75 233.5zM223 311q0 -243 228 -243q157 0 237 81t109 226l43 221q10 52 10 94 q0 111 -55.5 178.5t-171.5 67.5q-290 0 -349 -305l-41 -209q-10 -62 -10 -111zM403 1257q0 14 9 29l188 328q14 26 43 26q20 0 31.5 -12.5t11.5 -28.5q0 -17 -10 -34l-191 -316q-17 -28 -45 -28q-17 0 -27 10.5t-10 25.5zM776 1257q0 16 8 29l189 328q14 26 43 26 q20 0 31.5 -12.5t11.5 -28.5q0 -17 -10 -34l-191 -316q-17 -28 -45 -28q-17 0 -27 10.5t-10 25.5z" />
<glyph unicode="&#x152;" horiz-adv-x="1902" d="M190 436q0 90 21 213l37 207q52 300 155 449q143 208 428 208q144 0 233 -70.5t126 -193.5l39 203q10 43 47 43h700q19 0 31 -11t12 -30t-13.5 -30t-35.5 -11h-661l-121 -627h594q18 0 30.5 -10t12.5 -28q0 -19 -13.5 -31t-35.5 -12h-602l-121 -623h682q16 0 28.5 -10.5 t12.5 -28.5t-13 -30.5t-34 -12.5h-730q-18 0 -29.5 10.5t-11.5 30.5q0 8 9 53l12 62q-144 -174 -404 -174q-104 0 -180 35t-120 98.5t-64.5 143t-20.5 177.5zM279 434q0 -170 73 -269t221 -99q275 0 398 231q56 106 84 256l6 33q2 8 5 26.5t5 26.5l43 258q12 68 12 166 q0 162 -75 264.5t-217 102.5q-249 0 -375 -191q-85 -128 -129 -401l-35 -215q-16 -109 -16 -189z" />
<glyph unicode="&#x153;" horiz-adv-x="1615" d="M141 311q0 58 13 125l39 209q15 78 44.5 141.5t79 117t127.5 83t179 29.5q118 0 190 -55t100 -148q117 203 365 203q82 0 142 -25.5t94.5 -71.5t50.5 -103.5t16 -127.5q0 -51 -10 -119l-8 -57q-7 -35 -45 -35h-615q-16 -94 -16 -143q0 -121 64 -194.5t182 -73.5 q109 0 210 38q14 5 27 11t20.5 9t14.5 3q20 0 30.5 -12.5t10.5 -32.5q0 -22 -25 -35q-139 -61 -288 -61q-121 0 -198.5 58t-109.5 157q-105 -215 -374 -215q-82 0 -143.5 26t-97 72.5t-52.5 103t-17 123.5zM223 311q0 -245 228 -245q152 0 234.5 78.5t111.5 230.5l43 221 q10 52 10 92q0 111 -55.5 179.5t-171.5 68.5q-294 0 -349 -307l-41 -207q-10 -62 -10 -111zM918 553h567l4 29q10 65 10 106q0 250 -221 250q-155 0 -241.5 -93t-114.5 -255z" />
<glyph unicode="&#x154;" horiz-adv-x="1210" d="M129 23q0 13 6 40l268 1387q3 19 16.5 31t29.5 12h382q101 0 177 -28.5t120 -79t65 -112t21 -134.5q0 -57 -12 -115l-8 -39q-31 -150 -136.5 -232t-262.5 -100q124 -301 227 -616q7 -23 -7 -39t-36 -16q-31 0 -39 30q-103 313 -238 637h-366l-121 -626q-3 -19 -16 -30 t-29 -11q-18 0 -29.5 10.5t-11.5 30.5zM352 731h357q165 0 269.5 69t131.5 204l8 38q8 44 8 97q0 56 -15.5 103t-48.5 86t-92 61t-139 22h-348zM748 1663q0 16 8 29l188 327q15 27 43 27q20 0 31.5 -12.5t11.5 -28.5q0 -18 -10 -35l-191 -315q-17 -29 -45 -29 q-17 0 -26.5 10.5t-9.5 26.5z" />
<glyph unicode="&#x155;" horiz-adv-x="696" d="M100 29q0 12 6 39l140 714q8 41 8 72q0 27 -10.5 44.5t-23.5 23.5t-23.5 17t-10.5 26q0 39 45 39t74 -37q31 -40 31 -93q119 142 309 142q152 0 152 -60q0 -38 -45 -38q-8 0 -42 8t-83 8q-216 0 -312 -221l-133 -684q-8 -41 -41 -41q-18 0 -29.5 10.5t-11.5 30.5z M416 1257q0 16 8 29l188 328q14 26 43 26q20 0 31.5 -12.5t11.5 -28.5q0 -17 -10 -34l-190 -316q-17 -28 -45 -28q-17 0 -27 10.5t-10 25.5z" />
<glyph unicode="&#x156;" horiz-adv-x="1210" d="M129 23q0 13 6 40l268 1387q3 19 16.5 31t29.5 12h382q101 0 177 -28.5t120 -79t65 -112t21 -134.5q0 -57 -12 -115l-8 -39q-31 -150 -136.5 -232t-262.5 -100q124 -301 227 -616q7 -23 -7 -39t-36 -16q-31 0 -39 30q-103 313 -238 637h-366l-121 -626q-3 -19 -16 -30 t-29 -11q-18 0 -29.5 10.5t-11.5 30.5zM352 731h357q165 0 269.5 69t131.5 204l8 38q8 44 8 97q0 56 -15.5 103t-48.5 86t-92 61t-139 22h-348zM457 -397q2 16 20 30.5t37 37t23 57.5q-31 3 -49 27.5t-15 58.5q3 32 27 50t57 15q36 -3 52.5 -34t11.5 -78 q-9 -90 -58.5 -141.5t-87.5 -45.5q-9 1 -14.5 8t-3.5 15z" />
<glyph unicode="&#x157;" horiz-adv-x="696" d="M-10 -397q2 16 20 30.5t37 37t23 57.5q-31 3 -49 27.5t-15 58.5q3 32 27 50t57 15q36 -3 52.5 -34t11.5 -78q-9 -90 -58.5 -141.5t-87.5 -45.5q-9 1 -14.5 8t-3.5 15zM100 29q0 12 6 39l140 714q8 41 8 72q0 27 -10.5 44.5t-23.5 23.5t-23.5 17t-10.5 26q0 39 45 39 t74 -37q31 -40 31 -93q119 142 309 142q152 0 152 -60q0 -38 -45 -38q-8 0 -42 8t-83 8q-216 0 -312 -221l-133 -684q-8 -41 -41 -41q-18 0 -29.5 10.5t-11.5 30.5z" />
<glyph unicode="&#x158;" horiz-adv-x="1210" d="M129 23q0 13 6 40l268 1387q3 19 16.5 31t29.5 12h382q101 0 177 -28.5t120 -79t65 -112t21 -134.5q0 -57 -12 -115l-8 -39q-31 -150 -136.5 -232t-262.5 -100q124 -301 227 -616q7 -23 -7 -39t-36 -16q-31 0 -39 30q-103 313 -238 637h-366l-121 -626q-3 -19 -16 -30 t-29 -11q-18 0 -29.5 10.5t-11.5 30.5zM352 731h357q165 0 269.5 69t131.5 204l8 38q8 44 8 97q0 56 -15.5 103t-48.5 86t-92 61t-139 22h-348zM545 2001q0 16 11 28.5t30 12.5q16 0 28 -12l234 -254l278 256q12 12 29 12q16 0 28.5 -11t12.5 -28q0 -15 -16 -31l-303 -293 q-14 -14 -35 -14q-20 0 -31 14l-256 293q-10 13 -10 27z" />
<glyph unicode="&#x159;" horiz-adv-x="696" d="M100 29q0 12 6 39l140 714q8 41 8 72q0 27 -10.5 44.5t-23.5 23.5t-23.5 17t-10.5 26q0 39 45 39t74 -37q31 -40 31 -93q119 142 309 142q152 0 152 -60q0 -38 -45 -38q-8 0 -42 8t-83 8q-216 0 -312 -221l-133 -684q-8 -41 -41 -41q-18 0 -29.5 10.5t-11.5 30.5z M195 1593q0 16 11 28.5t30 12.5q16 0 28 -12l234 -254l278 256q12 12 29 12q16 0 28.5 -11t12.5 -28q0 -13 -17 -30l-303 -293q-14 -14 -34 -14t-31 14l-256 293q-10 13 -10 26z" />
<glyph unicode="&#x15a;" horiz-adv-x="1107" d="M92 86q0 18 12.5 31.5t30.5 13.5q8 0 20.5 -4.5t36.5 -14.5t41 -16q101 -37 220 -37q232 0 361.5 92t129.5 246q0 33 -6 62.5t-15.5 52.5t-27 45t-33 37.5t-41.5 32t-45.5 27t-51 24t-52.5 21.5t-56 21t-55 21q-53 20 -92.5 39.5t-81.5 51t-68.5 68.5t-43.5 92t-17 122 q0 93 43 169.5t115.5 125.5t165 75.5t194.5 26.5q162 0 293 -61q25 -12 25 -35q0 -20 -11.5 -33.5t-31.5 -13.5q-8 0 -18.5 4t-27.5 11t-30 12q-107 35 -199 35q-189 0 -310.5 -89t-121.5 -227q0 -56 17.5 -101.5t43 -76t70.5 -58.5t81.5 -44t94.5 -37q149 -54 208 -90 q147 -88 167 -249q4 -29 4 -61q0 -134 -75.5 -230t-204.5 -143t-297 -47q-182 0 -336 72q-25 13 -25 37zM664 1663q0 16 8 29l188 327q15 27 43 27q20 0 31.5 -12.5t11.5 -28.5q0 -18 -10 -35l-191 -315q-17 -29 -45 -29q-17 0 -26.5 10.5t-9.5 26.5z" />
<glyph unicode="&#x15b;" horiz-adv-x="823" d="M43 72q0 18 11 30.5t28 12.5q9 0 36.5 -12t63.5 -21q62 -16 135 -16q161 0 247.5 57t86.5 149q0 42 -16 73.5t-56.5 57t-66 37t-86.5 34.5q-15 6 -23 9q-54 21 -90 40t-73.5 50t-56.5 75.5t-19 101.5q0 85 56.5 147t139.5 90.5t179 28.5q77 0 139 -15q64 -14 83 -27 t19 -34q0 -18 -11.5 -29.5t-29.5 -11.5q-8 0 -33 10.5t-55 16.5q-49 12 -108 12q-134 0 -215.5 -55.5t-81.5 -134.5q0 -33 13 -61t31 -46.5t51 -37t58.5 -29.5t68.5 -28q9 -3 13 -5q47 -18 75.5 -31t66 -37t58.5 -49.5t36.5 -64t15.5 -85.5q0 -94 -56.5 -160t-147 -96 t-205.5 -30q-90 0 -162 16q-66 14 -92.5 29t-26.5 39zM408 1257q0 16 8 29l188 328q14 26 43 26q20 0 31.5 -12.5t11.5 -28.5q0 -17 -10 -34l-191 -316q-17 -28 -45 -28q-17 0 -26.5 10t-9.5 26z" />
<glyph unicode="&#x15e;" horiz-adv-x="1107" d="M92 86q0 18 12.5 31.5t30.5 13.5q8 0 20.5 -4.5t36.5 -14.5t41 -16q101 -37 220 -37q232 0 361.5 92t129.5 246q0 33 -6 62.5t-15.5 52.5t-27 45t-33 37.5t-41.5 32t-45.5 27t-51 24t-52.5 21.5t-56 21t-55 21q-53 20 -92.5 39.5t-81.5 51t-68.5 68.5t-43.5 92t-17 122 q0 93 43 169.5t115.5 125.5t165 75.5t194.5 26.5q162 0 293 -61q25 -12 25 -35q0 -20 -11.5 -33.5t-31.5 -13.5q-8 0 -18.5 4t-27.5 11t-30 12q-107 35 -199 35q-189 0 -310.5 -89t-121.5 -227q0 -56 17.5 -101.5t43 -76t70.5 -58.5t81.5 -44t94.5 -37q149 -54 208 -90 q147 -88 167 -249q4 -29 4 -61q0 -184 -135.5 -292t-359.5 -123l-7 -58q217 0 217 -160q0 -77 -71.5 -127.5t-181.5 -50.5q-63 0 -89 7.5t-26 31.5q0 17 23 24t79 7q82 0 128 31t46 77q0 51 -34.5 71.5t-106.5 25.5q-33 3 -44 9.5t-11 23.5q0 15 4 43l6 40h-14 q-182 0 -336 72q-25 13 -25 37z" />
<glyph unicode="&#x15f;" horiz-adv-x="823" d="M43 72q0 18 11 30.5t28 12.5q9 0 36.5 -12t63.5 -21q62 -16 135 -16q161 0 247.5 57t86.5 149q0 42 -16 73.5t-56.5 57t-66 37t-86.5 34.5q-15 6 -23 9q-54 21 -90 40t-73.5 50t-56.5 75.5t-19 101.5q0 85 56.5 147t139.5 90.5t179 28.5q77 0 139 -15q64 -14 83 -27 t19 -34q0 -18 -11.5 -29.5t-29.5 -11.5q-8 0 -33 10.5t-55 16.5q-49 12 -108 12q-134 0 -215.5 -55.5t-81.5 -134.5q0 -33 13 -61t31 -46.5t51 -37t58.5 -29.5t68.5 -28q9 -3 13 -5q47 -18 75.5 -31t66 -37t58.5 -49.5t36.5 -64t15.5 -85.5q0 -125 -94 -197t-244 -85l-8 -68 q217 0 217 -160q0 -77 -72 -127.5t-182 -50.5q-62 0 -88 7.5t-26 31.5q0 17 23 24t79 7q82 0 128 31t46 77q0 51 -34.5 71.5t-106.5 25.5q-33 3 -44.5 9.5t-11.5 23.5q0 15 4 43l7 51h-2q-90 0 -162 16q-66 14 -92.5 29t-26.5 39z" />
<glyph unicode="&#x160;" horiz-adv-x="1107" d="M92 86q0 18 12.5 31.5t30.5 13.5q8 0 20.5 -4.5t36.5 -14.5t41 -16q101 -37 220 -37q232 0 361.5 92t129.5 246q0 33 -6 62.5t-15.5 52.5t-27 45t-33 37.5t-41.5 32t-45.5 27t-51 24t-52.5 21.5t-56 21t-55 21q-53 20 -92.5 39.5t-81.5 51t-68.5 68.5t-43.5 92t-17 122 q0 93 43 169.5t115.5 125.5t165 75.5t194.5 26.5q162 0 293 -61q25 -12 25 -35q0 -20 -11.5 -33.5t-31.5 -13.5q-8 0 -18.5 4t-27.5 11t-30 12q-107 35 -199 35q-189 0 -310.5 -89t-121.5 -227q0 -56 17.5 -101.5t43 -76t70.5 -58.5t81.5 -44t94.5 -37q149 -54 208 -90 q147 -88 167 -249q4 -29 4 -61q0 -134 -75.5 -230t-204.5 -143t-297 -47q-182 0 -336 72q-25 13 -25 37zM426 2001q0 16 11 28.5t30 12.5q17 0 29 -12l233 -254l279 256q12 12 28 12t28.5 -11t12.5 -28q0 -15 -16 -31l-303 -293q-14 -14 -35 -14t-31 14l-256 293 q-10 13 -10 27z" />
<glyph unicode="&#x161;" horiz-adv-x="823" d="M43 72q0 18 11 30.5t28 12.5q9 0 36.5 -12t63.5 -21q62 -16 135 -16q161 0 247.5 57t86.5 149q0 42 -16 73.5t-56.5 57t-66 37t-86.5 34.5q-15 6 -23 9q-54 21 -90 40t-73.5 50t-56.5 75.5t-19 101.5q0 85 56.5 147t139.5 90.5t179 28.5q77 0 139 -15q64 -14 83 -27 t19 -34q0 -18 -11.5 -29.5t-29.5 -11.5q-8 0 -33 10.5t-55 16.5q-49 12 -108 12q-134 0 -215.5 -55.5t-81.5 -134.5q0 -33 13 -61t31 -46.5t51 -37t58.5 -29.5t68.5 -28q9 -3 13 -5q47 -18 75.5 -31t66 -37t58.5 -49.5t36.5 -64t15.5 -85.5q0 -94 -56.5 -160t-147 -96 t-205.5 -30q-90 0 -162 16q-66 14 -92.5 29t-26.5 39zM199 1593q0 16 11 28.5t30 12.5q16 0 28 -12l234 -254l278 256q12 12 29 12q16 0 28.5 -11t12.5 -28q0 -14 -16 -30l-304 -293q-14 -14 -34 -14t-31 14l-256 293q-10 13 -10 26z" />
<glyph unicode="&#x162;" horiz-adv-x="1110" d="M246 1448q0 21 13 33t36 12h962q16 0 28.5 -10.5t12.5 -28.5q0 -45 -47 -45h-436l-270 -1386q-6 -41 -45 -41q-41 0 -41 36q0 7 4 27l264 1364h-436q-19 0 -32 10.5t-13 28.5zM358 -397q2 16 20 30.5t37 37t23 57.5q-31 3 -48.5 27.5t-14.5 58.5q3 32 27 50t57 15 q36 -3 52 -33.5t11 -78.5q-9 -90 -58 -141.5t-87 -45.5q-9 1 -15 8t-4 15z" />
<glyph unicode="&#x163;" horiz-adv-x="600" d="M172 221q0 62 25 191l98 510h-74q-17 0 -28 11t-11 28q0 18 12.5 30.5t30.5 12.5h86l56 282q9 41 43 41q18 0 29.5 -10.5t11.5 -28.5q0 -1 -5 -26l-51 -258h209q17 0 28 -11t11 -28q0 -18 -12.5 -30.5t-30.5 -12.5h-221l-100 -519q-23 -126 -23 -182q0 -72 36 -105.5 t128 -33.5h51q17 0 28 -11t11 -28q0 -18 -12.5 -30.5t-30.5 -12.5h-49q-133 0 -189.5 56t-56.5 165zM203 -397q2 16 20 30.5t37 37t23 57.5q-31 3 -49 27.5t-15 58.5q3 32 27 50t57 15q36 -3 52.5 -34t11.5 -78q-9 -90 -58.5 -141.5t-87.5 -45.5q-9 1 -14.5 8t-3.5 15z" />
<glyph unicode="&#x164;" horiz-adv-x="1110" d="M246 1448q0 21 13 33t36 12h962q16 0 28.5 -10.5t12.5 -28.5q0 -45 -47 -45h-436l-270 -1386q-6 -41 -45 -41q-41 0 -41 36q0 7 4 27l264 1364h-436q-19 0 -32 10.5t-13 28.5zM494 2001q0 16 11 28.5t30 12.5q16 0 28 -12l234 -254l278 256q12 12 29 12q16 0 28.5 -11 t12.5 -28q0 -14 -17 -31l-303 -293q-14 -14 -34 -14q-21 0 -31 14l-256 293q-10 13 -10 27z" />
<glyph unicode="&#x165;" horiz-adv-x="761" d="M172 221q0 62 25 191l98 510h-74q-17 0 -28 11t-11 28q0 18 12.5 30.5t30.5 12.5h86l56 282q9 41 43 41q18 0 29.5 -10.5t11.5 -28.5q0 -1 -5 -26l-51 -258h209q17 0 28 -11t11 -28q0 -18 -12.5 -30.5t-30.5 -12.5h-221l-100 -519q-23 -126 -23 -182q0 -72 36 -105.5 t128 -33.5h51q17 0 28 -11t11 -28q0 -18 -12.5 -30.5t-30.5 -12.5h-49q-133 0 -189.5 56t-56.5 165zM766 1219q2 13 13.5 25t25 21.5t26 29.5t15.5 48q-31 3 -49 28t-15 59q3 32 27 50t57 15q36 -3 52.5 -34.5t11.5 -78.5q-9 -90 -58.5 -141t-87.5 -45q-9 1 -14.5 8t-3.5 15 z" />
<glyph unicode="&#x16a;" horiz-adv-x="1277" d="M193 412q0 76 22 206l164 852q3 19 16 30t29 11q18 0 29.5 -10t11.5 -28q0 -7 -4 -31l-162 -838q-18 -95 -18 -186q-2 -176 73 -264t240 -88q76 0 139 15.5t110.5 42t86.5 68t65.5 86t49 104.5t37 116t28.5 127l162 845q3 19 16 30t29 11q18 0 29.5 -10t11.5 -28 q0 -7 -4 -31l-160 -834q-14 -73 -29 -131.5t-40.5 -125.5t-56 -118t-76.5 -100t-101.5 -80.5t-131 -51t-165.5 -19.5q-209 0 -306.5 115t-94.5 315zM713 1890q0 17 12 29t29 12h417q17 0 29 -12t12 -29t-12 -29t-29 -12h-417q-17 0 -29 12t-12 29z" />
<glyph unicode="&#x16b;" horiz-adv-x="1009" d="M141 264q0 63 17 146l108 565q8 41 41 41q18 0 29.5 -10.5t11.5 -30.5q0 -12 -6 -39l-104 -537q-15 -77 -15 -129q0 -204 197 -204q174 0 332 155l145 754q8 41 41 41q18 0 29.5 -10.5t11.5 -30.5q0 -12 -6 -39l-142 -727q-8 -41 -8 -72q0 -27 10.5 -44t23.5 -23.5 t23.5 -17t10.5 -25.5q0 -39 -45 -39q-48 0 -78 45q-25 45 -25 86q-155 -131 -327 -131q-141 0 -208 73.5t-67 202.5zM436 1395q0 17 12 29t29 12h418q17 0 29 -12t12 -29t-12 -29t-29 -12h-418q-17 0 -29 12t-12 29z" />
<glyph unicode="&#x16e;" horiz-adv-x="1277" d="M193 412q0 76 22 206l164 852q3 19 16 30t29 11q18 0 29.5 -10t11.5 -28q0 -7 -4 -31l-162 -838q-18 -95 -18 -186q-2 -176 73 -264t240 -88q76 0 139 15.5t110.5 42t86.5 68t65.5 86t49 104.5t37 116t28.5 127l162 845q3 19 16 30t29 11q18 0 29.5 -10t11.5 -28 q0 -7 -4 -31l-160 -834q-14 -73 -29 -131.5t-40.5 -125.5t-56 -118t-76.5 -100t-101.5 -80.5t-131 -51t-165.5 -19.5q-209 0 -306.5 115t-94.5 315zM694 1810q0 98 69 167t167 69t167.5 -69t69.5 -167q0 -99 -69 -168t-168 -69q-98 0 -167 68.5t-69 168.5zM762 1810 q0 -70 50 -119t118 -49t118 49t50 119t-50 118t-118 48t-118 -48t-50 -118z" />
<glyph unicode="&#x16f;" horiz-adv-x="1009" d="M141 264q0 63 17 146l108 565q8 41 41 41q18 0 29.5 -10.5t11.5 -30.5q0 -12 -6 -39l-104 -537q-15 -77 -15 -129q0 -204 197 -204q174 0 332 155l145 754q8 41 41 41q18 0 29.5 -10.5t11.5 -30.5q0 -12 -6 -39l-142 -727q-8 -41 -8 -72q0 -27 10.5 -44t23.5 -23.5 t23.5 -17t10.5 -25.5q0 -39 -45 -39q-48 0 -78 45q-25 45 -25 86q-155 -131 -327 -131q-141 0 -208 73.5t-67 202.5zM434 1403q0 98 69 166.5t167 68.5t167.5 -68.5t69.5 -166.5q0 -99 -69.5 -168.5t-167.5 -69.5t-167 69t-69 169zM502 1403q0 -70 50 -119t118 -49t118 49 t50 119t-50 118t-118 48t-118 -48t-50 -118z" />
<glyph unicode="&#x170;" horiz-adv-x="1277" d="M193 412q0 76 22 206l164 852q3 19 16 30t29 11q18 0 29.5 -10t11.5 -28q0 -7 -4 -31l-162 -838q-18 -95 -18 -186q-2 -176 73 -264t240 -88q76 0 139 15.5t110.5 42t86.5 68t65.5 86t49 104.5t37 116t28.5 127l162 845q3 19 16 30t29 11q18 0 29.5 -10t11.5 -28 q0 -7 -4 -31l-160 -834q-14 -73 -29 -131.5t-40.5 -125.5t-56 -118t-76.5 -100t-101.5 -80.5t-131 -51t-165.5 -19.5q-209 0 -306.5 115t-94.5 315zM631 1753q0 16 8 29l188 327q15 27 43 27q20 0 31.5 -12.5t11.5 -28.5q0 -18 -10 -35l-190 -315q-17 -29 -45 -29 q-17 0 -27 10.5t-10 26.5zM1004 1753q0 16 8 29l188 327q15 27 43 27q20 0 31.5 -12.5t11.5 -28.5q0 -18 -10 -35l-191 -315q-17 -29 -45 -29q-17 0 -26.5 10.5t-9.5 26.5z" />
<glyph unicode="&#x171;" horiz-adv-x="1009" d="M141 264q0 63 17 146l108 565q8 41 41 41q18 0 29.5 -10.5t11.5 -30.5q0 -12 -6 -39l-104 -537q-15 -77 -15 -129q0 -204 197 -204q174 0 332 155l145 754q8 41 41 41q18 0 29.5 -10.5t11.5 -30.5q0 -12 -6 -39l-142 -727q-8 -41 -8 -72q0 -27 10.5 -44t23.5 -23.5 t23.5 -17t10.5 -25.5q0 -39 -45 -39q-48 0 -78 45q-25 45 -25 86q-155 -131 -327 -131q-141 0 -208 73.5t-67 202.5zM420 1257q0 16 8 29l188 328q14 26 43 26q20 0 31.5 -12.5t11.5 -28.5q0 -17 -10 -34l-190 -316q-17 -28 -45 -28q-17 0 -27 10.5t-10 25.5zM793 1257 q0 16 8 29l188 328q14 26 43 26q20 0 31.5 -12.5t11.5 -28.5q0 -17 -10 -34l-191 -316q-17 -28 -45 -28q-17 0 -26.5 10t-9.5 26z" />
<glyph unicode="&#x172;" horiz-adv-x="1277" d="M193 412q0 76 22 206l164 852q3 19 16 30t29 11q18 0 29.5 -10t11.5 -28q0 -7 -4 -31l-162 -838q-18 -95 -18 -186q-2 -176 73 -264t240 -88q76 0 139 15.5t110.5 42t86.5 68t65.5 86t49 104.5t37 116t28.5 127l162 845q3 19 16 30t29 11q18 0 29.5 -10t11.5 -28 q0 -7 -4 -31l-160 -834q-14 -70 -28 -126t-38 -121t-52 -114.5t-70 -98t-92 -81.5t-118.5 -55.5t-148.5 -27.5q-137 -108 -137 -189q0 -100 162 -100q19 0 29 -10t10 -23q0 -37 -47 -37q-43 0 -82 8t-75 25.5t-57.5 50t-21.5 76.5q0 55 32.5 102t96.5 97 q-190 10 -278.5 123.5t-85.5 304.5z" />
<glyph unicode="&#x173;" horiz-adv-x="1009" d="M141 264q0 63 17 146l108 565q8 41 41 41q18 0 29.5 -10.5t11.5 -30.5q0 -12 -6 -39l-104 -537q-15 -77 -15 -129q0 -204 197 -204q174 0 332 155l145 754q8 41 41 41q18 0 29.5 -10.5t11.5 -30.5q0 -12 -6 -39l-142 -727q-8 -41 -8 -72q0 -27 10.5 -44t23.5 -23.5 t23.5 -17t10.5 -25.5q0 -26 -29 -37q-72 -56 -113.5 -105t-41.5 -98q0 -100 161 -100q19 0 29 -10t10 -23q0 -37 -47 -37q-59 0 -109 13.5t-88 51t-38 95.5q0 64 43 115.5t123 113.5q-12 9 -23 27q-25 45 -25 86q-155 -131 -327 -131q-141 0 -208 73.5t-67 202.5z" />
<glyph unicode="&#x174;" horiz-adv-x="1710" d="M264 1468q-1 21 11 33t32 12q16 0 29 -11.5t14 -31.5q22 -695 78 -1337q324 683 584 1307q19 44 33 58.5t38 14.5q26 0 37 -18.5t13 -58.5q16 -629 71 -1301q308 656 600 1350q12 28 37 28q23 0 38 -18t5 -43q-257 -617 -633 -1415q-14 -30 -29.5 -42.5t-39.5 -12.5 q-28 0 -38.5 19t-15.5 69q-52 616 -75 1253q-226 -536 -578 -1282q-26 -59 -69 -59q-50 0 -54 61q-67 730 -88 1425zM803 1706q0 15 16 31l303 293q14 14 35 14t31 -14l256 -293q10 -13 10 -27q0 -16 -11 -28.5t-30 -12.5q-17 0 -29 12l-233 254l-279 -256q-12 -12 -28 -12 t-28.5 11t-12.5 28z" />
<glyph unicode="&#x175;" horiz-adv-x="1404" d="M178 965q-1 23 9 37t28 14q22 0 31.5 -11t11.5 -34q41 -465 86 -838q228 446 416 850q16 33 51 33q38 0 41 -45q22 -348 88 -838l416 854q14 29 39 29q24 0 32.5 -18.5t-4.5 -47.5q-231 -491 -450 -917q-13 -25 -25 -35t-33 -10q-20 0 -29 14t-14 49q-55 373 -86 813 q-204 -434 -415 -841q-17 -35 -49 -35q-23 0 -33.5 17t-16.5 61q-42 316 -94 899zM524 1298q0 14 17 31l303 293q14 14 35 14q19 0 30 -14l256 -293q11 -15 11 -26q0 -16 -11 -28.5t-30 -12.5q-17 0 -29 12l-234 254l-278 -256q-12 -12 -29 -12q-16 0 -28.5 10.5t-12.5 27.5 z" />
<glyph unicode="&#x176;" horiz-adv-x="958" d="M225 1460q-6 24 7.5 38.5t35.5 14.5q32 0 41 -34q85 -388 228 -838q256 361 563 850q14 22 35 22q23 0 35.5 -20t-1.5 -45q-272 -447 -606 -916l-98 -509q-3 -19 -16 -30t-29 -11q-18 0 -29.5 10.5t-11.5 30.5q0 13 6 40l92 478q-153 477 -252 919zM406 1706q0 15 16 31 l303 293q14 14 35 14q20 0 31 -14l256 -293q10 -13 10 -27q0 -16 -11 -28.5t-30 -12.5q-17 0 -29 12l-233 254l-279 -256q-12 -12 -29 -12q-16 0 -28 11t-12 28z" />
<glyph unicode="&#x177;" horiz-adv-x="888" d="M-104 -336q0 21 14.5 32t36.5 11q106 0 194.5 59.5t186.5 208.5q-118 595 -166 988q-3 24 9 38.5t32 14.5q36 0 41 -37q44 -350 147 -899l479 907q16 29 43 29q25 0 33.5 -21.5t-8.5 -52.5l-426 -807q-145 -275 -274 -392.5t-297 -117.5q-21 0 -33 10.5t-12 28.5z M254 1298q0 15 16 31l303 293q14 14 35 14q20 0 31 -14l256 -293q10 -13 10 -26q0 -16 -11 -28.5t-30 -12.5q-16 0 -28 12l-234 254l-278 -256q-12 -12 -29 -12q-16 0 -28.5 10.5t-12.5 27.5z" />
<glyph unicode="&#x178;" horiz-adv-x="958" d="M225 1460q-6 24 7.5 38.5t35.5 14.5q32 0 41 -34q85 -388 228 -838q256 361 563 850q14 22 35 22q23 0 35.5 -20t-1.5 -45q-272 -447 -606 -916l-98 -509q-3 -19 -16 -30t-29 -11q-18 0 -29.5 10.5t-11.5 30.5q0 13 6 40l92 478q-153 477 -252 919zM502 1784 q0 28 18.5 46.5t46.5 18.5t47 -18.5t19 -46.5t-19 -46t-47 -18t-46.5 18t-18.5 46zM780 1784q0 28 19 46.5t47 18.5t46.5 -18.5t18.5 -46.5t-18.5 -46t-46.5 -18t-47 18t-19 46z" />
<glyph unicode="&#x179;" horiz-adv-x="962" d="M-25 37q0 7 3 14.5t5 11.5t11 15.5t12 15.5l1012 1317h-729q-21 0 -31 10q-12 12 -12 27q0 19 13 32t36 13h803q20 0 32 -12q11 -14 11 -27q0 -18 -29 -55l-1012 -1317h731q21 0 33 -12q10 -12 10 -27q0 -18 -13.5 -30.5t-35.5 -12.5h-809q-18 0 -30 12q-11 9 -11 25z M596 1663q0 16 8 29l189 327q15 27 43 27q20 0 31.5 -12.5t11.5 -28.5q0 -17 -11 -35l-190 -315q-17 -29 -45 -29q-17 0 -27 10.5t-10 26.5z" />
<glyph unicode="&#x17a;" horiz-adv-x="827" d="M-4 39q0 15 16 35l744 848h-545q-17 0 -28 11t-11 28q0 18 12.5 30.5t30.5 12.5h631q17 0 28 -10t11 -25q0 -21 -27 -51l-731 -836h586q17 0 28 -11t11 -28q0 -18 -12.5 -30.5t-30.5 -12.5h-674q-17 0 -28 11t-11 28zM479 1257q0 16 8 29l189 328q14 26 43 26 q20 0 31.5 -12.5t11.5 -28.5q0 -17 -10 -34l-191 -316q-17 -28 -45 -28q-17 0 -27 10.5t-10 25.5z" />
<glyph unicode="&#x17b;" horiz-adv-x="962" d="M-25 37q0 7 3 14.5t5 11.5t11 15.5t12 15.5l1012 1317h-729q-21 0 -31 10q-12 12 -12 27q0 19 13 32t36 13h803q20 0 32 -12q11 -14 11 -27q0 -18 -29 -55l-1012 -1317h731q21 0 33 -12q10 -12 10 -27q0 -18 -13.5 -30.5t-35.5 -12.5h-809q-18 0 -30 12q-11 9 -11 25z M621 1780q0 28 18.5 46.5t46.5 18.5t47 -18.5t19 -46.5t-19 -46t-47 -18t-46.5 18t-18.5 46z" />
<glyph unicode="&#x17c;" horiz-adv-x="827" d="M-4 39q0 15 16 35l744 848h-545q-17 0 -28 11t-11 28q0 18 12.5 30.5t30.5 12.5h631q17 0 28 -10t11 -25q0 -21 -27 -51l-731 -836h586q17 0 28 -11t11 -28q0 -18 -12.5 -30.5t-30.5 -12.5h-674q-17 0 -28 11t-11 28zM500 1366q0 28 18.5 47t46.5 19t47 -19t19 -47 q0 -27 -19 -45t-47 -18t-46.5 17.5t-18.5 45.5z" />
<glyph unicode="&#x17d;" horiz-adv-x="962" d="M-25 37q0 7 3 14.5t5 11.5t11 15.5t12 15.5l1012 1317h-729q-21 0 -31 10q-12 12 -12 27q0 19 13 32t36 13h803q20 0 32 -12q11 -14 11 -27q0 -18 -29 -55l-1012 -1317h731q21 0 33 -12q10 -12 10 -27q0 -18 -13.5 -30.5t-35.5 -12.5h-809q-18 0 -30 12q-11 9 -11 25z M397 2001q0 16 11 28.5t30 12.5q17 0 29 -12l233 -254l279 256q12 12 29 12q16 0 28.5 -11t12.5 -28q0 -14 -17 -31l-303 -293q-14 -14 -35 -14q-20 0 -30 14l-256 293q-11 15 -11 27z" />
<glyph unicode="&#x17e;" horiz-adv-x="790" d="M-4 39q0 15 16 35l744 848h-545q-17 0 -28 11t-11 28q0 18 12.5 30.5t30.5 12.5h631q17 0 28 -10t11 -25q0 -21 -27 -51l-731 -836h586q17 0 28 -11t11 -28q0 -18 -12.5 -30.5t-30.5 -12.5h-674q-17 0 -28 11t-11 28zM254 1593q0 16 11 28.5t30 12.5q17 0 29 -12 l233 -254l279 256q12 12 28 12t28.5 -11t12.5 -28q0 -14 -16 -30l-303 -293q-14 -14 -35 -14t-31 14l-256 293q-10 13 -10 26z" />
<glyph unicode="&#x18f;" horiz-adv-x="1267" d="M190 420q0 71 13 160l30 184q9 53 58 53h844l14 92q14 100 14 158q0 178 -82 266q-84 90 -256 90q-143 0 -264 -53q-24 -11 -52 -25.5t-42.5 -21.5t-31.5 -12.5t-32 -5.5t-26.5 10.5t-11.5 30.5q0 26 40.5 55.5t110.5 56.5q138 53 315 53q206 0 310 -104 q110 -110 110 -322q0 -93 -12 -161l-57 -349q-37 -225 -125 -364q-146 -229 -441 -229q-207 0 -315 108q-111 111 -111 330zM276 432q0 -176 86 -272q91 -97 267 -97q235 0 352 175q78 120 115 342l26 159h-807l-26 -159q-13 -86 -13 -148z" />
<glyph unicode="&#x192;" horiz-adv-x="487" d="M-213 -397q0 17 12 29t29 12h31q102 0 158.5 54t82.5 206l176 1009h-94q-18 0 -29.5 11.5t-11.5 29.5q0 19 11 31t30 12h109l37 213q22 119 95 188.5t185 69.5h49q17 0 29 -12t12 -29t-12 -29t-29 -12h-49q-79 0 -131 -49t-67 -141l-35 -199h160q17 0 28.5 -12t11.5 -31 q0 -17 -11.5 -29t-28.5 -12h-175l-180 -1024q-30 -177 -107.5 -252t-213.5 -75h-31q-17 0 -29 12t-12 29z" />
<glyph unicode="&#x1dd;" horiz-adv-x="968" d="M141 313q0 47 11 119l16 94q7 37 45 37h610l4 25q7 44 7 80q0 120 -66 193t-186 73q-102 0 -195 -37q-13 -6 -31.5 -14.5t-28.5 -13t-21.5 -8t-20.5 -3.5q-37 0 -37 39q0 36 88 74q105 45 237 45q170 0 256 -93.5t86 -258.5q0 -45 -8 -97l-26 -157q-15 -91 -45.5 -164 t-80.5 -133t-126.5 -92.5t-175.5 -32.5q-159 0 -235.5 90t-76.5 235zM223 313q0 -117 58 -183.5t172 -66.5q79 0 139 25t100.5 73.5t65.5 109.5t41 143l14 71h-569l-11 -65q-10 -62 -10 -107z" />
<glyph unicode="&#x218;" horiz-adv-x="1107" d="M92 86q0 18 12.5 31.5t30.5 13.5q8 0 20.5 -4.5t36.5 -14.5t41 -16q101 -37 220 -37q232 0 361.5 92t129.5 246q0 33 -6 62.5t-15.5 52.5t-27 45t-33 37.5t-41.5 32t-45.5 27t-51 24t-52.5 21.5t-56 21t-55 21q-53 20 -92.5 39.5t-81.5 51t-68.5 68.5t-43.5 92t-17 122 q0 93 43 169.5t115.5 125.5t165 75.5t194.5 26.5q162 0 293 -61q25 -12 25 -35q0 -20 -11.5 -33.5t-31.5 -13.5q-8 0 -18.5 4t-27.5 11t-30 12q-107 35 -199 35q-189 0 -310.5 -89t-121.5 -227q0 -56 17.5 -101.5t43 -76t70.5 -58.5t81.5 -44t94.5 -37q149 -54 208 -90 q147 -88 167 -249q4 -29 4 -61q0 -134 -75.5 -230t-204.5 -143t-297 -47q-182 0 -336 72q-25 13 -25 37zM430 -397q2 16 20 30.5t37 37t23 57.5q-31 3 -49 27.5t-15 58.5q3 32 27 50t57 15q36 -3 52.5 -34t11.5 -78q-9 -90 -58 -141.5t-87 -45.5q-9 1 -15 8t-4 15z" />
<glyph unicode="&#x219;" horiz-adv-x="823" d="M43 72q0 18 11 30.5t28 12.5q9 0 36.5 -12t63.5 -21q62 -16 135 -16q161 0 247.5 57t86.5 149q0 42 -16 73.5t-56.5 57t-66 37t-86.5 34.5q-15 6 -23 9q-54 21 -90 40t-73.5 50t-56.5 75.5t-19 101.5q0 85 56.5 147t139.5 90.5t179 28.5q77 0 139 -15q64 -14 83 -27 t19 -34q0 -18 -11.5 -29.5t-29.5 -11.5q-8 0 -33 10.5t-55 16.5q-49 12 -108 12q-134 0 -215.5 -55.5t-81.5 -134.5q0 -33 13 -61t31 -46.5t51 -37t58.5 -29.5t68.5 -28q9 -3 13 -5q47 -18 75.5 -31t66 -37t58.5 -49.5t36.5 -64t15.5 -85.5q0 -94 -56.5 -160t-147 -96 t-205.5 -30q-90 0 -162 16q-66 14 -92.5 29t-26.5 39zM279 -397q2 16 20 30.5t36.5 37t22.5 57.5q-31 3 -48.5 27.5t-14.5 58.5q3 32 27 50t57 15q36 -3 52 -33.5t11 -78.5q-9 -90 -58 -141.5t-87 -45.5q-9 1 -14.5 8t-3.5 15z" />
<glyph unicode="&#x21a;" horiz-adv-x="1110" d="M246 1448q0 21 13 33t36 12h962q16 0 28.5 -10.5t12.5 -28.5q0 -45 -47 -45h-436l-270 -1386q-6 -41 -45 -41q-41 0 -41 36q0 7 4 27l264 1364h-436q-19 0 -32 10.5t-13 28.5zM358 -397q2 16 20 30.5t37 37t23 57.5q-31 3 -48.5 27.5t-14.5 58.5q3 32 27 50t57 15 q36 -3 52 -33.5t11 -78.5q-9 -90 -58 -141.5t-87 -45.5q-9 1 -15 8t-4 15z" />
<glyph unicode="&#x21b;" horiz-adv-x="600" d="M172 221q0 62 25 191l98 510h-74q-17 0 -28 11t-11 28q0 18 12.5 30.5t30.5 12.5h86l56 282q9 41 43 41q18 0 29.5 -10.5t11.5 -28.5q0 -1 -5 -26l-51 -258h209q17 0 28 -11t11 -28q0 -18 -12.5 -30.5t-30.5 -12.5h-221l-100 -519q-23 -126 -23 -182q0 -72 36 -105.5 t128 -33.5h51q17 0 28 -11t11 -28q0 -18 -12.5 -30.5t-30.5 -12.5h-49q-133 0 -189.5 56t-56.5 165zM203 -397q2 16 20 30.5t37 37t23 57.5q-31 3 -49 27.5t-15 58.5q3 32 27 50t57 15q36 -3 52.5 -34t11.5 -78q-9 -90 -58.5 -141.5t-87.5 -45.5q-9 1 -14.5 8t-3.5 15z" />
<glyph unicode="&#x259;" horiz-adv-x="968" d="M141 313q0 47 11 119l16 94q7 37 45 37h610l4 25q7 44 7 80q0 120 -66 193t-186 73q-102 0 -195 -37q-13 -6 -31.5 -14.5t-28.5 -13t-21.5 -8t-20.5 -3.5q-37 0 -37 39q0 36 88 74q105 45 237 45q170 0 256 -93.5t86 -258.5q0 -45 -8 -97l-26 -157q-15 -91 -45.5 -164 t-80.5 -133t-126.5 -92.5t-175.5 -32.5q-159 0 -235.5 90t-76.5 235zM223 313q0 -117 58 -183.5t172 -66.5q79 0 139 25t100.5 73.5t65.5 109.5t41 143l14 71h-569l-11 -65q-10 -62 -10 -107z" />
<glyph unicode="&#x2c6;" horiz-adv-x="1083" d="M422 1298q0 15 16 31l303 293q14 14 35 14q20 0 31 -14l256 -293q10 -13 10 -26q0 -16 -11 -28.5t-30 -12.5q-16 0 -28 12l-234 254l-278 -256q-12 -12 -29 -12q-16 0 -28.5 10.5t-12.5 27.5z" />
<glyph unicode="&#x2c7;" horiz-adv-x="1083" d="M463 1593q0 16 11 28.5t30 12.5q16 0 28 -12l234 -254l278 256q12 12 29 12q16 0 28.5 -11t12.5 -28q0 -14 -16 -30l-303 -293q-14 -14 -35 -14q-20 0 -31 14l-256 293q-10 13 -10 26z" />
<glyph unicode="&#x2d8;" horiz-adv-x="1083" d="M481 1486q5 14 19 21q37 21 57 -14q82 -150 207 -150t207 150q10 18 28 21t31 -7q13 -8 16.5 -22.5t-4.5 -32.5q-106 -190 -278 -190q-173 0 -279 190q-9 20 -4 34z" />
<glyph unicode="&#x2d9;" horiz-adv-x="1083" d="M688 1366q0 28 19 47t47 19t46.5 -19t18.5 -47t-18.5 -45.5t-46.5 -17.5t-47 18t-19 45z" />
<glyph unicode="&#x2da;" horiz-adv-x="1083" d="M520 1403q0 98 69 166.5t167 68.5t167.5 -68.5t69.5 -166.5q0 -99 -69.5 -168.5t-167.5 -69.5t-167 69t-69 169zM588 1403q0 -70 50 -119t118 -49t118 49t50 119t-50 118t-118 48t-118 -48t-50 -118z" />
<glyph unicode="&#x2db;" horiz-adv-x="1083" d="M375 -203q0 59 38 108.5t113 106.5h90q-74 -59 -116.5 -107.5t-42.5 -97.5q0 -100 161 -100q19 0 29 -10t10 -23q0 -36 -47 -36q-59 0 -109 13t-88 50.5t-38 95.5z" />
<glyph unicode="&#x2dc;" horiz-adv-x="1083" d="M444 1389q-2 36 50 67.5t120 32.5q50 1 98 -19t92 -40t83 -19q32 0 55 8.5t33 19t22.5 19t24.5 8.5q18 0 29.5 -12.5t11.5 -30.5q2 -36 -50.5 -68t-119.5 -32q-51 -1 -99 19t-91 40t-82 19q-31 0 -54.5 -8.5t-34 -19t-23 -19t-24.5 -8.5q-18 0 -29.5 12.5t-11.5 30.5z " />
<glyph unicode="&#x2dd;" horiz-adv-x="1083" d="M414 1257q0 16 8 29l188 328q14 26 43 26q20 0 31.5 -12.5t11.5 -28.5q0 -17 -10 -34l-190 -316q-17 -28 -45 -28q-17 0 -27 10.5t-10 25.5zM786 1257q0 14 9 29l188 328q14 26 43 26q20 0 31.5 -12.5t11.5 -28.5q0 -17 -10 -34l-191 -316q-17 -28 -45 -28 q-17 0 -27 10.5t-10 25.5z" />
<glyph unicode="&#x384;" horiz-adv-x="1085" d="M442 1098q0 11 7 32l104 345q10 41 49 41q18 0 29.5 -11.5t11.5 -29.5q0 -19 -6 -37l-113 -338q-12 -39 -45 -39q-15 0 -26 9t-11 28z" />
<glyph unicode="&#x385;" horiz-adv-x="1085" d="M287 1368q0 25 16 41t39 16q25 0 41 -16t16 -41q0 -23 -16 -39t-41 -16q-23 0 -39 16t-16 39zM418 1098q0 14 6 32l104 345q10 41 50 41q18 0 29 -11t11 -30t-6 -37l-112 -338q-12 -39 -45 -39q-15 0 -26 9t-11 28zM686 1368q0 25 16 41t41 16q23 0 39.5 -16.5 t16.5 -40.5q0 -23 -16.5 -39t-39.5 -16q-25 0 -41 16t-16 39z" />
<glyph unicode="&#x386;" horiz-adv-x="1120" d="M-8 37q110 271 307 662.5t401 756.5q30 53 64 53q20 0 30 -10.5t17 -42.5q161 -727 219 -1423q3 -25 -10 -39t-33 -14q-38 0 -41 38q-7 91 -39 365h-667q-72 -153 -168 -371q-14 -32 -47 -32q-22 0 -32 16.5t-1 40.5zM184 1098q0 14 6 32l105 345q10 41 49 41 q18 0 29.5 -11.5t11.5 -29.5q0 -19 -6 -37l-113 -338q-12 -39 -45 -39q-15 0 -26 9t-11 28zM281 469h616q-59 448 -156 891q-257 -459 -460 -891z" />
<glyph unicode="&#x388;" horiz-adv-x="1171" d="M129 1098q0 14 6 32l105 345q10 41 49 41q18 0 29.5 -11.5t11.5 -29.5q0 -19 -6 -37l-113 -338q-12 -39 -45 -39q-15 0 -26 9t-11 28zM227 41q0 8 9 53l262 1358q10 43 47 43h700q19 0 31 -11t12 -30t-13.5 -30t-35.5 -11h-661l-121 -627h594q18 0 30.5 -10t12.5 -28 q0 -19 -14 -31t-36 -12h-602l-120 -623h682q16 0 28 -10.5t12 -28.5t-13 -30.5t-34 -12.5h-729q-18 0 -29.5 10.5t-11.5 30.5z" />
<glyph unicode="&#x389;" horiz-adv-x="1411" d="M129 1098q0 14 6 32l105 345q10 41 49 41q18 0 29.5 -11.5t11.5 -29.5q0 -19 -6 -37l-113 -338q-12 -39 -45 -39q-15 0 -26 9t-11 28zM227 23q0 13 6 40l273 1407q3 19 16 30t29 11q18 0 29.5 -10t11.5 -28q0 -7 -4 -31l-129 -668h774l135 696q3 19 16 30t29 11 q18 0 29.5 -10t11.5 -28q0 -7 -4 -31l-274 -1419q-3 -19 -16.5 -30t-29.5 -11q-18 0 -29 10.5t-11 30.5q0 13 6 40l121 629h-775l-129 -669q-3 -19 -16 -30t-29 -11q-18 0 -29.5 10.5t-11.5 30.5z" />
<glyph unicode="&#x38a;" horiz-adv-x="548" d="M129 1098q0 14 6 32l105 345q10 41 49 41q18 0 29.5 -11.5t11.5 -29.5q0 -19 -6 -37l-113 -338q-12 -39 -45 -39q-15 0 -26 9t-11 28zM227 23q0 13 6 40l273 1407q3 19 16 30t29 11q18 0 29.5 -10t11.5 -28q0 -7 -4 -31l-275 -1419q-3 -19 -16 -30t-29 -11 q-18 0 -29.5 10.5t-11.5 30.5z" />
<glyph unicode="&#x38c;" horiz-adv-x="1290" d="M100 1098q0 14 6 32l105 345q10 41 49 41q18 0 29.5 -11.5t11.5 -29.5q0 -19 -6 -37l-113 -338q-12 -39 -45 -39q-15 0 -26 9t-11 28zM248 436q0 96 20 213l37 207q52 298 156 449q143 208 428 208q102 0 178 -36.5t120.5 -101.5t65.5 -145t21 -175q0 -77 -19 -185 l-45 -254q-48 -257 -123 -385q-144 -249 -454 -249q-104 0 -180 35t-120 98.5t-64.5 143t-20.5 177.5zM336 434q0 -170 73.5 -269t221.5 -99q274 0 397 231q66 125 100 342l43 258q13 74 13 166q0 162 -75.5 264.5t-217.5 102.5q-249 0 -375 -191q-85 -128 -129 -401 l-35 -215q-16 -109 -16 -189z" />
<glyph unicode="&#x38e;" horiz-adv-x="1189" d="M184 1098q0 14 6 32l105 345q10 41 49 41q18 0 29.5 -11.5t11.5 -29.5q0 -19 -6 -37l-113 -338q-12 -39 -45 -39q-15 0 -26 9t-11 28zM457 1460q-6 24 7.5 38.5t35.5 14.5q32 0 41 -34q87 -398 227 -838q256 361 563 850q14 22 35 22q23 0 36 -20t-1 -45 q-272 -447 -606 -916l-99 -509q-3 -19 -16 -30t-29 -11q-18 0 -29.5 10.5t-11.5 30.5q0 13 6 40l93 478q-153 477 -252 919z" />
<glyph unicode="&#x38f;" horiz-adv-x="1261" d="M43 1098q0 14 6 32l105 345q10 41 49 41q18 0 29.5 -11.5t11.5 -29.5q0 -19 -6 -37l-113 -338q-12 -39 -45 -39q-15 0 -26 9t-11 28zM88 39q0 19 13 32t36 13h248q-166 113 -166 358q0 62 12 133l48 279q52 315 165 467q142 190 414 190q186 0 285 -120 q102 -122 102 -338q0 -94 -16 -185l-49 -293q-61 -355 -326 -491h256q18 0 29.5 -10.5t11.5 -28.5q0 -19 -13 -32t-36 -13h-385q-19 0 -31 10.5t-12 28.5q0 33 51 53q31 12 63.5 29.5t83 56.5t91 86.5t77 124.5t50.5 166l55 340q12 71 12 166q0 166 -80 266q-79 98 -215 98 q-231 0 -352 -157q-102 -132 -150 -432l-45 -281q-10 -68 -10 -115q0 -256 227 -362q19 -10 19 -33q0 -19 -14 -32t-35 -13h-373q-18 0 -29.5 10.5t-11.5 28.5z" />
<glyph unicode="&#x390;" d="M100 29q0 12 6 39l177 907q3 19 15 30t28 11q18 0 29.5 -10.5t11.5 -28.5q0 -2 -5 -27l-180 -921q-8 -41 -41 -41q-18 0 -29.5 10.5t-11.5 30.5z" />
<glyph unicode="&#x391;" horiz-adv-x="1120" d="M-8 37q110 271 307 662.5t401 756.5q30 53 64 53q20 0 30 -10.5t17 -42.5q161 -727 219 -1423q3 -25 -10 -39t-33 -14q-38 0 -41 38q-7 91 -39 365h-667q-72 -153 -168 -371q-14 -32 -47 -32q-22 0 -32 16.5t-1 40.5zM281 469h616q-59 448 -156 891q-257 -459 -460 -891z " />
<glyph unicode="&#x392;" horiz-adv-x="1239" d="M129 41q0 13 8 53l262 1358q10 43 47 43h340q110 -1 193 -27.5t131 -73t71 -103.5t23 -124q0 -39 -6 -82l-10 -57q-38 -194 -250 -266q199 -70 199 -279q0 -15 -4 -55l-9 -57q-53 -371 -516 -371h-438q-18 0 -29.5 10.5t-11.5 30.5zM223 84h385q387 0 432 301l9 55 q2 14 2 43q0 234 -365 234h-340zM362 799h324q169 0 281 61t137 193l8 43q6 30 6 71q0 48 -15 88.5t-50.5 77.5t-103.5 58.5t-163 21.5h-307z" />
<glyph unicode="&#x393;" horiz-adv-x="983" d="M129 23q0 16 6 40l268 1387q3 19 16.5 31t29.5 12h708q16 0 29.5 -10.5t13.5 -28.5q0 -19 -13 -31t-34 -12h-670l-268 -1388q-8 -41 -45 -41q-18 0 -29.5 10.5t-11.5 30.5z" />
<glyph unicode="&#x395;" horiz-adv-x="1073" d="M129 41q0 13 8 53l262 1358q10 43 47 43h701q19 0 31 -11t12 -30t-13.5 -30t-35.5 -11h-662l-121 -627h594q18 0 30.5 -10t12.5 -28q0 -19 -13.5 -31t-35.5 -12h-602l-121 -623h682q16 0 28.5 -10.5t12.5 -28.5t-13 -30.5t-34 -12.5h-729q-18 0 -29.5 10.5t-11.5 30.5z " />
<glyph unicode="&#x396;" horiz-adv-x="962" d="M-25 37q0 7 3 14.5t5 11.5t11 15.5t12 15.5l1012 1317h-729q-21 0 -31 10q-12 12 -12 27q0 19 13 32t36 13h803q20 0 32 -12q11 -14 11 -27q0 -18 -29 -55l-1012 -1317h731q21 0 33 -12q10 -12 10 -27q0 -18 -13.5 -30.5t-35.5 -12.5h-809q-18 0 -30 12q-11 9 -11 25z " />
<glyph unicode="&#x397;" horiz-adv-x="1312" d="M129 23q0 13 6 40l273 1407q3 19 16 30t29 11q18 0 29.5 -10t11.5 -28q0 -1 -5 -31l-129 -668h775l135 696q3 19 16 30t29 11q18 0 29.5 -10t11.5 -28q0 -7 -4 -31l-275 -1419q-3 -19 -16 -30t-29 -11q-18 0 -29.5 10.5t-11.5 30.5q0 13 6 40l121 629h-774l-129 -669 q-3 -19 -16 -30t-29 -11q-18 0 -29.5 10.5t-11.5 30.5z" />
<glyph unicode="&#x398;" horiz-adv-x="1232" d="M190 436q0 90 21 213l37 207q52 300 155 449q143 208 428 208q82 0 148 -24.5t109.5 -66.5t73 -100.5t42.5 -125t13 -141.5q0 -77 -19 -185l-45 -254q-48 -257 -123 -385q-144 -249 -455 -249q-104 0 -180 35t-120 98.5t-64.5 143t-20.5 177.5zM279 434q0 -170 73 -269 t221 -99q275 0 398 231q66 125 100 342l43 258q12 68 12 166q0 162 -75 264.5t-217 102.5q-249 0 -375 -191q-85 -128 -129 -401l-35 -215q-16 -109 -16 -189zM399 745q0 17 12 29t29 12h525q17 0 29 -12t12 -29t-12 -28.5t-29 -11.5h-525q-17 0 -29 11.5t-12 28.5z" />
<glyph unicode="&#x399;" horiz-adv-x="450" d="M129 23q0 13 6 40l273 1407q3 19 16 30t29 11q18 0 29.5 -10t11.5 -28q0 -1 -5 -31l-274 -1419q-3 -19 -16 -30t-29 -11q-18 0 -29.5 10.5t-11.5 30.5z" />
<glyph unicode="&#x39a;" horiz-adv-x="1089" d="M129 23q0 13 6 40l273 1407q3 19 16 30t29 11q18 0 29.5 -10t11.5 -28q0 -1 -5 -31l-153 -791l842 844q16 16 34 16q16 0 28.5 -10.5t12.5 -27.5q0 -19 -14 -33l-610 -604q212 -408 356 -797q9 -24 -5.5 -40.5t-37.5 -16.5q-28 0 -39 28q-137 375 -338 762l-254 -252 l-96 -497q-3 -19 -16 -30t-29 -11q-18 0 -29.5 10.5t-11.5 30.5z" />
<glyph unicode="&#x39b;" horiz-adv-x="1138" d="M-8 37q110 271 307 662.5t401 756.5q30 53 64 53q20 0 30 -10.5t17 -42.5q161 -727 219 -1423q3 -25 -10 -39t-33 -14q-38 0 -41 38q-57 664 -205 1342q-340 -604 -669 -1348q-14 -32 -47 -32q-22 0 -32 16.5t-1 40.5z" />
<glyph unicode="&#x39c;" horiz-adv-x="1546" d="M129 23q0 13 6 40l273 1407q7 43 47 43q38 0 47 -40l282 -1098l713 1112q16 26 49 26q43 0 43 -40q0 -7 -4 -31l-274 -1419q-3 -19 -16 -30t-29 -11q-18 0 -29.5 10.5t-11.5 30.5q0 13 6 40l242 1246l-666 -1033q-17 -24 -41 -24q-31 0 -37 29l-266 1030l-248 -1288 q-3 -19 -16 -30t-29 -11q-18 0 -29.5 10.5t-11.5 30.5z" />
<glyph unicode="&#x39d;" horiz-adv-x="1339" d="M129 18q0 5 4 25l275 1427q4 22 18 32.5t31 10.5q19 0 28.5 -8t18.5 -30l538 -1321l254 1316q3 20 15.5 31.5t29.5 11.5q18 0 29.5 -10t11.5 -28q0 -8 -6 -35l-272 -1417q-8 -41 -49 -41q-31 0 -45 34l-541 1321l-254 -1314q-3 -19 -16 -30t-29 -11q-41 0 -41 36z" />
<glyph unicode="&#x39e;" horiz-adv-x="1177" d="M94 39q0 18 12.5 30.5t30.5 12.5h850q17 0 28 -11t11 -28q0 -18 -12.5 -30.5t-30.5 -12.5h-850q-17 0 -28 11t-11 28zM276 743q0 18 12.5 30.5t30.5 12.5h754q17 0 28 -10.5t11 -27.5q0 -18 -12.5 -30.5t-30.5 -12.5h-754q-17 0 -28 10.5t-11 27.5zM362 1450 q0 18 13 30.5t31 12.5h849q17 0 28 -11t11 -28q0 -18 -12.5 -30.5t-30.5 -12.5h-850q-17 0 -28 11t-11 28z" />
<glyph unicode="&#x39f;" horiz-adv-x="1232" d="M190 436q0 90 21 213l37 207q52 300 155 449q143 208 428 208q82 0 148 -24.5t109.5 -66.5t73 -100.5t42.5 -125t13 -141.5q0 -77 -19 -185l-45 -254q-48 -257 -123 -385q-144 -249 -455 -249q-104 0 -180 35t-120 98.5t-64.5 143t-20.5 177.5zM279 434q0 -170 73 -269 t221 -99q275 0 398 231q66 125 100 342l43 258q12 68 12 166q0 162 -75 264.5t-217 102.5q-249 0 -375 -191q-85 -128 -129 -401l-35 -215q-16 -109 -16 -189z" />
<glyph unicode="&#x3a0;" horiz-adv-x="1304" d="M129 23q0 16 6 40l268 1387q3 19 16.5 31t29.5 12h858q18 0 29.5 -10.5t11.5 -30.5q0 -10 -7 -41l-270 -1388q-3 -19 -16 -30t-29 -11q-18 0 -29.5 10t-11.5 28q0 7 4 31l264 1360h-770l-268 -1388q-8 -41 -45 -41q-18 0 -29.5 10.5t-11.5 30.5z" />
<glyph unicode="&#x3a1;" horiz-adv-x="1187" d="M129 23q0 13 6 40l268 1387q3 19 16.5 31t29.5 12h393q100 0 175 -28.5t119.5 -79.5t66.5 -115t22 -140q0 -51 -13 -118l-8 -41q-32 -166 -158 -255t-323 -89h-391l-117 -604q-3 -19 -16 -30t-29 -11q-18 0 -29.5 10.5t-11.5 30.5zM348 709h375q168 0 269 73t128 205 l8 41q11 64 11 102q0 125 -72.5 203t-224.5 78h-359z" />
<glyph unicode="&#x3a3;" horiz-adv-x="1028" d="M-6 39q0 21 29 47l729 666l-447 647q-22 29 -22 51q0 20 14 31.5t35 11.5h764q17 0 28 -11t11 -28q0 -20 -13 -32.5t-32 -12.5h-687l422 -623q17 -24 17 -38q0 -18 -23 -41l-686 -623h719q17 0 28 -11t11 -28q0 -20 -13 -32.5t-32 -12.5h-809q-43 0 -43 39z" />
<glyph unicode="&#x3a4;" horiz-adv-x="1110" d="M246 1448q0 21 13 33t36 12h962q16 0 28.5 -10.5t12.5 -28.5q0 -45 -47 -45h-436l-270 -1386q-6 -41 -45 -41q-41 0 -41 36q0 7 4 27l264 1364h-436q-19 0 -32 10.5t-13 28.5z" />
<glyph unicode="&#x3a5;" horiz-adv-x="958" d="M225 1460q-6 24 7.5 38.5t35.5 14.5q32 0 41 -34q85 -388 228 -838q256 361 563 850q14 22 35 22q23 0 35.5 -20t-1.5 -45q-272 -447 -606 -916l-98 -509q-3 -19 -16 -30t-29 -11q-18 0 -29.5 10.5t-11.5 30.5q0 13 6 40l92 478q-153 477 -252 919z" />
<glyph unicode="&#x3a6;" horiz-adv-x="1464" d="M180 668q0 41 8 77l23 105q14 63 45 114.5t70.5 86t94.5 60.5t105 40.5t115 24t112.5 13t108.5 5.5l53 276q3 19 16.5 30t29.5 11q18 0 29 -10t11 -28q0 -7 -4 -31l-49 -252q58 -7 113.5 -19t115 -31.5t108.5 -48.5t88.5 -66.5t62 -88.5t22.5 -111q0 -41 -8 -77l-23 -105 q-14 -64 -45.5 -115.5t-70 -86t-94 -60.5t-105.5 -40t-115.5 -23.5t-112.5 -13t-108 -5.5l-53 -276q-3 -19 -16 -30t-29 -11q-18 0 -29.5 10.5t-11.5 30.5q0 13 6 40l45 240q-71 8 -136.5 23t-135.5 44.5t-120.5 68t-83 98t-32.5 131.5zM264 678q0 -58 29 -106t74.5 -79.5 t106 -55.5t116.5 -36.5t115 -19.5l141 735q-48 -2 -80 -4.5t-83 -8t-87 -14.5t-81 -22.5t-77.5 -34t-63.5 -47t-51 -63.5t-30 -82l-23 -105q-6 -27 -6 -57zM791 377q56 3 92.5 5.5t95.5 10.5t99.5 19.5t89.5 32t81 48t59 68.5t38 92l22 105q6 27 6 57q0 57 -29 105t-74 80 t-105.5 56t-117 36.5t-114.5 19.5z" />
<glyph unicode="&#x3a7;" horiz-adv-x="1093" d="M-35.5 4q-10.5 22 6.5 47q47 62 101.5 130t95.5 119t105.5 128.5t96 116t104.5 126t97 115.5q-215 480 -290 666q-10 25 2 43t34 18q32 0 43 -28q83 -204 269 -627q324 392 501 637q12 18 33 18q24 0 36 -22t-5 -47q-172 -237 -530 -666q232 -515 319 -737q10 -25 -4 -42 t-37 -17q-27 0 -39 26q-112 284 -297 699q-403 -487 -573 -709q-11 -16 -33 -16q-25 0 -35.5 22z" />
<glyph unicode="&#x3a8;" horiz-adv-x="1386" d="M244 952q0 78 20 191l64 327q3 19 16 30t29 11q18 0 29.5 -10t11.5 -28q0 -7 -4 -31l-58 -297q-20 -105 -20 -180q0 -154 84.5 -246.5t285.5 -124.5l170 876q3 19 16.5 30t29.5 11q18 0 29 -10t11 -28q0 -7 -4 -31l-163 -848q111 8 198 37.5t146.5 73.5t103 108.5t69 135 t42.5 161.5l69 360q3 19 16 30t29 11q18 0 29.5 -10t11.5 -28q0 -7 -4 -31l-65 -340q-19 -102 -48 -181.5t-80.5 -154.5t-121.5 -126t-174.5 -85.5t-237.5 -44.5l-94 -487q-3 -19 -16 -30t-29 -11q-18 0 -29.5 10.5t-11.5 30.5q0 13 6 40l86 447q-442 71 -442 442z" />
<glyph unicode="&#x3aa;" horiz-adv-x="450" d="M129 23q0 13 6 40l273 1407q3 19 16 30t29 11q18 0 29.5 -10t11.5 -28q0 -1 -5 -31l-274 -1419q-3 -19 -16 -30t-29 -11q-18 0 -29.5 10.5t-11.5 30.5zM270 1784q0 28 19 46.5t47 18.5t46.5 -18.5t18.5 -46.5t-18.5 -46t-46.5 -18t-47 18t-19 46zM549 1784 q0 28 18.5 46.5t46.5 18.5t47 -18.5t19 -46.5t-19 -46t-47 -18t-46.5 18t-18.5 46z" />
<glyph unicode="&#x3ab;" horiz-adv-x="958" d="M225 1460q-6 24 7.5 38.5t35.5 14.5q32 0 41 -34q85 -388 228 -838q256 361 563 850q14 22 35 22q23 0 35.5 -20t-1.5 -45q-272 -447 -606 -916l-98 -509q-3 -19 -16 -30t-29 -11q-18 0 -29.5 10.5t-11.5 30.5q0 13 6 40l92 478q-153 477 -252 919zM502 1784 q0 28 18.5 46.5t46.5 18.5t47 -18.5t19 -46.5t-19 -46t-47 -18t-46.5 18t-18.5 46zM780 1784q0 28 19 46.5t47 18.5t46.5 -18.5t18.5 -46.5t-18.5 -46t-46.5 -18t-47 18t-19 46z" />
<glyph unicode="&#x3ac;" horiz-adv-x="1073" d="M141 311q0 48 17 148l24 143q37 208 135 309q102 105 275 105q66 0 114.5 -25t78.5 -73.5t47 -106t26 -133.5q69 166 115.5 250t83.5 84q18 0 30.5 -12.5t12.5 -28.5q0 -11 -5 -23.5t-10 -20t-22 -32.5q-15 -22 -29 -44.5t-29 -53t-24.5 -49t-27.5 -59t-25 -56t-29.5 -68 t-28.5 -67.5q1 -29 1 -73.5t0.5 -72.5t1.5 -65.5t2.5 -61.5t4.5 -52t8 -45.5t11.5 -32.5t15.5 -22t21 -7q26 0 55 21.5t45 21.5q15 0 25 -10.5t10 -28.5q0 -25 -43 -54q-53 -34 -113 -34q-39 0 -64.5 25.5t-38 77.5t-16.5 104.5t-5 132.5q-38 -76 -75 -132t-83 -104 t-100 -73t-115 -25q-277 0 -277 323zM225 315q0 -247 199 -247q44 0 87 25t78 64t72.5 100t65.5 118t61 133q-2 62 -5.5 109.5t-12 100t-23 89.5t-36.5 68t-55 47t-76 16q-129 0 -211 -92q-73 -84 -107 -273l-29 -163q-8 -44 -8 -95zM563 1098q0 14 6 32l105 345 q10 41 49 41q18 0 29.5 -11.5t11.5 -29.5q0 -19 -6 -37l-113 -338q-12 -39 -45 -39q-15 0 -26 9t-11 28z" />
<glyph unicode="&#x3ad;" horiz-adv-x="819" d="M109 270q14 161 194 232q-45 30 -75 87.5t-23 143.5q9 121 94 197q99 86 279 86q101 0 180 -27q71 -23 71 -59q0 -39 -43 -39q-10 0 -20.5 3t-26.5 9.5t-28 9.5q-65 21 -144 21q-142 0 -213 -62q-58 -49 -67 -139q-6 -52 6.5 -91t38 -60t54.5 -31t60 -10h156q17 0 28 -11 t11 -28q0 -18 -12.5 -30.5t-30.5 -12.5h-145q-30 0 -61 -5t-66 -18.5t-62.5 -34t-48 -54.5t-25.5 -77q-12 -113 58 -164q52 -38 162 -38q89 0 178 26q17 5 41 14.5t38.5 14t26.5 4.5q31 0 31 -35q0 -45 -117 -78q-103 -28 -200 -28q-132 0 -209 53q-104 71 -90 231z M485 1098q0 11 7 32l104 345q10 41 49 41q18 0 29.5 -11.5t11.5 -29.5q0 -19 -6 -37l-113 -338q-12 -39 -45 -39q-15 0 -26 9t-11 28z" />
<glyph unicode="&#x3ae;" horiz-adv-x="1009" d="M100 29q0 12 6 39l140 714q8 41 8 72q0 27 -10.5 44.5t-23.5 23.5t-23.5 17t-10.5 26q0 39 45 39t74 -37q26 -33 31 -82q155 131 328 131q140 0 207 -74t67 -203q0 -67 -16 -145l-183 -934q-8 -41 -41 -41q-18 0 -29.5 10.5t-11.5 30.5q0 8 7 39l178 905q14 72 14 129 q0 205 -197 205q-172 0 -331 -156l-146 -753q-8 -41 -41 -41q-18 0 -29.5 10.5t-11.5 30.5zM481 1098q0 14 6 32l105 345q10 41 49 41q18 0 29.5 -11.5t11.5 -29.5q0 -19 -6 -37l-113 -338q-12 -39 -45 -39q-15 0 -26 9t-11 28z" />
<glyph unicode="&#x3af;" d="M100 29q0 12 6 39l177 907q3 19 15 30t28 11q18 0 29.5 -10.5t11.5 -28.5q0 -2 -5 -27l-180 -921q-8 -41 -41 -41q-18 0 -29.5 10.5t-11.5 30.5zM313 1098q0 14 6 32l105 345q10 41 49 41q18 0 29.5 -11.5t11.5 -29.5q0 -19 -6 -37l-113 -338q-12 -39 -45 -39 q-15 0 -26 9t-11 28z" />
<glyph unicode="&#x3b0;" horiz-adv-x="991" d="M129 299q0 57 12 119l33 182q40 219 193 330h-144q-17 0 -28 11t-11 28q0 18 12.5 30.5t30.5 12.5h230q17 0 28 -11t11 -28q0 -6 -1.5 -12t-5 -11.5t-6 -9.5t-9 -9.5t-9 -8t-11 -9t-10.5 -8.5q-37 -30 -58 -50.5t-50.5 -58t-49 -86t-30.5 -110.5l-33 -178 q-10 -65 -10 -109q0 -115 58.5 -182.5t183.5 -67.5q302 0 364 330l17 88q18 93 18 185q0 75 -14 140t-27.5 103.5t-13.5 51.5q0 51 43 51q31 0 54.5 -61t32.5 -132.5t9 -134.5q0 -97 -20 -203l-15 -84q-32 -190 -146 -302.5t-308 -112.5q-165 0 -242.5 87t-77.5 230z M397 1368q0 24 16.5 40.5t39.5 16.5q25 0 41 -16t16 -41q0 -23 -16 -39t-41 -16q-23 0 -39.5 16t-16.5 39zM528 1098q0 11 7 32l104 345q10 41 49 41q18 0 29.5 -11.5t11.5 -29.5q0 -19 -6 -37l-113 -338q-12 -39 -45 -39q-15 0 -26 9t-11 28zM797 1368q0 25 16 41t41 16 q23 0 39 -16t16 -41q0 -23 -16 -39t-39 -16q-25 0 -41 16t-16 39z" />
<glyph unicode="&#x3b1;" horiz-adv-x="1073" d="M141 311q0 48 17 148l24 143q37 208 135 309q102 105 275 105q66 0 114.5 -25t78.5 -73.5t47 -106t26 -133.5q69 166 115.5 250t83.5 84q18 0 30.5 -12.5t12.5 -28.5q0 -11 -5 -23.5t-10 -20t-22 -32.5q-15 -22 -29 -44.5t-29 -53t-24.5 -49t-27.5 -59t-25 -56t-29.5 -68 t-28.5 -67.5q1 -29 1 -73.5t0.5 -72.5t1.5 -65.5t2.5 -61.5t4.5 -52t8 -45.5t11.5 -32.5t15.5 -22t21 -7q26 0 55 21.5t45 21.5q15 0 25 -10.5t10 -28.5q0 -25 -43 -54q-53 -34 -113 -34q-39 0 -64.5 25.5t-38 77.5t-16.5 104.5t-5 132.5q-38 -76 -75 -132t-83 -104 t-100 -73t-115 -25q-277 0 -277 323zM225 315q0 -247 199 -247q44 0 87 25t78 64t72.5 100t65.5 118t61 133q-2 62 -5.5 109.5t-12 100t-23 89.5t-36.5 68t-55 47t-76 16q-129 0 -211 -92q-73 -84 -107 -273l-29 -163q-8 -44 -8 -95z" />
<glyph unicode="&#x3b2;" horiz-adv-x="1118" d="M27 -342q0 12 6 39l252 1292q53 269 160.5 384.5t285.5 115.5q149 0 232.5 -83.5t83.5 -227.5q0 -83 -29 -154t-77.5 -119.5t-105 -81t-118.5 -47.5q289 -86 284 -377q-4 -202 -148 -306.5t-398 -104.5q-135 0 -275 37l-71 -367q-8 -41 -41 -41q-18 0 -29.5 10.5 t-11.5 30.5zM197 111q141 -43 276 -43q213 0 327 81.5t120 241.5q7 179 -113.5 261.5t-345.5 82.5h-49q-17 0 -28 11t-11 28q0 18 12.5 30.5t30.5 12.5h100q45 0 92.5 7.5t99.5 23t97 43.5t81.5 65.5t57.5 93t21 121.5q0 111 -61.5 176.5t-176.5 65.5q-139 0 -226 -101.5 t-132 -330.5z" />
<glyph unicode="&#x3b3;" horiz-adv-x="849" d="M172 975q0 41 41 41q37 0 41 -39q37 -334 129 -862q238 419 473 874q14 27 41 27q18 0 27.5 -10.5t9.5 -26.5q0 -15 -10 -35q-316 -598 -521 -946l-65 -338q-8 -41 -41 -41q-18 0 -29.5 10.5t-11.5 30.5q0 12 6 39l60 305q-107 583 -146 926q-4 36 -4 45z" />
<glyph unicode="&#x3b4;" horiz-adv-x="1120" d="M117 418q0 200 139 332q72 68 166 104.5t188 36.5q161 0 295 -84q-80 319 -332 571q-34 34 -34 62q0 21 12.5 32t30.5 11h432q17 0 28 -11t11 -28q0 -18 -12.5 -30.5t-30.5 -12.5h-340q155 -167 251.5 -387.5t96.5 -466.5q0 -245 -117 -395q-66 -84 -160 -127t-200 -43 q-193 0 -308 118q-116 119 -116 318zM199 418q0 -162 90 -258q91 -97 252 -97q88 0 166 36.5t133 109.5q96 127 96 338q0 47 -8 137q-62 61 -145.5 93t-172.5 32q-77 0 -154.5 -30t-136.5 -85q-120 -113 -120 -276z" />
<glyph unicode="&#x3b5;" horiz-adv-x="819" d="M109 270q14 161 194 232q-45 30 -75 87.5t-23 143.5q9 121 94 197q99 86 279 86q101 0 180 -27q71 -23 71 -59q0 -39 -43 -39q-10 0 -20.5 3t-26.5 9.5t-28 9.5q-65 21 -144 21q-142 0 -213 -62q-58 -49 -67 -139q-6 -52 6.5 -91t38 -60t54.5 -31t60 -10h156q17 0 28 -11 t11 -28q0 -18 -12.5 -30.5t-30.5 -12.5h-145q-30 0 -61 -5t-66 -18.5t-62.5 -34t-48 -54.5t-25.5 -77q-12 -113 58 -164q52 -38 162 -38q89 0 178 26q17 5 41 14.5t38.5 14t26.5 4.5q31 0 31 -35q0 -45 -117 -78q-103 -28 -200 -28q-132 0 -209 53q-104 71 -90 231z" />
<glyph unicode="&#x3b6;" horiz-adv-x="860" d="M154 438q0 107 50 225.5t127 221t178 204.5t193.5 176.5t182.5 135.5h-488q-17 0 -28 11t-11 28q0 18 12.5 30.5t30.5 12.5h605q17 0 27.5 -11t10.5 -28q0 -14 -8.5 -25.5t-18 -18.5t-34.5 -24q-8 -5 -12 -8q-96 -62 -193.5 -141t-195.5 -178t-173 -199t-122 -209 t-47 -203q0 -60 18.5 -107.5t53 -80.5t72.5 -55t89 -41q29 -10 78 -25.5t78 -25.5t66.5 -27.5t58 -36.5t35 -48.5t14.5 -66.5q0 -53 -24 -110.5t-57 -99.5t-66.5 -69.5t-53.5 -27.5q-41 0 -41 39q0 17 25.5 44.5t55.5 54.5t55.5 70t25.5 87q0 23 -12.5 42t-30 32t-49.5 27 t-57.5 22.5t-69.5 23t-70 23.5q-60 21 -104.5 46t-87 65.5t-65.5 102.5t-23 142z" />
<glyph unicode="&#x3b7;" horiz-adv-x="1009" d="M100 29q0 12 6 39l140 714q8 41 8 72q0 27 -10.5 44.5t-23.5 23.5t-23.5 17t-10.5 26q0 39 45 39t74 -37q26 -33 31 -82q155 131 328 131q140 0 207 -74t67 -203q0 -67 -16 -145l-183 -934q-8 -41 -41 -41q-18 0 -29.5 10.5t-11.5 30.5q0 8 7 39l178 905q14 72 14 129 q0 205 -197 205q-172 0 -331 -156l-146 -753q-8 -41 -41 -41q-18 0 -29.5 10.5t-11.5 30.5z" />
<glyph unicode="&#x3b8;" horiz-adv-x="972" d="M129 311q0 63 12 127l129 676q15 78 44.5 141t79 116t127.5 82.5t179 29.5q83 0 145 -26.5t97 -73.5t51.5 -103t16.5 -123q0 -44 -11 -108l-133 -689q-72 -372 -428 -372q-160 0 -234.5 89.5t-74.5 233.5zM211 311q0 -243 227 -243q157 0 237 81t109 226l62 315h-574 l-51 -268q-10 -62 -10 -111zM289 772h571l58 291q10 52 10 94q0 111 -55.5 178.5t-172.5 67.5q-289 0 -348 -305z" />
<glyph unicode="&#x3b9;" d="M100 29q0 12 6 39l177 907q3 19 15 30t28 11q18 0 29.5 -10.5t11.5 -28.5q0 -2 -5 -27l-180 -921q-8 -41 -41 -41q-18 0 -29.5 10.5t-11.5 30.5z" />
<glyph unicode="&#x3ba;" horiz-adv-x="903" d="M100 29q0 12 6 39l177 907q3 19 15 30t28 11q18 0 29.5 -10.5t11.5 -28.5q0 -2 -5 -27l-90 -465q239 224 346 322q47 43 78.5 69.5t81 62.5t95 54.5t85.5 18.5q30 0 51 -17t21 -45q0 -20 -14.5 -32.5t-36.5 -12.5q-13 0 -24 12.5t-19 12.5q-47 0 -135 -66t-285 -250 q147 -293 244 -551q10 -27 10 -38q0 -17 -11.5 -27t-27.5 -10q-30 0 -39 26q-116 305 -237 545q-114 -108 -207 -192l-66 -338q-8 -41 -41 -41q-18 0 -29.5 10.5t-11.5 30.5z" />
<glyph unicode="&#x3bb;" horiz-adv-x="864" d="M-20 25q0 14 10 34q161 307 555 977q-6 46 -41 224q-7 33 -19 72l-20 65t-8 35q0 20 11.5 32.5t29.5 12.5q29 0 43 -35q6 -14 12 -29t11.5 -34.5t9.5 -35t9.5 -43l9 -45t10 -54.5t10 -58.5t11.5 -70t13 -75.5q112 -666 141 -923q4 -36 4 -45q0 -41 -41 -41q-37 0 -41 39 q-32 287 -137 891q-40 -71 -127 -222.5t-138.5 -242t-120.5 -216t-120 -223.5q-13 -26 -41 -26q-36 0 -36 37z" />
<glyph unicode="&#x3bd;" horiz-adv-x="892" d="M172 975q0 41 41 41q37 0 41 -39q38 -340 133 -887q191 230 248 305q207 273 207 398q0 41 -13 74t-28 49.5t-28 32t-13 26.5q0 16 11.5 28.5t29.5 12.5q43 0 81 -70t38 -141q0 -45 -17 -99.5t-52.5 -117.5t-69 -115.5t-89.5 -124.5t-88.5 -113t-91.5 -111.5t-76 -90.5 q-22 -27 -37.5 -36t-33.5 -9q-41 0 -52 61q-100 553 -137 881q-4 36 -4 45z" />
<glyph unicode="&#x3be;" horiz-adv-x="854" d="M113 393q0 136 101 239t261 142q-76 38 -119 106.5t-43 161.5q0 120 58.5 207.5t177.5 151.5h-223q-17 0 -28 11t-11 28q0 18 12.5 30.5t30.5 12.5h633q17 0 27.5 -11t10.5 -28q0 -18 -12.5 -30.5t-30.5 -12.5h-133q-107 0 -204 -41t-161.5 -123t-64.5 -188 q0 -65 26.5 -115.5t67.5 -78t84 -41t84 -13.5h160q17 0 28 -11t11 -28q0 -18 -12.5 -30.5t-30.5 -12.5h-199q-98 0 -191 -35.5t-158.5 -110t-65.5 -170.5q0 -35 7.5 -64t16 -49.5t29.5 -39.5t34.5 -29.5t45 -25t46 -20t52.5 -19.5q29 -10 78 -25.5t78 -25.5t66.5 -27.5 t58 -36.5t35 -48.5t14.5 -66.5q0 -53 -24 -110.5t-57 -99.5t-66.5 -69.5t-53.5 -27.5q-41 0 -41 39q0 17 25.5 44.5t55.5 54.5t55.5 70t25.5 87q0 23 -12.5 42t-30 32t-49.5 27t-57.5 22.5t-69.5 23t-70 23.5q-51 18 -84 32t-73.5 40t-64 56t-40 76.5t-16.5 104.5z" />
<glyph unicode="&#x3bf;" horiz-adv-x="985" d="M141 311q0 57 13 127l39 209q15 78 44.5 141t79 116t127.5 82.5t179 29.5q83 0 145 -26.5t96.5 -73.5t51 -103t16.5 -123q0 -50 -10 -108l-43 -222q-72 -372 -428 -372q-160 0 -235 89.5t-75 233.5zM223 311q0 -243 228 -243q157 0 237 81t109 226l43 221q10 52 10 94 q0 111 -55.5 178.5t-171.5 67.5q-290 0 -349 -305l-41 -209q-10 -62 -10 -111z" />
<glyph unicode="&#x3c0;" horiz-adv-x="983" d="M12 33q11 30 43 37q40 9 64 37t43 96l203 719h-72q-21 0 -31 14q-10 10 -10 25q0 19 13 31t36 12h750q19 0 32 -13q9 -9 9 -24q0 -19 -13.5 -32t-34.5 -13h-43l-139 -713q-13 -72 -4 -99.5t45 -39.5q32 -11 25 -41q-3 -18 -17.5 -29.5t-29.5 -11.5q-19 0 -43.5 12 t-38.5 31q-43 50 -27 141l148 750h-474l-217 -764q-25 -89 -88 -135q-26 -17 -55 -27t-47 -8q-15 2 -23 14t-4 31z" />
<glyph unicode="&#x3c1;" horiz-adv-x="985" d="M31 -336q0 11 6 41l182 942q12 63 30 114t50.5 100t76.5 82t109 53t146 20q84 0 146.5 -26.5t98.5 -73t53 -103t17 -123.5q0 -50 -10 -108l-43 -222q-72 -372 -428 -372q-162 0 -270 96l-82 -418q-8 -41 -41 -41q-41 0 -41 39zM213 182q44 -51 111.5 -82.5t140.5 -31.5 q157 0 237 81t109 226l43 221q10 52 10 94q0 110 -58 178t-175 68q-81 0 -141.5 -24t-98 -69t-59.5 -97t-35 -121z" />
<glyph unicode="&#x3c2;" horiz-adv-x="882" d="M131 440q0 219 143 375q88 95 212.5 147t248.5 52q79 0 144 -15q94 -21 94 -65q0 -18 -12 -28.5t-31 -10.5q-20 0 -82 16q-62 17 -121 17q-97 0 -199.5 -39.5t-177.5 -114.5q-133 -133 -133 -334q0 -60 18.5 -107.5t53 -80.5t73 -55t89.5 -41q28 -10 77 -25.5t78.5 -25.5 t66.5 -27.5t57.5 -36.5t35 -48.5t14.5 -66.5q0 -69 -39.5 -144t-86 -119t-74.5 -44q-41 0 -41 39q0 14 16.5 34t40.5 42.5t47.5 48.5t40 60.5t16.5 70.5q0 23 -12.5 42t-29.5 32t-49.5 27t-57.5 22.5t-69 23t-70 23.5q-60 21 -104.5 46t-87.5 65.5t-66 102.5t-23 142z" />
<glyph unicode="&#x3c3;" horiz-adv-x="962" d="M141 311q0 57 13 127l36 205q15 78 44.5 141t79.5 116t128 82.5t179 29.5h434q17 0 28 -11t11 -28q0 -18 -12.5 -30.5t-30.5 -12.5h-205q84 -87 84 -244q0 -50 -10 -108l-41 -218q-72 -372 -428 -372q-160 0 -235 89.5t-75 233.5zM223 311q0 -243 228 -243q157 0 237 81 t109 226l41 217q10 52 10 94q0 111 -55.5 178.5t-171.5 67.5q-290 0 -349 -305l-39 -205q-10 -62 -10 -111z" />
<glyph unicode="&#x3c4;" horiz-adv-x="837" d="M111 858q0 19 12 45.5t31 46.5q51 54 141 54h614q16 0 29.5 -10.5t13.5 -28.5q0 -19 -12 -31t-35 -12h-311l-139 -715q-6 -37 -6 -60q0 -27 7.5 -45t17.5 -25.5t20.5 -13.5t18 -15.5t7.5 -24.5q0 -17 -13.5 -26t-33.5 -9q-53 0 -80.5 43.5t-27.5 107.5q0 36 4 54l141 729 h-178q-70 0 -98.5 -15t-40.5 -53q-10 -35 -41 -35q-18 0 -29.5 12t-11.5 27z" />
<glyph unicode="&#x3c5;" horiz-adv-x="991" d="M129 299q0 57 12 119l33 182q40 219 193 330h-144q-17 0 -28 11t-11 28q0 18 12.5 30.5t30.5 12.5h230q17 0 28 -11t11 -28q0 -6 -1.5 -12t-5 -11.5t-6 -9.5t-9 -9.5t-9 -8t-11 -9t-10.5 -8.5q-37 -30 -58 -50.5t-50.5 -58t-49 -86t-30.5 -110.5l-33 -178 q-10 -65 -10 -109q0 -115 58.5 -182.5t183.5 -67.5q302 0 364 330l17 88q18 93 18 185q0 75 -14 140t-27.5 103.5t-13.5 51.5q0 51 43 51q31 0 54.5 -61t32.5 -132.5t9 -134.5q0 -97 -20 -203l-15 -84q-32 -190 -146 -302.5t-308 -112.5q-165 0 -242.5 87t-77.5 230z" />
<glyph unicode="&#x3c6;" horiz-adv-x="1378" d="M129 397q0 24 8 78l19 107q11 64 40 115t64 84t89 58t98.5 38t110 22t106.5 11.5t104 4.5l55 285q3 19 15 30t28 11q18 0 29.5 -10.5t11.5 -28.5q0 -6 -4 -26l-51 -261q69 -8 129.5 -22t126 -41t111.5 -63.5t76 -93.5t30 -128q0 -24 -8 -78l-19 -106q-11 -64 -40 -115 t-64.5 -84.5t-89 -58.5t-99 -38t-111 -22t-107 -11.5t-103.5 -4.5l-74 -389q-8 -41 -41 -41q-18 0 -29.5 10.5t-11.5 30.5q0 8 7 39l67 348q-473 62 -473 350zM209 408q0 -228 407 -283l138 713q-189 -10 -277 -33q-212 -58 -244 -234l-18 -106q-6 -27 -6 -57zM700 127 q184 10 266 30q223 55 255 236l18 107q6 27 6 57q0 57 -26.5 103t-67 75.5t-97.5 51.5t-108 33t-108 18z" />
<glyph unicode="&#x3c7;" horiz-adv-x="813" d="M-145 -346q0 18 10 31q207 277 487 675q-34 91 -67 185t-73.5 209t-64.5 184q-6 18 -6 33q0 19 10.5 29t26.5 10q20 0 30 -12.5t19 -39.5q153 -456 181 -536q68 91 210 289t193 268q13 19 23 26t26 7q17 0 27 -10.5t10 -26.5t-10 -29q-214 -277 -445 -596 q172 -495 234 -665q6 -15 6 -29q0 -37 -39 -37q-27 0 -43 39q-47 131 -118 348t-93 281q-65 -92 -217 -307.5t-227 -321.5q-27 -39 -56 -39q-15 0 -24.5 10t-9.5 25z" />
<glyph unicode="&#x3c8;" horiz-adv-x="1366" d="M150 416q0 79 20 184l74 375q3 19 15 30t28 11q18 0 29.5 -10.5t11.5 -28.5q0 -7 -4 -27l-68 -350q-18 -89 -18 -172q0 -146 80.5 -235t271.5 -117l174 899q3 19 15 30t28 11q18 0 29.5 -10.5t11.5 -28.5q0 -7 -4 -27l-170 -874q108 6 191.5 33.5t139.5 69t96.5 104.5 t64 130t40.5 154l80 408q9 41 43 41q18 0 29.5 -10.5t11.5 -28.5q0 -7 -4 -27l-76 -391q-24 -123 -63.5 -214t-110.5 -169t-185.5 -124t-273.5 -58l-65 -334q-8 -41 -41 -41q-18 0 -29.5 10.5t-11.5 30.5q0 12 6 39l57 295q-423 71 -423 422z" />
<glyph unicode="&#x3c9;" horiz-adv-x="1449" d="M129 307q0 180 64.5 356t181.5 328q15 21 39 21q14 0 24.5 -10t10.5 -25t-11 -29q-104 -133 -164.5 -298.5t-60.5 -334.5q0 -126 53 -190q54 -64 158 -64q218 0 283 342l65 336q9 41 43 41q18 0 29.5 -10.5t11.5 -28.5q0 -6 -4 -26l-59 -301q-17 -87 -17 -154 q0 -199 166 -199q189 0 289 209q82 171 82 396q0 86 -14.5 149t-29 98.5t-14.5 55.5t13 31.5t32 11.5q29 0 52.5 -66t34 -140t10.5 -126q0 -238 -86 -428q-57 -124 -150.5 -197t-226.5 -73q-180 0 -229 174q-47 -80 -122 -127t-173 -47q-134 0 -203 79q-78 86 -78 246z" />
<glyph unicode="&#x3ca;" d="M100 29q0 12 6 39l177 907q3 19 15 30t28 11q18 0 29.5 -10.5t11.5 -28.5q0 -2 -5 -27l-180 -921q-8 -41 -41 -41q-18 0 -29.5 10.5t-11.5 30.5zM154 1360q0 28 18.5 46.5t46.5 18.5t47 -18.5t19 -46.5t-19 -46t-47 -18t-46.5 18t-18.5 46zM432 1360q0 28 19 46.5 t47 18.5t46.5 -18.5t18.5 -46.5t-18.5 -46t-46.5 -18t-47 18t-19 46z" />
<glyph unicode="&#x3cb;" horiz-adv-x="991" d="M129 299q0 57 12 119l33 182q40 219 193 330h-144q-17 0 -28 11t-11 28q0 18 12.5 30.5t30.5 12.5h230q17 0 28 -11t11 -28q0 -6 -1.5 -12t-5 -11.5t-6 -9.5t-9 -9.5t-9 -8t-11 -9t-10.5 -8.5q-37 -30 -58 -50.5t-50.5 -58t-49 -86t-30.5 -110.5l-33 -178 q-10 -65 -10 -109q0 -115 58.5 -182.5t183.5 -67.5q302 0 364 330l17 88q18 93 18 185q0 75 -14 140t-27.5 103.5t-13.5 51.5q0 51 43 51q31 0 54.5 -61t32.5 -132.5t9 -134.5q0 -97 -20 -203l-15 -84q-32 -190 -146 -302.5t-308 -112.5q-165 0 -242.5 87t-77.5 230z M412 1360q0 28 18.5 46.5t46.5 18.5t47 -18.5t19 -46.5t-19 -46t-47 -18t-46.5 18t-18.5 46zM690 1360q0 28 19 46.5t47 18.5t46.5 -18.5t18.5 -46.5t-18.5 -46t-46.5 -18t-47 18t-19 46z" />
<glyph unicode="&#x3cc;" horiz-adv-x="972" d="M129 311q0 63 12 127l39 209q15 78 44.5 141t79 116t127.5 82.5t179 29.5q83 0 145 -26.5t97 -73.5t51.5 -103t16.5 -123q0 -44 -11 -108l-43 -222q-72 -372 -428 -372q-160 0 -234.5 89.5t-74.5 233.5zM211 311q0 -243 227 -243q157 0 237 81t109 226l43 221 q11 57 11 94q0 111 -55.5 178.5t-172.5 67.5q-289 0 -348 -305l-41 -209q-10 -62 -10 -111zM563 1098q0 14 6 32l105 345q10 41 49 41q18 0 29.5 -11.5t11.5 -29.5q0 -19 -6 -37l-113 -338q-12 -39 -45 -39q-15 0 -26 9t-11 28z" />
<glyph unicode="&#x3cd;" horiz-adv-x="991" d="M129 299q0 57 12 119l33 182q40 219 193 330h-144q-17 0 -28 11t-11 28q0 18 12.5 30.5t30.5 12.5h230q17 0 28 -11t11 -28q0 -6 -1.5 -12t-5 -11.5t-6 -9.5t-9 -9.5t-9 -8t-11 -9t-10.5 -8.5q-37 -30 -58 -50.5t-50.5 -58t-49 -86t-30.5 -110.5l-33 -178 q-10 -65 -10 -109q0 -115 58.5 -182.5t183.5 -67.5q302 0 364 330l17 88q18 93 18 185q0 75 -14 140t-27.5 103.5t-13.5 51.5q0 51 43 51q31 0 54.5 -61t32.5 -132.5t9 -134.5q0 -97 -20 -203l-15 -84q-32 -190 -146 -302.5t-308 -112.5q-165 0 -242.5 87t-77.5 230z M571 1098q0 11 7 32l104 345q10 41 49 41q18 0 29.5 -11.5t11.5 -29.5q0 -19 -6 -37l-113 -338q-12 -39 -45 -39q-15 0 -26 9t-11 28z" />
<glyph unicode="&#x3ce;" horiz-adv-x="1449" d="M129 307q0 180 64.5 356t181.5 328q15 21 39 21q14 0 24.5 -10t10.5 -25t-11 -29q-104 -133 -164.5 -298.5t-60.5 -334.5q0 -126 53 -190q54 -64 158 -64q218 0 283 342l65 336q9 41 43 41q18 0 29.5 -10.5t11.5 -28.5q0 -6 -4 -26l-59 -301q-17 -87 -17 -154 q0 -199 166 -199q189 0 289 209q82 171 82 396q0 86 -14.5 149t-29 98.5t-14.5 55.5t13 31.5t32 11.5q29 0 52.5 -66t34 -140t10.5 -126q0 -238 -86 -428q-57 -124 -150.5 -197t-226.5 -73q-180 0 -229 174q-47 -80 -122 -127t-173 -47q-134 0 -203 79q-78 86 -78 246z M805 1098q0 14 6 32l104 345q10 41 50 41q18 0 29.5 -11.5t11.5 -29.5q0 -16 -7 -37l-112 -338q-12 -39 -45 -39q-15 0 -26 9t-11 28z" />
<glyph unicode="&#x401;" horiz-adv-x="1073" d="M129 41q0 13 8 53l262 1358q10 43 47 43h701q19 0 31 -11t12 -30t-13.5 -30t-35.5 -11h-662l-121 -627h594q18 0 30.5 -10t12.5 -28q0 -19 -13.5 -31t-35.5 -12h-602l-121 -623h682q16 0 28.5 -10.5t12.5 -28.5t-13 -30.5t-34 -12.5h-729q-18 0 -29.5 10.5t-11.5 30.5z M614 1784q0 28 19 46.5t47 18.5t46.5 -18.5t18.5 -46.5t-18.5 -46t-46.5 -18t-47 18t-19 46zM893 1784q0 28 18.5 46.5t46.5 18.5t47 -18.5t19 -46.5t-19 -46t-47 -18t-46.5 18t-18.5 46z" />
<glyph unicode="&#x402;" horiz-adv-x="1384" d="M246 1448q0 21 13 33t36 12h881q16 0 28.5 -10.5t12.5 -28.5q0 -21 -12.5 -33t-35.5 -12h-395l-106 -541q166 136 368 136q80 0 141 -26t97 -71t54 -100t18 -119q0 -87 -17 -170l-49 -258q-48 -256 -160 -360q-37 -36 -85 -61t-91 -25q-37 0 -37 32q0 16 16.5 26 t53.5 27.5t67 41.5q52 41 90.5 118t57.5 177l57 292q15 77 15 154q0 49 -12 90.5t-37.5 77t-72.5 56t-110 20.5q-218 0 -387 -172l-141 -731q-6 -41 -45 -41q-41 0 -41 36q0 7 4 27l264 1364h-395q-19 0 -32 10.5t-13 28.5z" />
<glyph unicode="&#x403;" horiz-adv-x="1034" d="M129 23q0 16 6 40l268 1387q3 19 16.5 31t29.5 12h757q16 0 29.5 -10.5t13.5 -28.5q0 -19 -13 -31t-34 -12h-719l-268 -1388q-8 -41 -45 -41q-18 0 -29.5 10.5t-11.5 30.5zM797 1665q0 16 8 29l188 327q15 27 43 27q20 0 31.5 -12.5t11.5 -28.5q0 -18 -10 -35l-190 -315 q-17 -29 -45 -29q-17 0 -27 10.5t-10 26.5z" />
<glyph unicode="&#x404;" horiz-adv-x="1179" d="M190 424q0 89 19 197l55 305q51 273 176 415q153 170 430 170q136 0 250 -57q94 -48 94 -96q0 -39 -38 -39q-10 0 -23 6.5t-36 21.5t-36 23q-101 60 -211 60q-234 0 -362 -144q-112 -125 -162 -395l-16 -86h585q17 0 28 -11t11 -28q0 -18 -12.5 -30.5t-30.5 -12.5h-596 l-20 -119q-16 -91 -16 -182q0 -177 90 -270q89 -89 252 -89q159 0 290 80q19 12 42 29.5t36 25t25 7.5q19 0 31 -13.5t12 -31.5q0 -29 -72 -74q-167 -104 -364 -104q-210 0 -318 108q-113 113 -113 334z" />
<glyph unicode="&#x405;" horiz-adv-x="1107" d="M92 86q0 18 12.5 31.5t30.5 13.5q8 0 20.5 -4.5t36.5 -14.5t41 -16q101 -37 220 -37q232 0 361.5 92t129.5 246q0 33 -6 62.5t-15.5 52.5t-27 45t-33 37.5t-41.5 32t-45.5 27t-51 24t-52.5 21.5t-56 21t-55 21q-53 20 -92.5 39.5t-81.5 51t-68.5 68.5t-43.5 92t-17 122 q0 93 43 169.5t115.5 125.5t165 75.5t194.5 26.5q162 0 293 -61q25 -12 25 -35q0 -20 -11.5 -33.5t-31.5 -13.5q-8 0 -18.5 4t-27.5 11t-30 12q-107 35 -199 35q-189 0 -310.5 -89t-121.5 -227q0 -56 17.5 -101.5t43 -76t70.5 -58.5t81.5 -44t94.5 -37q149 -54 208 -90 q147 -88 167 -249q4 -29 4 -61q0 -134 -75.5 -230t-204.5 -143t-297 -47q-182 0 -336 72q-25 13 -25 37z" />
<glyph unicode="&#x406;" horiz-adv-x="450" d="M129 23q0 13 6 40l273 1407q3 19 16 30t29 11q18 0 29.5 -10t11.5 -28q0 -1 -5 -31l-274 -1419q-3 -19 -16 -30t-29 -11q-18 0 -29.5 10.5t-11.5 30.5z" />
<glyph unicode="&#x407;" horiz-adv-x="450" d="M129 23q0 13 6 40l273 1407q3 19 16 30t29 11q18 0 29.5 -10t11.5 -28q0 -1 -5 -31l-274 -1419q-3 -19 -16 -30t-29 -11q-18 0 -29.5 10.5t-11.5 30.5zM270 1784q0 28 19 46.5t47 18.5t46.5 -18.5t18.5 -46.5t-18.5 -46t-46.5 -18t-47 18t-19 46zM549 1784 q0 28 18.5 46.5t46.5 18.5t47 -18.5t19 -46.5t-19 -46t-47 -18t-46.5 18t-18.5 46z" />
<glyph unicode="&#x408;" horiz-adv-x="843" d="M-31 37q0 16 11.5 29.5t29.5 13.5q5 0 22.5 -3.5t50 -7t73.5 -3.5q211 0 322 102.5t157 337.5l186 964q8 41 45 41q18 0 29.5 -10t11.5 -28q0 -7 -4 -31l-184 -953q-52 -263 -185 -386t-378 -123q-88 0 -154 14q-33 9 -33 43z" />
<glyph unicode="&#x409;" horiz-adv-x="2228" d="M35 16q0 15 15.5 34.5t48.5 59.5t61 85q89 147 144.5 336.5t103.5 447.5l92 471q3 19 16 30t29 11h864q18 0 29.5 -10.5t11.5 -28.5q0 -7 -4 -31l-117 -600h342q160 0 264 -39q100 -38 149.5 -119.5t49.5 -183.5q0 -30 -4 -59l-8 -60q-24 -176 -150.5 -268t-378.5 -92 h-458q-18 0 -29.5 10.5t-11.5 30.5q0 17 6 41l256 1329h-776l-84 -432q-27 -140 -48.5 -234t-55.5 -216.5t-78.5 -223t-98.5 -180.5q-61 -89 -89.5 -116t-53.5 -27q-37 0 -37 34zM1188 84h405q220 0 321.5 76t121.5 215l6 43q4 40 4 61q0 262 -369 262h-362z" />
<glyph unicode="&#x40a;" horiz-adv-x="2127" d="M129 23q0 13 6 40l273 1407q3 19 16 30t29 11q18 0 29.5 -10t11.5 -28q0 -1 -5 -31l-129 -668h775l135 696q3 19 16 30t29 11q18 0 29.5 -10t11.5 -28q0 -7 -4 -31l-129 -668h344q163 0 264 -35q102 -38 152.5 -114t50.5 -174q0 -39 -4 -66l-7 -45 q-21 -165 -145.5 -252.5t-374.5 -87.5h-467q-18 0 -29.5 10.5t-11.5 30.5q0 17 6 41l117 610h-774l-129 -669q-3 -19 -16 -30t-29 -11q-18 0 -29.5 10.5t-11.5 30.5zM1087 82h414q114 0 196 19t131.5 55.5t75.5 83.5t35 110l7 45q2 20 2 51q0 246 -371 246h-371z" />
<glyph unicode="&#x40b;" horiz-adv-x="1400" d="M262 1448q0 21 13 33t36 12h881q16 0 28.5 -10.5t12.5 -28.5q0 -45 -47 -45h-395l-107 -541q166 136 369 136q80 0 141 -26t97 -71t53.5 -100t17.5 -119q0 -92 -16 -170l-95 -489q-8 -41 -41 -41q-18 0 -29.5 10.5t-11.5 30.5q0 7 7 39l90 460q14 72 14 154 q0 49 -12 90.5t-37.5 77t-72 56t-109.5 20.5q-218 0 -387 -172l-140 -725q-6 -41 -45 -41q-19 0 -30 10t-11 27q0 6 4 26l262 1358h-395q-19 0 -32 10.5t-13 28.5z" />
<glyph unicode="&#x40c;" horiz-adv-x="1140" d="M129 23q0 13 6 40l273 1407q3 19 16 30t29 11q18 0 29.5 -10t11.5 -28q0 -1 -5 -31l-127 -654h234l709 705q20 20 41 20q16 0 25 -10t9 -24q0 -21 -20 -41l-701 -693q162 -229 414 -661q23 -41 23 -61q0 -16 -9.5 -28.5t-31.5 -12.5q-24 0 -41 32q-172 316 -430 693h-238 l-131 -684q-3 -19 -16 -30t-29 -11q-18 0 -29.5 10.5t-11.5 30.5zM774 1665q0 16 8 29l189 327q15 27 43 27q20 0 31.5 -12.5t11.5 -28.5q0 -18 -10 -35l-191 -315q-17 -29 -45 -29q-17 0 -27 10.5t-10 26.5z" />
<glyph unicode="&#x40e;" horiz-adv-x="1081" d="M47 20q0 18 12.5 30.5t30.5 12.5h51q110 0 200.5 61t186.5 191l-268 1106q-6 24 -6 43q0 20 10.5 32.5t30.5 12.5q22 0 32 -13.5t15 -39.5l254 -1044q295 451 606 1065q16 32 45 32q16 0 28.5 -9t12.5 -23q0 -15 -12 -39q-193 -372 -348 -639q-144 -247 -285 -457 q-45 -67 -82 -115t-86.5 -97t-99 -79.5t-112.5 -49.5t-134 -19h-43q-17 0 -28 10.5t-11 27.5zM510 1975.5q5 14.5 18 21.5q13 9 30.5 5.5t27.5 -20.5q82 -149 207 -149q124 0 206 149q10 18 28.5 21.5t31.5 -6.5q13 -8 16.5 -22.5t-4.5 -32.5q-107 -191 -278 -191 q-172 0 -279 191q-9 19 -4 33.5z" />
<glyph unicode="&#x40f;" horiz-adv-x="1349" d="M129 41q0 14 6 41l268 1388q3 19 16.5 30t29.5 11q18 0 29 -10t11 -28q0 -7 -4 -31l-264 -1362h817l269 1390q3 19 16 30t29 11q18 0 29.5 -10t11.5 -28q0 -7 -4 -31l-271 -1401q-3 -19 -16 -30t-29 -11h-409l-72 -360q-3 -19 -15.5 -30t-27.5 -11q-16 0 -27.5 11 t-11.5 30q0 11 6 38l62 322h-408q-18 0 -29.5 10.5t-11.5 30.5z" />
<glyph unicode="&#x410;" horiz-adv-x="1120" d="M-8 37q110 271 307 662.5t401 756.5q30 53 64 53q20 0 30 -10.5t17 -42.5q161 -727 219 -1423q3 -25 -10 -39t-33 -14q-38 0 -41 38q-7 91 -39 365h-667q-72 -153 -168 -371q-14 -32 -47 -32q-22 0 -32 16.5t-1 40.5zM281 469h616q-59 448 -156 891q-257 -459 -460 -891z " />
<glyph unicode="&#x411;" horiz-adv-x="1251" d="M129 41q0 17 6 41l264 1368q3 19 16 31t29 12h758q16 0 29.5 -10.5t13.5 -28.5q0 -19 -13 -31t-34 -12h-719l-114 -590h342q160 0 264 -39q100 -38 149 -119t49 -184q0 -30 -4 -59l-8 -60q-24 -176 -150 -268t-378 -92h-459q-18 0 -29.5 10.5t-11.5 30.5zM223 84h406 q220 0 321 76t121 215l6 43q4 40 4 61q0 262 -368 262h-363z" />
<glyph unicode="&#x412;" horiz-adv-x="1239" d="M129 41q0 13 8 53l262 1358q10 43 47 43h340q110 -1 193 -27.5t131 -73t71 -103.5t23 -124q0 -39 -6 -82l-10 -57q-38 -194 -250 -266q199 -70 199 -279q0 -15 -4 -55l-9 -57q-53 -371 -516 -371h-438q-18 0 -29.5 10.5t-11.5 30.5zM223 84h385q387 0 432 301l9 55 q2 14 2 43q0 234 -365 234h-340zM362 799h324q169 0 281 61t137 193l8 43q6 30 6 71q0 48 -15 88.5t-50.5 77.5t-103.5 58.5t-163 21.5h-307z" />
<glyph unicode="&#x413;" horiz-adv-x="1034" d="M129 23q0 16 6 40l268 1387q3 19 16.5 31t29.5 12h757q16 0 29.5 -10.5t13.5 -28.5q0 -19 -13 -31t-34 -12h-719l-268 -1388q-8 -41 -45 -41q-18 0 -29.5 10.5t-11.5 30.5z" />
<glyph unicode="&#x414;" horiz-adv-x="1456" d="M-145 -360q0 11 6 38l69 363q3 19 15.5 29t27.5 10h146q137 139 229 432q56 176 113 469l90 471q3 19 16 30t29 11h862q18 0 29.5 -10.5t11.5 -28.5q0 -7 -4 -31l-260 -1343h137q41 0 41 -37q0 -7 -4 -31l-74 -372q-3 -19 -15.5 -30t-27.5 -11q-16 0 -27.5 11t-11.5 30 q0 6 7 38l61 322h-1313l-71 -360q-3 -19 -15.5 -30t-27.5 -11q-16 0 -27.5 11t-11.5 30zM231 80h918l256 1333h-774l-82 -424q-54 -281 -117 -485q-85 -269 -201 -424z" />
<glyph unicode="&#x415;" horiz-adv-x="1073" d="M129 41q0 13 8 53l262 1358q10 43 47 43h701q19 0 31 -11t12 -30t-13.5 -30t-35.5 -11h-662l-121 -627h594q18 0 30.5 -10t12.5 -28q0 -19 -13.5 -31t-35.5 -12h-602l-121 -623h682q16 0 28.5 -10.5t12.5 -28.5t-13 -30.5t-34 -12.5h-729q-18 0 -29.5 10.5t-11.5 30.5z " />
<glyph unicode="&#x416;" horiz-adv-x="2000" d="M29 29q3 24 34 55q143 151 341 343t350 327l-426 676q-19 30 -19 49q0 14 9 24t26 10q24 0 43 -32l434 -693h238l133 682q3 19 16 30t29 11q18 0 29.5 -10t11.5 -28q0 -7 -4 -31l-127 -654h233l709 705q20 20 41 20q16 0 25.5 -10t9.5 -24q0 -20 -21 -41l-700 -693 q162 -229 414 -661q22 -39 22 -61q0 -16 -9.5 -28.5t-31.5 -12.5q-24 0 -41 32q-172 316 -430 693h-238l-131 -684q-3 -19 -16 -30t-29 -11q-18 0 -29.5 10.5t-11.5 30.5q0 9 7 40l124 644h-227q-160 -146 -383.5 -366t-327.5 -337q-22 -28 -47 -22q-22 4 -28 18.5t-2 28.5z " />
<glyph unicode="&#x417;" horiz-adv-x="1046" d="M72 154q0 19 13 31t32 12q12 0 23.5 -8.5t30.5 -27t36 -30.5q89 -65 242 -65q105 0 188.5 30.5t134 83t76.5 116.5t26 136q0 63 -19.5 113.5t-51.5 83t-77 54.5t-94 31t-104 9h-118q-20 0 -31.5 13t-11.5 30q0 18 12 30.5t33 12.5h157q48 0 98.5 13t99 40.5t86.5 65.5 t61.5 94t23.5 121q0 55 -17 104.5t-51.5 91.5t-94 66.5t-136.5 24.5q-136 0 -229 -56q-10 -6 -27.5 -17.5t-25.5 -16t-19 -9t-21 -4.5q-38 0 -38 39q0 37 75 82q116 65 271 65q84 0 152.5 -21.5t114 -57.5t76 -84t43.5 -100t13 -107q0 -139 -78.5 -234.5t-195.5 -144.5 q211 -83 211 -332q0 -72 -21 -138t-64.5 -123t-104 -99t-145 -66t-182.5 -24q-188 0 -301 84q-71 51 -71 88z" />
<glyph unicode="&#x418;" horiz-adv-x="1372" d="M129 23q0 13 6 40l273 1407q3 19 16 30t29 11q18 0 29.5 -10t11.5 -28q0 -1 -5 -31l-219 -1133l1033 1022l26 139q3 19 16 30t29 11q18 0 29.5 -10t11.5 -28q0 -7 -4 -31l-274 -1419q-3 -19 -16 -30t-29 -11q-18 0 -29.5 10.5t-11.5 30.5q0 13 6 40l217 1127l-1030 -1016 l-29 -151q-3 -19 -16 -30t-29 -11q-18 0 -29.5 10.5t-11.5 30.5z" />
<glyph unicode="&#x419;" horiz-adv-x="1372" d="M129 23q0 13 6 40l273 1407q3 19 16 30t29 11q18 0 29.5 -10t11.5 -28q0 -1 -5 -31l-219 -1133l1033 1022l26 139q3 19 16 30t29 11q18 0 29.5 -10t11.5 -28q0 -7 -4 -31l-274 -1419q-3 -19 -16 -30t-29 -11q-18 0 -29.5 10.5t-11.5 30.5q0 13 6 40l217 1127l-1030 -1016 l-29 -151q-3 -19 -16 -30t-29 -11q-18 0 -29.5 10.5t-11.5 30.5zM686 1976q5 14 19 21q13 9 30 5.5t27 -20.5q82 -149 207 -149t207 149q10 18 28 21.5t31 -6.5q13 -8 16.5 -22.5t-4.5 -32.5q-107 -191 -278 -191q-172 0 -279 191q-9 20 -4 34z" />
<glyph unicode="&#x41a;" horiz-adv-x="1216" d="M129 23q0 13 6 40l273 1407q3 19 16 30t29 11q18 0 29.5 -10t11.5 -28q0 -1 -5 -31l-127 -654h234l709 705q20 20 41 20q16 0 25 -10t9 -24q0 -21 -20 -41l-701 -693q162 -229 414 -661q23 -41 23 -61q0 -16 -9.5 -28.5t-31.5 -12.5q-24 0 -41 32q-172 316 -430 693h-238 l-131 -684q-3 -19 -16 -30t-29 -11q-18 0 -29.5 10.5t-11.5 30.5z" />
<glyph unicode="&#x41b;" horiz-adv-x="1384" d="M12 16q0 15 15.5 34.5t48.5 59.5t61 85q89 147 144.5 336.5t103.5 447.5l92 471q3 19 16 30t29 11h864q18 0 29.5 -10.5t11.5 -28.5q0 -7 -4 -31l-270 -1398q-3 -19 -16 -30t-29 -11q-18 0 -29.5 10.5t-11.5 30.5q0 13 6 40l260 1348h-776l-84 -432q-28 -142 -49 -234.5 t-55 -215.5t-78 -223.5t-98 -180.5q-60 -89 -89 -116t-55 -27q-37 0 -37 34z" />
<glyph unicode="&#x41c;" horiz-adv-x="1546" d="M129 23q0 13 6 40l273 1407q7 43 47 43q38 0 47 -40l282 -1098l713 1112q16 26 49 26q43 0 43 -40q0 -7 -4 -31l-274 -1419q-3 -19 -16 -30t-29 -11q-18 0 -29.5 10.5t-11.5 30.5q0 13 6 40l242 1246l-666 -1033q-17 -24 -41 -24q-31 0 -37 29l-266 1030l-248 -1288 q-3 -19 -16 -30t-29 -11q-18 0 -29.5 10.5t-11.5 30.5z" />
<glyph unicode="&#x41d;" horiz-adv-x="1312" d="M129 23q0 13 6 40l273 1407q3 19 16 30t29 11q18 0 29.5 -10t11.5 -28q0 -1 -5 -31l-129 -668h775l135 696q3 19 16 30t29 11q18 0 29.5 -10t11.5 -28q0 -7 -4 -31l-275 -1419q-3 -19 -16 -30t-29 -11q-18 0 -29.5 10.5t-11.5 30.5q0 13 6 40l121 629h-774l-129 -669 q-3 -19 -16 -30t-29 -11q-18 0 -29.5 10.5t-11.5 30.5z" />
<glyph unicode="&#x41e;" horiz-adv-x="1232" d="M190 436q0 90 21 213l37 207q52 300 155 449q143 208 428 208q82 0 148 -24.5t109.5 -66.5t73 -100.5t42.5 -125t13 -141.5q0 -77 -19 -185l-45 -254q-48 -257 -123 -385q-144 -249 -455 -249q-104 0 -180 35t-120 98.5t-64.5 143t-20.5 177.5zM279 434q0 -170 73 -269 t221 -99q275 0 398 231q66 125 100 342l43 258q12 68 12 166q0 162 -75 264.5t-217 102.5q-249 0 -375 -191q-85 -128 -129 -401l-35 -215q-16 -109 -16 -189z" />
<glyph unicode="&#x41f;" horiz-adv-x="1349" d="M129 23q0 13 6 40l268 1387q3 19 16.5 30t29.5 11h903q18 0 29.5 -10.5t11.5 -28.5q0 -7 -4 -31l-271 -1398q-3 -19 -16 -30t-29 -11q-18 0 -29.5 10.5t-11.5 30.5q0 13 6 40l260 1348h-815l-268 -1388q-3 -19 -16 -30t-29 -11q-18 0 -29.5 10.5t-11.5 30.5z" />
<glyph unicode="&#x420;" horiz-adv-x="1187" d="M129 23q0 13 6 40l268 1387q3 19 16.5 31t29.5 12h393q100 0 175 -28.5t119.5 -79.5t66.5 -115t22 -140q0 -51 -13 -118l-8 -41q-32 -166 -158 -255t-323 -89h-391l-117 -604q-3 -19 -16 -30t-29 -11q-18 0 -29.5 10.5t-11.5 30.5zM348 709h375q168 0 269 73t128 205 l8 41q11 64 11 102q0 125 -72.5 203t-224.5 78h-359z" />
<glyph unicode="&#x421;" horiz-adv-x="1099" d="M190 424q0 89 19 197l55 305q26 142 71.5 247t117 182.5t175.5 116.5t242 39q116 0 215 -47q45 -22 61.5 -37.5t16.5 -31.5q0 -18 -13.5 -31.5t-31.5 -13.5q-8 0 -15 3t-12.5 7.5t-17 12t-24.5 13.5q-86 44 -179 44q-108 0 -192.5 -31t-138.5 -79t-94 -122t-61.5 -145 t-37.5 -162l-51 -287q-19 -108 -19 -182q0 -359 345 -359q125 0 253 72q19 11 40.5 26.5t33 22t23.5 6.5q19 0 31 -13.5t12 -31.5q0 -12 -9.5 -23.5t-20 -19t-38.5 -24.5q-157 -96 -325 -96q-118 0 -204 34.5t-134.5 97t-70.5 139.5t-22 171z" />
<glyph unicode="&#x422;" horiz-adv-x="1110" d="M246 1448q0 21 13 33t36 12h962q16 0 28.5 -10.5t12.5 -28.5q0 -45 -47 -45h-436l-270 -1386q-6 -41 -45 -41q-41 0 -41 36q0 7 4 27l264 1364h-436q-19 0 -32 10.5t-13 28.5z" />
<glyph unicode="&#x423;" horiz-adv-x="1081" d="M47 20q0 18 12.5 30.5t30.5 12.5h51q110 0 200.5 61t186.5 191l-268 1106q-6 24 -6 43q0 20 10.5 32.5t30.5 12.5q22 0 32 -13.5t15 -39.5l254 -1044q295 451 606 1065q16 32 45 32q16 0 28.5 -9t12.5 -23q0 -15 -12 -39q-193 -372 -348 -639q-144 -247 -285 -457 q-45 -67 -82 -115t-86.5 -97t-99 -79.5t-112.5 -49.5t-134 -19h-43q-17 0 -28 10.5t-11 27.5z" />
<glyph unicode="&#x424;" horiz-adv-x="1327" d="M188 610q0 57 11 121l32 170q14 69 38.5 128.5t71 117.5t109.5 99t157.5 66.5t211.5 26.5l-14 -79q-416 -3 -490 -373l-32 -170q-11 -57 -11 -107q0 -47 7 -92t29.5 -98t57.5 -92.5t97 -66.5t143 -28l-16 -79q-98 3 -172 35t-116.5 77.5t-69.5 108t-35.5 118t-8.5 117.5z M567 23q0 13 6 40l17 91h8l16 79h-8l199 1027h6l14 79h-6l27 131q3 19 16 30t29 11q18 0 29.5 -10t11.5 -28q0 -7 -4 -31l-21 -103q98 -4 172.5 -36t117 -77.5t69.5 -108t36 -118t9 -116.5q0 -57 -11 -121l-32 -170q-14 -69 -39 -129t-71.5 -118t-110 -99t-158 -66 t-211.5 -26l-25 -131q-3 -19 -16 -30t-29 -11q-18 0 -29.5 10.5t-11.5 30.5zM694 233q417 3 490 373l33 170q10 52 10 107q0 46 -7.5 91t-29.5 98t-57.5 93t-97.5 67t-142 28z" />
<glyph unicode="&#x425;" horiz-adv-x="1058" d="M-35.5 4q-10.5 22 6.5 47q47 62 101.5 130t95.5 119t105.5 128.5t96 116t104.5 126t97 115.5q-215 480 -290 666q-10 25 2 43t34 18q32 0 43 -28q83 -204 269 -627q324 392 501 637q12 18 33 18q24 0 36 -22t-5 -47q-172 -237 -530 -666q232 -515 319 -737q10 -25 -4 -42 t-37 -17q-27 0 -39 26q-112 284 -297 699q-403 -487 -573 -709q-11 -16 -33 -16q-25 0 -35.5 22z" />
<glyph unicode="&#x426;" horiz-adv-x="1349" d="M129 41q0 14 6 41l268 1388q3 19 16.5 30t29.5 11q18 0 29 -10t11 -28q0 -7 -4 -31l-264 -1362h815q2 0 2 2l269 1388q3 19 16 30t29 11q18 0 29.5 -10t11.5 -28q0 -7 -4 -31l-265 -1362h131h7q41 0 41 -37q0 -1 -5 -31l-73 -372q-3 -19 -15.5 -30t-27.5 -11 q-16 0 -27.5 11t-11.5 30q0 11 6 38l61 322h-1034h-6q-18 0 -29.5 10.5t-11.5 30.5z" />
<glyph unicode="&#x427;" horiz-adv-x="1206" d="M279 967q0 68 14 139l69 364q3 19 16.5 30t29.5 11q18 0 29.5 -10t11.5 -28q0 -1 -5 -31l-65 -336q-14 -69 -14 -135q0 -287 321 -287q155 0 336 53l141 733q3 19 16 30t29 11q18 0 29.5 -10t11.5 -28q0 -7 -4 -31l-274 -1419q-3 -19 -16 -30t-29 -11q-18 0 -29.5 10.5 t-11.5 30.5q0 13 6 40l115 594q-175 -53 -338 -53q-177 0 -283 91.5t-106 271.5z" />
<glyph unicode="&#x428;" horiz-adv-x="2015" d="M129 41q0 14 6 41l268 1388q3 19 16.5 30t29.5 11q18 0 29 -10t11 -28q0 -7 -4 -31l-264 -1362h699l268 1390q3 19 16 30t29 11q18 0 29.5 -10t11.5 -28q0 -7 -4 -31l-264 -1362h698l268 1390q3 19 16 30t29 11q18 0 29.5 -10t11.5 -28q0 -7 -4 -31l-270 -1401 q-8 -41 -45 -41h-1569q-18 0 -29.5 10.5t-11.5 30.5z" />
<glyph unicode="&#x429;" horiz-adv-x="2015" d="M129 41q0 14 6 41l268 1388q3 19 16.5 30t29.5 11q18 0 29 -10t11 -28q0 -7 -4 -31l-264 -1362h699l268 1390q3 19 16 30t29 11q18 0 29.5 -10t11.5 -28q0 -7 -4 -31l-264 -1362h698l268 1390q3 19 16 30t29 11q18 0 29.5 -10t11.5 -28q0 -7 -4 -31l-264 -1362h137 q41 0 41 -37q0 -7 -4 -31l-74 -372q-3 -19 -15.5 -30t-27.5 -11q-16 0 -27.5 11t-11.5 30q0 6 7 38l61 322h-1706q-18 0 -29.5 10.5t-11.5 30.5z" />
<glyph unicode="&#x42a;" horiz-adv-x="1507" d="M203 1450q0 18 12.5 30.5t30.5 12.5h442q18 0 29.5 -10.5t11.5 -28.5q0 -11 -4 -31l-117 -602h342q160 0 264 -39q100 -38 149.5 -119.5t49.5 -183.5q0 -30 -4 -59l-8 -60q-24 -176 -150.5 -268t-378.5 -92h-458q-18 0 -29.5 10.5t-11.5 30.5q0 17 6 41l256 1329h-393 q-17 0 -28 11t-11 28zM467 84h405q220 0 321.5 76t121.5 215l6 43q4 40 4 61q0 262 -369 262h-362z" />
<glyph unicode="&#x42b;" horiz-adv-x="1599" d="M129 41q0 17 6 41l268 1388q3 19 16.5 30t29.5 11q18 0 29 -10t11 -28q0 -11 -4 -31l-120 -621h342q160 0 264 -39q100 -38 149 -119t49 -184q0 -30 -4 -59l-8 -60q-24 -176 -150 -268t-378 -92h-459q-18 0 -29.5 10.5t-11.5 30.5zM223 84h406q220 0 321 76t121 215l6 43 q4 40 4 61q0 262 -368 262h-363zM1278 23q0 13 6 40l272 1407q3 19 16.5 30t29.5 11q18 0 29 -10t11 -28q0 -7 -4 -31l-274 -1419q-3 -19 -16 -30t-29 -11q-18 0 -29.5 10.5t-11.5 30.5z" />
<glyph unicode="&#x42c;" horiz-adv-x="1263" d="M129 41q0 17 6 41l268 1388q3 19 16.5 30t29.5 11q18 0 29 -10t11 -28q0 -11 -4 -31l-120 -621h342q160 0 264 -39q100 -38 149 -119t49 -184q0 -30 -4 -59l-8 -60q-24 -176 -150 -268t-378 -92h-459q-18 0 -29.5 10.5t-11.5 30.5zM223 84h406q220 0 321 76t121 215l6 43 q4 40 4 61q0 262 -368 262h-363z" />
<glyph unicode="&#x42d;" horiz-adv-x="1265" d="M152 162q0 18 11.5 29.5t31.5 11.5q12 0 27.5 -9.5t41.5 -29t45 -31.5q113 -70 260 -70q235 0 363 144q112 125 162 395l22 121h-586q-17 0 -27.5 11t-10.5 28q0 18 12.5 30.5t30.5 12.5h595l15 84q16 91 16 182q0 177 -90 270q-89 89 -252 89q-160 0 -291 -80 q-19 -12 -42 -29.5t-35.5 -25t-24.5 -7.5q-19 0 -31 13.5t-12 31.5q0 29 72 74q167 104 364 104q210 0 318 -108q112 -112 112 -334q0 -95 -18 -197l-55 -305q-51 -272 -177 -415q-153 -170 -430 -170q-87 0 -174 22t-147 59q-47 28 -71.5 51.5t-24.5 47.5z" />
<glyph unicode="&#x42e;" horiz-adv-x="1779" d="M129 23q0 13 6 40l273 1407q3 19 16 30t29 11q18 0 29.5 -10t11.5 -28q0 -1 -5 -31l-129 -668h418l17 82q52 300 155 449q143 208 428 208q102 0 178 -36.5t120.5 -101.5t65.5 -145t21 -175q0 -82 -18 -185l-45 -254q-48 -257 -123 -385q-144 -249 -455 -249 q-104 0 -180 35t-120 98.5t-64.5 143t-20.5 177.5q0 90 21 213l6 43h-420l-129 -669q-3 -19 -16 -30t-29 -11q-18 0 -29.5 10.5t-11.5 30.5zM825 434q0 -170 73.5 -269t221.5 -99q275 0 398 231q66 125 100 342l43 258q12 68 12 166q0 162 -75.5 264.5t-217.5 102.5 q-248 0 -374 -191q-85 -128 -129 -401l-35 -215q-17 -116 -17 -189z" />
<glyph unicode="&#x42f;" horiz-adv-x="1210" d="M88 18q0 16 14 35q249 333 484 609q-76 10 -138 39t-108.5 76.5t-66.5 119.5t-7 160l15 98q22 152 151.5 245t376.5 93h403q18 0 29.5 -10.5t11.5 -28.5q0 -7 -4 -31l-270 -1400q-3 -19 -16 -30t-29 -11q-18 0 -29.5 10.5t-11.5 30.5q0 13 6 40l115 592h-328 q-263 -304 -516 -649q-19 -24 -45 -24q-37 0 -37 36zM352 1049q-23 -152 74 -236q90 -78 248 -78h354l131 678h-348q-110 0 -194 -20.5t-134.5 -57.5t-78 -81.5t-35.5 -98.5z" />
<glyph unicode="&#x430;" horiz-adv-x="1007" d="M141 311q0 48 17 148l24 143q37 208 135 309q102 105 275 105q153 0 262 -90l10 49q3 19 15 30t28 11q18 0 29.5 -10.5t11.5 -28.5q0 -7 -4 -27l-147 -755q-11 -57 -4 -84.5t38 -47.5q34 -20 27 -47q-7 -28 -45 -28q-40 0 -78 41q-18 18 -24 53q-145 -94 -271 -94 q-148 0 -223.5 86.5t-75.5 236.5zM225 315q0 -117 55.5 -182t161.5 -65q124 0 271 110q5 40 8 55l117 603q-99 102 -244 102q-143 0 -225 -92q-73 -84 -107 -273l-29 -163q-8 -44 -8 -95z" />
<glyph unicode="&#x431;" horiz-adv-x="985" d="M141 311q0 57 13 127l39 209q16 88 27 142t31.5 110.5t32 85.5t46.5 68t56.5 57.5t80.5 53.5t101 56t134 66q75 37 120 82t59 117l16 86q3 19 15 30t28 11q18 0 29.5 -10.5t11.5 -28.5q0 -7 -4 -27l-14 -71q-15 -76 -57 -131t-101.5 -90t-121 -62.5t-132.5 -65.5 t-119 -82q-57 -51 -82 -110q110 82 273 82q83 0 145 -26.5t96.5 -73.5t51 -103t16.5 -123q0 -50 -10 -108l-43 -222q-72 -372 -428 -372q-160 0 -235 89.5t-75 233.5zM223 311q0 -243 228 -243q157 0 237 81t109 226l43 221q10 52 10 94q0 111 -55.5 178.5t-171.5 67.5 q-290 0 -349 -305l-41 -209q-10 -62 -10 -111z" />
<glyph unicode="&#x432;" horiz-adv-x="890" d="M100 41q0 9 6 39l173 885q3 19 15 30t28 11h247q149 0 218 -60.5t69 -159.5q0 -30 -6 -57l-8 -43q-13 -67 -50.5 -107.5t-101.5 -66.5q119 -55 119 -184q0 -22 -6 -49l-8 -43q-23 -118 -101.5 -177t-244.5 -59h-308q-18 0 -29.5 10.5t-11.5 30.5zM188 76h256 q131 0 192 42t77 126l8 43q4 18 4 49q0 71 -57 105t-156 34h-246zM281 547h217q106 0 177 36t85 111l8 43q6 27 6 54q0 141 -211 141h-207z" />
<glyph unicode="&#x433;" horiz-adv-x="794" d="M100 20q0 11 6 41l175 904q3 19 15 30t28 11h536q15 0 26 -11t11 -28t-12.5 -29t-28.5 -12h-500l-174 -903q-8 -41 -41 -41q-41 0 -41 38z" />
<glyph unicode="&#x434;" horiz-adv-x="1056" d="M-96 -295q0 11 6 41l57 293q3 19 15 30t28 11h115q75 96 117.5 229t83.5 350l57 304q3 19 15 30t28 11h555q18 0 29.5 -10.5t11.5 -28.5q0 -7 -4 -27l-168 -858h100q18 0 28.5 -10.5t10.5 -28.5q0 -7 -4 -27l-59 -307q-8 -41 -41 -41q-41 0 -41 39q0 11 6 41l49 254h-858 l-55 -293q-8 -41 -41 -41q-41 0 -41 39zM213 80h555l162 844h-471l-51 -262q-38 -193 -82 -336t-113 -246z" />
<glyph unicode="&#x435;" horiz-adv-x="952" d="M141 340q0 38 9 96l26 168q14 87 46 159t83.5 130t130.5 90.5t178 32.5q82 0 141.5 -25.5t93.5 -71.5t50 -102.5t16 -126.5q0 -67 -8 -119l-10 -57q-7 -37 -45 -37h-612l-9 -47q-8 -50 -8 -94q0 -121 63.5 -194.5t180.5 -73.5q111 0 201 32q15 5 31 12t25.5 11t16.5 4 q37 0 37 -41q0 -16 -17.5 -28.5t-62.5 -30.5q-103 -39 -231 -39q-110 0 -185 48t-108 125t-33 179zM252 555h569l4 29q9 56 9 106q0 250 -220 250q-155 0 -242.5 -94.5t-113.5 -255.5z" />
<glyph unicode="&#x436;" horiz-adv-x="1341" d="M16 18q0 18 19 39q35 39 75.5 81.5t71.5 73.5t80 78.5t73 70.5t81.5 76.5t75.5 70.5l-277 430q-16 24 -16 43q0 13 10.5 24t28.5 11q22 0 36 -23l283 -450h141l84 432q3 19 15 30t28 11q18 0 29.5 -10.5t11.5 -28.5q0 -7 -4 -27l-80 -407h127l453 454q19 19 37 19 q16 0 25.5 -10t9.5 -23q0 -20 -21 -41l-442 -440q125 -179 266 -414q25 -43 25 -59q0 -15 -9 -28t-30 -13q-23 0 -41 30q-87 150 -283 447h-133l-84 -436q-8 -41 -41 -41q-18 0 -29.5 10.5t-11.5 30.5q0 12 6 39l76 395h-129q-294 -273 -457 -453q-22 -24 -45 -24 q-17 0 -26 9.5t-9 22.5z" />
<glyph unicode="&#x437;" horiz-adv-x="755" d="M45 113q0 17 11 27t28 10q8 0 17.5 -5.5t27 -19.5t27.5 -21q65 -45 155 -45q125 0 194.5 66t69.5 160q0 96 -58 141t-152 45h-97q-19 0 -30 11t-11 26q0 17 11 28t30 11h115q93 0 165.5 53.5t72.5 151.5q0 78 -48 132t-141 54q-77 0 -141 -33q-9 -5 -21 -12t-19.5 -11 t-16 -7t-15.5 -3q-37 0 -37 35q0 39 74 70q89 35 172 35q134 0 203 -76t69 -180q0 -175 -182 -250q61 -27 100 -84t39 -137q0 -132 -96 -216.5t-258 -84.5q-111 0 -194 49q-64 38 -64 80z" />
<glyph unicode="&#x438;" horiz-adv-x="1050" d="M100 29q0 12 6 39l177 907q3 19 15 30t28 11q18 0 29.5 -10.5t11.5 -28.5q0 -2 -5 -27l-141 -725l707 664l16 86q3 19 15 30t28 11q18 0 29.5 -10.5t11.5 -28.5q0 -7 -4 -27l-180 -921q-8 -41 -41 -41q-18 0 -29.5 10.5t-11.5 30.5q0 12 6 39l137 704l-708 -666l-15 -77 q-8 -41 -41 -41q-18 0 -29.5 10.5t-11.5 30.5z" />
<glyph unicode="&#x439;" horiz-adv-x="1050" d="M100 29q0 12 6 39l177 907q3 19 15 30t28 11q18 0 29.5 -10.5t11.5 -28.5q0 -2 -5 -27l-141 -725l707 664l16 86q3 19 15 30t28 11q18 0 29.5 -10.5t11.5 -28.5q0 -7 -4 -27l-180 -921q-8 -41 -41 -41q-18 0 -29.5 10.5t-11.5 30.5q0 12 6 39l137 704l-708 -666l-15 -77 q-8 -41 -41 -41q-18 0 -29.5 10.5t-11.5 30.5zM445 1485.5q5 14.5 18 21.5q37 21 57 -14q82 -150 207 -150t207 150q10 18 28 21t31 -7q31 -20 13 -55q-106 -190 -279 -190q-172 0 -278 190q-9 19 -4 33.5z" />
<glyph unicode="&#x43a;" horiz-adv-x="841" d="M100 29q0 12 6 39l177 907q3 19 15 30t28 11q18 0 29.5 -10.5t11.5 -28.5q0 -2 -5 -27l-79 -407h127l452 454q19 19 37 19q16 0 25.5 -10t9.5 -23q0 -20 -21 -41l-442 -440q125 -179 266 -414q25 -43 25 -59q0 -15 -9 -28t-30 -13q-23 0 -41 30q-87 150 -283 447h-133 l-84 -436q-8 -41 -41 -41q-18 0 -29.5 10.5t-11.5 30.5z" />
<glyph unicode="&#x43b;" horiz-adv-x="1011" d="M25 18q0 13 10.5 25.5t33.5 37t42 56.5q59 97 98 225.5t72 296.5l57 306q3 19 15 30t28 11h567q18 0 29.5 -10.5t11.5 -28.5q0 -7 -4 -27l-178 -917q-8 -41 -41 -41q-41 0 -41 38q0 11 6 41l166 865h-483l-52 -267q-76 -406 -192 -579q-39 -60 -62.5 -79t-44.5 -19 q-16 0 -27 9.5t-11 26.5z" />
<glyph unicode="&#x43c;" horiz-adv-x="1124" d="M100 27q0 9 6 36l179 914q3 18 14.5 28.5t26.5 10.5q29 0 36 -33l191 -725l479 739q11 19 33 19q37 0 37 -37q0 -5 -4 -25l-180 -927q-8 -39 -39 -39q-18 0 -28.5 10.5t-10.5 28.5q0 9 6 36l143 736l-414 -633q-18 -25 -38 -25q-29 0 -35 29l-172 641l-152 -784 q-8 -39 -39 -39q-18 0 -28.5 10.5t-10.5 28.5z" />
<glyph unicode="&#x43d;" horiz-adv-x="985" d="M100 29q0 12 6 39l177 907q3 19 15 30t28 11q18 0 29.5 -10.5t11.5 -28.5q0 -2 -5 -27l-75 -385h512l80 410q3 19 15 30t28 11q18 0 29.5 -10.5t11.5 -28.5q0 -2 -5 -27l-180 -921q-8 -41 -41 -41q-18 0 -29.5 10.5t-11.5 30.5q0 12 6 39l82 426h-512l-90 -465 q-8 -41 -41 -41q-18 0 -29.5 10.5t-11.5 30.5z" />
<glyph unicode="&#x43e;" horiz-adv-x="985" d="M141 311q0 57 13 127l39 209q15 78 44.5 141t79 116t127.5 82.5t179 29.5q83 0 145 -26.5t96.5 -73.5t51 -103t16.5 -123q0 -50 -10 -108l-43 -222q-72 -372 -428 -372q-160 0 -235 89.5t-75 233.5zM223 311q0 -243 228 -243q157 0 237 81t109 226l43 221q10 52 10 94 q0 111 -55.5 178.5t-171.5 67.5q-290 0 -349 -305l-41 -209q-10 -62 -10 -111z" />
<glyph unicode="&#x43f;" horiz-adv-x="980" d="M100 20q0 11 6 41l175 904q3 19 15 30t28 11h594q18 0 29 -10.5t11 -28.5q0 -7 -4 -27l-178 -917q-8 -41 -41 -41q-41 0 -41 38q0 11 6 41l166 865h-510l-174 -903q-8 -41 -41 -41q-41 0 -41 38z" />
<glyph unicode="&#x440;" horiz-adv-x="968" d="M31 -334q0 12 6 39l209 1077q8 41 8 72q0 27 -10.5 44.5t-23.5 23.5t-23.5 17t-10.5 26q0 39 45 39t74 -37q24 -30 29 -64q73 54 138.5 83.5t143.5 29.5q152 0 225.5 -80.5t73.5 -216.5q0 -75 -22 -180l-33 -160q-13 -66 -32 -119t-52.5 -105.5t-78.5 -88t-112.5 -57 t-152.5 -21.5q-140 0 -242 75l-77 -397q-8 -41 -41 -41q-18 0 -29.5 10.5t-11.5 30.5zM207 152q96 -86 225 -86q70 0 125.5 19t92 49t64 76t42.5 92t26 104l37 196q10 51 10 117q0 217 -213 217q-134 0 -284 -131z" />
<glyph unicode="&#x441;" horiz-adv-x="829" d="M141 340q0 48 6 94l23 139q14 92 49 170.5t89.5 140.5t134 97t175.5 35q109 0 183 -27q78 -29 78 -67q0 -20 -12.5 -29.5t-28.5 -9.5q-15 0 -44.5 13.5t-45.5 18.5q-63 19 -130 19q-150 0 -245.5 -102.5t-122.5 -270.5l-21 -139q-6 -38 -6 -74q0 -132 67 -205t199 -73 q84 0 140 16q25 7 59 22t47 15q14 0 24.5 -8.5t10.5 -22.5q0 -47 -102 -78q-86 -26 -179 -26q-170 0 -259 93t-89 259z" />
<glyph unicode="&#x442;" horiz-adv-x="770" d="M133 963q0 18 12.5 30.5t30.5 12.5h668q17 0 28 -11t11 -28q0 -18 -12.5 -30.5t-30.5 -12.5h-289l-174 -895q-8 -41 -41 -41q-18 0 -29.5 10.5t-11.5 30.5q0 12 6 39l166 856h-295q-17 0 -28 11t-11 28z" />
<glyph unicode="&#x443;" horiz-adv-x="868" d="M-104 -336q0 21 14.5 32t36.5 11q106 0 194.5 59.5t186.5 208.5q-118 595 -166 988q-3 24 9 38.5t32 14.5q36 0 41 -37q44 -350 147 -899l479 907q16 29 43 29q25 0 33.5 -21.5t-8.5 -52.5l-426 -807q-145 -275 -274 -392.5t-297 -117.5q-21 0 -33 10.5t-12 28.5z" />
<glyph unicode="&#x444;" horiz-adv-x="1189" d="M141 311q0 57 13 127l39 209q15 78 44.5 141t79 116t127.5 82.5t179 29.5q37 0 71 -6l41 209q3 19 15 30t28 11q18 0 29.5 -10.5t11.5 -28.5q0 -7 -4 -27l-35 -180l47 2q160 0 235 -90t75 -234q0 -57 -13 -127l-39 -209q-15 -78 -44.5 -140.5t-79 -115.5t-127.5 -82.5 t-179 -29.5q-39 0 -73 6l-64 -328q-8 -41 -41 -41q-18 0 -29.5 10.5t-11.5 30.5q0 12 6 39l56 285l-47 -2q-160 0 -235 89.5t-75 233.5zM223 311q0 -243 228 -243q43 0 61 2l166 860q-48 6 -55 6q-293 0 -349 -305l-41 -209q-10 -62 -10 -111zM596 74q27 -6 59 -6 q293 0 349 305l40 209q11 68 11 110q0 244 -228 244q-27 0 -63 -4z" />
<glyph unicode="&#x445;" horiz-adv-x="847" d="M9.5 9q-10.5 21 4.5 46q37 56 91 122.5t92.5 109t112.5 122t102 109.5q-151 279 -197 432q-7 26 6 46t35 20q30 0 39 -29q62 -197 178 -401q194 204 336 407q17 23 43 23q22 0 32 -19t-7 -47q-111 -160 -367 -432q5 -10 30 -53.5t33 -57.5t29.5 -53.5t31 -59.5t27.5 -56 t28 -61.5t22.5 -58t21.5 -63.5q9 -28 -3 -47.5t-38 -19.5q-27 0 -35 24q-25 75 -63.5 160t-65.5 137t-79 146q-238 -253 -365 -443q-16 -24 -43 -24q-21 0 -31.5 21z" />
<glyph unicode="&#x446;" horiz-adv-x="1038" d="M100 39q0 11 6 41l173 895q3 19 15 30t28 11q18 0 29 -10.5t11 -28.5q0 -7 -4 -27l-170 -870h560l172 895q3 19 15 30t28 11q18 0 29.5 -10.5t11.5 -28.5q0 -2 -5 -27l-170 -870h95h6q18 0 28.5 -10.5t10.5 -28.5q0 -7 -4 -27l-60 -307q-8 -41 -41 -41q-41 0 -41 39 q0 11 6 41l50 254h-734h-4q-41 0 -41 39z" />
<glyph unicode="&#x447;" horiz-adv-x="909" d="M186 672q3 46 15 106l39 197q3 19 15 30t28 11q18 0 29.5 -10.5t11.5 -28.5q0 -2 -5 -27l-36 -186q-13 -76 -13 -98q0 -207 215 -207q101 0 226 39l92 477q3 19 15 30t28 11q18 0 29.5 -10.5t11.5 -28.5q0 -7 -4 -27l-181 -921q-8 -41 -40 -41q-18 0 -29.5 10.5 t-11.5 30.5q0 12 6 39l69 356q-141 -37 -231 -37q-131 0 -208.5 73.5t-70.5 211.5z" />
<glyph unicode="&#x448;" horiz-adv-x="1599" d="M100 39q0 11 6 41l173 895q3 19 15 30t28 11q18 0 29 -10.5t11 -28.5q0 -7 -4 -27l-170 -870h527l172 895q3 19 15 30t28 11q18 0 29.5 -10.5t11.5 -28.5q0 -7 -4 -27l-170 -870h526l172 895q8 41 41 41q41 0 41 -39q0 -11 -6 -41l-174 -895q-3 -19 -15 -30t-28 -11 h-1213q-41 0 -41 39z" />
<glyph unicode="&#x449;" horiz-adv-x="1613" d="M100 39q0 11 6 41l173 895q3 19 15 30t28 11q18 0 29 -10.5t11 -28.5q0 -7 -4 -27l-170 -870h527l172 895q3 19 15 30t28 11q18 0 29.5 -10.5t11.5 -28.5q0 -7 -4 -27l-170 -870h526l172 895q3 19 15 30t28 11q18 0 29.5 -10.5t11.5 -28.5q0 -7 -4 -27l-170 -870h100 q18 0 28.5 -10.5t10.5 -28.5q0 -7 -4 -27l-59 -307q-8 -41 -41 -41q-41 0 -41 39q0 11 6 41l49 254h-1313q-41 0 -41 39z" />
<glyph unicode="&#x44a;" horiz-adv-x="1060" d="M129 961q0 18 12.5 30.5t30.5 12.5h297q18 0 29.5 -10.5t11.5 -28.5q0 -7 -4 -27l-74 -369h211q113 0 184 -26q69 -27 103.5 -83.5t34.5 -127.5q0 -26 -4 -51l-7 -41q-16 -102 -71 -154q-89 -86 -293 -86h-301q-18 0 -29.5 10.5t-11.5 30.5q0 12 6 39l164 842h-250 q-17 0 -28 11t-11 28zM336 74h260q134 0 201 43q63 42 75 123l7 36q4 18 4 50q0 168 -234 168h-231z" />
<glyph unicode="&#x44b;" horiz-adv-x="1216" d="M100 41q0 12 6 39l175 895q3 19 15 30t28 11q18 0 29.5 -10.5t11.5 -28.5q0 -2 -5 -27l-75 -381h211q113 0 184 -26q69 -27 103 -83t34 -128q0 -26 -4 -51l-6 -41q-16 -101 -72 -154q-89 -86 -293 -86h-301q-18 0 -29.5 10.5t-11.5 30.5zM188 74h261q133 0 200 43 q64 43 76 123l6 36q4 18 4 50q0 168 -233 168h-232zM928 29q0 12 6 39l176 907q3 19 15 30t28 11q18 0 29.5 -10.5t11.5 -28.5q0 -7 -4 -27l-180 -921q-8 -41 -41 -41q-18 0 -29.5 10.5t-11.5 30.5z" />
<glyph unicode="&#x44c;" horiz-adv-x="913" d="M100 41q0 12 6 39l175 895q3 19 15 30t28 11q18 0 29.5 -10.5t11.5 -28.5q0 -2 -5 -27l-75 -381h211q113 0 184 -26q69 -27 103 -83t34 -128q0 -26 -4 -51l-6 -41q-16 -101 -72 -154q-89 -86 -293 -86h-301q-18 0 -29.5 10.5t-11.5 30.5zM188 74h261q133 0 200 43 q64 43 76 123l6 36q4 18 4 50q0 168 -233 168h-232z" />
<glyph unicode="&#x44d;" horiz-adv-x="905" d="M82 90q0 17 12 27t27 10q18 0 48 -14t82.5 -28.5t123.5 -14.5q155 0 256 112q97 108 117 295h-377q-15 0 -26 11t-11 26q0 18 11.5 29.5t29.5 11.5h385q10 75 10 100q0 149 -82 219q-66 60 -184 60q-91 0 -182 -29q-22 -7 -44.5 -17.5t-36 -16t-24.5 -5.5 q-14 0 -24.5 9.5t-10.5 23.5q0 23 23.5 39.5t79.5 38.5q43 18 107 28.5t112 10.5q160 0 248 -82q100 -92 100 -270q0 -48 -6 -95l-23 -139q-29 -190 -133 -305q-124 -137 -315 -137q-127 0 -215 35q-78 29 -78 67z" />
<glyph unicode="&#x44e;" horiz-adv-x="1396" d="M100 29q0 12 6 39l177 907q3 19 15 30t28 11q18 0 29.5 -10.5t11.5 -28.5q0 -2 -5 -27l-75 -385h301l16 82q15 78 44.5 141t79 116t127.5 82.5t179 29.5q83 0 145 -26.5t96.5 -73.5t51 -103t16.5 -123q0 -50 -10 -108l-43 -222q-72 -372 -428 -372q-160 0 -234.5 89.5 t-74.5 233.5q0 63 12 127l10 56h-303l-90 -465q-8 -41 -41 -41q-18 0 -29.5 10.5t-11.5 30.5zM635 311q0 -243 227 -243q157 0 237 81t109 226l43 221q11 57 11 94q0 111 -55.5 178.5t-172.5 67.5q-289 0 -348 -305l-41 -209q-10 -62 -10 -111z" />
<glyph unicode="&#x44f;" horiz-adv-x="915" d="M70 23q0 19 26 55q168 221 285 360q-84 21 -127 83.5t-43 146.5q0 19 4 59l4 37q13 111 103 176.5t262 65.5h268q18 0 29.5 -10.5t11.5 -28.5q0 -7 -4 -27l-178 -911q-8 -41 -41 -41q-18 0 -29.5 10.5t-11.5 30.5q0 12 6 39l70 362h-230q-151 -176 -321 -412 q-21 -30 -52 -30q-14 0 -23 9t-9 26zM291 674q0 -33 9.5 -61t31 -53.5t63.5 -40.5t101 -15h223l82 422h-232q-136 0 -198.5 -45.5t-71.5 -116.5l-4 -33q-4 -36 -4 -57z" />
<glyph unicode="&#x451;" horiz-adv-x="952" d="M141 340q0 38 9 96l26 168q14 87 46 159t83.5 130t130.5 90.5t178 32.5q82 0 141.5 -25.5t93.5 -71.5t50 -102.5t16 -126.5q0 -67 -8 -119l-10 -57q-7 -37 -45 -37h-612l-9 -47q-8 -50 -8 -94q0 -121 63.5 -194.5t180.5 -73.5q111 0 201 32q15 5 31 12t25.5 11t16.5 4 q37 0 37 -41q0 -16 -17.5 -28.5t-62.5 -30.5q-103 -39 -231 -39q-110 0 -185 48t-108 125t-33 179zM252 555h569l4 29q9 56 9 106q0 250 -220 250q-155 0 -242.5 -94.5t-113.5 -255.5zM446 1360q0 28 19 46.5t47 18.5t47 -18.5t19 -46.5t-19 -46t-47 -18t-47 18t-19 46z M725 1360q0 28 19 46.5t47 18.5t46.5 -18.5t18.5 -46.5t-18.5 -46t-46.5 -18t-47 18t-19 46z" />
</font>
</defs>
</svg>
